%TF.GenerationSoftware,KiCad,Pcbnew,(6.0.7-1)-1*%
%TF.CreationDate,2022-10-26T11:28:27+01:00*%
%TF.ProjectId,panel,70616e65-6c2e-46b6-9963-61645f706362,rev?*%
%TF.SameCoordinates,Original*%
%TF.FileFunction,Paste,Top*%
%TF.FilePolarity,Positive*%
%FSLAX46Y46*%
G04 Gerber Fmt 4.6, Leading zero omitted, Abs format (unit mm)*
G04 Created by KiCad (PCBNEW (6.0.7-1)-1) date 2022-10-26 11:28:27*
%MOMM*%
%LPD*%
G01*
G04 APERTURE LIST*
G04 Aperture macros list*
%AMRoundRect*
0 Rectangle with rounded corners*
0 $1 Rounding radius*
0 $2 $3 $4 $5 $6 $7 $8 $9 X,Y pos of 4 corners*
0 Add a 4 corners polygon primitive as box body*
4,1,4,$2,$3,$4,$5,$6,$7,$8,$9,$2,$3,0*
0 Add four circle primitives for the rounded corners*
1,1,$1+$1,$2,$3*
1,1,$1+$1,$4,$5*
1,1,$1+$1,$6,$7*
1,1,$1+$1,$8,$9*
0 Add four rect primitives between the rounded corners*
20,1,$1+$1,$2,$3,$4,$5,0*
20,1,$1+$1,$4,$5,$6,$7,0*
20,1,$1+$1,$6,$7,$8,$9,0*
20,1,$1+$1,$8,$9,$2,$3,0*%
%AMRotRect*
0 Rectangle, with rotation*
0 The origin of the aperture is its center*
0 $1 length*
0 $2 width*
0 $3 Rotation angle, in degrees counterclockwise*
0 Add horizontal line*
21,1,$1,$2,0,0,$3*%
G04 Aperture macros list end*
%ADD10RoundRect,0.135000X-0.135000X-0.185000X0.135000X-0.185000X0.135000X0.185000X-0.135000X0.185000X0*%
%ADD11RoundRect,0.140000X0.140000X0.170000X-0.140000X0.170000X-0.140000X-0.170000X0.140000X-0.170000X0*%
%ADD12RoundRect,0.135000X0.135000X0.185000X-0.135000X0.185000X-0.135000X-0.185000X0.135000X-0.185000X0*%
%ADD13RoundRect,0.140000X0.170000X-0.140000X0.170000X0.140000X-0.170000X0.140000X-0.170000X-0.140000X0*%
%ADD14RoundRect,0.225000X-0.250000X0.225000X-0.250000X-0.225000X0.250000X-0.225000X0.250000X0.225000X0*%
%ADD15R,0.600000X0.450000*%
%ADD16RoundRect,0.140000X-0.140000X-0.170000X0.140000X-0.170000X0.140000X0.170000X-0.140000X0.170000X0*%
%ADD17RotRect,0.711200X1.092200X115.000000*%
%ADD18RotRect,1.397000X1.092200X115.000000*%
%ADD19RoundRect,0.218750X-0.218750X-0.256250X0.218750X-0.256250X0.218750X0.256250X-0.218750X0.256250X0*%
%ADD20RoundRect,0.150000X-0.150000X0.825000X-0.150000X-0.825000X0.150000X-0.825000X0.150000X0.825000X0*%
%ADD21R,0.700000X0.340000*%
%ADD22R,1.500000X0.600000*%
%ADD23RotRect,0.711200X1.092200X295.000000*%
%ADD24RotRect,1.397000X1.092200X295.000000*%
%ADD25RoundRect,0.150000X-0.512500X-0.150000X0.512500X-0.150000X0.512500X0.150000X-0.512500X0.150000X0*%
%ADD26R,1.300000X3.400000*%
%ADD27RoundRect,0.225000X0.250000X-0.225000X0.250000X0.225000X-0.250000X0.225000X-0.250000X-0.225000X0*%
%ADD28R,1.143000X0.584200*%
%ADD29R,1.143000X0.304800*%
%ADD30RoundRect,0.135000X0.185000X-0.135000X0.185000X0.135000X-0.185000X0.135000X-0.185000X-0.135000X0*%
%ADD31R,0.558800X1.244600*%
%ADD32R,0.340000X0.700000*%
%ADD33RoundRect,0.135000X-0.185000X0.135000X-0.185000X-0.135000X0.185000X-0.135000X0.185000X0.135000X0*%
%ADD34R,1.800000X1.000000*%
%ADD35RoundRect,0.250000X-0.450000X0.262500X-0.450000X-0.262500X0.450000X-0.262500X0.450000X0.262500X0*%
%ADD36RoundRect,0.250000X-0.270000X0.270000X-0.270000X-0.270000X0.270000X-0.270000X0.270000X0.270000X0*%
%ADD37RoundRect,0.062500X-0.062500X0.375000X-0.062500X-0.375000X0.062500X-0.375000X0.062500X0.375000X0*%
%ADD38RoundRect,0.062500X-0.375000X0.062500X-0.375000X-0.062500X0.375000X-0.062500X0.375000X0.062500X0*%
%ADD39RoundRect,0.250000X0.275000X0.275000X-0.275000X0.275000X-0.275000X-0.275000X0.275000X-0.275000X0*%
%ADD40RoundRect,0.062500X0.350000X0.062500X-0.350000X0.062500X-0.350000X-0.062500X0.350000X-0.062500X0*%
%ADD41RoundRect,0.062500X0.062500X0.350000X-0.062500X0.350000X-0.062500X-0.350000X0.062500X-0.350000X0*%
%ADD42R,1.000000X0.700000*%
%ADD43R,0.600000X0.700000*%
%ADD44RoundRect,0.137500X-0.262500X-0.137500X0.262500X-0.137500X0.262500X0.137500X-0.262500X0.137500X0*%
%ADD45C,1.500000*%
%ADD46RotRect,0.711200X1.092200X245.000000*%
%ADD47RotRect,1.397000X1.092200X245.000000*%
G04 APERTURE END LIST*
D10*
%TO.C,R3*%
X76919778Y-55472773D03*
X77939778Y-55472773D03*
%TD*%
D11*
%TO.C,C10*%
X43319777Y-57996773D03*
X42359777Y-57996773D03*
%TD*%
D12*
%TO.C,R18*%
X94610778Y-38337773D03*
X93590778Y-38337773D03*
%TD*%
D13*
%TO.C,C5*%
X94598262Y-86881283D03*
X94598262Y-85921283D03*
%TD*%
%TO.C,C2*%
X33419777Y-45896773D03*
X33419777Y-44936773D03*
%TD*%
%TO.C,C15*%
X86219778Y-74860332D03*
X86219778Y-73900332D03*
%TD*%
D10*
%TO.C,R27*%
X35289777Y-71740332D03*
X36309777Y-71740332D03*
%TD*%
%TO.C,R16*%
X72779778Y-52576773D03*
X73799778Y-52576773D03*
%TD*%
D13*
%TO.C,C15*%
X86219778Y-34606773D03*
X86219778Y-33646773D03*
%TD*%
D10*
%TO.C,R15*%
X81479778Y-97320332D03*
X82499778Y-97320332D03*
%TD*%
D14*
%TO.C,C18*%
X84189778Y-70605332D03*
X84189778Y-72155332D03*
%TD*%
D10*
%TO.C,R2*%
X53541261Y-47025724D03*
X54561261Y-47025724D03*
%TD*%
D15*
%TO.C,D3*%
X95639778Y-43116773D03*
X97739778Y-43116773D03*
%TD*%
D16*
%TO.C,C9*%
X53571261Y-49057724D03*
X54531261Y-49057724D03*
%TD*%
D11*
%TO.C,C10*%
X85319778Y-98250332D03*
X84359778Y-98250332D03*
%TD*%
%TO.C,C1*%
X73685778Y-50408773D03*
X72725778Y-50408773D03*
%TD*%
D14*
%TO.C,C18*%
X84189778Y-30351773D03*
X84189778Y-31901773D03*
%TD*%
%TO.C,C13*%
X79879778Y-74405332D03*
X79879778Y-75955332D03*
%TD*%
D13*
%TO.C,C7*%
X74605778Y-78950332D03*
X74605778Y-77990332D03*
%TD*%
D17*
%TO.C,SW5*%
X29650343Y-54421150D03*
X28466864Y-51883171D03*
D18*
X29196725Y-53087754D03*
%TD*%
D16*
%TO.C,C8*%
X95571262Y-88295283D03*
X96531262Y-88295283D03*
%TD*%
D19*
%TO.C,L1*%
X44122277Y-70600332D03*
X45697277Y-70600332D03*
%TD*%
D20*
%TO.C,IC1*%
X73257778Y-75842332D03*
X71987778Y-75842332D03*
X70717778Y-75842332D03*
X69447778Y-75842332D03*
X69447778Y-80792332D03*
X70717778Y-80792332D03*
X71987778Y-80792332D03*
X73257778Y-80792332D03*
%TD*%
D16*
%TO.C,C8*%
X53571261Y-88295283D03*
X54531261Y-88295283D03*
%TD*%
D10*
%TO.C,R19*%
X93590778Y-81721332D03*
X94610778Y-81721332D03*
%TD*%
%TO.C,R9*%
X51589777Y-79654332D03*
X52609777Y-79654332D03*
%TD*%
%TO.C,R3*%
X34919777Y-95726332D03*
X35939777Y-95726332D03*
%TD*%
%TO.C,R20*%
X88759778Y-100610332D03*
X89779778Y-100610332D03*
%TD*%
D21*
%TO.C,Q1*%
X52969777Y-56266773D03*
X52969777Y-56766773D03*
X52969777Y-57266773D03*
X54469777Y-57266773D03*
X54469777Y-56766773D03*
X54469777Y-56266773D03*
%TD*%
D10*
%TO.C,R16*%
X72779778Y-92830332D03*
X73799778Y-92830332D03*
%TD*%
D22*
%TO.C,E1*%
X42209777Y-27946773D03*
X45709777Y-27946773D03*
X45709777Y-26346773D03*
X42209777Y-26346773D03*
%TD*%
D13*
%TO.C,C17*%
X92829778Y-75060332D03*
X92829778Y-74100332D03*
%TD*%
D23*
%TO.C,SW3*%
X58269211Y-76845955D03*
X59452690Y-79383934D03*
D24*
X58722829Y-78179351D03*
%TD*%
D12*
%TO.C,R24*%
X86589778Y-99300332D03*
X85569778Y-99300332D03*
%TD*%
%TO.C,R11*%
X96229778Y-55026773D03*
X95209778Y-55026773D03*
%TD*%
D16*
%TO.C,C8*%
X95571262Y-48041724D03*
X96531262Y-48041724D03*
%TD*%
D25*
%TO.C,U1*%
X28928277Y-87426332D03*
X28928277Y-88376332D03*
X28928277Y-89326332D03*
X31203277Y-89326332D03*
X31203277Y-87426332D03*
%TD*%
D26*
%TO.C,BZ1*%
X79519778Y-51136773D03*
X88219778Y-51136773D03*
%TD*%
D27*
%TO.C,C14*%
X37899777Y-80065332D03*
X37899777Y-78515332D03*
%TD*%
D10*
%TO.C,R27*%
X35289777Y-31486773D03*
X36309777Y-31486773D03*
%TD*%
D12*
%TO.C,R11*%
X54229777Y-55026773D03*
X53209777Y-55026773D03*
%TD*%
D13*
%TO.C,C2*%
X33419777Y-86150332D03*
X33419777Y-85190332D03*
%TD*%
D16*
%TO.C,C9*%
X53571261Y-89311283D03*
X54531261Y-89311283D03*
%TD*%
D28*
%TO.C,J1*%
X99304778Y-48706773D03*
X99304778Y-47906774D03*
D29*
X99304778Y-46756773D03*
X99304778Y-45756773D03*
X99304778Y-45256773D03*
X99304778Y-44256773D03*
D28*
X99304778Y-42306773D03*
X99304778Y-43106772D03*
D29*
X99304778Y-43756774D03*
X99304778Y-44756772D03*
X99304778Y-46256774D03*
X99304778Y-47256772D03*
%TD*%
D12*
%TO.C,R26*%
X78309778Y-73000332D03*
X77289778Y-73000332D03*
%TD*%
D30*
%TO.C,R4*%
X49367261Y-46633724D03*
X49367261Y-45613724D03*
%TD*%
D15*
%TO.C,D3*%
X53639777Y-83370332D03*
X55739777Y-83370332D03*
%TD*%
D10*
%TO.C,R20*%
X88759778Y-60356773D03*
X89779778Y-60356773D03*
%TD*%
D31*
%TO.C,SW1*%
X44684375Y-102854332D03*
X48235179Y-102854332D03*
%TD*%
D21*
%TO.C,Q1*%
X94969778Y-96520332D03*
X94969778Y-97020332D03*
X94969778Y-97520332D03*
X96469778Y-97520332D03*
X96469778Y-97020332D03*
X96469778Y-96520332D03*
%TD*%
D30*
%TO.C,R5*%
X50454261Y-86887283D03*
X50454261Y-85867283D03*
%TD*%
D13*
%TO.C,C3*%
X34469777Y-45896773D03*
X34469777Y-44936773D03*
%TD*%
D32*
%TO.C,Q2*%
X35739777Y-91990332D03*
X35239777Y-91990332D03*
X34739777Y-91990332D03*
X34739777Y-93490332D03*
X35239777Y-93490332D03*
X35739777Y-93490332D03*
%TD*%
D23*
%TO.C,SW3*%
X100269212Y-36592396D03*
X101452691Y-39130375D03*
D24*
X100722830Y-37925792D03*
%TD*%
D10*
%TO.C,R16*%
X30779777Y-52576773D03*
X31799777Y-52576773D03*
%TD*%
D12*
%TO.C,R26*%
X36309777Y-32746773D03*
X35289777Y-32746773D03*
%TD*%
D33*
%TO.C,R10*%
X51789777Y-56296773D03*
X51789777Y-57316773D03*
%TD*%
D12*
%TO.C,R17*%
X89789778Y-59256773D03*
X88769778Y-59256773D03*
%TD*%
D30*
%TO.C,R5*%
X92454262Y-46633724D03*
X92454262Y-45613724D03*
%TD*%
D10*
%TO.C,R9*%
X51589777Y-39400773D03*
X52609777Y-39400773D03*
%TD*%
D16*
%TO.C,C12*%
X95239778Y-98710332D03*
X96199778Y-98710332D03*
%TD*%
D34*
%TO.C,Y1*%
X39835777Y-35742773D03*
X39835777Y-38242773D03*
%TD*%
D33*
%TO.C,R22*%
X27009777Y-85830332D03*
X27009777Y-86850332D03*
%TD*%
D30*
%TO.C,R4*%
X91367262Y-46633724D03*
X91367262Y-45613724D03*
%TD*%
D35*
%TO.C,R12*%
X78009778Y-43744273D03*
X78009778Y-45569273D03*
%TD*%
D12*
%TO.C,R24*%
X44589777Y-59046773D03*
X43569777Y-59046773D03*
%TD*%
D30*
%TO.C,R1*%
X32359777Y-86180332D03*
X32359777Y-85160332D03*
%TD*%
%TO.C,R13*%
X85179778Y-74880332D03*
X85179778Y-73860332D03*
%TD*%
D16*
%TO.C,C11*%
X53239777Y-99810332D03*
X54199777Y-99810332D03*
%TD*%
D33*
%TO.C,R10*%
X51789777Y-96550332D03*
X51789777Y-97570332D03*
%TD*%
D13*
%TO.C,C16*%
X91799778Y-34826773D03*
X91799778Y-33866773D03*
%TD*%
%TO.C,C15*%
X44219777Y-74860332D03*
X44219777Y-73900332D03*
%TD*%
D33*
%TO.C,R10*%
X93789778Y-56296773D03*
X93789778Y-57316773D03*
%TD*%
D26*
%TO.C,BZ1*%
X37519777Y-51136773D03*
X46219777Y-51136773D03*
%TD*%
D23*
%TO.C,SW3*%
X58269211Y-36592396D03*
X59452690Y-39130375D03*
D24*
X58722829Y-37925792D03*
%TD*%
D26*
%TO.C,BZ1*%
X37519777Y-91390332D03*
X46219777Y-91390332D03*
%TD*%
D22*
%TO.C,E1*%
X84209778Y-68200332D03*
X87709778Y-68200332D03*
X87709778Y-66600332D03*
X84209778Y-66600332D03*
%TD*%
D20*
%TO.C,IC1*%
X31257777Y-35588773D03*
X29987777Y-35588773D03*
X28717777Y-35588773D03*
X27447777Y-35588773D03*
X27447777Y-40538773D03*
X28717777Y-40538773D03*
X29987777Y-40538773D03*
X31257777Y-40538773D03*
%TD*%
D27*
%TO.C,C14*%
X37899777Y-39811773D03*
X37899777Y-38261773D03*
%TD*%
D10*
%TO.C,R8*%
X93589778Y-80700332D03*
X94609778Y-80700332D03*
%TD*%
D36*
%TO.C,U3*%
X88775778Y-79076332D03*
X87485778Y-79076332D03*
X87485778Y-80366332D03*
X87485778Y-77786332D03*
X86195778Y-81656332D03*
X86195778Y-80366332D03*
X88775778Y-80366332D03*
X88775778Y-81656332D03*
X90065778Y-77786332D03*
X86195778Y-79076332D03*
X87485778Y-81656332D03*
X86195778Y-77786332D03*
X90065778Y-81656332D03*
X90065778Y-80366332D03*
X90065778Y-79076332D03*
X88775778Y-77786332D03*
D37*
X90880778Y-76283832D03*
X90380778Y-76283832D03*
X89880778Y-76283832D03*
X89380778Y-76283832D03*
X88880778Y-76283832D03*
X88380778Y-76283832D03*
X87880778Y-76283832D03*
X87380778Y-76283832D03*
X86880778Y-76283832D03*
X86380778Y-76283832D03*
X85880778Y-76283832D03*
X85380778Y-76283832D03*
D38*
X84693278Y-76971332D03*
X84693278Y-77471332D03*
X84693278Y-77971332D03*
X84693278Y-78471332D03*
X84693278Y-78971332D03*
X84693278Y-79471332D03*
X84693278Y-79971332D03*
X84693278Y-80471332D03*
X84693278Y-80971332D03*
X84693278Y-81471332D03*
X84693278Y-81971332D03*
X84693278Y-82471332D03*
D37*
X85380778Y-83158832D03*
X85880778Y-83158832D03*
X86380778Y-83158832D03*
X86880778Y-83158832D03*
X87380778Y-83158832D03*
X87880778Y-83158832D03*
X88380778Y-83158832D03*
X88880778Y-83158832D03*
X89380778Y-83158832D03*
X89880778Y-83158832D03*
X90380778Y-83158832D03*
X90880778Y-83158832D03*
D38*
X91568278Y-82471332D03*
X91568278Y-81971332D03*
X91568278Y-81471332D03*
X91568278Y-80971332D03*
X91568278Y-80471332D03*
X91568278Y-79971332D03*
X91568278Y-79471332D03*
X91568278Y-78971332D03*
X91568278Y-78471332D03*
X91568278Y-77971332D03*
X91568278Y-77471332D03*
X91568278Y-76971332D03*
%TD*%
D39*
%TO.C,U2*%
X49789261Y-89509283D03*
X51089261Y-90809283D03*
X51089261Y-89509283D03*
X49789261Y-90809283D03*
D40*
X52376761Y-91409283D03*
X52376761Y-90909283D03*
X52376761Y-90409283D03*
X52376761Y-89909283D03*
X52376761Y-89409283D03*
X52376761Y-88909283D03*
D41*
X51689261Y-88221783D03*
X51189261Y-88221783D03*
X50689261Y-88221783D03*
X50189261Y-88221783D03*
X49689261Y-88221783D03*
X49189261Y-88221783D03*
D40*
X48501761Y-88909283D03*
X48501761Y-89409283D03*
X48501761Y-89909283D03*
X48501761Y-90409283D03*
X48501761Y-90909283D03*
X48501761Y-91409283D03*
D41*
X49189261Y-92096783D03*
X49689261Y-92096783D03*
X50189261Y-92096783D03*
X50689261Y-92096783D03*
X51189261Y-92096783D03*
X51689261Y-92096783D03*
%TD*%
D28*
%TO.C,J1*%
X57304777Y-88960332D03*
X57304777Y-88160333D03*
D29*
X57304777Y-87010332D03*
X57304777Y-86010332D03*
X57304777Y-85510332D03*
X57304777Y-84510332D03*
D28*
X57304777Y-82560332D03*
X57304777Y-83360331D03*
D29*
X57304777Y-84010333D03*
X57304777Y-85010331D03*
X57304777Y-86510333D03*
X57304777Y-87510331D03*
%TD*%
D10*
%TO.C,R2*%
X95541262Y-47025724D03*
X96561262Y-47025724D03*
%TD*%
D42*
%TO.C,D1*%
X96629778Y-53426773D03*
D43*
X98329778Y-53426773D03*
X98329778Y-51426773D03*
X96429778Y-51426773D03*
%TD*%
D10*
%TO.C,R8*%
X51589777Y-80700332D03*
X52609777Y-80700332D03*
%TD*%
D13*
%TO.C,C6*%
X93461262Y-46597724D03*
X93461262Y-45637724D03*
%TD*%
%TO.C,C6*%
X51461261Y-86851283D03*
X51461261Y-85891283D03*
%TD*%
D14*
%TO.C,C19*%
X89539778Y-70583332D03*
X89539778Y-72133332D03*
%TD*%
D44*
%TO.C,U4*%
X75183778Y-47172773D03*
X75183778Y-48122773D03*
X75183778Y-49072773D03*
X77583778Y-49072773D03*
X77583778Y-47172773D03*
%TD*%
D19*
%TO.C,L1*%
X44122277Y-30346773D03*
X45697277Y-30346773D03*
%TD*%
D21*
%TO.C,Q3*%
X42429777Y-60656773D03*
X42429777Y-60156773D03*
X42429777Y-59656773D03*
X40929777Y-59656773D03*
X40929777Y-60156773D03*
X40929777Y-60656773D03*
%TD*%
D13*
%TO.C,C16*%
X49799777Y-34826773D03*
X49799777Y-33866773D03*
%TD*%
D12*
%TO.C,R17*%
X47789777Y-99510332D03*
X46769777Y-99510332D03*
%TD*%
D15*
%TO.C,D2*%
X75509778Y-94390332D03*
X73409778Y-94390332D03*
%TD*%
D33*
%TO.C,R6*%
X48221261Y-85867283D03*
X48221261Y-86887283D03*
%TD*%
D13*
%TO.C,C17*%
X92829778Y-34806773D03*
X92829778Y-33846773D03*
%TD*%
D33*
%TO.C,R6*%
X90221262Y-85867283D03*
X90221262Y-86887283D03*
%TD*%
D11*
%TO.C,C4*%
X29405777Y-50366773D03*
X28445777Y-50366773D03*
%TD*%
D36*
%TO.C,U3*%
X45485777Y-37532773D03*
X48065777Y-40112773D03*
X46775777Y-37532773D03*
X45485777Y-41402773D03*
X44195777Y-37532773D03*
X44195777Y-41402773D03*
X44195777Y-40112773D03*
X45485777Y-38822773D03*
X48065777Y-41402773D03*
X46775777Y-41402773D03*
X46775777Y-40112773D03*
X45485777Y-40112773D03*
X46775777Y-38822773D03*
X48065777Y-37532773D03*
X48065777Y-38822773D03*
X44195777Y-38822773D03*
D37*
X48880777Y-36030273D03*
X48380777Y-36030273D03*
X47880777Y-36030273D03*
X47380777Y-36030273D03*
X46880777Y-36030273D03*
X46380777Y-36030273D03*
X45880777Y-36030273D03*
X45380777Y-36030273D03*
X44880777Y-36030273D03*
X44380777Y-36030273D03*
X43880777Y-36030273D03*
X43380777Y-36030273D03*
D38*
X42693277Y-36717773D03*
X42693277Y-37217773D03*
X42693277Y-37717773D03*
X42693277Y-38217773D03*
X42693277Y-38717773D03*
X42693277Y-39217773D03*
X42693277Y-39717773D03*
X42693277Y-40217773D03*
X42693277Y-40717773D03*
X42693277Y-41217773D03*
X42693277Y-41717773D03*
X42693277Y-42217773D03*
D37*
X43380777Y-42905273D03*
X43880777Y-42905273D03*
X44380777Y-42905273D03*
X44880777Y-42905273D03*
X45380777Y-42905273D03*
X45880777Y-42905273D03*
X46380777Y-42905273D03*
X46880777Y-42905273D03*
X47380777Y-42905273D03*
X47880777Y-42905273D03*
X48380777Y-42905273D03*
X48880777Y-42905273D03*
D38*
X49568277Y-42217773D03*
X49568277Y-41717773D03*
X49568277Y-41217773D03*
X49568277Y-40717773D03*
X49568277Y-40217773D03*
X49568277Y-39717773D03*
X49568277Y-39217773D03*
X49568277Y-38717773D03*
X49568277Y-38217773D03*
X49568277Y-37717773D03*
X49568277Y-37217773D03*
X49568277Y-36717773D03*
%TD*%
D45*
%TO.C,REF\u002A\u002A*%
X112500000Y-112500000D03*
%TD*%
D36*
%TO.C,U3*%
X87485778Y-41402773D03*
X88775778Y-37532773D03*
X88775778Y-40112773D03*
X86195778Y-40112773D03*
X88775778Y-41402773D03*
X88775778Y-38822773D03*
X90065778Y-40112773D03*
X86195778Y-41402773D03*
X87485778Y-37532773D03*
X86195778Y-38822773D03*
X87485778Y-40112773D03*
X86195778Y-37532773D03*
X90065778Y-37532773D03*
X87485778Y-38822773D03*
X90065778Y-41402773D03*
X90065778Y-38822773D03*
D37*
X90880778Y-36030273D03*
X90380778Y-36030273D03*
X89880778Y-36030273D03*
X89380778Y-36030273D03*
X88880778Y-36030273D03*
X88380778Y-36030273D03*
X87880778Y-36030273D03*
X87380778Y-36030273D03*
X86880778Y-36030273D03*
X86380778Y-36030273D03*
X85880778Y-36030273D03*
X85380778Y-36030273D03*
D38*
X84693278Y-36717773D03*
X84693278Y-37217773D03*
X84693278Y-37717773D03*
X84693278Y-38217773D03*
X84693278Y-38717773D03*
X84693278Y-39217773D03*
X84693278Y-39717773D03*
X84693278Y-40217773D03*
X84693278Y-40717773D03*
X84693278Y-41217773D03*
X84693278Y-41717773D03*
X84693278Y-42217773D03*
D37*
X85380778Y-42905273D03*
X85880778Y-42905273D03*
X86380778Y-42905273D03*
X86880778Y-42905273D03*
X87380778Y-42905273D03*
X87880778Y-42905273D03*
X88380778Y-42905273D03*
X88880778Y-42905273D03*
X89380778Y-42905273D03*
X89880778Y-42905273D03*
X90380778Y-42905273D03*
X90880778Y-42905273D03*
D38*
X91568278Y-42217773D03*
X91568278Y-41717773D03*
X91568278Y-41217773D03*
X91568278Y-40717773D03*
X91568278Y-40217773D03*
X91568278Y-39717773D03*
X91568278Y-39217773D03*
X91568278Y-38717773D03*
X91568278Y-38217773D03*
X91568278Y-37717773D03*
X91568278Y-37217773D03*
X91568278Y-36717773D03*
%TD*%
D31*
%TO.C,SW2*%
X39934375Y-102840332D03*
X43485179Y-102840332D03*
%TD*%
D10*
%TO.C,R27*%
X77289778Y-31486773D03*
X78309778Y-31486773D03*
%TD*%
D30*
%TO.C,R1*%
X32359777Y-45926773D03*
X32359777Y-44906773D03*
%TD*%
D13*
%TO.C,C7*%
X74605778Y-38696773D03*
X74605778Y-37736773D03*
%TD*%
D16*
%TO.C,C12*%
X95239778Y-58456773D03*
X96199778Y-58456773D03*
%TD*%
D15*
%TO.C,D2*%
X33509777Y-54136773D03*
X31409777Y-54136773D03*
%TD*%
%TO.C,D3*%
X53639777Y-43116773D03*
X55739777Y-43116773D03*
%TD*%
D13*
%TO.C,C2*%
X75419778Y-45896773D03*
X75419778Y-44936773D03*
%TD*%
D12*
%TO.C,R7*%
X96561262Y-46009724D03*
X95541262Y-46009724D03*
%TD*%
D10*
%TO.C,R19*%
X51590777Y-81721332D03*
X52610777Y-81721332D03*
%TD*%
%TO.C,R9*%
X93589778Y-39400773D03*
X94609778Y-39400773D03*
%TD*%
D33*
%TO.C,R22*%
X69009778Y-85830332D03*
X69009778Y-86850332D03*
%TD*%
D10*
%TO.C,R15*%
X81479778Y-57066773D03*
X82499778Y-57066773D03*
%TD*%
D46*
%TO.C,SW4*%
X101452691Y-92136730D03*
X100269212Y-94674709D03*
D47*
X100722830Y-93341313D03*
%TD*%
D10*
%TO.C,R15*%
X39479777Y-57066773D03*
X40499777Y-57066773D03*
%TD*%
D14*
%TO.C,C13*%
X37879777Y-34151773D03*
X37879777Y-35701773D03*
%TD*%
D45*
%TO.C,REF\u002A\u002A*%
X17500000Y-17500000D03*
%TD*%
D13*
%TO.C,C16*%
X91799778Y-75080332D03*
X91799778Y-74120332D03*
%TD*%
D15*
%TO.C,D2*%
X75509778Y-54136773D03*
X73409778Y-54136773D03*
%TD*%
D34*
%TO.C,Y1*%
X39835777Y-75996332D03*
X39835777Y-78496332D03*
%TD*%
D30*
%TO.C,R21*%
X27009777Y-48676773D03*
X27009777Y-47656773D03*
%TD*%
D13*
%TO.C,C7*%
X32605777Y-78950332D03*
X32605777Y-77990332D03*
%TD*%
D25*
%TO.C,U1*%
X70928278Y-47172773D03*
X70928278Y-48122773D03*
X70928278Y-49072773D03*
X73203278Y-49072773D03*
X73203278Y-47172773D03*
%TD*%
D13*
%TO.C,C2*%
X75419778Y-86150332D03*
X75419778Y-85190332D03*
%TD*%
D15*
%TO.C,D3*%
X95639778Y-83370332D03*
X97739778Y-83370332D03*
%TD*%
D14*
%TO.C,C19*%
X47539777Y-70583332D03*
X47539777Y-72133332D03*
%TD*%
D30*
%TO.C,R21*%
X69009778Y-88930332D03*
X69009778Y-87910332D03*
%TD*%
D10*
%TO.C,R16*%
X30779777Y-92830332D03*
X31799777Y-92830332D03*
%TD*%
D16*
%TO.C,C12*%
X53239777Y-98710332D03*
X54199777Y-98710332D03*
%TD*%
D44*
%TO.C,U4*%
X33183777Y-47172773D03*
X33183777Y-48122773D03*
X33183777Y-49072773D03*
X35583777Y-49072773D03*
X35583777Y-47172773D03*
%TD*%
D16*
%TO.C,C8*%
X53571261Y-48041724D03*
X54531261Y-48041724D03*
%TD*%
D39*
%TO.C,U2*%
X93089262Y-89509283D03*
X91789262Y-90809283D03*
X91789262Y-89509283D03*
X93089262Y-90809283D03*
D40*
X94376762Y-91409283D03*
X94376762Y-90909283D03*
X94376762Y-90409283D03*
X94376762Y-89909283D03*
X94376762Y-89409283D03*
X94376762Y-88909283D03*
D41*
X93689262Y-88221783D03*
X93189262Y-88221783D03*
X92689262Y-88221783D03*
X92189262Y-88221783D03*
X91689262Y-88221783D03*
X91189262Y-88221783D03*
D40*
X90501762Y-88909283D03*
X90501762Y-89409283D03*
X90501762Y-89909283D03*
X90501762Y-90409283D03*
X90501762Y-90909283D03*
X90501762Y-91409283D03*
D41*
X91189262Y-92096783D03*
X91689262Y-92096783D03*
X92189262Y-92096783D03*
X92689262Y-92096783D03*
X93189262Y-92096783D03*
X93689262Y-92096783D03*
%TD*%
D33*
%TO.C,R10*%
X93789778Y-96550332D03*
X93789778Y-97570332D03*
%TD*%
D36*
%TO.C,U3*%
X44195777Y-79076332D03*
X45485777Y-79076332D03*
X44195777Y-80366332D03*
X48065777Y-79076332D03*
X48065777Y-81656332D03*
X45485777Y-80366332D03*
X46775777Y-81656332D03*
X45485777Y-81656332D03*
X44195777Y-81656332D03*
X44195777Y-77786332D03*
X45485777Y-77786332D03*
X46775777Y-79076332D03*
X46775777Y-77786332D03*
X46775777Y-80366332D03*
X48065777Y-77786332D03*
X48065777Y-80366332D03*
D37*
X48880777Y-76283832D03*
X48380777Y-76283832D03*
X47880777Y-76283832D03*
X47380777Y-76283832D03*
X46880777Y-76283832D03*
X46380777Y-76283832D03*
X45880777Y-76283832D03*
X45380777Y-76283832D03*
X44880777Y-76283832D03*
X44380777Y-76283832D03*
X43880777Y-76283832D03*
X43380777Y-76283832D03*
D38*
X42693277Y-76971332D03*
X42693277Y-77471332D03*
X42693277Y-77971332D03*
X42693277Y-78471332D03*
X42693277Y-78971332D03*
X42693277Y-79471332D03*
X42693277Y-79971332D03*
X42693277Y-80471332D03*
X42693277Y-80971332D03*
X42693277Y-81471332D03*
X42693277Y-81971332D03*
X42693277Y-82471332D03*
D37*
X43380777Y-83158832D03*
X43880777Y-83158832D03*
X44380777Y-83158832D03*
X44880777Y-83158832D03*
X45380777Y-83158832D03*
X45880777Y-83158832D03*
X46380777Y-83158832D03*
X46880777Y-83158832D03*
X47380777Y-83158832D03*
X47880777Y-83158832D03*
X48380777Y-83158832D03*
X48880777Y-83158832D03*
D38*
X49568277Y-82471332D03*
X49568277Y-81971332D03*
X49568277Y-81471332D03*
X49568277Y-80971332D03*
X49568277Y-80471332D03*
X49568277Y-79971332D03*
X49568277Y-79471332D03*
X49568277Y-78971332D03*
X49568277Y-78471332D03*
X49568277Y-77971332D03*
X49568277Y-77471332D03*
X49568277Y-76971332D03*
%TD*%
D13*
%TO.C,C5*%
X52598261Y-86881283D03*
X52598261Y-85921283D03*
%TD*%
D17*
%TO.C,SW5*%
X71650344Y-54421150D03*
X70466865Y-51883171D03*
D18*
X71196726Y-53087754D03*
%TD*%
D34*
%TO.C,Y1*%
X81835778Y-35742773D03*
X81835778Y-38242773D03*
%TD*%
D12*
%TO.C,R7*%
X54561261Y-86263283D03*
X53541261Y-86263283D03*
%TD*%
D22*
%TO.C,E1*%
X84209778Y-27946773D03*
X87709778Y-27946773D03*
X87709778Y-26346773D03*
X84209778Y-26346773D03*
%TD*%
D13*
%TO.C,C5*%
X52598261Y-46627724D03*
X52598261Y-45667724D03*
%TD*%
D31*
%TO.C,SW1*%
X86684376Y-62600773D03*
X90235180Y-62600773D03*
%TD*%
D14*
%TO.C,C19*%
X89539778Y-30329773D03*
X89539778Y-31879773D03*
%TD*%
D35*
%TO.C,R12*%
X78009778Y-83997832D03*
X78009778Y-85822832D03*
%TD*%
D33*
%TO.C,R22*%
X27009777Y-45576773D03*
X27009777Y-46596773D03*
%TD*%
D12*
%TO.C,R7*%
X54561261Y-46009724D03*
X53541261Y-46009724D03*
%TD*%
%TO.C,R23*%
X35939777Y-94710332D03*
X34919777Y-94710332D03*
%TD*%
D20*
%TO.C,IC1*%
X31257777Y-75842332D03*
X29987777Y-75842332D03*
X28717777Y-75842332D03*
X27447777Y-75842332D03*
X27447777Y-80792332D03*
X28717777Y-80792332D03*
X29987777Y-80792332D03*
X31257777Y-80792332D03*
%TD*%
D14*
%TO.C,C18*%
X42189777Y-30351773D03*
X42189777Y-31901773D03*
%TD*%
D10*
%TO.C,R19*%
X93590778Y-41467773D03*
X94610778Y-41467773D03*
%TD*%
D22*
%TO.C,E1*%
X42209777Y-68200332D03*
X45709777Y-68200332D03*
X45709777Y-66600332D03*
X42209777Y-66600332D03*
%TD*%
D13*
%TO.C,C6*%
X93461262Y-86851283D03*
X93461262Y-85891283D03*
%TD*%
D10*
%TO.C,R3*%
X76919778Y-95726332D03*
X77939778Y-95726332D03*
%TD*%
D13*
%TO.C,C7*%
X32605777Y-38696773D03*
X32605777Y-37736773D03*
%TD*%
D33*
%TO.C,R6*%
X48221261Y-45613724D03*
X48221261Y-46633724D03*
%TD*%
D12*
%TO.C,R17*%
X89789778Y-99510332D03*
X88769778Y-99510332D03*
%TD*%
D30*
%TO.C,R21*%
X69009778Y-48676773D03*
X69009778Y-47656773D03*
%TD*%
D13*
%TO.C,C17*%
X50829777Y-34806773D03*
X50829777Y-33846773D03*
%TD*%
D12*
%TO.C,R17*%
X47789777Y-59256773D03*
X46769777Y-59256773D03*
%TD*%
D31*
%TO.C,SW1*%
X44684375Y-62600773D03*
X48235179Y-62600773D03*
%TD*%
D35*
%TO.C,R12*%
X36009777Y-43744273D03*
X36009777Y-45569273D03*
%TD*%
D19*
%TO.C,L1*%
X86122278Y-30346773D03*
X87697278Y-30346773D03*
%TD*%
D12*
%TO.C,R26*%
X36309777Y-73000332D03*
X35289777Y-73000332D03*
%TD*%
D14*
%TO.C,C19*%
X47539777Y-30329773D03*
X47539777Y-31879773D03*
%TD*%
D26*
%TO.C,BZ1*%
X79519778Y-91390332D03*
X88219778Y-91390332D03*
%TD*%
D10*
%TO.C,R3*%
X34919777Y-55472773D03*
X35939777Y-55472773D03*
%TD*%
%TO.C,R27*%
X77289778Y-71740332D03*
X78309778Y-71740332D03*
%TD*%
D12*
%TO.C,R23*%
X77939778Y-94710332D03*
X76919778Y-94710332D03*
%TD*%
D10*
%TO.C,R20*%
X46759777Y-100610332D03*
X47779777Y-100610332D03*
%TD*%
D11*
%TO.C,C1*%
X31685777Y-90662332D03*
X30725777Y-90662332D03*
%TD*%
D12*
%TO.C,R7*%
X96561262Y-86263283D03*
X95541262Y-86263283D03*
%TD*%
D31*
%TO.C,SW2*%
X81934376Y-102840332D03*
X85485180Y-102840332D03*
%TD*%
D19*
%TO.C,L1*%
X86122278Y-70600332D03*
X87697278Y-70600332D03*
%TD*%
D21*
%TO.C,Q3*%
X84429778Y-60656773D03*
X84429778Y-60156773D03*
X84429778Y-59656773D03*
X82929778Y-59656773D03*
X82929778Y-60156773D03*
X82929778Y-60656773D03*
%TD*%
D30*
%TO.C,R1*%
X74359778Y-45926773D03*
X74359778Y-44906773D03*
%TD*%
D14*
%TO.C,C18*%
X42189777Y-70605332D03*
X42189777Y-72155332D03*
%TD*%
D10*
%TO.C,R8*%
X51589777Y-40446773D03*
X52609777Y-40446773D03*
%TD*%
D46*
%TO.C,SW4*%
X101452691Y-51883171D03*
X100269212Y-54421150D03*
D47*
X100722830Y-53087754D03*
%TD*%
D12*
%TO.C,R18*%
X52610777Y-38337773D03*
X51590777Y-38337773D03*
%TD*%
D21*
%TO.C,Q1*%
X52969777Y-96520332D03*
X52969777Y-97020332D03*
X52969777Y-97520332D03*
X54469777Y-97520332D03*
X54469777Y-97020332D03*
X54469777Y-96520332D03*
%TD*%
D30*
%TO.C,R13*%
X43179777Y-34626773D03*
X43179777Y-33606773D03*
%TD*%
D39*
%TO.C,U2*%
X51089261Y-50555724D03*
X51089261Y-49255724D03*
X49789261Y-49255724D03*
X49789261Y-50555724D03*
D40*
X52376761Y-51155724D03*
X52376761Y-50655724D03*
X52376761Y-50155724D03*
X52376761Y-49655724D03*
X52376761Y-49155724D03*
X52376761Y-48655724D03*
D41*
X51689261Y-47968224D03*
X51189261Y-47968224D03*
X50689261Y-47968224D03*
X50189261Y-47968224D03*
X49689261Y-47968224D03*
X49189261Y-47968224D03*
D40*
X48501761Y-48655724D03*
X48501761Y-49155724D03*
X48501761Y-49655724D03*
X48501761Y-50155724D03*
X48501761Y-50655724D03*
X48501761Y-51155724D03*
D41*
X49189261Y-51843224D03*
X49689261Y-51843224D03*
X50189261Y-51843224D03*
X50689261Y-51843224D03*
X51189261Y-51843224D03*
X51689261Y-51843224D03*
%TD*%
D12*
%TO.C,R25*%
X45609777Y-57996773D03*
X44589777Y-57996773D03*
%TD*%
D42*
%TO.C,D1*%
X96629778Y-93680332D03*
D43*
X98329778Y-93680332D03*
X98329778Y-91680332D03*
X96429778Y-91680332D03*
%TD*%
D45*
%TO.C,REF\u002A\u002A*%
X17500000Y-112500000D03*
%TD*%
D17*
%TO.C,SW5*%
X29650343Y-94674709D03*
X28466864Y-92136730D03*
D18*
X29196725Y-93341313D03*
%TD*%
D30*
%TO.C,R13*%
X43179777Y-74880332D03*
X43179777Y-73860332D03*
%TD*%
D16*
%TO.C,C12*%
X53239777Y-58456773D03*
X54199777Y-58456773D03*
%TD*%
D30*
%TO.C,R4*%
X49367261Y-86887283D03*
X49367261Y-85867283D03*
%TD*%
D42*
%TO.C,D1*%
X54629777Y-53426773D03*
D43*
X56329777Y-53426773D03*
X56329777Y-51426773D03*
X54429777Y-51426773D03*
%TD*%
D11*
%TO.C,C4*%
X29405777Y-90620332D03*
X28445777Y-90620332D03*
%TD*%
D30*
%TO.C,R1*%
X74359778Y-86180332D03*
X74359778Y-85160332D03*
%TD*%
D27*
%TO.C,C14*%
X79899778Y-80065332D03*
X79899778Y-78515332D03*
%TD*%
D11*
%TO.C,C4*%
X71405778Y-90620332D03*
X70445778Y-90620332D03*
%TD*%
D12*
%TO.C,R23*%
X35939777Y-54456773D03*
X34919777Y-54456773D03*
%TD*%
D10*
%TO.C,R15*%
X39479777Y-97320332D03*
X40499777Y-97320332D03*
%TD*%
D32*
%TO.C,Q2*%
X77739778Y-51736773D03*
X77239778Y-51736773D03*
X76739778Y-51736773D03*
X76739778Y-53236773D03*
X77239778Y-53236773D03*
X77739778Y-53236773D03*
%TD*%
D46*
%TO.C,SW4*%
X59452690Y-92136730D03*
X58269211Y-94674709D03*
D47*
X58722829Y-93341313D03*
%TD*%
D10*
%TO.C,R9*%
X93589778Y-79654332D03*
X94609778Y-79654332D03*
%TD*%
D39*
%TO.C,U2*%
X91789262Y-49255724D03*
X93089262Y-50555724D03*
X91789262Y-50555724D03*
X93089262Y-49255724D03*
D40*
X94376762Y-51155724D03*
X94376762Y-50655724D03*
X94376762Y-50155724D03*
X94376762Y-49655724D03*
X94376762Y-49155724D03*
X94376762Y-48655724D03*
D41*
X93689262Y-47968224D03*
X93189262Y-47968224D03*
X92689262Y-47968224D03*
X92189262Y-47968224D03*
X91689262Y-47968224D03*
X91189262Y-47968224D03*
D40*
X90501762Y-48655724D03*
X90501762Y-49155724D03*
X90501762Y-49655724D03*
X90501762Y-50155724D03*
X90501762Y-50655724D03*
X90501762Y-51155724D03*
D41*
X91189262Y-51843224D03*
X91689262Y-51843224D03*
X92189262Y-51843224D03*
X92689262Y-51843224D03*
X93189262Y-51843224D03*
X93689262Y-51843224D03*
%TD*%
D13*
%TO.C,C15*%
X44219777Y-34606773D03*
X44219777Y-33646773D03*
%TD*%
D30*
%TO.C,R21*%
X27009777Y-88930332D03*
X27009777Y-87910332D03*
%TD*%
D32*
%TO.C,Q2*%
X35739777Y-51736773D03*
X35239777Y-51736773D03*
X34739777Y-51736773D03*
X34739777Y-53236773D03*
X35239777Y-53236773D03*
X35739777Y-53236773D03*
%TD*%
D23*
%TO.C,SW3*%
X100269212Y-76845955D03*
X101452691Y-79383934D03*
D24*
X100722830Y-78179351D03*
%TD*%
D35*
%TO.C,R12*%
X36009777Y-83997832D03*
X36009777Y-85822832D03*
%TD*%
D12*
%TO.C,R11*%
X96229778Y-95280332D03*
X95209778Y-95280332D03*
%TD*%
D28*
%TO.C,J1*%
X99304778Y-88960332D03*
X99304778Y-88160333D03*
D29*
X99304778Y-87010332D03*
X99304778Y-86010332D03*
X99304778Y-85510332D03*
X99304778Y-84510332D03*
D28*
X99304778Y-82560332D03*
X99304778Y-83360331D03*
D29*
X99304778Y-84010333D03*
X99304778Y-85010331D03*
X99304778Y-86510333D03*
X99304778Y-87510331D03*
%TD*%
D31*
%TO.C,SW2*%
X81934376Y-62586773D03*
X85485180Y-62586773D03*
%TD*%
D12*
%TO.C,R24*%
X86589778Y-59046773D03*
X85569778Y-59046773D03*
%TD*%
D21*
%TO.C,Q1*%
X94969778Y-56266773D03*
X94969778Y-56766773D03*
X94969778Y-57266773D03*
X96469778Y-57266773D03*
X96469778Y-56766773D03*
X96469778Y-56266773D03*
%TD*%
D12*
%TO.C,R24*%
X44589777Y-99300332D03*
X43569777Y-99300332D03*
%TD*%
D13*
%TO.C,C6*%
X51461261Y-46597724D03*
X51461261Y-45637724D03*
%TD*%
D10*
%TO.C,R20*%
X46759777Y-60356773D03*
X47779777Y-60356773D03*
%TD*%
D13*
%TO.C,C5*%
X94598262Y-46627724D03*
X94598262Y-45667724D03*
%TD*%
D11*
%TO.C,C4*%
X71405778Y-50366773D03*
X70445778Y-50366773D03*
%TD*%
D12*
%TO.C,R18*%
X94610778Y-78591332D03*
X93590778Y-78591332D03*
%TD*%
D16*
%TO.C,C11*%
X95239778Y-59556773D03*
X96199778Y-59556773D03*
%TD*%
D13*
%TO.C,C3*%
X76469778Y-86150332D03*
X76469778Y-85190332D03*
%TD*%
D21*
%TO.C,Q3*%
X84429778Y-100910332D03*
X84429778Y-100410332D03*
X84429778Y-99910332D03*
X82929778Y-99910332D03*
X82929778Y-100410332D03*
X82929778Y-100910332D03*
%TD*%
D10*
%TO.C,R8*%
X93589778Y-40446773D03*
X94609778Y-40446773D03*
%TD*%
D13*
%TO.C,C3*%
X34469777Y-86150332D03*
X34469777Y-85190332D03*
%TD*%
D16*
%TO.C,C9*%
X95571262Y-89311283D03*
X96531262Y-89311283D03*
%TD*%
%TO.C,C11*%
X53239777Y-59556773D03*
X54199777Y-59556773D03*
%TD*%
D12*
%TO.C,R25*%
X87609778Y-98250332D03*
X86589778Y-98250332D03*
%TD*%
D25*
%TO.C,U1*%
X70928278Y-87426332D03*
X70928278Y-88376332D03*
X70928278Y-89326332D03*
X73203278Y-89326332D03*
X73203278Y-87426332D03*
%TD*%
D30*
%TO.C,R5*%
X92454262Y-86887283D03*
X92454262Y-85867283D03*
%TD*%
D13*
%TO.C,C17*%
X50829777Y-75060332D03*
X50829777Y-74100332D03*
%TD*%
D33*
%TO.C,R6*%
X90221262Y-45613724D03*
X90221262Y-46633724D03*
%TD*%
D31*
%TO.C,SW2*%
X39934375Y-62586773D03*
X43485179Y-62586773D03*
%TD*%
D15*
%TO.C,D2*%
X33509777Y-94390332D03*
X31409777Y-94390332D03*
%TD*%
D32*
%TO.C,Q2*%
X77739778Y-91990332D03*
X77239778Y-91990332D03*
X76739778Y-91990332D03*
X76739778Y-93490332D03*
X77239778Y-93490332D03*
X77739778Y-93490332D03*
%TD*%
D11*
%TO.C,C10*%
X43319777Y-98250332D03*
X42359777Y-98250332D03*
%TD*%
D46*
%TO.C,SW4*%
X59452690Y-51883171D03*
X58269211Y-54421150D03*
D47*
X58722829Y-53087754D03*
%TD*%
D31*
%TO.C,SW1*%
X86684376Y-102854332D03*
X90235180Y-102854332D03*
%TD*%
D30*
%TO.C,R4*%
X91367262Y-86887283D03*
X91367262Y-85867283D03*
%TD*%
D42*
%TO.C,D1*%
X54629777Y-93680332D03*
D43*
X56329777Y-93680332D03*
X56329777Y-91680332D03*
X54429777Y-91680332D03*
%TD*%
D13*
%TO.C,C3*%
X76469778Y-45896773D03*
X76469778Y-44936773D03*
%TD*%
D17*
%TO.C,SW5*%
X71650344Y-94674709D03*
X70466865Y-92136730D03*
D18*
X71196726Y-93341313D03*
%TD*%
D16*
%TO.C,C11*%
X95239778Y-99810332D03*
X96199778Y-99810332D03*
%TD*%
D44*
%TO.C,U4*%
X75183778Y-87426332D03*
X75183778Y-88376332D03*
X75183778Y-89326332D03*
X77583778Y-89326332D03*
X77583778Y-87426332D03*
%TD*%
D33*
%TO.C,R22*%
X69009778Y-45576773D03*
X69009778Y-46596773D03*
%TD*%
D11*
%TO.C,C1*%
X73685778Y-90662332D03*
X72725778Y-90662332D03*
%TD*%
D34*
%TO.C,Y1*%
X81835778Y-75996332D03*
X81835778Y-78496332D03*
%TD*%
D14*
%TO.C,C13*%
X37879777Y-74405332D03*
X37879777Y-75955332D03*
%TD*%
D45*
%TO.C,REF\u002A\u002A*%
X112500000Y-17500000D03*
%TD*%
D11*
%TO.C,C1*%
X31685777Y-50408773D03*
X30725777Y-50408773D03*
%TD*%
D30*
%TO.C,R13*%
X85179778Y-34626773D03*
X85179778Y-33606773D03*
%TD*%
D12*
%TO.C,R18*%
X52610777Y-78591332D03*
X51590777Y-78591332D03*
%TD*%
D25*
%TO.C,U1*%
X28928277Y-47172773D03*
X28928277Y-48122773D03*
X28928277Y-49072773D03*
X31203277Y-49072773D03*
X31203277Y-47172773D03*
%TD*%
D11*
%TO.C,C10*%
X85319778Y-57996773D03*
X84359778Y-57996773D03*
%TD*%
D20*
%TO.C,IC1*%
X73257778Y-35588773D03*
X71987778Y-35588773D03*
X70717778Y-35588773D03*
X69447778Y-35588773D03*
X69447778Y-40538773D03*
X70717778Y-40538773D03*
X71987778Y-40538773D03*
X73257778Y-40538773D03*
%TD*%
D12*
%TO.C,R25*%
X87609778Y-57996773D03*
X86589778Y-57996773D03*
%TD*%
D13*
%TO.C,C16*%
X49799777Y-75080332D03*
X49799777Y-74120332D03*
%TD*%
D10*
%TO.C,R2*%
X95541262Y-87279283D03*
X96561262Y-87279283D03*
%TD*%
%TO.C,R19*%
X51590777Y-41467773D03*
X52610777Y-41467773D03*
%TD*%
D21*
%TO.C,Q3*%
X42429777Y-100910332D03*
X42429777Y-100410332D03*
X42429777Y-99910332D03*
X40929777Y-99910332D03*
X40929777Y-100410332D03*
X40929777Y-100910332D03*
%TD*%
D27*
%TO.C,C14*%
X79899778Y-39811773D03*
X79899778Y-38261773D03*
%TD*%
D30*
%TO.C,R5*%
X50454261Y-46633724D03*
X50454261Y-45613724D03*
%TD*%
D44*
%TO.C,U4*%
X33183777Y-87426332D03*
X33183777Y-88376332D03*
X33183777Y-89326332D03*
X35583777Y-89326332D03*
X35583777Y-87426332D03*
%TD*%
D12*
%TO.C,R25*%
X45609777Y-98250332D03*
X44589777Y-98250332D03*
%TD*%
D16*
%TO.C,C9*%
X95571262Y-49057724D03*
X96531262Y-49057724D03*
%TD*%
D12*
%TO.C,R11*%
X54229777Y-95280332D03*
X53209777Y-95280332D03*
%TD*%
D14*
%TO.C,C13*%
X79879778Y-34151773D03*
X79879778Y-35701773D03*
%TD*%
D12*
%TO.C,R23*%
X77939778Y-54456773D03*
X76919778Y-54456773D03*
%TD*%
%TO.C,R26*%
X78309778Y-32746773D03*
X77289778Y-32746773D03*
%TD*%
D10*
%TO.C,R2*%
X53541261Y-87279283D03*
X54561261Y-87279283D03*
%TD*%
D28*
%TO.C,J1*%
X57304777Y-48706773D03*
X57304777Y-47906774D03*
D29*
X57304777Y-46756773D03*
X57304777Y-45756773D03*
X57304777Y-45256773D03*
X57304777Y-44256773D03*
D28*
X57304777Y-42306773D03*
X57304777Y-43106772D03*
D29*
X57304777Y-43756774D03*
X57304777Y-44756772D03*
X57304777Y-46256774D03*
X57304777Y-47256772D03*
%TD*%
M02*
