%TF.GenerationSoftware,KiCad,Pcbnew,(6.0.7-1)-1*%
%TF.CreationDate,2022-10-26T11:28:27+01:00*%
%TF.ProjectId,panel,70616e65-6c2e-46b6-9963-61645f706362,rev?*%
%TF.SameCoordinates,Original*%
%TF.FileFunction,Soldermask,Bot*%
%TF.FilePolarity,Negative*%
%FSLAX46Y46*%
G04 Gerber Fmt 4.6, Leading zero omitted, Abs format (unit mm)*
G04 Created by KiCad (PCBNEW (6.0.7-1)-1) date 2022-10-26 11:28:27*
%MOMM*%
%LPD*%
G01*
G04 APERTURE LIST*
G04 Aperture macros list*
%AMRoundRect*
0 Rectangle with rounded corners*
0 $1 Rounding radius*
0 $2 $3 $4 $5 $6 $7 $8 $9 X,Y pos of 4 corners*
0 Add a 4 corners polygon primitive as box body*
4,1,4,$2,$3,$4,$5,$6,$7,$8,$9,$2,$3,0*
0 Add four circle primitives for the rounded corners*
1,1,$1+$1,$2,$3*
1,1,$1+$1,$4,$5*
1,1,$1+$1,$6,$7*
1,1,$1+$1,$8,$9*
0 Add four rect primitives between the rounded corners*
20,1,$1+$1,$2,$3,$4,$5,0*
20,1,$1+$1,$4,$5,$6,$7,0*
20,1,$1+$1,$6,$7,$8,$9,0*
20,1,$1+$1,$8,$9,$2,$3,0*%
%AMFreePoly0*
4,1,16,0.444576,0.992426,0.462150,0.950000,0.462150,0.300000,0.457200,0.288050,0.457200,-0.457200,-0.274320,-0.457201,-0.457200,-0.274320,-0.457200,0.240000,-0.697850,0.240000,-0.740276,0.257574,-0.757850,0.300000,-0.757850,0.950000,-0.740276,0.992426,-0.697850,1.010000,0.402150,1.010000,0.444576,0.992426,0.444576,0.992426,$1*%
%AMFreePoly1*
4,1,16,0.740277,0.992426,0.757850,0.950000,0.757850,0.300000,0.740275,0.257574,0.697850,0.240000,0.457200,0.240000,0.457201,-0.274320,0.274320,-0.457200,-0.457200,-0.457200,-0.457200,0.288050,-0.462150,0.300000,-0.462150,0.949999,-0.444576,0.992426,-0.402150,1.010000,0.697850,1.010000,0.740277,0.992426,0.740277,0.992426,$1*%
G04 Aperture macros list end*
%ADD10C,0.500000*%
%ADD11FreePoly0,115.000000*%
%ADD12FreePoly1,115.000000*%
%ADD13FreePoly0,295.000000*%
%ADD14FreePoly1,295.000000*%
%ADD15RoundRect,0.250000X0.777817X0.000000X0.000000X0.777817X-0.777817X0.000000X0.000000X-0.777817X0*%
%ADD16C,1.600000*%
%ADD17O,2.108200X0.990600*%
%ADD18O,1.803400X0.990600*%
%ADD19C,1.500000*%
%ADD20FreePoly1,245.000000*%
%ADD21FreePoly0,245.000000*%
%ADD22C,1.000000*%
%ADD23R,0.350000X2.500000*%
G04 APERTURE END LIST*
D10*
%TO.C,REF\u002A\u002A*%
X78687898Y-104048184D03*
%TD*%
%TO.C,REF\u002A\u002A*%
X66237867Y-46663832D03*
%TD*%
%TO.C,REF\u002A\u002A*%
X36415188Y-67470491D03*
%TD*%
%TO.C,REF\u002A\u002A*%
X52549340Y-67876646D03*
%TD*%
%TO.C,REF\u002A\u002A*%
X81330402Y-103999091D03*
%TD*%
%TO.C,REF\u002A\u002A*%
X105650245Y-43090517D03*
%TD*%
%TO.C,REF\u002A\u002A*%
X51591728Y-67474453D03*
%TD*%
D11*
%TO.C,SW5*%
X27051842Y-52049052D03*
D12*
X28613712Y-55398494D03*
%TD*%
D10*
%TO.C,REF\u002A\u002A*%
X66243941Y-44279345D03*
%TD*%
%TO.C,REF\u002A\u002A*%
X90632791Y-26257004D03*
%TD*%
%TO.C,REF\u002A\u002A*%
X24340040Y-88105930D03*
%TD*%
%TO.C,REF\u002A\u002A*%
X37384958Y-67097871D03*
%TD*%
%TO.C,REF\u002A\u002A*%
X35466281Y-27639889D03*
%TD*%
%TO.C,REF\u002A\u002A*%
X81370259Y-26231001D03*
%TD*%
D13*
%TO.C,SW3*%
X60867712Y-79218053D03*
D14*
X59305842Y-75868611D03*
%TD*%
D10*
%TO.C,REF\u002A\u002A*%
X78687898Y-63794625D03*
%TD*%
%TO.C,REF\u002A\u002A*%
X35454729Y-63372919D03*
%TD*%
%TO.C,REF\u002A\u002A*%
X63763261Y-46663490D03*
%TD*%
D15*
%TO.C,J2*%
X74499778Y-99760332D03*
D16*
X73085564Y-98346118D03*
%TD*%
D10*
%TO.C,REF\u002A\u002A*%
X63476856Y-41909992D03*
%TD*%
%TO.C,REF\u002A\u002A*%
X80372924Y-66776611D03*
%TD*%
D17*
%TO.C,J1*%
X99879778Y-41186771D03*
X99879778Y-49826775D03*
D18*
X104059778Y-49826775D03*
X104059778Y-41186771D03*
%TD*%
D10*
%TO.C,REF\u002A\u002A*%
X105664006Y-88106098D03*
%TD*%
%TO.C,REF\u002A\u002A*%
X105763262Y-86917049D03*
%TD*%
%TO.C,REF\u002A\u002A*%
X90662167Y-63572168D03*
%TD*%
%TO.C,REF\u002A\u002A*%
X48632790Y-26257004D03*
%TD*%
%TO.C,REF\u002A\u002A*%
X48632790Y-66510562D03*
%TD*%
%TO.C,REF\u002A\u002A*%
X35466281Y-67893447D03*
%TD*%
%TO.C,REF\u002A\u002A*%
X105664006Y-47852539D03*
%TD*%
D15*
%TO.C,J2*%
X32499777Y-99760332D03*
D16*
X31085563Y-98346118D03*
%TD*%
D14*
%TO.C,SW3*%
X101305843Y-35615052D03*
D13*
X102867713Y-38964494D03*
%TD*%
D10*
%TO.C,REF\u002A\u002A*%
X49662123Y-63553590D03*
%TD*%
%TO.C,REF\u002A\u002A*%
X63650244Y-43090517D03*
%TD*%
%TO.C,REF\u002A\u002A*%
X38009150Y-63770078D03*
%TD*%
%TO.C,REF\u002A\u002A*%
X38009150Y-104023637D03*
%TD*%
%TO.C,REF\u002A\u002A*%
X94549341Y-27623088D03*
%TD*%
%TO.C,REF\u002A\u002A*%
X81370259Y-66484559D03*
%TD*%
%TO.C,REF\u002A\u002A*%
X24205800Y-45471470D03*
%TD*%
%TO.C,REF\u002A\u002A*%
X77454729Y-103626478D03*
%TD*%
%TO.C,REF\u002A\u002A*%
X63664005Y-88106098D03*
%TD*%
%TO.C,REF\u002A\u002A*%
X79384958Y-67097871D03*
%TD*%
%TO.C,REF\u002A\u002A*%
X39330402Y-63745532D03*
%TD*%
%TO.C,REF\u002A\u002A*%
X91635507Y-26526402D03*
%TD*%
%TO.C,REF\u002A\u002A*%
X36415188Y-27216933D03*
%TD*%
D14*
%TO.C,SW3*%
X59305842Y-35615052D03*
D13*
X60867712Y-38964494D03*
%TD*%
D10*
%TO.C,REF\u002A\u002A*%
X63476856Y-82163550D03*
%TD*%
%TO.C,REF\u002A\u002A*%
X66352156Y-43091513D03*
%TD*%
D15*
%TO.C,J2*%
X74499778Y-59506773D03*
D16*
X73085564Y-58092559D03*
%TD*%
D10*
%TO.C,REF\u002A\u002A*%
X63664005Y-47852539D03*
%TD*%
%TO.C,REF\u002A\u002A*%
X35454729Y-103626478D03*
%TD*%
%TO.C,REF\u002A\u002A*%
X36687898Y-63794625D03*
%TD*%
D18*
%TO.C,J1*%
X62059777Y-90080334D03*
D17*
X57879777Y-81440330D03*
D18*
X62059777Y-81440330D03*
D17*
X57879777Y-90080334D03*
%TD*%
D10*
%TO.C,REF\u002A\u002A*%
X66237867Y-86917391D03*
%TD*%
%TO.C,REF\u002A\u002A*%
X24340040Y-47852371D03*
%TD*%
%TO.C,REF\u002A\u002A*%
X77466281Y-27639889D03*
%TD*%
%TO.C,REF\u002A\u002A*%
X24530084Y-41912019D03*
%TD*%
%TO.C,REF\u002A\u002A*%
X105797387Y-85724506D03*
%TD*%
%TO.C,REF\u002A\u002A*%
X52549340Y-27623088D03*
%TD*%
%TO.C,REF\u002A\u002A*%
X105759669Y-44278516D03*
%TD*%
%TO.C,REF\u002A\u002A*%
X91662124Y-63553590D03*
%TD*%
%TO.C,REF\u002A\u002A*%
X39370259Y-66484559D03*
%TD*%
%TO.C,REF\u002A\u002A*%
X92622724Y-67101551D03*
%TD*%
D19*
%TO.C,REF\u002A\u002A*%
X112500000Y-112500000D03*
%TD*%
D10*
%TO.C,REF\u002A\u002A*%
X24243941Y-84532903D03*
%TD*%
%TO.C,REF\u002A\u002A*%
X105650245Y-83344075D03*
%TD*%
%TO.C,REF\u002A\u002A*%
X63759668Y-44278516D03*
%TD*%
%TO.C,REF\u002A\u002A*%
X36687898Y-104048184D03*
%TD*%
%TO.C,REF\u002A\u002A*%
X66530084Y-82165577D03*
%TD*%
%TO.C,REF\u002A\u002A*%
X38372924Y-26523053D03*
%TD*%
%TO.C,REF\u002A\u002A*%
X24352156Y-43091513D03*
%TD*%
%TO.C,REF\u002A\u002A*%
X105476857Y-41909992D03*
%TD*%
%TO.C,REF\u002A\u002A*%
X105476857Y-82163550D03*
%TD*%
D20*
%TO.C,SW4*%
X102867713Y-92302611D03*
D21*
X101305843Y-95652053D03*
%TD*%
D10*
%TO.C,REF\u002A\u002A*%
X105763262Y-46663490D03*
%TD*%
%TO.C,REF\u002A\u002A*%
X77454729Y-63372919D03*
%TD*%
%TO.C,REF\u002A\u002A*%
X49635506Y-66779960D03*
%TD*%
%TO.C,REF\u002A\u002A*%
X80372924Y-26523053D03*
%TD*%
%TO.C,REF\u002A\u002A*%
X39330402Y-103999091D03*
%TD*%
%TO.C,REF\u002A\u002A*%
X66352156Y-83345071D03*
%TD*%
%TO.C,REF\u002A\u002A*%
X93591729Y-27220895D03*
%TD*%
D19*
%TO.C,REF\u002A\u002A*%
X17500000Y-17500000D03*
%TD*%
D10*
%TO.C,REF\u002A\u002A*%
X91662124Y-103807149D03*
%TD*%
%TO.C,REF\u002A\u002A*%
X63759668Y-84532074D03*
%TD*%
%TO.C,REF\u002A\u002A*%
X77466281Y-67893447D03*
%TD*%
%TO.C,REF\u002A\u002A*%
X92622724Y-26847993D03*
%TD*%
%TO.C,REF\u002A\u002A*%
X24205800Y-85725029D03*
%TD*%
%TO.C,REF\u002A\u002A*%
X24243941Y-44279345D03*
%TD*%
%TO.C,REF\u002A\u002A*%
X39370259Y-26231001D03*
%TD*%
%TO.C,REF\u002A\u002A*%
X63650244Y-83344075D03*
%TD*%
%TO.C,REF\u002A\u002A*%
X49635506Y-26526402D03*
%TD*%
%TO.C,REF\u002A\u002A*%
X24237867Y-86917391D03*
%TD*%
%TO.C,REF\u002A\u002A*%
X50622723Y-67101551D03*
%TD*%
%TO.C,REF\u002A\u002A*%
X63763261Y-86917049D03*
%TD*%
D11*
%TO.C,SW5*%
X69051843Y-52049052D03*
D12*
X70613713Y-55398494D03*
%TD*%
D10*
%TO.C,REF\u002A\u002A*%
X51662036Y-63516436D03*
%TD*%
%TO.C,REF\u002A\u002A*%
X66340040Y-88105930D03*
%TD*%
%TO.C,REF\u002A\u002A*%
X50662080Y-63535013D03*
%TD*%
%TO.C,REF\u002A\u002A*%
X92662081Y-63535013D03*
%TD*%
%TO.C,REF\u002A\u002A*%
X51662036Y-103769995D03*
%TD*%
%TO.C,REF\u002A\u002A*%
X52661993Y-103751418D03*
%TD*%
%TO.C,REF\u002A\u002A*%
X105797387Y-45470947D03*
%TD*%
%TO.C,REF\u002A\u002A*%
X24530084Y-82165577D03*
%TD*%
%TO.C,REF\u002A\u002A*%
X92662081Y-103788572D03*
%TD*%
%TO.C,REF\u002A\u002A*%
X78415188Y-27216933D03*
%TD*%
%TO.C,REF\u002A\u002A*%
X52661993Y-63497859D03*
%TD*%
%TO.C,REF\u002A\u002A*%
X91635507Y-66779960D03*
%TD*%
%TO.C,REF\u002A\u002A*%
X93662037Y-63516436D03*
%TD*%
%TO.C,REF\u002A\u002A*%
X78415188Y-67470491D03*
%TD*%
D20*
%TO.C,SW4*%
X102867713Y-52049052D03*
D21*
X101305843Y-55398494D03*
%TD*%
D10*
%TO.C,REF\u002A\u002A*%
X24237867Y-46663832D03*
%TD*%
%TO.C,REF\u002A\u002A*%
X50662080Y-103788572D03*
%TD*%
D19*
%TO.C,REF\u002A\u002A*%
X17500000Y-112500000D03*
%TD*%
D12*
%TO.C,SW5*%
X28613712Y-95652053D03*
D11*
X27051842Y-92302611D03*
%TD*%
D10*
%TO.C,REF\u002A\u002A*%
X50622723Y-26847993D03*
%TD*%
%TO.C,REF\u002A\u002A*%
X93591729Y-67474453D03*
%TD*%
D20*
%TO.C,SW4*%
X60867712Y-92302611D03*
D21*
X59305842Y-95652053D03*
%TD*%
D10*
%TO.C,REF\u002A\u002A*%
X66340040Y-47852371D03*
%TD*%
D13*
%TO.C,SW3*%
X102867713Y-79218053D03*
D14*
X101305843Y-75868611D03*
%TD*%
D18*
%TO.C,J1*%
X104059778Y-81440330D03*
D17*
X99879778Y-81440330D03*
D18*
X104059778Y-90080334D03*
D17*
X99879778Y-90080334D03*
%TD*%
D10*
%TO.C,REF\u002A\u002A*%
X48662166Y-63572168D03*
%TD*%
%TO.C,REF\u002A\u002A*%
X90662167Y-103825727D03*
%TD*%
%TO.C,REF\u002A\u002A*%
X80009150Y-63770078D03*
%TD*%
%TO.C,REF\u002A\u002A*%
X66205800Y-45471470D03*
%TD*%
D15*
%TO.C,J2*%
X32499777Y-59506773D03*
D16*
X31085563Y-58092559D03*
%TD*%
D10*
%TO.C,REF\u002A\u002A*%
X48662166Y-103825727D03*
%TD*%
%TO.C,REF\u002A\u002A*%
X66243941Y-84532903D03*
%TD*%
%TO.C,REF\u002A\u002A*%
X80009150Y-104023637D03*
%TD*%
%TO.C,REF\u002A\u002A*%
X94549341Y-67876646D03*
%TD*%
%TO.C,REF\u002A\u002A*%
X24352156Y-83345071D03*
%TD*%
%TO.C,REF\u002A\u002A*%
X38372924Y-66776611D03*
%TD*%
%TO.C,REF\u002A\u002A*%
X37384958Y-26844313D03*
%TD*%
D20*
%TO.C,SW4*%
X60867712Y-52049052D03*
D21*
X59305842Y-55398494D03*
%TD*%
D10*
%TO.C,REF\u002A\u002A*%
X66530084Y-41912019D03*
%TD*%
D11*
%TO.C,SW5*%
X69051843Y-92302611D03*
D12*
X70613713Y-95652053D03*
%TD*%
D10*
%TO.C,REF\u002A\u002A*%
X94661994Y-63497859D03*
%TD*%
%TO.C,REF\u002A\u002A*%
X94661994Y-103751418D03*
%TD*%
%TO.C,REF\u002A\u002A*%
X105759669Y-84532074D03*
%TD*%
%TO.C,REF\u002A\u002A*%
X90632791Y-66510562D03*
%TD*%
%TO.C,REF\u002A\u002A*%
X51591728Y-27220895D03*
%TD*%
D19*
%TO.C,REF\u002A\u002A*%
X112500000Y-17500000D03*
%TD*%
D10*
%TO.C,REF\u002A\u002A*%
X79384958Y-26844313D03*
%TD*%
%TO.C,REF\u002A\u002A*%
X93662037Y-103769995D03*
%TD*%
%TO.C,REF\u002A\u002A*%
X63797386Y-45470947D03*
%TD*%
%TO.C,REF\u002A\u002A*%
X63797386Y-85724506D03*
%TD*%
%TO.C,REF\u002A\u002A*%
X81330402Y-63745532D03*
%TD*%
%TO.C,REF\u002A\u002A*%
X49662123Y-103807149D03*
%TD*%
%TO.C,REF\u002A\u002A*%
X66205800Y-85725029D03*
%TD*%
D17*
%TO.C,J1*%
X57879777Y-49826775D03*
X57879777Y-41186771D03*
D18*
X62059777Y-49826775D03*
X62059777Y-41186771D03*
%TD*%
D22*
%TO.C,TP1*%
X41789777Y-75980332D03*
%TD*%
%TO.C,TP2*%
X82899778Y-81230332D03*
%TD*%
%TO.C,REF\u002A\u002A*%
X20000000Y-17500000D03*
%TD*%
D23*
%TO.C,U5*%
X82459778Y-55526273D03*
X83159778Y-55526273D03*
X83859778Y-55526273D03*
X84559778Y-55526273D03*
X85259778Y-55526273D03*
X85959778Y-55526273D03*
X86659778Y-55526273D03*
X87359778Y-55526273D03*
X88059778Y-55526273D03*
X88759778Y-55526273D03*
X89459778Y-55526273D03*
X90159778Y-55526273D03*
%TD*%
D22*
%TO.C,TP2*%
X40899777Y-40976773D03*
%TD*%
%TO.C,TP4*%
X95349778Y-97770332D03*
%TD*%
%TO.C,TP2*%
X40899777Y-81230332D03*
%TD*%
%TO.C,TP4*%
X95349778Y-57516773D03*
%TD*%
%TO.C,TP1*%
X83789778Y-35726773D03*
%TD*%
D23*
%TO.C,U5*%
X40459777Y-95779832D03*
X41159777Y-95779832D03*
X41859777Y-95779832D03*
X42559777Y-95779832D03*
X43259777Y-95779832D03*
X43959777Y-95779832D03*
X44659777Y-95779832D03*
X45359777Y-95779832D03*
X46059777Y-95779832D03*
X46759777Y-95779832D03*
X47459777Y-95779832D03*
X48159777Y-95779832D03*
%TD*%
D22*
%TO.C,TP3*%
X53689777Y-55436773D03*
%TD*%
%TO.C,REF\u002A\u002A*%
X110000000Y-17500000D03*
%TD*%
%TO.C,TP3*%
X95689778Y-95690332D03*
%TD*%
%TO.C,TP7*%
X55189777Y-38646773D03*
%TD*%
%TO.C,TP2*%
X82899778Y-40976773D03*
%TD*%
%TO.C,REF\u002A\u002A*%
X20000000Y-112500000D03*
%TD*%
%TO.C,TP6*%
X97219778Y-81250332D03*
%TD*%
%TO.C,TP7*%
X97189778Y-38646773D03*
%TD*%
%TO.C,TP7*%
X55189777Y-78900332D03*
%TD*%
%TO.C,TP3*%
X95689778Y-55436773D03*
%TD*%
%TO.C,TP7*%
X97189778Y-78900332D03*
%TD*%
%TO.C,TP1*%
X41789777Y-35726773D03*
%TD*%
%TO.C,TP6*%
X55219777Y-81250332D03*
%TD*%
%TO.C,TP3*%
X53689777Y-95690332D03*
%TD*%
%TO.C,TP6*%
X97219778Y-40996773D03*
%TD*%
%TO.C,TP4*%
X53349777Y-97770332D03*
%TD*%
D23*
%TO.C,U5*%
X82459778Y-95779832D03*
X83159778Y-95779832D03*
X83859778Y-95779832D03*
X84559778Y-95779832D03*
X85259778Y-95779832D03*
X85959778Y-95779832D03*
X86659778Y-95779832D03*
X87359778Y-95779832D03*
X88059778Y-95779832D03*
X88759778Y-95779832D03*
X89459778Y-95779832D03*
X90159778Y-95779832D03*
%TD*%
%TO.C,U5*%
X40459777Y-55526273D03*
X41159777Y-55526273D03*
X41859777Y-55526273D03*
X42559777Y-55526273D03*
X43259777Y-55526273D03*
X43959777Y-55526273D03*
X44659777Y-55526273D03*
X45359777Y-55526273D03*
X46059777Y-55526273D03*
X46759777Y-55526273D03*
X47459777Y-55526273D03*
X48159777Y-55526273D03*
%TD*%
D22*
%TO.C,TP4*%
X53349777Y-57516773D03*
%TD*%
%TO.C,TP1*%
X83789778Y-75980332D03*
%TD*%
%TO.C,TP6*%
X55219777Y-40996773D03*
%TD*%
M02*
