%TF.GenerationSoftware,KiCad,Pcbnew,(6.0.7-1)-1*%
%TF.CreationDate,2022-10-26T11:28:26+01:00*%
%TF.ProjectId,panel,70616e65-6c2e-46b6-9963-61645f706362,rev?*%
%TF.SameCoordinates,Original*%
%TF.FileFunction,Copper,L4,Bot*%
%TF.FilePolarity,Positive*%
%FSLAX46Y46*%
G04 Gerber Fmt 4.6, Leading zero omitted, Abs format (unit mm)*
G04 Created by KiCad (PCBNEW (6.0.7-1)-1) date 2022-10-26 11:28:26*
%MOMM*%
%LPD*%
G01*
G04 APERTURE LIST*
G04 Aperture macros list*
%AMRoundRect*
0 Rectangle with rounded corners*
0 $1 Rounding radius*
0 $2 $3 $4 $5 $6 $7 $8 $9 X,Y pos of 4 corners*
0 Add a 4 corners polygon primitive as box body*
4,1,4,$2,$3,$4,$5,$6,$7,$8,$9,$2,$3,0*
0 Add four circle primitives for the rounded corners*
1,1,$1+$1,$2,$3*
1,1,$1+$1,$4,$5*
1,1,$1+$1,$6,$7*
1,1,$1+$1,$8,$9*
0 Add four rect primitives between the rounded corners*
20,1,$1+$1,$2,$3,$4,$5,0*
20,1,$1+$1,$4,$5,$6,$7,0*
20,1,$1+$1,$6,$7,$8,$9,0*
20,1,$1+$1,$8,$9,$2,$3,0*%
%AMFreePoly0*
4,1,16,0.444576,0.992426,0.462150,0.950000,0.462150,0.300000,0.457200,0.288050,0.457200,-0.457200,-0.274320,-0.457201,-0.457200,-0.274320,-0.457200,0.240000,-0.697850,0.240000,-0.740276,0.257574,-0.757850,0.300000,-0.757850,0.950000,-0.740276,0.992426,-0.697850,1.010000,0.402150,1.010000,0.444576,0.992426,0.444576,0.992426,$1*%
%AMFreePoly1*
4,1,16,0.740277,0.992426,0.757850,0.950000,0.757850,0.300000,0.740275,0.257574,0.697850,0.240000,0.457200,0.240000,0.457201,-0.274320,0.274320,-0.457200,-0.457200,-0.457200,-0.457200,0.288050,-0.462150,0.300000,-0.462150,0.949999,-0.444576,0.992426,-0.402150,1.010000,0.697850,1.010000,0.740277,0.992426,0.740277,0.992426,$1*%
G04 Aperture macros list end*
%TA.AperFunction,ComponentPad*%
%ADD10FreePoly0,115.000000*%
%TD*%
%TA.AperFunction,ComponentPad*%
%ADD11FreePoly1,115.000000*%
%TD*%
%TA.AperFunction,ComponentPad*%
%ADD12FreePoly0,295.000000*%
%TD*%
%TA.AperFunction,ComponentPad*%
%ADD13FreePoly1,295.000000*%
%TD*%
%TA.AperFunction,ComponentPad*%
%ADD14RoundRect,0.250000X0.777817X0.000000X0.000000X0.777817X-0.777817X0.000000X0.000000X-0.777817X0*%
%TD*%
%TA.AperFunction,ComponentPad*%
%ADD15C,1.600000*%
%TD*%
%TA.AperFunction,ComponentPad*%
%ADD16O,2.108200X0.990600*%
%TD*%
%TA.AperFunction,ComponentPad*%
%ADD17O,1.803400X0.990600*%
%TD*%
%TA.AperFunction,ComponentPad*%
%ADD18FreePoly1,245.000000*%
%TD*%
%TA.AperFunction,ComponentPad*%
%ADD19FreePoly0,245.000000*%
%TD*%
%TA.AperFunction,SMDPad,CuDef*%
%ADD20C,1.000000*%
%TD*%
%TA.AperFunction,SMDPad,CuDef*%
%ADD21C,2.000000*%
%TD*%
%TA.AperFunction,SMDPad,CuDef*%
%ADD22R,0.350000X2.500000*%
%TD*%
%TA.AperFunction,ViaPad*%
%ADD23C,0.600000*%
%TD*%
%TA.AperFunction,Conductor*%
%ADD24C,0.400000*%
%TD*%
%TA.AperFunction,Conductor*%
%ADD25C,0.300000*%
%TD*%
%TA.AperFunction,Conductor*%
%ADD26C,0.200000*%
%TD*%
G04 APERTURE END LIST*
D10*
%TO.P,SW5,3*%
%TO.N,N/C*%
X27051842Y-52049052D03*
D11*
X28613712Y-55398494D03*
%TD*%
D12*
%TO.P,SW3,3*%
%TO.N,N/C*%
X60867712Y-79218053D03*
D13*
X59305842Y-75868611D03*
%TD*%
D14*
%TO.P,J2,1,Pin_1*%
%TO.N,Board_3-+BATT*%
X74499778Y-99760332D03*
D15*
%TO.P,J2,2,Pin_2*%
%TO.N,Board_3-GND*%
X73085564Y-98346118D03*
%TD*%
D16*
%TO.P,J1,13,SHELL*%
%TO.N,Board_1-GND*%
X99879778Y-41186771D03*
X99879778Y-49826775D03*
D17*
X104059778Y-49826775D03*
X104059778Y-41186771D03*
%TD*%
D14*
%TO.P,J2,1,Pin_1*%
%TO.N,Board_2-+BATT*%
X32499777Y-99760332D03*
D15*
%TO.P,J2,2,Pin_2*%
%TO.N,Board_2-GND*%
X31085563Y-98346118D03*
%TD*%
D13*
%TO.P,SW3,3*%
%TO.N,N/C*%
X101305843Y-35615052D03*
D12*
X102867713Y-38964494D03*
%TD*%
D13*
%TO.P,SW3,3*%
%TO.N,N/C*%
X59305842Y-35615052D03*
D12*
X60867712Y-38964494D03*
%TD*%
D14*
%TO.P,J2,1,Pin_1*%
%TO.N,Board_1-+BATT*%
X74499778Y-59506773D03*
D15*
%TO.P,J2,2,Pin_2*%
%TO.N,Board_1-GND*%
X73085564Y-58092559D03*
%TD*%
D17*
%TO.P,J1,13,SHELL*%
%TO.N,Board_2-GND*%
X62059777Y-90080334D03*
D16*
X57879777Y-81440330D03*
D17*
X62059777Y-81440330D03*
D16*
X57879777Y-90080334D03*
%TD*%
D18*
%TO.P,SW4,3*%
%TO.N,N/C*%
X102867713Y-92302611D03*
D19*
X101305843Y-95652053D03*
%TD*%
D10*
%TO.P,SW5,3*%
%TO.N,N/C*%
X69051843Y-52049052D03*
D11*
X70613713Y-55398494D03*
%TD*%
D18*
%TO.P,SW4,3*%
%TO.N,N/C*%
X102867713Y-52049052D03*
D19*
X101305843Y-55398494D03*
%TD*%
D11*
%TO.P,SW5,3*%
%TO.N,N/C*%
X28613712Y-95652053D03*
D10*
X27051842Y-92302611D03*
%TD*%
D18*
%TO.P,SW4,3*%
%TO.N,N/C*%
X60867712Y-92302611D03*
D19*
X59305842Y-95652053D03*
%TD*%
D12*
%TO.P,SW3,3*%
%TO.N,N/C*%
X102867713Y-79218053D03*
D13*
X101305843Y-75868611D03*
%TD*%
D17*
%TO.P,J1,13,SHELL*%
%TO.N,Board_3-GND*%
X104059778Y-81440330D03*
D16*
X99879778Y-81440330D03*
D17*
X104059778Y-90080334D03*
D16*
X99879778Y-90080334D03*
%TD*%
D14*
%TO.P,J2,1,Pin_1*%
%TO.N,Board_0-+BATT*%
X32499777Y-59506773D03*
D15*
%TO.P,J2,2,Pin_2*%
%TO.N,Board_0-GND*%
X31085563Y-58092559D03*
%TD*%
D18*
%TO.P,SW4,3*%
%TO.N,N/C*%
X60867712Y-52049052D03*
D19*
X59305842Y-55398494D03*
%TD*%
D10*
%TO.P,SW5,3*%
%TO.N,N/C*%
X69051843Y-92302611D03*
D11*
X70613713Y-95652053D03*
%TD*%
D16*
%TO.P,J1,13,SHELL*%
%TO.N,Board_0-GND*%
X57879777Y-49826775D03*
X57879777Y-41186771D03*
D17*
X62059777Y-49826775D03*
X62059777Y-41186771D03*
%TD*%
D20*
%TO.P,TP1,1,1*%
%TO.N,Board_2-/DAC1*%
X41789777Y-75980332D03*
%TD*%
%TO.P,TP2,1,1*%
%TO.N,Board_3-/DAC2*%
X82899778Y-81230332D03*
%TD*%
D21*
%TO.P,REF\u002A\u002A,*%
%TO.N,*%
X20000000Y-17500000D03*
%TD*%
D22*
%TO.P,U5,1,GND*%
%TO.N,Board_1-GND*%
X82459778Y-55526273D03*
%TO.P,U5,2,LEDK*%
%TO.N,Board_1-/LEDK*%
X83159778Y-55526273D03*
%TO.P,U5,3,LEDA*%
%TO.N,Board_1-/LEDA*%
X83859778Y-55526273D03*
%TO.P,U5,4,VDD*%
%TO.N,Board_1-/POWER*%
X84559778Y-55526273D03*
%TO.P,U5,5,GND*%
%TO.N,Board_1-GND*%
X85259778Y-55526273D03*
%TO.P,U5,6,GND*%
X85959778Y-55526273D03*
%TO.P,U5,7,D/C*%
%TO.N,Board_1-unconnected-(U5-Pad7)*%
X86659778Y-55526273D03*
%TO.P,U5,8,CS*%
%TO.N,Board_1-unconnected-(U5-Pad8)*%
X87359778Y-55526273D03*
%TO.P,U5,9,SCL*%
%TO.N,Board_1-/SCL*%
X88059778Y-55526273D03*
%TO.P,U5,10,SDA*%
%TO.N,Board_1-/SDA*%
X88759778Y-55526273D03*
%TO.P,U5,11,RESET*%
%TO.N,Board_1-unconnected-(U5-Pad11)*%
X89459778Y-55526273D03*
%TO.P,U5,12,GND*%
%TO.N,Board_1-GND*%
X90159778Y-55526273D03*
%TD*%
D20*
%TO.P,TP2,1,1*%
%TO.N,Board_0-/DAC2*%
X40899777Y-40976773D03*
%TD*%
%TO.P,TP4,1,1*%
%TO.N,Board_3-/DTR*%
X95349778Y-97770332D03*
%TD*%
%TO.P,TP2,1,1*%
%TO.N,Board_2-/DAC2*%
X40899777Y-81230332D03*
%TD*%
%TO.P,TP4,1,1*%
%TO.N,Board_1-/DTR*%
X95349778Y-57516773D03*
%TD*%
%TO.P,TP1,1,1*%
%TO.N,Board_1-/DAC1*%
X83789778Y-35726773D03*
%TD*%
D22*
%TO.P,U5,1,GND*%
%TO.N,Board_2-GND*%
X40459777Y-95779832D03*
%TO.P,U5,2,LEDK*%
%TO.N,Board_2-/LEDK*%
X41159777Y-95779832D03*
%TO.P,U5,3,LEDA*%
%TO.N,Board_2-/LEDA*%
X41859777Y-95779832D03*
%TO.P,U5,4,VDD*%
%TO.N,Board_2-/POWER*%
X42559777Y-95779832D03*
%TO.P,U5,5,GND*%
%TO.N,Board_2-GND*%
X43259777Y-95779832D03*
%TO.P,U5,6,GND*%
X43959777Y-95779832D03*
%TO.P,U5,7,D/C*%
%TO.N,Board_2-unconnected-(U5-Pad7)*%
X44659777Y-95779832D03*
%TO.P,U5,8,CS*%
%TO.N,Board_2-unconnected-(U5-Pad8)*%
X45359777Y-95779832D03*
%TO.P,U5,9,SCL*%
%TO.N,Board_2-/SCL*%
X46059777Y-95779832D03*
%TO.P,U5,10,SDA*%
%TO.N,Board_2-/SDA*%
X46759777Y-95779832D03*
%TO.P,U5,11,RESET*%
%TO.N,Board_2-unconnected-(U5-Pad11)*%
X47459777Y-95779832D03*
%TO.P,U5,12,GND*%
%TO.N,Board_2-GND*%
X48159777Y-95779832D03*
%TD*%
D20*
%TO.P,TP3,1,1*%
%TO.N,Board_0-/RTS*%
X53689777Y-55436773D03*
%TD*%
D21*
%TO.P,REF\u002A\u002A,*%
%TO.N,*%
X110000000Y-17500000D03*
%TD*%
D20*
%TO.P,TP3,1,1*%
%TO.N,Board_3-/RTS*%
X95689778Y-95690332D03*
%TD*%
%TO.P,TP7,1,1*%
%TO.N,Board_0-/RXD*%
X55189777Y-38646773D03*
%TD*%
%TO.P,TP2,1,1*%
%TO.N,Board_1-/DAC2*%
X82899778Y-40976773D03*
%TD*%
D21*
%TO.P,REF\u002A\u002A,*%
%TO.N,*%
X20000000Y-112500000D03*
%TD*%
D20*
%TO.P,TP6,1,1*%
%TO.N,Board_3-/TXD*%
X97219778Y-81250332D03*
%TD*%
%TO.P,TP7,1,1*%
%TO.N,Board_1-/RXD*%
X97189778Y-38646773D03*
%TD*%
%TO.P,TP7,1,1*%
%TO.N,Board_2-/RXD*%
X55189777Y-78900332D03*
%TD*%
%TO.P,TP3,1,1*%
%TO.N,Board_1-/RTS*%
X95689778Y-55436773D03*
%TD*%
%TO.P,TP7,1,1*%
%TO.N,Board_3-/RXD*%
X97189778Y-78900332D03*
%TD*%
%TO.P,TP1,1,1*%
%TO.N,Board_0-/DAC1*%
X41789777Y-35726773D03*
%TD*%
%TO.P,TP6,1,1*%
%TO.N,Board_2-/TXD*%
X55219777Y-81250332D03*
%TD*%
%TO.P,TP3,1,1*%
%TO.N,Board_2-/RTS*%
X53689777Y-95690332D03*
%TD*%
%TO.P,TP6,1,1*%
%TO.N,Board_1-/TXD*%
X97219778Y-40996773D03*
%TD*%
%TO.P,TP4,1,1*%
%TO.N,Board_2-/DTR*%
X53349777Y-97770332D03*
%TD*%
D22*
%TO.P,U5,1,GND*%
%TO.N,Board_3-GND*%
X82459778Y-95779832D03*
%TO.P,U5,2,LEDK*%
%TO.N,Board_3-/LEDK*%
X83159778Y-95779832D03*
%TO.P,U5,3,LEDA*%
%TO.N,Board_3-/LEDA*%
X83859778Y-95779832D03*
%TO.P,U5,4,VDD*%
%TO.N,Board_3-/POWER*%
X84559778Y-95779832D03*
%TO.P,U5,5,GND*%
%TO.N,Board_3-GND*%
X85259778Y-95779832D03*
%TO.P,U5,6,GND*%
X85959778Y-95779832D03*
%TO.P,U5,7,D/C*%
%TO.N,Board_3-unconnected-(U5-Pad7)*%
X86659778Y-95779832D03*
%TO.P,U5,8,CS*%
%TO.N,Board_3-unconnected-(U5-Pad8)*%
X87359778Y-95779832D03*
%TO.P,U5,9,SCL*%
%TO.N,Board_3-/SCL*%
X88059778Y-95779832D03*
%TO.P,U5,10,SDA*%
%TO.N,Board_3-/SDA*%
X88759778Y-95779832D03*
%TO.P,U5,11,RESET*%
%TO.N,Board_3-unconnected-(U5-Pad11)*%
X89459778Y-95779832D03*
%TO.P,U5,12,GND*%
%TO.N,Board_3-GND*%
X90159778Y-95779832D03*
%TD*%
%TO.P,U5,1,GND*%
%TO.N,Board_0-GND*%
X40459777Y-55526273D03*
%TO.P,U5,2,LEDK*%
%TO.N,Board_0-/LEDK*%
X41159777Y-55526273D03*
%TO.P,U5,3,LEDA*%
%TO.N,Board_0-/LEDA*%
X41859777Y-55526273D03*
%TO.P,U5,4,VDD*%
%TO.N,Board_0-/POWER*%
X42559777Y-55526273D03*
%TO.P,U5,5,GND*%
%TO.N,Board_0-GND*%
X43259777Y-55526273D03*
%TO.P,U5,6,GND*%
X43959777Y-55526273D03*
%TO.P,U5,7,D/C*%
%TO.N,Board_0-unconnected-(U5-Pad7)*%
X44659777Y-55526273D03*
%TO.P,U5,8,CS*%
%TO.N,Board_0-unconnected-(U5-Pad8)*%
X45359777Y-55526273D03*
%TO.P,U5,9,SCL*%
%TO.N,Board_0-/SCL*%
X46059777Y-55526273D03*
%TO.P,U5,10,SDA*%
%TO.N,Board_0-/SDA*%
X46759777Y-55526273D03*
%TO.P,U5,11,RESET*%
%TO.N,Board_0-unconnected-(U5-Pad11)*%
X47459777Y-55526273D03*
%TO.P,U5,12,GND*%
%TO.N,Board_0-GND*%
X48159777Y-55526273D03*
%TD*%
D20*
%TO.P,TP4,1,1*%
%TO.N,Board_0-/DTR*%
X53349777Y-57516773D03*
%TD*%
%TO.P,TP1,1,1*%
%TO.N,Board_3-/DAC1*%
X83789778Y-75980332D03*
%TD*%
%TO.P,TP6,1,1*%
%TO.N,Board_0-/TXD*%
X55219777Y-40996773D03*
%TD*%
D23*
%TO.N,Board_0-+3V3*%
X47429777Y-33926773D03*
X39079777Y-56196773D03*
X48980277Y-33916773D03*
X39079777Y-45326773D03*
%TO.N,Board_0-+BATT*%
X36349777Y-53226773D03*
%TO.N,Board_0-/B1*%
X59904544Y-38104196D03*
X46409777Y-34146773D03*
%TO.N,Board_0-/B2*%
X45860277Y-34896773D03*
X59926538Y-54279225D03*
%TO.N,Board_0-/B3*%
X27829777Y-51256773D03*
X45129737Y-34729245D03*
%TO.N,Board_0-/BACKLIGHT*%
X47679222Y-44269106D03*
X48586129Y-57148930D03*
X46839777Y-45916273D03*
X50356777Y-41767273D03*
%TO.N,Board_0-/BATT_ADC*%
X39540557Y-33901273D03*
X27919777Y-46186773D03*
%TO.N,Board_0-/BOOT*%
X41498337Y-41713849D03*
X38619777Y-61273531D03*
%TO.N,Board_0-/CC2*%
X56209777Y-44756773D03*
X58297492Y-46856274D03*
%TO.N,Board_0-/CONNECTED*%
X41806662Y-39068273D03*
X48691261Y-44676773D03*
%TO.N,Board_0-/DAC1*%
X41309777Y-37317273D03*
%TO.N,Board_0-/DAC2*%
X41354358Y-38066372D03*
%TO.N,Board_0-/DIR*%
X31229777Y-38776773D03*
X36019777Y-34646773D03*
%TO.N,Board_0-/DP*%
X58161277Y-45756774D03*
X58339777Y-44556773D03*
%TO.N,Board_0-/DTR*%
X51909777Y-58146773D03*
%TO.N,Board_0-/EN*%
X42359777Y-34496773D03*
X55589777Y-56046773D03*
%TO.N,Board_0-/ENABLE*%
X45050249Y-44689240D03*
X42780511Y-52556039D03*
%TO.N,Board_0-/LEDA*%
X41829777Y-57086773D03*
%TO.N,Board_0-/LEDK*%
X41686354Y-59269355D03*
%TO.N,Board_0-/PIEZO*%
X44298990Y-44753441D03*
X43940277Y-53826771D03*
%TO.N,Board_0-/POWER*%
X34219777Y-51136773D03*
X42579280Y-57086773D03*
X31239777Y-37356773D03*
X35569777Y-33376773D03*
X30019777Y-34186773D03*
%TO.N,Board_0-/RTS*%
X52629777Y-54356773D03*
X50569777Y-53836773D03*
%TO.N,Board_0-/RXD*%
X49691261Y-52637724D03*
X53350277Y-39366773D03*
%TO.N,Board_0-/SCL*%
X44729777Y-45366773D03*
X38198985Y-42295981D03*
X30713520Y-41815395D03*
X51549777Y-42116773D03*
%TO.N,Board_0-/SDA*%
X48584761Y-43772337D03*
X37519719Y-42612763D03*
X29219777Y-41746773D03*
X45437202Y-45916273D03*
X50503097Y-39660408D03*
%TO.N,Board_0-/STAT*%
X38998333Y-42318217D03*
X30366009Y-46518862D03*
%TO.N,Board_0-/TXD*%
X50651261Y-52705224D03*
X53339777Y-40306773D03*
%TO.N,Board_0-/VIO*%
X52609777Y-47936773D03*
X48069777Y-47353224D03*
%TO.N,Board_0-GND*%
X49531261Y-49017724D03*
X31909777Y-51776773D03*
X39819777Y-55526773D03*
X32289777Y-48126773D03*
X35289777Y-30626773D03*
X28587260Y-54136545D03*
X45289777Y-62596773D03*
X50401261Y-50737724D03*
X33429777Y-44136773D03*
X51281261Y-49057724D03*
X46359777Y-31866773D03*
X48029777Y-60966773D03*
X53281261Y-45237724D03*
X47920777Y-37687773D03*
X30099777Y-48166773D03*
X51271261Y-49837724D03*
X51271261Y-50717724D03*
X47900777Y-41337773D03*
X53251261Y-50705224D03*
X57819777Y-51276773D03*
X41059777Y-31907273D03*
X59599777Y-36666773D03*
X27439777Y-37036773D03*
X46090777Y-37727773D03*
X47479777Y-53826771D03*
X49541261Y-50737724D03*
X26129777Y-45576773D03*
X43312597Y-57241696D03*
X44350777Y-41257773D03*
X54899777Y-58876773D03*
X30159777Y-49736773D03*
X46100777Y-41317773D03*
X40379777Y-26326773D03*
X44390777Y-39467773D03*
X50401261Y-49907724D03*
X47539777Y-26386773D03*
X47880777Y-39367773D03*
X38819777Y-34106773D03*
X50401261Y-49047724D03*
X54989777Y-48566773D03*
X54639777Y-54216773D03*
X50960846Y-45147842D03*
X32251221Y-36978217D03*
X43399777Y-60796773D03*
X40539777Y-62586773D03*
X44390777Y-37707773D03*
X27699777Y-50366773D03*
X50229777Y-33116773D03*
X49511261Y-49907724D03*
X44939777Y-33646773D03*
X38739777Y-39196773D03*
X40259777Y-59196773D03*
X46070777Y-39427773D03*
%TO.N,Board_0-VBUS*%
X56339777Y-52666773D03*
X58252732Y-47654800D03*
X30429777Y-51746773D03*
%TO.N,Board_1-+3V3*%
X89429778Y-33926773D03*
X81079778Y-56196773D03*
X90980278Y-33916773D03*
X81079778Y-45326773D03*
%TO.N,Board_1-+BATT*%
X78349778Y-53226773D03*
%TO.N,Board_1-/B1*%
X101904545Y-38104196D03*
X88409778Y-34146773D03*
%TO.N,Board_1-/B2*%
X87860278Y-34896773D03*
X101926539Y-54279225D03*
%TO.N,Board_1-/B3*%
X69829778Y-51256773D03*
X87129738Y-34729245D03*
%TO.N,Board_1-/BACKLIGHT*%
X89679223Y-44269106D03*
X90586130Y-57148930D03*
X88839778Y-45916273D03*
X92356778Y-41767273D03*
%TO.N,Board_1-/BATT_ADC*%
X81540558Y-33901273D03*
X69919778Y-46186773D03*
%TO.N,Board_1-/BOOT*%
X83498338Y-41713849D03*
X80619778Y-61273531D03*
%TO.N,Board_1-/CC2*%
X98209778Y-44756773D03*
X100297493Y-46856274D03*
%TO.N,Board_1-/CONNECTED*%
X83806663Y-39068273D03*
X90691262Y-44676773D03*
%TO.N,Board_1-/DAC1*%
X83309778Y-37317273D03*
%TO.N,Board_1-/DAC2*%
X83354359Y-38066372D03*
%TO.N,Board_1-/DIR*%
X73229778Y-38776773D03*
X78019778Y-34646773D03*
%TO.N,Board_1-/DP*%
X100161278Y-45756774D03*
X100339778Y-44556773D03*
%TO.N,Board_1-/DTR*%
X93909778Y-58146773D03*
%TO.N,Board_1-/EN*%
X84359778Y-34496773D03*
X97589778Y-56046773D03*
%TO.N,Board_1-/ENABLE*%
X87050250Y-44689240D03*
X84780512Y-52556039D03*
%TO.N,Board_1-/LEDA*%
X83829778Y-57086773D03*
%TO.N,Board_1-/LEDK*%
X83686355Y-59269355D03*
%TO.N,Board_1-/PIEZO*%
X86298991Y-44753441D03*
X85940278Y-53826771D03*
%TO.N,Board_1-/POWER*%
X76219778Y-51136773D03*
X84579281Y-57086773D03*
X73239778Y-37356773D03*
X77569778Y-33376773D03*
X72019778Y-34186773D03*
%TO.N,Board_1-/RTS*%
X94629778Y-54356773D03*
X92569778Y-53836773D03*
%TO.N,Board_1-/RXD*%
X91691262Y-52637724D03*
X95350278Y-39366773D03*
%TO.N,Board_1-/SCL*%
X86729778Y-45366773D03*
X80198986Y-42295981D03*
X72713521Y-41815395D03*
X93549778Y-42116773D03*
%TO.N,Board_1-/SDA*%
X90584762Y-43772337D03*
X79519720Y-42612763D03*
X71219778Y-41746773D03*
X87437203Y-45916273D03*
X92503098Y-39660408D03*
%TO.N,Board_1-/STAT*%
X80998334Y-42318217D03*
X72366010Y-46518862D03*
%TO.N,Board_1-/TXD*%
X92651262Y-52705224D03*
X95339778Y-40306773D03*
%TO.N,Board_1-/VIO*%
X94609778Y-47936773D03*
X90069778Y-47353224D03*
%TO.N,Board_1-GND*%
X91531262Y-49017724D03*
X73909778Y-51776773D03*
X81819778Y-55526773D03*
X74289778Y-48126773D03*
X77289778Y-30626773D03*
X70587261Y-54136545D03*
X87289778Y-62596773D03*
X92401262Y-50737724D03*
X75429778Y-44136773D03*
X93281262Y-49057724D03*
X88359778Y-31866773D03*
X90029778Y-60966773D03*
X95281262Y-45237724D03*
X89920778Y-37687773D03*
X72099778Y-48166773D03*
X93271262Y-49837724D03*
X93271262Y-50717724D03*
X89900778Y-41337773D03*
X95251262Y-50705224D03*
X99819778Y-51276773D03*
X83059778Y-31907273D03*
X101599778Y-36666773D03*
X69439778Y-37036773D03*
X88090778Y-37727773D03*
X89479778Y-53826771D03*
X91541262Y-50737724D03*
X68129778Y-45576773D03*
X85312598Y-57241696D03*
X86350778Y-41257773D03*
X96899778Y-58876773D03*
X72159778Y-49736773D03*
X88100778Y-41317773D03*
X82379778Y-26326773D03*
X86390778Y-39467773D03*
X92401262Y-49907724D03*
X89539778Y-26386773D03*
X89880778Y-39367773D03*
X80819778Y-34106773D03*
X92401262Y-49047724D03*
X96989778Y-48566773D03*
X96639778Y-54216773D03*
X92960847Y-45147842D03*
X74251222Y-36978217D03*
X85399778Y-60796773D03*
X82539778Y-62586773D03*
X86390778Y-37707773D03*
X69699778Y-50366773D03*
X92229778Y-33116773D03*
X91511262Y-49907724D03*
X86939778Y-33646773D03*
X80739778Y-39196773D03*
X82259778Y-59196773D03*
X88070778Y-39427773D03*
%TO.N,Board_1-VBUS*%
X98339778Y-52666773D03*
X100252733Y-47654800D03*
X72429778Y-51746773D03*
%TO.N,Board_2-+3V3*%
X47429777Y-74180332D03*
X39079777Y-96450332D03*
X48980277Y-74170332D03*
X39079777Y-85580332D03*
%TO.N,Board_2-+BATT*%
X36349777Y-93480332D03*
%TO.N,Board_2-/B1*%
X59904544Y-78357755D03*
X46409777Y-74400332D03*
%TO.N,Board_2-/B2*%
X45860277Y-75150332D03*
X59926538Y-94532784D03*
%TO.N,Board_2-/B3*%
X27829777Y-91510332D03*
X45129737Y-74982804D03*
%TO.N,Board_2-/BACKLIGHT*%
X47679222Y-84522665D03*
X48586129Y-97402489D03*
X46839777Y-86169832D03*
X50356777Y-82020832D03*
%TO.N,Board_2-/BATT_ADC*%
X39540557Y-74154832D03*
X27919777Y-86440332D03*
%TO.N,Board_2-/BOOT*%
X41498337Y-81967408D03*
X38619777Y-101527090D03*
%TO.N,Board_2-/CC2*%
X56209777Y-85010332D03*
X58297492Y-87109833D03*
%TO.N,Board_2-/CONNECTED*%
X41806662Y-79321832D03*
X48691261Y-84930332D03*
%TO.N,Board_2-/DAC1*%
X41309777Y-77570832D03*
%TO.N,Board_2-/DAC2*%
X41354358Y-78319931D03*
%TO.N,Board_2-/DIR*%
X31229777Y-79030332D03*
X36019777Y-74900332D03*
%TO.N,Board_2-/DP*%
X58161277Y-86010333D03*
X58339777Y-84810332D03*
%TO.N,Board_2-/DTR*%
X51909777Y-98400332D03*
%TO.N,Board_2-/EN*%
X42359777Y-74750332D03*
X55589777Y-96300332D03*
%TO.N,Board_2-/ENABLE*%
X45050249Y-84942799D03*
X42780511Y-92809598D03*
%TO.N,Board_2-/LEDA*%
X41829777Y-97340332D03*
%TO.N,Board_2-/LEDK*%
X41686354Y-99522914D03*
%TO.N,Board_2-/PIEZO*%
X44298990Y-85007000D03*
X43940277Y-94080330D03*
%TO.N,Board_2-/POWER*%
X34219777Y-91390332D03*
X42579280Y-97340332D03*
X31239777Y-77610332D03*
X35569777Y-73630332D03*
X30019777Y-74440332D03*
%TO.N,Board_2-/RTS*%
X52629777Y-94610332D03*
X50569777Y-94090332D03*
%TO.N,Board_2-/RXD*%
X49691261Y-92891283D03*
X53350277Y-79620332D03*
%TO.N,Board_2-/SCL*%
X44729777Y-85620332D03*
X38198985Y-82549540D03*
X30713520Y-82068954D03*
X51549777Y-82370332D03*
%TO.N,Board_2-/SDA*%
X48584761Y-84025896D03*
X37519719Y-82866322D03*
X29219777Y-82000332D03*
X45437202Y-86169832D03*
X50503097Y-79913967D03*
%TO.N,Board_2-/STAT*%
X38998333Y-82571776D03*
X30366009Y-86772421D03*
%TO.N,Board_2-/TXD*%
X50651261Y-92958783D03*
X53339777Y-80560332D03*
%TO.N,Board_2-/VIO*%
X52609777Y-88190332D03*
X48069777Y-87606783D03*
%TO.N,Board_2-GND*%
X49531261Y-89271283D03*
X31909777Y-92030332D03*
X39819777Y-95780332D03*
X32289777Y-88380332D03*
X35289777Y-70880332D03*
X28587260Y-94390104D03*
X45289777Y-102850332D03*
X50401261Y-90991283D03*
X33429777Y-84390332D03*
X51281261Y-89311283D03*
X46359777Y-72120332D03*
X48029777Y-101220332D03*
X53281261Y-85491283D03*
X47920777Y-77941332D03*
X30099777Y-88420332D03*
X51271261Y-90091283D03*
X51271261Y-90971283D03*
X47900777Y-81591332D03*
X53251261Y-90958783D03*
X57819777Y-91530332D03*
X41059777Y-72160832D03*
X59599777Y-76920332D03*
X27439777Y-77290332D03*
X46090777Y-77981332D03*
X47479777Y-94080330D03*
X49541261Y-90991283D03*
X26129777Y-85830332D03*
X43312597Y-97495255D03*
X44350777Y-81511332D03*
X54899777Y-99130332D03*
X30159777Y-89990332D03*
X46100777Y-81571332D03*
X40379777Y-66580332D03*
X44390777Y-79721332D03*
X50401261Y-90161283D03*
X47539777Y-66640332D03*
X47880777Y-79621332D03*
X38819777Y-74360332D03*
X50401261Y-89301283D03*
X54989777Y-88820332D03*
X54639777Y-94470332D03*
X50960846Y-85401401D03*
X32251221Y-77231776D03*
X43399777Y-101050332D03*
X40539777Y-102840332D03*
X44390777Y-77961332D03*
X27699777Y-90620332D03*
X50229777Y-73370332D03*
X49511261Y-90161283D03*
X44939777Y-73900332D03*
X38739777Y-79450332D03*
X40259777Y-99450332D03*
X46070777Y-79681332D03*
%TO.N,Board_2-VBUS*%
X56339777Y-92920332D03*
X58252732Y-87908359D03*
X30429777Y-92000332D03*
%TO.N,Board_3-+3V3*%
X89429778Y-74180332D03*
X81079778Y-96450332D03*
X90980278Y-74170332D03*
X81079778Y-85580332D03*
%TO.N,Board_3-+BATT*%
X78349778Y-93480332D03*
%TO.N,Board_3-/B1*%
X101904545Y-78357755D03*
X88409778Y-74400332D03*
%TO.N,Board_3-/B2*%
X87860278Y-75150332D03*
X101926539Y-94532784D03*
%TO.N,Board_3-/B3*%
X69829778Y-91510332D03*
X87129738Y-74982804D03*
%TO.N,Board_3-/BACKLIGHT*%
X89679223Y-84522665D03*
X90586130Y-97402489D03*
X88839778Y-86169832D03*
X92356778Y-82020832D03*
%TO.N,Board_3-/BATT_ADC*%
X81540558Y-74154832D03*
X69919778Y-86440332D03*
%TO.N,Board_3-/BOOT*%
X83498338Y-81967408D03*
X80619778Y-101527090D03*
%TO.N,Board_3-/CC2*%
X98209778Y-85010332D03*
X100297493Y-87109833D03*
%TO.N,Board_3-/CONNECTED*%
X83806663Y-79321832D03*
X90691262Y-84930332D03*
%TO.N,Board_3-/DAC1*%
X83309778Y-77570832D03*
%TO.N,Board_3-/DAC2*%
X83354359Y-78319931D03*
%TO.N,Board_3-/DIR*%
X73229778Y-79030332D03*
X78019778Y-74900332D03*
%TO.N,Board_3-/DP*%
X100161278Y-86010333D03*
X100339778Y-84810332D03*
%TO.N,Board_3-/DTR*%
X93909778Y-98400332D03*
%TO.N,Board_3-/EN*%
X84359778Y-74750332D03*
X97589778Y-96300332D03*
%TO.N,Board_3-/ENABLE*%
X87050250Y-84942799D03*
X84780512Y-92809598D03*
%TO.N,Board_3-/LEDA*%
X83829778Y-97340332D03*
%TO.N,Board_3-/LEDK*%
X83686355Y-99522914D03*
%TO.N,Board_3-/PIEZO*%
X86298991Y-85007000D03*
X85940278Y-94080330D03*
%TO.N,Board_3-/POWER*%
X76219778Y-91390332D03*
X84579281Y-97340332D03*
X73239778Y-77610332D03*
X77569778Y-73630332D03*
X72019778Y-74440332D03*
%TO.N,Board_3-/RTS*%
X94629778Y-94610332D03*
X92569778Y-94090332D03*
%TO.N,Board_3-/RXD*%
X91691262Y-92891283D03*
X95350278Y-79620332D03*
%TO.N,Board_3-/SCL*%
X86729778Y-85620332D03*
X80198986Y-82549540D03*
X72713521Y-82068954D03*
X93549778Y-82370332D03*
%TO.N,Board_3-/SDA*%
X90584762Y-84025896D03*
X79519720Y-82866322D03*
X71219778Y-82000332D03*
X87437203Y-86169832D03*
X92503098Y-79913967D03*
%TO.N,Board_3-/STAT*%
X80998334Y-82571776D03*
X72366010Y-86772421D03*
%TO.N,Board_3-/TXD*%
X92651262Y-92958783D03*
X95339778Y-80560332D03*
%TO.N,Board_3-/VIO*%
X94609778Y-88190332D03*
X90069778Y-87606783D03*
%TO.N,Board_3-GND*%
X91531262Y-89271283D03*
X73909778Y-92030332D03*
X81819778Y-95780332D03*
X74289778Y-88380332D03*
X77289778Y-70880332D03*
X70587261Y-94390104D03*
X87289778Y-102850332D03*
X92401262Y-90991283D03*
X75429778Y-84390332D03*
X93281262Y-89311283D03*
X88359778Y-72120332D03*
X90029778Y-101220332D03*
X95281262Y-85491283D03*
X89920778Y-77941332D03*
X72099778Y-88420332D03*
X93271262Y-90091283D03*
X93271262Y-90971283D03*
X89900778Y-81591332D03*
X95251262Y-90958783D03*
X99819778Y-91530332D03*
X83059778Y-72160832D03*
X101599778Y-76920332D03*
X69439778Y-77290332D03*
X88090778Y-77981332D03*
X89479778Y-94080330D03*
X91541262Y-90991283D03*
X68129778Y-85830332D03*
X85312598Y-97495255D03*
X86350778Y-81511332D03*
X96899778Y-99130332D03*
X72159778Y-89990332D03*
X88100778Y-81571332D03*
X82379778Y-66580332D03*
X86390778Y-79721332D03*
X92401262Y-90161283D03*
X89539778Y-66640332D03*
X89880778Y-79621332D03*
X80819778Y-74360332D03*
X92401262Y-89301283D03*
X96989778Y-88820332D03*
X96639778Y-94470332D03*
X92960847Y-85401401D03*
X74251222Y-77231776D03*
X85399778Y-101050332D03*
X82539778Y-102840332D03*
X86390778Y-77961332D03*
X69699778Y-90620332D03*
X92229778Y-73370332D03*
X91511262Y-90161283D03*
X86939778Y-73900332D03*
X80739778Y-79450332D03*
X82259778Y-99450332D03*
X88070778Y-79681332D03*
%TO.N,Board_3-VBUS*%
X98339778Y-92920332D03*
X100252733Y-87908359D03*
X72429778Y-92000332D03*
%TD*%
D24*
%TO.N,Board_0-+3V3*%
X39079777Y-45326773D02*
X39079777Y-56196773D01*
X47429777Y-33926773D02*
X48970277Y-33926773D01*
X48970277Y-33926773D02*
X48980277Y-33916773D01*
D25*
%TO.N,Board_0-+BATT*%
X32499777Y-57196773D02*
X32499777Y-59506773D01*
X36349777Y-53226773D02*
X36349777Y-53346773D01*
X36349777Y-53346773D02*
X32499777Y-57196773D01*
D26*
%TO.N,Board_0-/B1*%
X46409777Y-34146773D02*
X46709777Y-33846773D01*
X47999777Y-32556773D02*
X54357121Y-32556773D01*
X54357121Y-32556773D02*
X59904544Y-38104196D01*
X46709777Y-33846773D02*
X46779777Y-33776773D01*
X46779777Y-33776773D02*
X47999777Y-32556773D01*
%TO.N,Board_0-/B2*%
X59926538Y-41001352D02*
X59926538Y-54279225D01*
X45860277Y-34896773D02*
X45990277Y-34766773D01*
X53691959Y-34766773D02*
X59926538Y-41001352D01*
X45990277Y-34766773D02*
X53691959Y-34766773D01*
%TO.N,Board_0-/B3*%
X31041959Y-32386773D02*
X29459777Y-33968955D01*
X29459777Y-35794591D02*
X27149777Y-38104591D01*
X29459777Y-33968955D02*
X29459777Y-35794591D01*
X31111959Y-32456773D02*
X31041959Y-32386773D01*
X27149777Y-50594591D02*
X27811959Y-51256773D01*
X27811959Y-51256773D02*
X27829777Y-51256773D01*
X41970277Y-32456773D02*
X31111959Y-32456773D01*
X45129737Y-34729245D02*
X44242749Y-34729245D01*
X27149777Y-38104591D02*
X27149777Y-50594591D01*
X44242749Y-34729245D02*
X41970277Y-32456773D01*
%TO.N,Board_0-/BACKLIGHT*%
X46829777Y-51866773D02*
X48609777Y-53646773D01*
X46839777Y-45916273D02*
X46829777Y-45926273D01*
X48609777Y-53646773D02*
X48609777Y-57001273D01*
X48586129Y-57024921D02*
X48586129Y-57148930D01*
X46829777Y-45926273D02*
X46829777Y-51866773D01*
X48609777Y-57001273D02*
X48586129Y-57024921D01*
X47679222Y-43827328D02*
X47679222Y-44269106D01*
X49739277Y-41767273D02*
X47679222Y-43827328D01*
X50356777Y-41767273D02*
X49739277Y-41767273D01*
%TO.N,Board_0-/BATT_ADC*%
X35797595Y-33926773D02*
X36167595Y-33556773D01*
X39196057Y-33556773D02*
X39540557Y-33901273D01*
X36167595Y-33556773D02*
X39196057Y-33556773D01*
X33889777Y-33926773D02*
X35797595Y-33926773D01*
X27919777Y-46186773D02*
X27919777Y-39896773D01*
X27919777Y-39896773D02*
X33889777Y-33926773D01*
%TO.N,Board_0-/BOOT*%
X38412321Y-61066075D02*
X38412321Y-44784229D01*
X40355413Y-42856773D02*
X41498337Y-41713849D01*
X38412321Y-44784229D02*
X40339777Y-42856773D01*
X40339777Y-42856773D02*
X40355413Y-42856773D01*
X38619777Y-61273531D02*
X38412321Y-61066075D01*
%TO.N,Board_0-/CC2*%
X58297492Y-46844488D02*
X56209777Y-44756773D01*
X58297492Y-46856274D02*
X58297492Y-46844488D01*
%TO.N,Board_0-/CONNECTED*%
X46763716Y-44819106D02*
X45771383Y-43826773D01*
X42239777Y-43826773D02*
X42239777Y-39501388D01*
X48691261Y-44676773D02*
X48691261Y-44880724D01*
X45771383Y-43826773D02*
X42239777Y-43826773D01*
X48691261Y-44676773D02*
X48548928Y-44819106D01*
X48691261Y-44880724D02*
X48677761Y-44894224D01*
X48548928Y-44819106D02*
X46763716Y-44819106D01*
X42239777Y-39501388D02*
X41806662Y-39068273D01*
%TO.N,Board_0-/DAC1*%
X41309777Y-36206773D02*
X41789777Y-35726773D01*
X41309777Y-37317273D02*
X41309777Y-36206773D01*
%TO.N,Board_0-/DAC2*%
X40899777Y-38520953D02*
X40899777Y-40976773D01*
X41354358Y-38066372D02*
X40899777Y-38520953D01*
%TO.N,Board_0-/DIR*%
X36019777Y-34646773D02*
X35359777Y-34646773D01*
X35359777Y-34646773D02*
X31229777Y-38776773D01*
%TO.N,Board_0-/DP*%
X58161277Y-44735273D02*
X58339777Y-44556773D01*
X58161277Y-45756774D02*
X58161277Y-44735273D01*
%TO.N,Board_0-/DTR*%
X53349777Y-57516773D02*
X52719777Y-58146773D01*
X52719777Y-58146773D02*
X51909777Y-58146773D01*
%TO.N,Board_0-/EN*%
X55981959Y-37748955D02*
X55981959Y-44206773D01*
X55589777Y-44598955D02*
X55589777Y-56046773D01*
X42839777Y-34496773D02*
X42359777Y-34496773D01*
X55981959Y-44206773D02*
X55589777Y-44598955D01*
X44419777Y-36076773D02*
X42839777Y-34496773D01*
X54309777Y-36076773D02*
X55981959Y-37748955D01*
X44419777Y-36076773D02*
X54309777Y-36076773D01*
%TO.N,Board_0-/ENABLE*%
X43590277Y-51746273D02*
X42780511Y-52556039D01*
X44071172Y-44203441D02*
X43590277Y-44684336D01*
X43590277Y-44684336D02*
X43590277Y-51746273D01*
X44564450Y-44203441D02*
X44071172Y-44203441D01*
X45050249Y-44689240D02*
X44564450Y-44203441D01*
D24*
%TO.N,Board_0-/LEDA*%
X41859777Y-57056773D02*
X41829777Y-57086773D01*
X41859777Y-55526273D02*
X41859777Y-57056773D01*
D25*
%TO.N,Board_0-/LEDK*%
X41159777Y-55526273D02*
X41159777Y-58742778D01*
X41159777Y-58742778D02*
X41686354Y-59269355D01*
D26*
%TO.N,Board_0-/PIEZO*%
X43940277Y-45112154D02*
X43940277Y-53826771D01*
X44298990Y-44753441D02*
X43940277Y-45112154D01*
D24*
%TO.N,Board_0-/POWER*%
X42559777Y-57067270D02*
X42559777Y-55526273D01*
D25*
X34039777Y-51136773D02*
X34219777Y-51136773D01*
D26*
X30829777Y-33376773D02*
X30019777Y-34186773D01*
D25*
X31239777Y-37356773D02*
X28319777Y-40276773D01*
D26*
X35569777Y-33376773D02*
X30829777Y-33376773D01*
D24*
X42579280Y-57086773D02*
X42559777Y-57067270D01*
D25*
X28319777Y-40276773D02*
X28319777Y-45416773D01*
X28319777Y-45416773D02*
X34039777Y-51136773D01*
D26*
%TO.N,Board_0-/RTS*%
X50569777Y-53836773D02*
X52269777Y-53836773D01*
X53689777Y-55436773D02*
X53689777Y-55256773D01*
X52269777Y-53836773D02*
X52749777Y-54316773D01*
X53689777Y-55256773D02*
X52749777Y-54316773D01*
%TO.N,Board_0-/RXD*%
X47817095Y-45716773D02*
X49184751Y-45716773D01*
X49691261Y-52637724D02*
X47329777Y-50276240D01*
X49184751Y-45716773D02*
X52789777Y-42111747D01*
X52789777Y-39927273D02*
X53350277Y-39366773D01*
X47329777Y-46204091D02*
X47817095Y-45716773D01*
X52789777Y-42111747D02*
X52789777Y-39927273D01*
X54070277Y-38646773D02*
X55189777Y-38646773D01*
X53350277Y-39366773D02*
X54070277Y-38646773D01*
X47329777Y-50276240D02*
X47329777Y-46204091D01*
%TO.N,Board_0-/SCL*%
X37919777Y-42016773D02*
X30914898Y-42016773D01*
X49709777Y-44696773D02*
X49709777Y-43956773D01*
X38198985Y-42295981D02*
X37919777Y-42016773D01*
X49039777Y-45366773D02*
X49709777Y-44696773D01*
X49709777Y-43956773D02*
X51549777Y-42116773D01*
X44789777Y-52826247D02*
X46059777Y-54096247D01*
X30914898Y-42016773D02*
X30713520Y-41815395D01*
X44729777Y-45366773D02*
X49039777Y-45366773D01*
X44789777Y-45426773D02*
X44789777Y-52826247D01*
X46059777Y-54096247D02*
X46059777Y-55526273D01*
X44729777Y-45366773D02*
X44789777Y-45426773D01*
%TO.N,Board_0-/SDA*%
X50906777Y-40064088D02*
X50503097Y-39660408D01*
X37519719Y-42612763D02*
X37273729Y-42366773D01*
X29839777Y-42366773D02*
X29219777Y-41746773D01*
X49129531Y-43772337D02*
X50906777Y-41995091D01*
X45369777Y-52911273D02*
X46759777Y-54301273D01*
X46759777Y-54301273D02*
X46759777Y-55526273D01*
X50906777Y-41995091D02*
X50906777Y-40064088D01*
X48584761Y-43772337D02*
X49129531Y-43772337D01*
X45437202Y-45916273D02*
X45369777Y-45983698D01*
X37273729Y-42366773D02*
X29839777Y-42366773D01*
X45369777Y-45983698D02*
X45369777Y-52911273D01*
%TO.N,Board_0-/STAT*%
X34777688Y-46518862D02*
X30366009Y-46518862D01*
X38998333Y-42318217D02*
X38978333Y-42318217D01*
X38978333Y-42318217D02*
X34777688Y-46518862D01*
%TO.N,Board_0-/TXD*%
X54029777Y-40996773D02*
X55219777Y-40996773D01*
X54129777Y-50666773D02*
X54129777Y-41096773D01*
X53339777Y-40306773D02*
X54029777Y-40996773D01*
X52091326Y-52705224D02*
X54129777Y-50666773D01*
X54129777Y-41096773D02*
X53339777Y-40306773D01*
X50651261Y-52705224D02*
X52091326Y-52705224D01*
%TO.N,Board_0-/VIO*%
X52438826Y-48107724D02*
X48824277Y-48107724D01*
X52609777Y-47936773D02*
X52438826Y-48107724D01*
X48824277Y-48107724D02*
X48069777Y-47353224D01*
D24*
%TO.N,Board_0-GND*%
X39819777Y-55526773D02*
X39820277Y-55526273D01*
X48110275Y-53826771D02*
X47479777Y-53826771D01*
X43259777Y-57188876D02*
X43259777Y-55526273D01*
X43959777Y-56594516D02*
X43959777Y-55526273D01*
X48159777Y-53876273D02*
X48110275Y-53826771D01*
X43312597Y-57241696D02*
X43959777Y-56594516D01*
X48159777Y-55526273D02*
X48159777Y-53876273D01*
X43312597Y-57241696D02*
X43259777Y-57188876D01*
X39820277Y-55526273D02*
X40459777Y-55526273D01*
%TO.N,Board_0-VBUS*%
X58348257Y-55120833D02*
X59283877Y-54185213D01*
X59283877Y-54185213D02*
X59283877Y-50792673D01*
X56339777Y-52666773D02*
X57409777Y-52666773D01*
X29829777Y-52346773D02*
X29829777Y-58466773D01*
X58252732Y-47654800D02*
X58388567Y-47654800D01*
X58348257Y-57248293D02*
X58348257Y-55120833D01*
X53673519Y-61923031D02*
X58348257Y-57248293D01*
X29829777Y-58466773D02*
X33286035Y-61923031D01*
X57409777Y-52666773D02*
X59283877Y-50792673D01*
X33286035Y-61923031D02*
X53673519Y-61923031D01*
X30429777Y-51746773D02*
X29829777Y-52346773D01*
X58388567Y-47654800D02*
X59283877Y-48550110D01*
X59283877Y-48550110D02*
X59283877Y-50792673D01*
%TO.N,Board_1-+3V3*%
X81079778Y-45326773D02*
X81079778Y-56196773D01*
X89429778Y-33926773D02*
X90970278Y-33926773D01*
X90970278Y-33926773D02*
X90980278Y-33916773D01*
D25*
%TO.N,Board_1-+BATT*%
X74499778Y-57196773D02*
X74499778Y-59506773D01*
X78349778Y-53226773D02*
X78349778Y-53346773D01*
X78349778Y-53346773D02*
X74499778Y-57196773D01*
D26*
%TO.N,Board_1-/B1*%
X88409778Y-34146773D02*
X88709778Y-33846773D01*
X89999778Y-32556773D02*
X96357122Y-32556773D01*
X96357122Y-32556773D02*
X101904545Y-38104196D01*
X88709778Y-33846773D02*
X88779778Y-33776773D01*
X88779778Y-33776773D02*
X89999778Y-32556773D01*
%TO.N,Board_1-/B2*%
X101926539Y-41001352D02*
X101926539Y-54279225D01*
X87860278Y-34896773D02*
X87990278Y-34766773D01*
X95691960Y-34766773D02*
X101926539Y-41001352D01*
X87990278Y-34766773D02*
X95691960Y-34766773D01*
%TO.N,Board_1-/B3*%
X73041960Y-32386773D02*
X71459778Y-33968955D01*
X71459778Y-35794591D02*
X69149778Y-38104591D01*
X71459778Y-33968955D02*
X71459778Y-35794591D01*
X73111960Y-32456773D02*
X73041960Y-32386773D01*
X69149778Y-50594591D02*
X69811960Y-51256773D01*
X69811960Y-51256773D02*
X69829778Y-51256773D01*
X83970278Y-32456773D02*
X73111960Y-32456773D01*
X87129738Y-34729245D02*
X86242750Y-34729245D01*
X69149778Y-38104591D02*
X69149778Y-50594591D01*
X86242750Y-34729245D02*
X83970278Y-32456773D01*
%TO.N,Board_1-/BACKLIGHT*%
X88829778Y-51866773D02*
X90609778Y-53646773D01*
X88839778Y-45916273D02*
X88829778Y-45926273D01*
X90609778Y-53646773D02*
X90609778Y-57001273D01*
X90586130Y-57024921D02*
X90586130Y-57148930D01*
X88829778Y-45926273D02*
X88829778Y-51866773D01*
X90609778Y-57001273D02*
X90586130Y-57024921D01*
X89679223Y-43827328D02*
X89679223Y-44269106D01*
X91739278Y-41767273D02*
X89679223Y-43827328D01*
X92356778Y-41767273D02*
X91739278Y-41767273D01*
%TO.N,Board_1-/BATT_ADC*%
X77797596Y-33926773D02*
X78167596Y-33556773D01*
X81196058Y-33556773D02*
X81540558Y-33901273D01*
X78167596Y-33556773D02*
X81196058Y-33556773D01*
X75889778Y-33926773D02*
X77797596Y-33926773D01*
X69919778Y-46186773D02*
X69919778Y-39896773D01*
X69919778Y-39896773D02*
X75889778Y-33926773D01*
%TO.N,Board_1-/BOOT*%
X80412322Y-61066075D02*
X80412322Y-44784229D01*
X82355414Y-42856773D02*
X83498338Y-41713849D01*
X80412322Y-44784229D02*
X82339778Y-42856773D01*
X82339778Y-42856773D02*
X82355414Y-42856773D01*
X80619778Y-61273531D02*
X80412322Y-61066075D01*
%TO.N,Board_1-/CC2*%
X100297493Y-46844488D02*
X98209778Y-44756773D01*
X100297493Y-46856274D02*
X100297493Y-46844488D01*
%TO.N,Board_1-/CONNECTED*%
X88763717Y-44819106D02*
X87771384Y-43826773D01*
X84239778Y-43826773D02*
X84239778Y-39501388D01*
X90691262Y-44676773D02*
X90691262Y-44880724D01*
X87771384Y-43826773D02*
X84239778Y-43826773D01*
X90691262Y-44676773D02*
X90548929Y-44819106D01*
X90691262Y-44880724D02*
X90677762Y-44894224D01*
X90548929Y-44819106D02*
X88763717Y-44819106D01*
X84239778Y-39501388D02*
X83806663Y-39068273D01*
%TO.N,Board_1-/DAC1*%
X83309778Y-36206773D02*
X83789778Y-35726773D01*
X83309778Y-37317273D02*
X83309778Y-36206773D01*
%TO.N,Board_1-/DAC2*%
X82899778Y-38520953D02*
X82899778Y-40976773D01*
X83354359Y-38066372D02*
X82899778Y-38520953D01*
%TO.N,Board_1-/DIR*%
X78019778Y-34646773D02*
X77359778Y-34646773D01*
X77359778Y-34646773D02*
X73229778Y-38776773D01*
%TO.N,Board_1-/DP*%
X100161278Y-44735273D02*
X100339778Y-44556773D01*
X100161278Y-45756774D02*
X100161278Y-44735273D01*
%TO.N,Board_1-/DTR*%
X95349778Y-57516773D02*
X94719778Y-58146773D01*
X94719778Y-58146773D02*
X93909778Y-58146773D01*
%TO.N,Board_1-/EN*%
X97981960Y-37748955D02*
X97981960Y-44206773D01*
X97589778Y-44598955D02*
X97589778Y-56046773D01*
X84839778Y-34496773D02*
X84359778Y-34496773D01*
X97981960Y-44206773D02*
X97589778Y-44598955D01*
X86419778Y-36076773D02*
X84839778Y-34496773D01*
X96309778Y-36076773D02*
X97981960Y-37748955D01*
X86419778Y-36076773D02*
X96309778Y-36076773D01*
%TO.N,Board_1-/ENABLE*%
X85590278Y-51746273D02*
X84780512Y-52556039D01*
X86071173Y-44203441D02*
X85590278Y-44684336D01*
X85590278Y-44684336D02*
X85590278Y-51746273D01*
X86564451Y-44203441D02*
X86071173Y-44203441D01*
X87050250Y-44689240D02*
X86564451Y-44203441D01*
D24*
%TO.N,Board_1-/LEDA*%
X83859778Y-57056773D02*
X83829778Y-57086773D01*
X83859778Y-55526273D02*
X83859778Y-57056773D01*
D25*
%TO.N,Board_1-/LEDK*%
X83159778Y-55526273D02*
X83159778Y-58742778D01*
X83159778Y-58742778D02*
X83686355Y-59269355D01*
D26*
%TO.N,Board_1-/PIEZO*%
X85940278Y-45112154D02*
X85940278Y-53826771D01*
X86298991Y-44753441D02*
X85940278Y-45112154D01*
D24*
%TO.N,Board_1-/POWER*%
X84559778Y-57067270D02*
X84559778Y-55526273D01*
D25*
X76039778Y-51136773D02*
X76219778Y-51136773D01*
D26*
X72829778Y-33376773D02*
X72019778Y-34186773D01*
D25*
X73239778Y-37356773D02*
X70319778Y-40276773D01*
D26*
X77569778Y-33376773D02*
X72829778Y-33376773D01*
D24*
X84579281Y-57086773D02*
X84559778Y-57067270D01*
D25*
X70319778Y-40276773D02*
X70319778Y-45416773D01*
X70319778Y-45416773D02*
X76039778Y-51136773D01*
D26*
%TO.N,Board_1-/RTS*%
X92569778Y-53836773D02*
X94269778Y-53836773D01*
X95689778Y-55436773D02*
X95689778Y-55256773D01*
X94269778Y-53836773D02*
X94749778Y-54316773D01*
X95689778Y-55256773D02*
X94749778Y-54316773D01*
%TO.N,Board_1-/RXD*%
X89817096Y-45716773D02*
X91184752Y-45716773D01*
X91691262Y-52637724D02*
X89329778Y-50276240D01*
X91184752Y-45716773D02*
X94789778Y-42111747D01*
X94789778Y-39927273D02*
X95350278Y-39366773D01*
X89329778Y-46204091D02*
X89817096Y-45716773D01*
X94789778Y-42111747D02*
X94789778Y-39927273D01*
X96070278Y-38646773D02*
X97189778Y-38646773D01*
X95350278Y-39366773D02*
X96070278Y-38646773D01*
X89329778Y-50276240D02*
X89329778Y-46204091D01*
%TO.N,Board_1-/SCL*%
X79919778Y-42016773D02*
X72914899Y-42016773D01*
X91709778Y-44696773D02*
X91709778Y-43956773D01*
X80198986Y-42295981D02*
X79919778Y-42016773D01*
X91039778Y-45366773D02*
X91709778Y-44696773D01*
X91709778Y-43956773D02*
X93549778Y-42116773D01*
X86789778Y-52826247D02*
X88059778Y-54096247D01*
X72914899Y-42016773D02*
X72713521Y-41815395D01*
X86729778Y-45366773D02*
X91039778Y-45366773D01*
X86789778Y-45426773D02*
X86789778Y-52826247D01*
X88059778Y-54096247D02*
X88059778Y-55526273D01*
X86729778Y-45366773D02*
X86789778Y-45426773D01*
%TO.N,Board_1-/SDA*%
X92906778Y-40064088D02*
X92503098Y-39660408D01*
X79519720Y-42612763D02*
X79273730Y-42366773D01*
X71839778Y-42366773D02*
X71219778Y-41746773D01*
X91129532Y-43772337D02*
X92906778Y-41995091D01*
X87369778Y-52911273D02*
X88759778Y-54301273D01*
X88759778Y-54301273D02*
X88759778Y-55526273D01*
X92906778Y-41995091D02*
X92906778Y-40064088D01*
X90584762Y-43772337D02*
X91129532Y-43772337D01*
X87437203Y-45916273D02*
X87369778Y-45983698D01*
X79273730Y-42366773D02*
X71839778Y-42366773D01*
X87369778Y-45983698D02*
X87369778Y-52911273D01*
%TO.N,Board_1-/STAT*%
X76777689Y-46518862D02*
X72366010Y-46518862D01*
X80998334Y-42318217D02*
X80978334Y-42318217D01*
X80978334Y-42318217D02*
X76777689Y-46518862D01*
%TO.N,Board_1-/TXD*%
X96029778Y-40996773D02*
X97219778Y-40996773D01*
X96129778Y-50666773D02*
X96129778Y-41096773D01*
X95339778Y-40306773D02*
X96029778Y-40996773D01*
X94091327Y-52705224D02*
X96129778Y-50666773D01*
X96129778Y-41096773D02*
X95339778Y-40306773D01*
X92651262Y-52705224D02*
X94091327Y-52705224D01*
%TO.N,Board_1-/VIO*%
X94438827Y-48107724D02*
X90824278Y-48107724D01*
X94609778Y-47936773D02*
X94438827Y-48107724D01*
X90824278Y-48107724D02*
X90069778Y-47353224D01*
D24*
%TO.N,Board_1-GND*%
X81819778Y-55526773D02*
X81820278Y-55526273D01*
X90110276Y-53826771D02*
X89479778Y-53826771D01*
X85259778Y-57188876D02*
X85259778Y-55526273D01*
X85959778Y-56594516D02*
X85959778Y-55526273D01*
X90159778Y-53876273D02*
X90110276Y-53826771D01*
X85312598Y-57241696D02*
X85959778Y-56594516D01*
X90159778Y-55526273D02*
X90159778Y-53876273D01*
X85312598Y-57241696D02*
X85259778Y-57188876D01*
X81820278Y-55526273D02*
X82459778Y-55526273D01*
%TO.N,Board_1-VBUS*%
X100348258Y-55120833D02*
X101283878Y-54185213D01*
X101283878Y-54185213D02*
X101283878Y-50792673D01*
X98339778Y-52666773D02*
X99409778Y-52666773D01*
X71829778Y-52346773D02*
X71829778Y-58466773D01*
X100252733Y-47654800D02*
X100388568Y-47654800D01*
X100348258Y-57248293D02*
X100348258Y-55120833D01*
X95673520Y-61923031D02*
X100348258Y-57248293D01*
X71829778Y-58466773D02*
X75286036Y-61923031D01*
X99409778Y-52666773D02*
X101283878Y-50792673D01*
X75286036Y-61923031D02*
X95673520Y-61923031D01*
X72429778Y-51746773D02*
X71829778Y-52346773D01*
X100388568Y-47654800D02*
X101283878Y-48550110D01*
X101283878Y-48550110D02*
X101283878Y-50792673D01*
%TO.N,Board_2-+3V3*%
X39079777Y-85580332D02*
X39079777Y-96450332D01*
X47429777Y-74180332D02*
X48970277Y-74180332D01*
X48970277Y-74180332D02*
X48980277Y-74170332D01*
D25*
%TO.N,Board_2-+BATT*%
X32499777Y-97450332D02*
X32499777Y-99760332D01*
X36349777Y-93480332D02*
X36349777Y-93600332D01*
X36349777Y-93600332D02*
X32499777Y-97450332D01*
D26*
%TO.N,Board_2-/B1*%
X46409777Y-74400332D02*
X46709777Y-74100332D01*
X47999777Y-72810332D02*
X54357121Y-72810332D01*
X54357121Y-72810332D02*
X59904544Y-78357755D01*
X46709777Y-74100332D02*
X46779777Y-74030332D01*
X46779777Y-74030332D02*
X47999777Y-72810332D01*
%TO.N,Board_2-/B2*%
X59926538Y-81254911D02*
X59926538Y-94532784D01*
X45860277Y-75150332D02*
X45990277Y-75020332D01*
X53691959Y-75020332D02*
X59926538Y-81254911D01*
X45990277Y-75020332D02*
X53691959Y-75020332D01*
%TO.N,Board_2-/B3*%
X31041959Y-72640332D02*
X29459777Y-74222514D01*
X29459777Y-76048150D02*
X27149777Y-78358150D01*
X29459777Y-74222514D02*
X29459777Y-76048150D01*
X31111959Y-72710332D02*
X31041959Y-72640332D01*
X27149777Y-90848150D02*
X27811959Y-91510332D01*
X27811959Y-91510332D02*
X27829777Y-91510332D01*
X41970277Y-72710332D02*
X31111959Y-72710332D01*
X45129737Y-74982804D02*
X44242749Y-74982804D01*
X27149777Y-78358150D02*
X27149777Y-90848150D01*
X44242749Y-74982804D02*
X41970277Y-72710332D01*
%TO.N,Board_2-/BACKLIGHT*%
X46829777Y-92120332D02*
X48609777Y-93900332D01*
X46839777Y-86169832D02*
X46829777Y-86179832D01*
X48609777Y-93900332D02*
X48609777Y-97254832D01*
X48586129Y-97278480D02*
X48586129Y-97402489D01*
X46829777Y-86179832D02*
X46829777Y-92120332D01*
X48609777Y-97254832D02*
X48586129Y-97278480D01*
X47679222Y-84080887D02*
X47679222Y-84522665D01*
X49739277Y-82020832D02*
X47679222Y-84080887D01*
X50356777Y-82020832D02*
X49739277Y-82020832D01*
%TO.N,Board_2-/BATT_ADC*%
X35797595Y-74180332D02*
X36167595Y-73810332D01*
X39196057Y-73810332D02*
X39540557Y-74154832D01*
X36167595Y-73810332D02*
X39196057Y-73810332D01*
X33889777Y-74180332D02*
X35797595Y-74180332D01*
X27919777Y-86440332D02*
X27919777Y-80150332D01*
X27919777Y-80150332D02*
X33889777Y-74180332D01*
%TO.N,Board_2-/BOOT*%
X38412321Y-101319634D02*
X38412321Y-85037788D01*
X40355413Y-83110332D02*
X41498337Y-81967408D01*
X38412321Y-85037788D02*
X40339777Y-83110332D01*
X40339777Y-83110332D02*
X40355413Y-83110332D01*
X38619777Y-101527090D02*
X38412321Y-101319634D01*
%TO.N,Board_2-/CC2*%
X58297492Y-87098047D02*
X56209777Y-85010332D01*
X58297492Y-87109833D02*
X58297492Y-87098047D01*
%TO.N,Board_2-/CONNECTED*%
X46763716Y-85072665D02*
X45771383Y-84080332D01*
X42239777Y-84080332D02*
X42239777Y-79754947D01*
X48691261Y-84930332D02*
X48691261Y-85134283D01*
X45771383Y-84080332D02*
X42239777Y-84080332D01*
X48691261Y-84930332D02*
X48548928Y-85072665D01*
X48691261Y-85134283D02*
X48677761Y-85147783D01*
X48548928Y-85072665D02*
X46763716Y-85072665D01*
X42239777Y-79754947D02*
X41806662Y-79321832D01*
%TO.N,Board_2-/DAC1*%
X41309777Y-76460332D02*
X41789777Y-75980332D01*
X41309777Y-77570832D02*
X41309777Y-76460332D01*
%TO.N,Board_2-/DAC2*%
X40899777Y-78774512D02*
X40899777Y-81230332D01*
X41354358Y-78319931D02*
X40899777Y-78774512D01*
%TO.N,Board_2-/DIR*%
X36019777Y-74900332D02*
X35359777Y-74900332D01*
X35359777Y-74900332D02*
X31229777Y-79030332D01*
%TO.N,Board_2-/DP*%
X58161277Y-84988832D02*
X58339777Y-84810332D01*
X58161277Y-86010333D02*
X58161277Y-84988832D01*
%TO.N,Board_2-/DTR*%
X53349777Y-97770332D02*
X52719777Y-98400332D01*
X52719777Y-98400332D02*
X51909777Y-98400332D01*
%TO.N,Board_2-/EN*%
X55981959Y-78002514D02*
X55981959Y-84460332D01*
X55589777Y-84852514D02*
X55589777Y-96300332D01*
X42839777Y-74750332D02*
X42359777Y-74750332D01*
X55981959Y-84460332D02*
X55589777Y-84852514D01*
X44419777Y-76330332D02*
X42839777Y-74750332D01*
X54309777Y-76330332D02*
X55981959Y-78002514D01*
X44419777Y-76330332D02*
X54309777Y-76330332D01*
%TO.N,Board_2-/ENABLE*%
X43590277Y-91999832D02*
X42780511Y-92809598D01*
X44071172Y-84457000D02*
X43590277Y-84937895D01*
X43590277Y-84937895D02*
X43590277Y-91999832D01*
X44564450Y-84457000D02*
X44071172Y-84457000D01*
X45050249Y-84942799D02*
X44564450Y-84457000D01*
D24*
%TO.N,Board_2-/LEDA*%
X41859777Y-97310332D02*
X41829777Y-97340332D01*
X41859777Y-95779832D02*
X41859777Y-97310332D01*
D25*
%TO.N,Board_2-/LEDK*%
X41159777Y-95779832D02*
X41159777Y-98996337D01*
X41159777Y-98996337D02*
X41686354Y-99522914D01*
D26*
%TO.N,Board_2-/PIEZO*%
X43940277Y-85365713D02*
X43940277Y-94080330D01*
X44298990Y-85007000D02*
X43940277Y-85365713D01*
D24*
%TO.N,Board_2-/POWER*%
X42559777Y-97320829D02*
X42559777Y-95779832D01*
D25*
X34039777Y-91390332D02*
X34219777Y-91390332D01*
D26*
X30829777Y-73630332D02*
X30019777Y-74440332D01*
D25*
X31239777Y-77610332D02*
X28319777Y-80530332D01*
D26*
X35569777Y-73630332D02*
X30829777Y-73630332D01*
D24*
X42579280Y-97340332D02*
X42559777Y-97320829D01*
D25*
X28319777Y-80530332D02*
X28319777Y-85670332D01*
X28319777Y-85670332D02*
X34039777Y-91390332D01*
D26*
%TO.N,Board_2-/RTS*%
X50569777Y-94090332D02*
X52269777Y-94090332D01*
X53689777Y-95690332D02*
X53689777Y-95510332D01*
X52269777Y-94090332D02*
X52749777Y-94570332D01*
X53689777Y-95510332D02*
X52749777Y-94570332D01*
%TO.N,Board_2-/RXD*%
X47817095Y-85970332D02*
X49184751Y-85970332D01*
X49691261Y-92891283D02*
X47329777Y-90529799D01*
X49184751Y-85970332D02*
X52789777Y-82365306D01*
X52789777Y-80180832D02*
X53350277Y-79620332D01*
X47329777Y-86457650D02*
X47817095Y-85970332D01*
X52789777Y-82365306D02*
X52789777Y-80180832D01*
X54070277Y-78900332D02*
X55189777Y-78900332D01*
X53350277Y-79620332D02*
X54070277Y-78900332D01*
X47329777Y-90529799D02*
X47329777Y-86457650D01*
%TO.N,Board_2-/SCL*%
X37919777Y-82270332D02*
X30914898Y-82270332D01*
X49709777Y-84950332D02*
X49709777Y-84210332D01*
X38198985Y-82549540D02*
X37919777Y-82270332D01*
X49039777Y-85620332D02*
X49709777Y-84950332D01*
X49709777Y-84210332D02*
X51549777Y-82370332D01*
X44789777Y-93079806D02*
X46059777Y-94349806D01*
X30914898Y-82270332D02*
X30713520Y-82068954D01*
X44729777Y-85620332D02*
X49039777Y-85620332D01*
X44789777Y-85680332D02*
X44789777Y-93079806D01*
X46059777Y-94349806D02*
X46059777Y-95779832D01*
X44729777Y-85620332D02*
X44789777Y-85680332D01*
%TO.N,Board_2-/SDA*%
X50906777Y-80317647D02*
X50503097Y-79913967D01*
X37519719Y-82866322D02*
X37273729Y-82620332D01*
X29839777Y-82620332D02*
X29219777Y-82000332D01*
X49129531Y-84025896D02*
X50906777Y-82248650D01*
X45369777Y-93164832D02*
X46759777Y-94554832D01*
X46759777Y-94554832D02*
X46759777Y-95779832D01*
X50906777Y-82248650D02*
X50906777Y-80317647D01*
X48584761Y-84025896D02*
X49129531Y-84025896D01*
X45437202Y-86169832D02*
X45369777Y-86237257D01*
X37273729Y-82620332D02*
X29839777Y-82620332D01*
X45369777Y-86237257D02*
X45369777Y-93164832D01*
%TO.N,Board_2-/STAT*%
X34777688Y-86772421D02*
X30366009Y-86772421D01*
X38998333Y-82571776D02*
X38978333Y-82571776D01*
X38978333Y-82571776D02*
X34777688Y-86772421D01*
%TO.N,Board_2-/TXD*%
X54029777Y-81250332D02*
X55219777Y-81250332D01*
X54129777Y-90920332D02*
X54129777Y-81350332D01*
X53339777Y-80560332D02*
X54029777Y-81250332D01*
X52091326Y-92958783D02*
X54129777Y-90920332D01*
X54129777Y-81350332D02*
X53339777Y-80560332D01*
X50651261Y-92958783D02*
X52091326Y-92958783D01*
%TO.N,Board_2-/VIO*%
X52438826Y-88361283D02*
X48824277Y-88361283D01*
X52609777Y-88190332D02*
X52438826Y-88361283D01*
X48824277Y-88361283D02*
X48069777Y-87606783D01*
D24*
%TO.N,Board_2-GND*%
X39819777Y-95780332D02*
X39820277Y-95779832D01*
X48110275Y-94080330D02*
X47479777Y-94080330D01*
X43259777Y-97442435D02*
X43259777Y-95779832D01*
X43959777Y-96848075D02*
X43959777Y-95779832D01*
X48159777Y-94129832D02*
X48110275Y-94080330D01*
X43312597Y-97495255D02*
X43959777Y-96848075D01*
X48159777Y-95779832D02*
X48159777Y-94129832D01*
X43312597Y-97495255D02*
X43259777Y-97442435D01*
X39820277Y-95779832D02*
X40459777Y-95779832D01*
%TO.N,Board_2-VBUS*%
X58348257Y-95374392D02*
X59283877Y-94438772D01*
X59283877Y-94438772D02*
X59283877Y-91046232D01*
X56339777Y-92920332D02*
X57409777Y-92920332D01*
X29829777Y-92600332D02*
X29829777Y-98720332D01*
X58252732Y-87908359D02*
X58388567Y-87908359D01*
X58348257Y-97501852D02*
X58348257Y-95374392D01*
X53673519Y-102176590D02*
X58348257Y-97501852D01*
X29829777Y-98720332D02*
X33286035Y-102176590D01*
X57409777Y-92920332D02*
X59283877Y-91046232D01*
X33286035Y-102176590D02*
X53673519Y-102176590D01*
X30429777Y-92000332D02*
X29829777Y-92600332D01*
X58388567Y-87908359D02*
X59283877Y-88803669D01*
X59283877Y-88803669D02*
X59283877Y-91046232D01*
%TO.N,Board_3-+3V3*%
X81079778Y-85580332D02*
X81079778Y-96450332D01*
X89429778Y-74180332D02*
X90970278Y-74180332D01*
X90970278Y-74180332D02*
X90980278Y-74170332D01*
D25*
%TO.N,Board_3-+BATT*%
X74499778Y-97450332D02*
X74499778Y-99760332D01*
X78349778Y-93480332D02*
X78349778Y-93600332D01*
X78349778Y-93600332D02*
X74499778Y-97450332D01*
D26*
%TO.N,Board_3-/B1*%
X88409778Y-74400332D02*
X88709778Y-74100332D01*
X89999778Y-72810332D02*
X96357122Y-72810332D01*
X96357122Y-72810332D02*
X101904545Y-78357755D01*
X88709778Y-74100332D02*
X88779778Y-74030332D01*
X88779778Y-74030332D02*
X89999778Y-72810332D01*
%TO.N,Board_3-/B2*%
X101926539Y-81254911D02*
X101926539Y-94532784D01*
X87860278Y-75150332D02*
X87990278Y-75020332D01*
X95691960Y-75020332D02*
X101926539Y-81254911D01*
X87990278Y-75020332D02*
X95691960Y-75020332D01*
%TO.N,Board_3-/B3*%
X73041960Y-72640332D02*
X71459778Y-74222514D01*
X71459778Y-76048150D02*
X69149778Y-78358150D01*
X71459778Y-74222514D02*
X71459778Y-76048150D01*
X73111960Y-72710332D02*
X73041960Y-72640332D01*
X69149778Y-90848150D02*
X69811960Y-91510332D01*
X69811960Y-91510332D02*
X69829778Y-91510332D01*
X83970278Y-72710332D02*
X73111960Y-72710332D01*
X87129738Y-74982804D02*
X86242750Y-74982804D01*
X69149778Y-78358150D02*
X69149778Y-90848150D01*
X86242750Y-74982804D02*
X83970278Y-72710332D01*
%TO.N,Board_3-/BACKLIGHT*%
X88829778Y-92120332D02*
X90609778Y-93900332D01*
X88839778Y-86169832D02*
X88829778Y-86179832D01*
X90609778Y-93900332D02*
X90609778Y-97254832D01*
X90586130Y-97278480D02*
X90586130Y-97402489D01*
X88829778Y-86179832D02*
X88829778Y-92120332D01*
X90609778Y-97254832D02*
X90586130Y-97278480D01*
X89679223Y-84080887D02*
X89679223Y-84522665D01*
X91739278Y-82020832D02*
X89679223Y-84080887D01*
X92356778Y-82020832D02*
X91739278Y-82020832D01*
%TO.N,Board_3-/BATT_ADC*%
X77797596Y-74180332D02*
X78167596Y-73810332D01*
X81196058Y-73810332D02*
X81540558Y-74154832D01*
X78167596Y-73810332D02*
X81196058Y-73810332D01*
X75889778Y-74180332D02*
X77797596Y-74180332D01*
X69919778Y-86440332D02*
X69919778Y-80150332D01*
X69919778Y-80150332D02*
X75889778Y-74180332D01*
%TO.N,Board_3-/BOOT*%
X80412322Y-101319634D02*
X80412322Y-85037788D01*
X82355414Y-83110332D02*
X83498338Y-81967408D01*
X80412322Y-85037788D02*
X82339778Y-83110332D01*
X82339778Y-83110332D02*
X82355414Y-83110332D01*
X80619778Y-101527090D02*
X80412322Y-101319634D01*
%TO.N,Board_3-/CC2*%
X100297493Y-87098047D02*
X98209778Y-85010332D01*
X100297493Y-87109833D02*
X100297493Y-87098047D01*
%TO.N,Board_3-/CONNECTED*%
X88763717Y-85072665D02*
X87771384Y-84080332D01*
X84239778Y-84080332D02*
X84239778Y-79754947D01*
X90691262Y-84930332D02*
X90691262Y-85134283D01*
X87771384Y-84080332D02*
X84239778Y-84080332D01*
X90691262Y-84930332D02*
X90548929Y-85072665D01*
X90691262Y-85134283D02*
X90677762Y-85147783D01*
X90548929Y-85072665D02*
X88763717Y-85072665D01*
X84239778Y-79754947D02*
X83806663Y-79321832D01*
%TO.N,Board_3-/DAC1*%
X83309778Y-76460332D02*
X83789778Y-75980332D01*
X83309778Y-77570832D02*
X83309778Y-76460332D01*
%TO.N,Board_3-/DAC2*%
X82899778Y-78774512D02*
X82899778Y-81230332D01*
X83354359Y-78319931D02*
X82899778Y-78774512D01*
%TO.N,Board_3-/DIR*%
X78019778Y-74900332D02*
X77359778Y-74900332D01*
X77359778Y-74900332D02*
X73229778Y-79030332D01*
%TO.N,Board_3-/DP*%
X100161278Y-84988832D02*
X100339778Y-84810332D01*
X100161278Y-86010333D02*
X100161278Y-84988832D01*
%TO.N,Board_3-/DTR*%
X95349778Y-97770332D02*
X94719778Y-98400332D01*
X94719778Y-98400332D02*
X93909778Y-98400332D01*
%TO.N,Board_3-/EN*%
X97981960Y-78002514D02*
X97981960Y-84460332D01*
X97589778Y-84852514D02*
X97589778Y-96300332D01*
X84839778Y-74750332D02*
X84359778Y-74750332D01*
X97981960Y-84460332D02*
X97589778Y-84852514D01*
X86419778Y-76330332D02*
X84839778Y-74750332D01*
X96309778Y-76330332D02*
X97981960Y-78002514D01*
X86419778Y-76330332D02*
X96309778Y-76330332D01*
%TO.N,Board_3-/ENABLE*%
X85590278Y-91999832D02*
X84780512Y-92809598D01*
X86071173Y-84457000D02*
X85590278Y-84937895D01*
X85590278Y-84937895D02*
X85590278Y-91999832D01*
X86564451Y-84457000D02*
X86071173Y-84457000D01*
X87050250Y-84942799D02*
X86564451Y-84457000D01*
D24*
%TO.N,Board_3-/LEDA*%
X83859778Y-97310332D02*
X83829778Y-97340332D01*
X83859778Y-95779832D02*
X83859778Y-97310332D01*
D25*
%TO.N,Board_3-/LEDK*%
X83159778Y-95779832D02*
X83159778Y-98996337D01*
X83159778Y-98996337D02*
X83686355Y-99522914D01*
D26*
%TO.N,Board_3-/PIEZO*%
X85940278Y-85365713D02*
X85940278Y-94080330D01*
X86298991Y-85007000D02*
X85940278Y-85365713D01*
D24*
%TO.N,Board_3-/POWER*%
X84559778Y-97320829D02*
X84559778Y-95779832D01*
D25*
X76039778Y-91390332D02*
X76219778Y-91390332D01*
D26*
X72829778Y-73630332D02*
X72019778Y-74440332D01*
D25*
X73239778Y-77610332D02*
X70319778Y-80530332D01*
D26*
X77569778Y-73630332D02*
X72829778Y-73630332D01*
D24*
X84579281Y-97340332D02*
X84559778Y-97320829D01*
D25*
X70319778Y-80530332D02*
X70319778Y-85670332D01*
X70319778Y-85670332D02*
X76039778Y-91390332D01*
D26*
%TO.N,Board_3-/RTS*%
X92569778Y-94090332D02*
X94269778Y-94090332D01*
X95689778Y-95690332D02*
X95689778Y-95510332D01*
X94269778Y-94090332D02*
X94749778Y-94570332D01*
X95689778Y-95510332D02*
X94749778Y-94570332D01*
%TO.N,Board_3-/RXD*%
X89817096Y-85970332D02*
X91184752Y-85970332D01*
X91691262Y-92891283D02*
X89329778Y-90529799D01*
X91184752Y-85970332D02*
X94789778Y-82365306D01*
X94789778Y-80180832D02*
X95350278Y-79620332D01*
X89329778Y-86457650D02*
X89817096Y-85970332D01*
X94789778Y-82365306D02*
X94789778Y-80180832D01*
X96070278Y-78900332D02*
X97189778Y-78900332D01*
X95350278Y-79620332D02*
X96070278Y-78900332D01*
X89329778Y-90529799D02*
X89329778Y-86457650D01*
%TO.N,Board_3-/SCL*%
X79919778Y-82270332D02*
X72914899Y-82270332D01*
X91709778Y-84950332D02*
X91709778Y-84210332D01*
X80198986Y-82549540D02*
X79919778Y-82270332D01*
X91039778Y-85620332D02*
X91709778Y-84950332D01*
X91709778Y-84210332D02*
X93549778Y-82370332D01*
X86789778Y-93079806D02*
X88059778Y-94349806D01*
X72914899Y-82270332D02*
X72713521Y-82068954D01*
X86729778Y-85620332D02*
X91039778Y-85620332D01*
X86789778Y-85680332D02*
X86789778Y-93079806D01*
X88059778Y-94349806D02*
X88059778Y-95779832D01*
X86729778Y-85620332D02*
X86789778Y-85680332D01*
%TO.N,Board_3-/SDA*%
X92906778Y-80317647D02*
X92503098Y-79913967D01*
X79519720Y-82866322D02*
X79273730Y-82620332D01*
X71839778Y-82620332D02*
X71219778Y-82000332D01*
X91129532Y-84025896D02*
X92906778Y-82248650D01*
X87369778Y-93164832D02*
X88759778Y-94554832D01*
X88759778Y-94554832D02*
X88759778Y-95779832D01*
X92906778Y-82248650D02*
X92906778Y-80317647D01*
X90584762Y-84025896D02*
X91129532Y-84025896D01*
X87437203Y-86169832D02*
X87369778Y-86237257D01*
X79273730Y-82620332D02*
X71839778Y-82620332D01*
X87369778Y-86237257D02*
X87369778Y-93164832D01*
%TO.N,Board_3-/STAT*%
X76777689Y-86772421D02*
X72366010Y-86772421D01*
X80998334Y-82571776D02*
X80978334Y-82571776D01*
X80978334Y-82571776D02*
X76777689Y-86772421D01*
%TO.N,Board_3-/TXD*%
X96029778Y-81250332D02*
X97219778Y-81250332D01*
X96129778Y-90920332D02*
X96129778Y-81350332D01*
X95339778Y-80560332D02*
X96029778Y-81250332D01*
X94091327Y-92958783D02*
X96129778Y-90920332D01*
X96129778Y-81350332D02*
X95339778Y-80560332D01*
X92651262Y-92958783D02*
X94091327Y-92958783D01*
%TO.N,Board_3-/VIO*%
X94438827Y-88361283D02*
X90824278Y-88361283D01*
X94609778Y-88190332D02*
X94438827Y-88361283D01*
X90824278Y-88361283D02*
X90069778Y-87606783D01*
D24*
%TO.N,Board_3-GND*%
X81819778Y-95780332D02*
X81820278Y-95779832D01*
X90110276Y-94080330D02*
X89479778Y-94080330D01*
X85259778Y-97442435D02*
X85259778Y-95779832D01*
X85959778Y-96848075D02*
X85959778Y-95779832D01*
X90159778Y-94129832D02*
X90110276Y-94080330D01*
X85312598Y-97495255D02*
X85959778Y-96848075D01*
X90159778Y-95779832D02*
X90159778Y-94129832D01*
X85312598Y-97495255D02*
X85259778Y-97442435D01*
X81820278Y-95779832D02*
X82459778Y-95779832D01*
%TO.N,Board_3-VBUS*%
X100348258Y-95374392D02*
X101283878Y-94438772D01*
X101283878Y-94438772D02*
X101283878Y-91046232D01*
X98339778Y-92920332D02*
X99409778Y-92920332D01*
X71829778Y-92600332D02*
X71829778Y-98720332D01*
X100252733Y-87908359D02*
X100388568Y-87908359D01*
X100348258Y-97501852D02*
X100348258Y-95374392D01*
X95673520Y-102176590D02*
X100348258Y-97501852D01*
X71829778Y-98720332D02*
X75286036Y-102176590D01*
X99409778Y-92920332D02*
X101283878Y-91046232D01*
X75286036Y-102176590D02*
X95673520Y-102176590D01*
X72429778Y-92000332D02*
X71829778Y-92600332D01*
X100388568Y-87908359D02*
X101283878Y-88803669D01*
X101283878Y-88803669D02*
X101283878Y-91046232D01*
%TD*%
M02*
