M48
; DRILL file {KiCad (6.0.7-1)-1} date Wednesday, 26 October 2022 at 11:28:30
; FORMAT={-:-/ absolute / inch / decimal}
; #@! TF.CreationDate,2022-10-26T11:28:30+01:00
; #@! TF.GenerationSoftware,Kicad,Pcbnew,(6.0.7-1)-1
; #@! TF.FileFunction,Plated,1,4,PTH
FMAT,2
INCH
; #@! TA.AperFunction,Plated,PTH,ViaDrill
T1C0.0118
; #@! TA.AperFunction,Plated,PTH,ComponentDrill
T2C0.0220
; #@! TA.AperFunction,Plated,PTH,ComponentDrill
T3C0.0236
%
G90
G05
T1
X1.0287Y-1.7944
X1.0287Y-3.3791
X1.0803Y-1.4581
X1.0803Y-3.0429
X1.0905Y-1.9829
X1.0905Y-3.5677
X1.0957Y-2.018
X1.0957Y-3.6028
X1.0992Y-1.8184
X1.0992Y-3.4032
X1.1255Y-2.1314
X1.1255Y-3.7161
X1.1504Y-1.6436
X1.1504Y-3.2284
X1.1819Y-1.3459
X1.1819Y-2.9307
X1.185Y-1.8963
X1.185Y-3.4811
X1.1874Y-1.9581
X1.1874Y-3.5429
X1.1955Y-1.8315
X1.1955Y-3.4162
X1.198Y-2.0373
X1.198Y-3.6221
X1.2092Y-1.6463
X1.2092Y-3.2311
X1.2295Y-1.5266
X1.2295Y-3.1114
X1.2299Y-1.4707
X1.2299Y-3.0555
X1.2563Y-2.0385
X1.2563Y-3.6232
X1.2697Y-1.4558
X1.2697Y-3.0406
X1.2713Y-1.8948
X1.2713Y-3.4795
X1.3161Y-1.7377
X1.3161Y-3.3225
X1.3472Y-2.0133
X1.3472Y-3.598
X1.3894Y-1.2058
X1.3894Y-2.7906
X1.4004Y-1.314
X1.4004Y-2.8988
X1.4181Y-1.364
X1.4181Y-2.9488
X1.4311Y-2.0955
X1.4311Y-3.6803
X1.4772Y-1.6777
X1.4772Y-3.2625
X1.5039Y-1.6652
X1.5039Y-3.25
X1.5205Y-2.4123
X1.5205Y-3.9971
X1.5252Y-1.5432
X1.5252Y-3.128
X1.5283Y-1.3428
X1.5283Y-2.9276
X1.5354Y-1.6661
X1.5354Y-3.2509
X1.5386Y-1.7845
X1.5386Y-2.2125
X1.5386Y-3.3693
X1.5386Y-3.7973
X1.5567Y-1.3347
X1.5567Y-2.9195
X1.5677Y-2.1861
X1.5677Y-3.7709
X1.585Y-2.3306
X1.585Y-3.9154
X1.5898Y-1.0365
X1.5898Y-2.6213
X1.5961Y-2.464
X1.5961Y-4.0488
X1.6165Y-1.2562
X1.6165Y-2.841
X1.6264Y-1.4692
X1.6264Y-3.054
X1.6281Y-1.4987
X1.6281Y-3.0835
X1.6338Y-1.6423
X1.6338Y-3.2271
X1.6412Y-2.3334
X1.6412Y-3.9182
X1.6459Y-1.5381
X1.6459Y-3.1229
X1.6468Y-2.2475
X1.6468Y-3.8323
X1.6677Y-1.3581
X1.6677Y-2.9429
X1.6763Y-2.2475
X1.6763Y-3.8323
X1.6843Y-2.0691
X1.6843Y-3.6539
X1.7052Y-2.2536
X1.7052Y-3.8384
X1.7087Y-2.3936
X1.7087Y-3.9784
X1.7299Y-2.1192
X1.7299Y-3.7039
X1.7441Y-1.7619
X1.7441Y-3.3467
X1.7461Y-1.6243
X1.7461Y-3.2091
X1.7477Y-1.4846
X1.7477Y-1.5538
X1.7477Y-3.0693
X1.7477Y-3.1386
X1.761Y-1.7861
X1.761Y-3.3709
X1.7693Y-1.3247
X1.7693Y-2.9095
X1.7736Y-1.7594
X1.7736Y-3.3442
X1.7768Y-1.3673
X1.7768Y-2.9521
X1.7831Y-2.4644
X1.7831Y-4.0492
X1.7889Y-1.8077
X1.7889Y-3.3925
X1.8055Y-1.3739
X1.8055Y-2.9587
X1.8138Y-1.5523
X1.8138Y-3.1371
X1.8146Y-1.4853
X1.8146Y-3.0701
X1.815Y-1.6267
X1.815Y-3.2115
X1.8252Y-1.2546
X1.8252Y-2.8394
X1.8272Y-1.3444
X1.8272Y-2.9291
X1.8441Y-1.8077
X1.8441Y-3.3925
X1.8673Y-1.3357
X1.8673Y-2.9205
X1.8693Y-2.1192
X1.8693Y-3.7039
X1.8716Y-1.0388
X1.8716Y-2.6236
X1.8771Y-1.7429
X1.8771Y-3.3277
X1.8851Y-1.5499
X1.8851Y-3.1347
X1.8859Y-1.6275
X1.8859Y-3.2123
X1.8866Y-1.4838
X1.8866Y-3.0686
X1.8909Y-2.4003
X1.8909Y-3.9851
X1.8925Y-1.8643
X1.8925Y-3.4491
X1.9128Y-1.7233
X1.9128Y-3.3081
X1.9128Y-2.25
X1.9128Y-3.8347
X1.917Y-1.7589
X1.917Y-3.3437
X1.9284Y-1.3353
X1.9284Y-2.9201
X1.9493Y-1.9649
X1.9493Y-3.5497
X1.95Y-1.9298
X1.95Y-3.5146
X1.9504Y-1.9975
X1.9504Y-3.5823
X1.9563Y-2.0724
X1.9563Y-3.6571
X1.9776Y-1.3038
X1.9776Y-2.8886
X1.9826Y-1.6444
X1.9826Y-3.2292
X1.9843Y-1.931
X1.9843Y-1.9649
X1.9843Y-1.9975
X1.9843Y-3.5158
X1.9843Y-3.5497
X1.9843Y-3.5823
X1.9883Y-1.5614
X1.9883Y-3.1462
X1.9909Y-2.1196
X1.9909Y-3.7043
X1.9941Y-2.075
X1.9941Y-3.6598
X2.0063Y-1.7775
X2.0063Y-3.3623
X2.0186Y-1.9621
X2.0186Y-1.9968
X2.0186Y-3.5469
X2.0186Y-3.5815
X2.0189Y-1.9314
X2.0189Y-3.5162
X2.0295Y-1.6581
X2.0295Y-3.2429
X2.0437Y-2.2892
X2.0437Y-3.874
X2.0713Y-1.8873
X2.0713Y-3.4721
X2.072Y-2.14
X2.072Y-3.7248
X2.0965Y-1.9963
X2.0965Y-3.5811
X2.0977Y-1.781
X2.0977Y-3.3658
X2.1Y-1.5869
X2.1Y-3.1717
X2.1004Y-1.5499
X2.1004Y-3.1347
X2.1512Y-2.1345
X2.1512Y-3.7193
X2.1614Y-2.318
X2.1614Y-3.9028
X2.165Y-1.9121
X2.165Y-3.4969
X2.1886Y-2.2066
X2.1886Y-3.7914
X2.213Y-1.7621
X2.213Y-3.3469
X2.2181Y-2.0735
X2.2181Y-3.6583
X2.2764Y-2.0188
X2.2764Y-3.6036
X2.2898Y-1.8014
X2.2898Y-3.3862
X2.2934Y-1.8762
X2.2934Y-3.461
X2.2952Y-1.8447
X2.2952Y-3.4295
X2.2968Y-1.7542
X2.2968Y-3.339
X2.3464Y-1.4436
X2.3464Y-3.0284
X2.3584Y-1.5002
X2.3584Y-3.085
X2.3593Y-2.137
X2.3593Y-3.7218
X2.6823Y-1.7944
X2.6823Y-3.3791
X2.7338Y-1.4581
X2.7338Y-3.0429
X2.7441Y-1.9829
X2.7441Y-3.5677
X2.7492Y-2.018
X2.7492Y-3.6028
X2.7527Y-1.8184
X2.7527Y-3.4032
X2.779Y-2.1314
X2.779Y-3.7161
X2.8039Y-1.6436
X2.8039Y-3.2284
X2.8354Y-1.3459
X2.8354Y-2.9307
X2.8386Y-1.8963
X2.8386Y-3.4811
X2.8409Y-1.9581
X2.8409Y-3.5429
X2.8491Y-1.8315
X2.8491Y-3.4162
X2.8516Y-2.0373
X2.8516Y-3.6221
X2.8627Y-1.6463
X2.8627Y-3.2311
X2.8831Y-1.5266
X2.8831Y-3.1114
X2.8835Y-1.4707
X2.8835Y-3.0555
X2.9098Y-2.0385
X2.9098Y-3.6232
X2.9233Y-1.4558
X2.9233Y-3.0406
X2.9248Y-1.8948
X2.9248Y-3.4795
X2.9697Y-1.7377
X2.9697Y-3.3225
X3.0008Y-2.0133
X3.0008Y-3.598
X3.0429Y-1.2058
X3.0429Y-2.7906
X3.0539Y-1.314
X3.0539Y-2.8988
X3.0716Y-1.364
X3.0716Y-2.9488
X3.0846Y-2.0955
X3.0846Y-3.6803
X3.1307Y-1.6777
X3.1307Y-3.2625
X3.1574Y-1.6652
X3.1574Y-3.25
X3.174Y-2.4123
X3.174Y-3.9971
X3.1787Y-1.5432
X3.1787Y-3.128
X3.1819Y-1.3428
X3.1819Y-2.9276
X3.1889Y-1.6661
X3.1889Y-3.2509
X3.1921Y-1.7845
X3.1921Y-2.2125
X3.1921Y-3.3693
X3.1921Y-3.7973
X3.2103Y-1.3347
X3.2103Y-2.9195
X3.2213Y-2.1861
X3.2213Y-3.7709
X3.2386Y-2.3306
X3.2386Y-3.9154
X3.2433Y-1.0365
X3.2433Y-2.6213
X3.2496Y-2.464
X3.2496Y-4.0488
X3.2701Y-1.2562
X3.2701Y-2.841
X3.2799Y-1.4692
X3.2799Y-3.054
X3.2817Y-1.4987
X3.2817Y-3.0835
X3.2873Y-1.6423
X3.2873Y-3.2271
X3.2947Y-2.3334
X3.2947Y-3.9182
X3.2995Y-1.5381
X3.2995Y-3.1229
X3.3004Y-2.2475
X3.3004Y-3.8323
X3.3213Y-1.3581
X3.3213Y-2.9429
X3.3299Y-2.2475
X3.3299Y-3.8323
X3.3378Y-2.0691
X3.3378Y-3.6539
X3.3588Y-2.2536
X3.3588Y-3.8384
X3.3622Y-2.3936
X3.3622Y-3.9784
X3.3835Y-2.1192
X3.3835Y-3.7039
X3.3976Y-1.7619
X3.3976Y-3.3467
X3.3996Y-1.6243
X3.3996Y-3.2091
X3.4012Y-1.4846
X3.4012Y-1.5538
X3.4012Y-3.0693
X3.4012Y-3.1386
X3.4146Y-1.7861
X3.4146Y-3.3709
X3.4228Y-1.3247
X3.4228Y-2.9095
X3.4272Y-1.7594
X3.4272Y-3.3442
X3.4303Y-1.3673
X3.4303Y-2.9521
X3.4366Y-2.4644
X3.4366Y-4.0492
X3.4424Y-1.8077
X3.4424Y-3.3925
X3.4591Y-1.3739
X3.4591Y-2.9587
X3.4674Y-1.5523
X3.4674Y-3.1371
X3.4681Y-1.4853
X3.4681Y-3.0701
X3.4685Y-1.6267
X3.4685Y-3.2115
X3.4787Y-1.2546
X3.4787Y-2.8394
X3.4807Y-1.3444
X3.4807Y-2.9291
X3.4976Y-1.8077
X3.4976Y-3.3925
X3.5209Y-1.3357
X3.5209Y-2.9205
X3.5228Y-2.1192
X3.5228Y-3.7039
X3.5252Y-1.0388
X3.5252Y-2.6236
X3.5307Y-1.7429
X3.5307Y-3.3277
X3.5386Y-1.5499
X3.5386Y-3.1347
X3.5394Y-1.6275
X3.5394Y-3.2123
X3.5402Y-1.4838
X3.5402Y-3.0686
X3.5445Y-2.4003
X3.5445Y-3.9851
X3.5461Y-1.8643
X3.5461Y-3.4491
X3.5663Y-1.7233
X3.5663Y-3.3081
X3.5664Y-2.25
X3.5664Y-3.8347
X3.5705Y-1.7589
X3.5705Y-3.3437
X3.5819Y-1.3353
X3.5819Y-2.9201
X3.6028Y-1.9649
X3.6028Y-3.5497
X3.6036Y-1.9298
X3.6036Y-3.5146
X3.604Y-1.9975
X3.604Y-3.5823
X3.6099Y-2.0724
X3.6099Y-3.6571
X3.6311Y-1.3038
X3.6311Y-2.8886
X3.6361Y-1.6444
X3.6361Y-3.2292
X3.6378Y-1.931
X3.6378Y-1.9649
X3.6378Y-1.9975
X3.6378Y-3.5158
X3.6378Y-3.5497
X3.6378Y-3.5823
X3.6419Y-1.5614
X3.6419Y-3.1462
X3.6445Y-2.1196
X3.6445Y-3.7043
X3.6477Y-2.075
X3.6477Y-3.6598
X3.6599Y-1.7775
X3.6599Y-3.3623
X3.6721Y-1.9621
X3.6721Y-1.9968
X3.6721Y-3.5469
X3.6721Y-3.5815
X3.6725Y-1.9314
X3.6725Y-3.5162
X3.6831Y-1.6581
X3.6831Y-3.2429
X3.6972Y-2.2892
X3.6972Y-3.874
X3.7248Y-1.8873
X3.7248Y-3.4721
X3.7256Y-2.14
X3.7256Y-3.7248
X3.75Y-1.9963
X3.75Y-3.5811
X3.7512Y-1.781
X3.7512Y-3.3658
X3.7535Y-1.5869
X3.7535Y-3.1717
X3.7539Y-1.5499
X3.7539Y-3.1347
X3.8047Y-2.1345
X3.8047Y-3.7193
X3.815Y-2.318
X3.815Y-3.9028
X3.8185Y-1.9121
X3.8185Y-3.4969
X3.8421Y-2.2066
X3.8421Y-3.7914
X3.8665Y-1.7621
X3.8665Y-3.3469
X3.8716Y-2.0735
X3.8716Y-3.6583
X3.9299Y-2.0188
X3.9299Y-3.6036
X3.9434Y-1.8014
X3.9434Y-3.3862
X3.947Y-1.8762
X3.947Y-3.461
X3.9487Y-1.8447
X3.9487Y-3.4295
X3.9504Y-1.7542
X3.9504Y-3.339
X4.0Y-1.4436
X4.0Y-3.0284
X4.012Y-1.5002
X4.012Y-3.085
X4.0129Y-2.137
X4.0129Y-3.7218
T2
X1.065Y-2.0492
X1.065Y-3.634
X1.1265Y-2.181
X1.1265Y-3.7658
X2.3349Y-1.4022
X2.3349Y-2.181
X2.3349Y-2.987
X2.3349Y-3.7658
X2.3964Y-1.534
X2.3964Y-2.0492
X2.3964Y-3.1188
X2.3964Y-3.634
X2.7186Y-2.0492
X2.7186Y-3.634
X2.7801Y-2.181
X2.7801Y-3.7658
X3.9884Y-1.4022
X3.9884Y-2.181
X3.9884Y-2.987
X3.9884Y-3.7658
X4.0499Y-1.534
X4.0499Y-2.0492
X4.0499Y-3.1188
X4.0499Y-3.634
T3
X1.2238Y-2.2871
X1.2238Y-3.8719
X1.2795Y-2.3428
X1.2795Y-3.9276
X2.8774Y-2.2871
X2.8774Y-3.8719
X2.9331Y-2.3428
X2.9331Y-3.9276
T3
G00X2.259Y-1.6215
M15
G01X2.2984Y-1.6215
M16
G05
G00X2.259Y-1.9617
M15
G01X2.2984Y-1.9617
M16
G05
G00X2.259Y-3.2063
M15
G01X2.2984Y-3.2063
M16
G05
G00X2.259Y-3.5465
M15
G01X2.2984Y-3.5465
M16
G05
G00X2.4276Y-1.6215
M15
G01X2.459Y-1.6215
M16
G05
G00X2.4276Y-1.9617
M15
G01X2.459Y-1.9617
M16
G05
G00X2.4276Y-3.2063
M15
G01X2.459Y-3.2063
M16
G05
G00X2.4276Y-3.5465
M15
G01X2.459Y-3.5465
M16
G05
G00X3.9126Y-1.6215
M15
G01X3.952Y-1.6215
M16
G05
G00X3.9126Y-1.9617
M15
G01X3.952Y-1.9617
M16
G05
G00X3.9126Y-3.2063
M15
G01X3.952Y-3.2063
M16
G05
G00X3.9126Y-3.5465
M15
G01X3.952Y-3.5465
M16
G05
G00X4.0811Y-1.6215
M15
G01X4.1126Y-1.6215
M16
G05
G00X4.0811Y-1.9617
M15
G01X4.1126Y-1.9617
M16
G05
G00X4.0811Y-3.2063
M15
G01X4.1126Y-3.2063
M16
G05
G00X4.0811Y-3.5465
M15
G01X4.1126Y-3.5465
M16
G05
T0
M30
