%TF.GenerationSoftware,KiCad,Pcbnew,(6.0.7-1)-1*%
%TF.CreationDate,2022-10-26T11:28:26+01:00*%
%TF.ProjectId,panel,70616e65-6c2e-46b6-9963-61645f706362,rev?*%
%TF.SameCoordinates,Original*%
%TF.FileFunction,Copper,L1,Top*%
%TF.FilePolarity,Positive*%
%FSLAX46Y46*%
G04 Gerber Fmt 4.6, Leading zero omitted, Abs format (unit mm)*
G04 Created by KiCad (PCBNEW (6.0.7-1)-1) date 2022-10-26 11:28:26*
%MOMM*%
%LPD*%
G01*
G04 APERTURE LIST*
G04 Aperture macros list*
%AMRoundRect*
0 Rectangle with rounded corners*
0 $1 Rounding radius*
0 $2 $3 $4 $5 $6 $7 $8 $9 X,Y pos of 4 corners*
0 Add a 4 corners polygon primitive as box body*
4,1,4,$2,$3,$4,$5,$6,$7,$8,$9,$2,$3,0*
0 Add four circle primitives for the rounded corners*
1,1,$1+$1,$2,$3*
1,1,$1+$1,$4,$5*
1,1,$1+$1,$6,$7*
1,1,$1+$1,$8,$9*
0 Add four rect primitives between the rounded corners*
20,1,$1+$1,$2,$3,$4,$5,0*
20,1,$1+$1,$4,$5,$6,$7,0*
20,1,$1+$1,$6,$7,$8,$9,0*
20,1,$1+$1,$8,$9,$2,$3,0*%
%AMRotRect*
0 Rectangle, with rotation*
0 The origin of the aperture is its center*
0 $1 length*
0 $2 width*
0 $3 Rotation angle, in degrees counterclockwise*
0 Add horizontal line*
21,1,$1,$2,0,0,$3*%
%AMFreePoly0*
4,1,16,0.444576,0.992426,0.462150,0.950000,0.462150,0.300000,0.457200,0.288050,0.457200,-0.457200,-0.274320,-0.457201,-0.457200,-0.274320,-0.457200,0.240000,-0.697850,0.240000,-0.740276,0.257574,-0.757850,0.300000,-0.757850,0.950000,-0.740276,0.992426,-0.697850,1.010000,0.402150,1.010000,0.444576,0.992426,0.444576,0.992426,$1*%
%AMFreePoly1*
4,1,16,0.740277,0.992426,0.757850,0.950000,0.757850,0.300000,0.740275,0.257574,0.697850,0.240000,0.457200,0.240000,0.457201,-0.274320,0.274320,-0.457200,-0.457200,-0.457200,-0.457200,0.288050,-0.462150,0.300000,-0.462150,0.949999,-0.444576,0.992426,-0.402150,1.010000,0.697850,1.010000,0.740277,0.992426,0.740277,0.992426,$1*%
G04 Aperture macros list end*
%TA.AperFunction,SMDPad,CuDef*%
%ADD10RoundRect,0.135000X-0.135000X-0.185000X0.135000X-0.185000X0.135000X0.185000X-0.135000X0.185000X0*%
%TD*%
%TA.AperFunction,SMDPad,CuDef*%
%ADD11RoundRect,0.140000X0.140000X0.170000X-0.140000X0.170000X-0.140000X-0.170000X0.140000X-0.170000X0*%
%TD*%
%TA.AperFunction,SMDPad,CuDef*%
%ADD12RoundRect,0.135000X0.135000X0.185000X-0.135000X0.185000X-0.135000X-0.185000X0.135000X-0.185000X0*%
%TD*%
%TA.AperFunction,SMDPad,CuDef*%
%ADD13RoundRect,0.140000X0.170000X-0.140000X0.170000X0.140000X-0.170000X0.140000X-0.170000X-0.140000X0*%
%TD*%
%TA.AperFunction,SMDPad,CuDef*%
%ADD14RoundRect,0.225000X-0.250000X0.225000X-0.250000X-0.225000X0.250000X-0.225000X0.250000X0.225000X0*%
%TD*%
%TA.AperFunction,SMDPad,CuDef*%
%ADD15R,0.600000X0.450000*%
%TD*%
%TA.AperFunction,SMDPad,CuDef*%
%ADD16RoundRect,0.140000X-0.140000X-0.170000X0.140000X-0.170000X0.140000X0.170000X-0.140000X0.170000X0*%
%TD*%
%TA.AperFunction,SMDPad,CuDef*%
%ADD17RotRect,0.711200X1.092200X115.000000*%
%TD*%
%TA.AperFunction,SMDPad,CuDef*%
%ADD18RotRect,1.397000X1.092200X115.000000*%
%TD*%
%TA.AperFunction,ComponentPad*%
%ADD19FreePoly0,115.000000*%
%TD*%
%TA.AperFunction,ComponentPad*%
%ADD20FreePoly1,115.000000*%
%TD*%
%TA.AperFunction,SMDPad,CuDef*%
%ADD21RoundRect,0.218750X-0.218750X-0.256250X0.218750X-0.256250X0.218750X0.256250X-0.218750X0.256250X0*%
%TD*%
%TA.AperFunction,SMDPad,CuDef*%
%ADD22RoundRect,0.150000X-0.150000X0.825000X-0.150000X-0.825000X0.150000X-0.825000X0.150000X0.825000X0*%
%TD*%
%TA.AperFunction,SMDPad,CuDef*%
%ADD23R,0.700000X0.340000*%
%TD*%
%TA.AperFunction,SMDPad,CuDef*%
%ADD24R,1.500000X0.600000*%
%TD*%
%TA.AperFunction,SMDPad,CuDef*%
%ADD25RotRect,0.711200X1.092200X295.000000*%
%TD*%
%TA.AperFunction,ComponentPad*%
%ADD26FreePoly0,295.000000*%
%TD*%
%TA.AperFunction,SMDPad,CuDef*%
%ADD27RotRect,1.397000X1.092200X295.000000*%
%TD*%
%TA.AperFunction,ComponentPad*%
%ADD28FreePoly1,295.000000*%
%TD*%
%TA.AperFunction,SMDPad,CuDef*%
%ADD29RoundRect,0.150000X-0.512500X-0.150000X0.512500X-0.150000X0.512500X0.150000X-0.512500X0.150000X0*%
%TD*%
%TA.AperFunction,SMDPad,CuDef*%
%ADD30R,1.300000X3.400000*%
%TD*%
%TA.AperFunction,ComponentPad*%
%ADD31RoundRect,0.250000X0.777817X0.000000X0.000000X0.777817X-0.777817X0.000000X0.000000X-0.777817X0*%
%TD*%
%TA.AperFunction,ComponentPad*%
%ADD32C,1.600000*%
%TD*%
%TA.AperFunction,SMDPad,CuDef*%
%ADD33RoundRect,0.225000X0.250000X-0.225000X0.250000X0.225000X-0.250000X0.225000X-0.250000X-0.225000X0*%
%TD*%
%TA.AperFunction,ComponentPad*%
%ADD34O,2.108200X0.990600*%
%TD*%
%TA.AperFunction,ComponentPad*%
%ADD35O,1.803400X0.990600*%
%TD*%
%TA.AperFunction,SMDPad,CuDef*%
%ADD36R,1.143000X0.584200*%
%TD*%
%TA.AperFunction,SMDPad,CuDef*%
%ADD37R,1.143000X0.304800*%
%TD*%
%TA.AperFunction,SMDPad,CuDef*%
%ADD38RoundRect,0.135000X0.185000X-0.135000X0.185000X0.135000X-0.185000X0.135000X-0.185000X-0.135000X0*%
%TD*%
%TA.AperFunction,SMDPad,CuDef*%
%ADD39R,0.558800X1.244600*%
%TD*%
%TA.AperFunction,SMDPad,CuDef*%
%ADD40C,2.000000*%
%TD*%
%TA.AperFunction,SMDPad,CuDef*%
%ADD41R,0.340000X0.700000*%
%TD*%
%TA.AperFunction,SMDPad,CuDef*%
%ADD42RoundRect,0.135000X-0.185000X0.135000X-0.185000X-0.135000X0.185000X-0.135000X0.185000X0.135000X0*%
%TD*%
%TA.AperFunction,SMDPad,CuDef*%
%ADD43R,1.800000X1.000000*%
%TD*%
%TA.AperFunction,SMDPad,CuDef*%
%ADD44RoundRect,0.250000X-0.450000X0.262500X-0.450000X-0.262500X0.450000X-0.262500X0.450000X0.262500X0*%
%TD*%
%TA.AperFunction,SMDPad,CuDef*%
%ADD45RoundRect,0.062500X-0.062500X0.375000X-0.062500X-0.375000X0.062500X-0.375000X0.062500X0.375000X0*%
%TD*%
%TA.AperFunction,SMDPad,CuDef*%
%ADD46RoundRect,0.062500X-0.375000X0.062500X-0.375000X-0.062500X0.375000X-0.062500X0.375000X0.062500X0*%
%TD*%
%TA.AperFunction,SMDPad,CuDef*%
%ADD47R,5.150000X5.150000*%
%TD*%
%TA.AperFunction,SMDPad,CuDef*%
%ADD48RoundRect,0.062500X0.350000X0.062500X-0.350000X0.062500X-0.350000X-0.062500X0.350000X-0.062500X0*%
%TD*%
%TA.AperFunction,SMDPad,CuDef*%
%ADD49RoundRect,0.062500X0.062500X0.350000X-0.062500X0.350000X-0.062500X-0.350000X0.062500X-0.350000X0*%
%TD*%
%TA.AperFunction,SMDPad,CuDef*%
%ADD50R,2.600000X2.600000*%
%TD*%
%TA.AperFunction,SMDPad,CuDef*%
%ADD51R,1.000000X0.700000*%
%TD*%
%TA.AperFunction,SMDPad,CuDef*%
%ADD52R,0.600000X0.700000*%
%TD*%
%TA.AperFunction,SMDPad,CuDef*%
%ADD53RoundRect,0.137500X-0.262500X-0.137500X0.262500X-0.137500X0.262500X0.137500X-0.262500X0.137500X0*%
%TD*%
%TA.AperFunction,SMDPad,CuDef*%
%ADD54RotRect,0.711200X1.092200X245.000000*%
%TD*%
%TA.AperFunction,ComponentPad*%
%ADD55FreePoly1,245.000000*%
%TD*%
%TA.AperFunction,ComponentPad*%
%ADD56FreePoly0,245.000000*%
%TD*%
%TA.AperFunction,SMDPad,CuDef*%
%ADD57RotRect,1.397000X1.092200X245.000000*%
%TD*%
%TA.AperFunction,ViaPad*%
%ADD58C,0.600000*%
%TD*%
%TA.AperFunction,Conductor*%
%ADD59C,0.400000*%
%TD*%
%TA.AperFunction,Conductor*%
%ADD60C,0.300000*%
%TD*%
%TA.AperFunction,Conductor*%
%ADD61C,0.200000*%
%TD*%
G04 APERTURE END LIST*
D10*
%TO.P,R3,1*%
%TO.N,Board_1-+3V3*%
X76919778Y-55472773D03*
%TO.P,R3,2*%
%TO.N,Board_1-/POWER_GATE*%
X77939778Y-55472773D03*
%TD*%
D11*
%TO.P,C10,1*%
%TO.N,Board_0-GND*%
X43319777Y-57996773D03*
%TO.P,C10,2*%
%TO.N,Board_0-/POWER*%
X42359777Y-57996773D03*
%TD*%
D12*
%TO.P,R18,1*%
%TO.N,Board_1-+3V3*%
X94610778Y-38337773D03*
%TO.P,R18,2*%
%TO.N,Board_1-/SDA*%
X93590778Y-38337773D03*
%TD*%
D13*
%TO.P,C5,1*%
%TO.N,Board_3-/VREGIN*%
X94598262Y-86881283D03*
%TO.P,C5,2*%
%TO.N,Board_3-GND*%
X94598262Y-85921283D03*
%TD*%
%TO.P,C2,1*%
%TO.N,Board_0-VCC*%
X33419777Y-45896773D03*
%TO.P,C2,2*%
%TO.N,Board_0-GND*%
X33419777Y-44936773D03*
%TD*%
%TO.P,C15,1*%
%TO.N,Board_3-/EN*%
X86219778Y-74860332D03*
%TO.P,C15,2*%
%TO.N,Board_3-GND*%
X86219778Y-73900332D03*
%TD*%
D10*
%TO.P,R27,1*%
%TO.N,Board_2-GND*%
X35289777Y-71740332D03*
%TO.P,R27,2*%
%TO.N,Board_2-/DIR*%
X36309777Y-71740332D03*
%TD*%
%TO.P,R16,1*%
%TO.N,Board_1-VBUS*%
X72779778Y-52576773D03*
%TO.P,R16,2*%
%TO.N,Board_1-GND*%
X73799778Y-52576773D03*
%TD*%
D13*
%TO.P,C15,1*%
%TO.N,Board_1-/EN*%
X86219778Y-34606773D03*
%TO.P,C15,2*%
%TO.N,Board_1-GND*%
X86219778Y-33646773D03*
%TD*%
D10*
%TO.P,R15,1*%
%TO.N,Board_3-+3V3*%
X81479778Y-97320332D03*
%TO.P,R15,2*%
%TO.N,Board_3-/LEDA*%
X82499778Y-97320332D03*
%TD*%
D14*
%TO.P,C18,1*%
%TO.N,Board_3-/ANTENNA*%
X84189778Y-70605332D03*
%TO.P,C18,2*%
%TO.N,Board_3-GND*%
X84189778Y-72155332D03*
%TD*%
D10*
%TO.P,R2,1*%
%TO.N,Board_0-GND*%
X53541261Y-47025724D03*
%TO.P,R2,2*%
%TO.N,Board_0-/CC2*%
X54561261Y-47025724D03*
%TD*%
D15*
%TO.P,D3,1,K*%
%TO.N,Board_1-/VREGIN*%
X95639778Y-43116773D03*
%TO.P,D3,2,A*%
%TO.N,Board_1-VBUS*%
X97739778Y-43116773D03*
%TD*%
D16*
%TO.P,C9,1*%
%TO.N,Board_0-/VIO*%
X53571261Y-49057724D03*
%TO.P,C9,2*%
%TO.N,Board_0-GND*%
X54531261Y-49057724D03*
%TD*%
D11*
%TO.P,C10,1*%
%TO.N,Board_3-GND*%
X85319778Y-98250332D03*
%TO.P,C10,2*%
%TO.N,Board_3-/POWER*%
X84359778Y-98250332D03*
%TD*%
%TO.P,C1,1*%
%TO.N,Board_1-VBUS*%
X73685778Y-50408773D03*
%TO.P,C1,2*%
%TO.N,Board_1-GND*%
X72725778Y-50408773D03*
%TD*%
D14*
%TO.P,C18,1*%
%TO.N,Board_1-/ANTENNA*%
X84189778Y-30351773D03*
%TO.P,C18,2*%
%TO.N,Board_1-GND*%
X84189778Y-31901773D03*
%TD*%
%TO.P,C13,1*%
%TO.N,Board_3-GND*%
X79879778Y-74405332D03*
%TO.P,C13,2*%
%TO.N,Board_3-/32K_XP*%
X79879778Y-75955332D03*
%TD*%
D13*
%TO.P,C7,1*%
%TO.N,Board_3-/POWER*%
X74605778Y-78950332D03*
%TO.P,C7,2*%
%TO.N,Board_3-GND*%
X74605778Y-77990332D03*
%TD*%
D17*
%TO.P,SW5,1,1*%
%TO.N,Board_0-GND*%
X29650343Y-54421150D03*
%TO.P,SW5,2,2*%
%TO.N,Board_0-/B3*%
X28466864Y-51883171D03*
D18*
%TO.P,SW5,3*%
%TO.N,N/C*%
X29196725Y-53087754D03*
D19*
X27051842Y-52049052D03*
D20*
X28613712Y-55398494D03*
%TD*%
D16*
%TO.P,C8,1*%
%TO.N,Board_3-/VIO*%
X95571262Y-88295283D03*
%TO.P,C8,2*%
%TO.N,Board_3-GND*%
X96531262Y-88295283D03*
%TD*%
D21*
%TO.P,L1,1*%
%TO.N,Board_2-/ANTENNA*%
X44122277Y-70600332D03*
%TO.P,L1,2*%
%TO.N,Board_2-/LNA_IN*%
X45697277Y-70600332D03*
%TD*%
D22*
%TO.P,IC1,1,VDD5V*%
%TO.N,Board_3-/POWER*%
X73257778Y-75842332D03*
%TO.P,IC1,2,VDD3V3*%
X71987778Y-75842332D03*
%TO.P,IC1,3,OUT*%
%TO.N,Board_3-unconnected-(IC1-Pad3)*%
X70717778Y-75842332D03*
%TO.P,IC1,4,GND*%
%TO.N,Board_3-GND*%
X69447778Y-75842332D03*
%TO.P,IC1,5,PGO*%
%TO.N,Board_3-unconnected-(IC1-Pad5)*%
X69447778Y-80792332D03*
%TO.P,IC1,6,SDA*%
%TO.N,Board_3-/SDA*%
X70717778Y-80792332D03*
%TO.P,IC1,7,SCL*%
%TO.N,Board_3-/SCL*%
X71987778Y-80792332D03*
%TO.P,IC1,8,DIR*%
%TO.N,Board_3-/DIR*%
X73257778Y-80792332D03*
%TD*%
D16*
%TO.P,C8,1*%
%TO.N,Board_2-/VIO*%
X53571261Y-88295283D03*
%TO.P,C8,2*%
%TO.N,Board_2-GND*%
X54531261Y-88295283D03*
%TD*%
D10*
%TO.P,R19,1*%
%TO.N,Board_3-/SCL*%
X93590778Y-81721332D03*
%TO.P,R19,2*%
%TO.N,Board_3-+3V3*%
X94610778Y-81721332D03*
%TD*%
%TO.P,R9,1*%
%TO.N,Board_2-/TXD0*%
X51589777Y-79654332D03*
%TO.P,R9,2*%
%TO.N,Board_2-/RXD*%
X52609777Y-79654332D03*
%TD*%
%TO.P,R3,1*%
%TO.N,Board_2-+3V3*%
X34919777Y-95726332D03*
%TO.P,R3,2*%
%TO.N,Board_2-/POWER_GATE*%
X35939777Y-95726332D03*
%TD*%
%TO.P,R20,1*%
%TO.N,Board_3-/BACKLIGHT_GATE*%
X88759778Y-100610332D03*
%TO.P,R20,2*%
%TO.N,Board_3-GND*%
X89779778Y-100610332D03*
%TD*%
D23*
%TO.P,Q1,1,S*%
%TO.N,Board_0-/RTS*%
X52969777Y-56266773D03*
%TO.P,Q1,2,G*%
%TO.N,Board_0-/DTR_BASE*%
X52969777Y-56766773D03*
%TO.P,Q1,3,D*%
%TO.N,Board_0-/DTR*%
X52969777Y-57266773D03*
%TO.P,Q1,4,S*%
%TO.N,Board_0-/BOOT*%
X54469777Y-57266773D03*
%TO.P,Q1,5,G*%
%TO.N,Board_0-/RTS_BASE*%
X54469777Y-56766773D03*
%TO.P,Q1,6,D*%
%TO.N,Board_0-/EN*%
X54469777Y-56266773D03*
%TD*%
D10*
%TO.P,R16,1*%
%TO.N,Board_3-VBUS*%
X72779778Y-92830332D03*
%TO.P,R16,2*%
%TO.N,Board_3-GND*%
X73799778Y-92830332D03*
%TD*%
D24*
%TO.P,E1,1*%
%TO.N,Board_0-/ANTENNA*%
X42209777Y-27946773D03*
%TO.P,E1,2*%
%TO.N,Board_0-unconnected-(E1-Pad2)*%
X45709777Y-27946773D03*
%TO.P,E1,3*%
%TO.N,Board_0-GND*%
X45709777Y-26346773D03*
%TO.P,E1,4*%
X42209777Y-26346773D03*
%TD*%
D13*
%TO.P,C17,1*%
%TO.N,Board_3-+3V3*%
X92829778Y-75060332D03*
%TO.P,C17,2*%
%TO.N,Board_3-GND*%
X92829778Y-74100332D03*
%TD*%
D25*
%TO.P,SW3,1,1*%
%TO.N,Board_2-GND*%
X58269211Y-76845955D03*
%TO.P,SW3,2,2*%
%TO.N,Board_2-/B1*%
X59452690Y-79383934D03*
D26*
%TO.P,SW3,3*%
%TO.N,N/C*%
X60867712Y-79218053D03*
D27*
X58722829Y-78179351D03*
D28*
X59305842Y-75868611D03*
%TD*%
D12*
%TO.P,R24,1*%
%TO.N,Board_3-/PIEZO*%
X86589778Y-99300332D03*
%TO.P,R24,2*%
%TO.N,Board_3-/PIEZO_GATE*%
X85569778Y-99300332D03*
%TD*%
%TO.P,R11,1*%
%TO.N,Board_1-/RTS_BASE*%
X96229778Y-55026773D03*
%TO.P,R11,2*%
%TO.N,Board_1-/RTS*%
X95209778Y-55026773D03*
%TD*%
D16*
%TO.P,C8,1*%
%TO.N,Board_1-/VIO*%
X95571262Y-48041724D03*
%TO.P,C8,2*%
%TO.N,Board_1-GND*%
X96531262Y-48041724D03*
%TD*%
D29*
%TO.P,U1,1,STAT*%
%TO.N,Board_2-/STAT*%
X28928277Y-87426332D03*
%TO.P,U1,2,VSS*%
%TO.N,Board_2-GND*%
X28928277Y-88376332D03*
%TO.P,U1,3,VBAT*%
%TO.N,Board_2-+BATT*%
X28928277Y-89326332D03*
%TO.P,U1,4,VDD*%
%TO.N,Board_2-VBUS*%
X31203277Y-89326332D03*
%TO.P,U1,5,PROG*%
%TO.N,Board_2-/PROG*%
X31203277Y-87426332D03*
%TD*%
D30*
%TO.P,BZ1,1,-*%
%TO.N,Board_1-VCC*%
X79519778Y-51136773D03*
%TO.P,BZ1,2,+*%
%TO.N,Board_1-/PIEZO_DRAIN*%
X88219778Y-51136773D03*
%TD*%
D31*
%TO.P,J2,1,Pin_1*%
%TO.N,Board_3-+BATT*%
X74499778Y-99760332D03*
D32*
%TO.P,J2,2,Pin_2*%
%TO.N,Board_3-GND*%
X73085564Y-98346118D03*
%TD*%
D33*
%TO.P,C14,1*%
%TO.N,Board_2-GND*%
X37899777Y-80065332D03*
%TO.P,C14,2*%
%TO.N,Board_2-/32K_XN*%
X37899777Y-78515332D03*
%TD*%
D10*
%TO.P,R27,1*%
%TO.N,Board_0-GND*%
X35289777Y-31486773D03*
%TO.P,R27,2*%
%TO.N,Board_0-/DIR*%
X36309777Y-31486773D03*
%TD*%
D12*
%TO.P,R11,1*%
%TO.N,Board_0-/RTS_BASE*%
X54229777Y-55026773D03*
%TO.P,R11,2*%
%TO.N,Board_0-/RTS*%
X53209777Y-55026773D03*
%TD*%
D13*
%TO.P,C2,1*%
%TO.N,Board_2-VCC*%
X33419777Y-86150332D03*
%TO.P,C2,2*%
%TO.N,Board_2-GND*%
X33419777Y-85190332D03*
%TD*%
D16*
%TO.P,C9,1*%
%TO.N,Board_2-/VIO*%
X53571261Y-89311283D03*
%TO.P,C9,2*%
%TO.N,Board_2-GND*%
X54531261Y-89311283D03*
%TD*%
D34*
%TO.P,J1,13,SHELL*%
%TO.N,Board_1-GND*%
X99879778Y-41186771D03*
X99879778Y-49826775D03*
D35*
X104059778Y-49826775D03*
X104059778Y-41186771D03*
D36*
%TO.P,J1,A1-B12,GND*%
X99304778Y-48706773D03*
%TO.P,J1,A4-B9,VBUS*%
%TO.N,Board_1-VBUS*%
X99304778Y-47906774D03*
D37*
%TO.P,J1,A5,CC1*%
%TO.N,Board_1-/CC2*%
X99304778Y-46756773D03*
%TO.P,J1,A6,DP1*%
%TO.N,Board_1-/DP*%
X99304778Y-45756773D03*
%TO.P,J1,A7,DN1*%
%TO.N,Board_1-/DN*%
X99304778Y-45256773D03*
%TO.P,J1,A8,SBU1*%
%TO.N,Board_1-unconnected-(J1-PadA8)*%
X99304778Y-44256773D03*
D36*
%TO.P,J1,B1-A12,GND*%
%TO.N,Board_1-GND*%
X99304778Y-42306773D03*
%TO.P,J1,B4-A9,VBUS*%
%TO.N,Board_1-VBUS*%
X99304778Y-43106772D03*
D37*
%TO.P,J1,B5,CC2*%
%TO.N,Board_1-/CC1*%
X99304778Y-43756774D03*
%TO.P,J1,B6,DP2*%
%TO.N,Board_1-/DP*%
X99304778Y-44756772D03*
%TO.P,J1,B7,DN2*%
%TO.N,Board_1-/DN*%
X99304778Y-46256774D03*
%TO.P,J1,B8,SBU2*%
%TO.N,Board_1-unconnected-(J1-PadB8)*%
X99304778Y-47256772D03*
%TD*%
D12*
%TO.P,R26,1*%
%TO.N,Board_3-/DIR*%
X78309778Y-73000332D03*
%TO.P,R26,2*%
%TO.N,Board_3-/POWER*%
X77289778Y-73000332D03*
%TD*%
D38*
%TO.P,R4,1*%
%TO.N,Board_0-/CONNECTED*%
X49367261Y-46633724D03*
%TO.P,R4,2*%
%TO.N,Board_0-/VREGIN*%
X49367261Y-45613724D03*
%TD*%
D15*
%TO.P,D3,1,K*%
%TO.N,Board_2-/VREGIN*%
X53639777Y-83370332D03*
%TO.P,D3,2,A*%
%TO.N,Board_2-VBUS*%
X55739777Y-83370332D03*
%TD*%
D10*
%TO.P,R20,1*%
%TO.N,Board_1-/BACKLIGHT_GATE*%
X88759778Y-60356773D03*
%TO.P,R20,2*%
%TO.N,Board_1-GND*%
X89779778Y-60356773D03*
%TD*%
D39*
%TO.P,SW1,1,1*%
%TO.N,Board_2-GND*%
X44684375Y-102854332D03*
%TO.P,SW1,2,2*%
%TO.N,Board_2-/EN*%
X48235179Y-102854332D03*
%TD*%
D40*
%TO.P,REF\u002A\u002A,*%
%TO.N,*%
X20000000Y-17500000D03*
%TD*%
D23*
%TO.P,Q1,1,S*%
%TO.N,Board_3-/RTS*%
X94969778Y-96520332D03*
%TO.P,Q1,2,G*%
%TO.N,Board_3-/DTR_BASE*%
X94969778Y-97020332D03*
%TO.P,Q1,3,D*%
%TO.N,Board_3-/DTR*%
X94969778Y-97520332D03*
%TO.P,Q1,4,S*%
%TO.N,Board_3-/BOOT*%
X96469778Y-97520332D03*
%TO.P,Q1,5,G*%
%TO.N,Board_3-/RTS_BASE*%
X96469778Y-97020332D03*
%TO.P,Q1,6,D*%
%TO.N,Board_3-/EN*%
X96469778Y-96520332D03*
%TD*%
D38*
%TO.P,R5,1*%
%TO.N,Board_2-/CONNECTED*%
X50454261Y-86887283D03*
%TO.P,R5,2*%
%TO.N,Board_2-GND*%
X50454261Y-85867283D03*
%TD*%
D31*
%TO.P,J2,1,Pin_1*%
%TO.N,Board_2-+BATT*%
X32499777Y-99760332D03*
D32*
%TO.P,J2,2,Pin_2*%
%TO.N,Board_2-GND*%
X31085563Y-98346118D03*
%TD*%
D13*
%TO.P,C3,1*%
%TO.N,Board_0-/VO*%
X34469777Y-45896773D03*
%TO.P,C3,2*%
%TO.N,Board_0-GND*%
X34469777Y-44936773D03*
%TD*%
D41*
%TO.P,Q2,1,S*%
%TO.N,Board_2-VCC*%
X35739777Y-91990332D03*
%TO.P,Q2,2,G*%
%TO.N,Board_2-VBUS*%
X35239777Y-91990332D03*
%TO.P,Q2,3,D*%
%TO.N,Board_2-/POWER*%
X34739777Y-91990332D03*
%TO.P,Q2,4,S*%
%TO.N,Board_2-+3V3*%
X34739777Y-93490332D03*
%TO.P,Q2,5,G*%
%TO.N,Board_2-/POWER_GATE*%
X35239777Y-93490332D03*
%TO.P,Q2,6,D*%
%TO.N,Board_2-+BATT*%
X35739777Y-93490332D03*
%TD*%
D25*
%TO.P,SW3,1,1*%
%TO.N,Board_1-GND*%
X100269212Y-36592396D03*
%TO.P,SW3,2,2*%
%TO.N,Board_1-/B1*%
X101452691Y-39130375D03*
D27*
%TO.P,SW3,3*%
%TO.N,N/C*%
X100722830Y-37925792D03*
D28*
X101305843Y-35615052D03*
D26*
X102867713Y-38964494D03*
%TD*%
D10*
%TO.P,R16,1*%
%TO.N,Board_0-VBUS*%
X30779777Y-52576773D03*
%TO.P,R16,2*%
%TO.N,Board_0-GND*%
X31799777Y-52576773D03*
%TD*%
D12*
%TO.P,R26,1*%
%TO.N,Board_0-/DIR*%
X36309777Y-32746773D03*
%TO.P,R26,2*%
%TO.N,Board_0-/POWER*%
X35289777Y-32746773D03*
%TD*%
D42*
%TO.P,R10,1*%
%TO.N,Board_0-/DTR_BASE*%
X51789777Y-56296773D03*
%TO.P,R10,2*%
%TO.N,Board_0-/DTR*%
X51789777Y-57316773D03*
%TD*%
D12*
%TO.P,R17,1*%
%TO.N,Board_1-/BACKLIGHT*%
X89789778Y-59256773D03*
%TO.P,R17,2*%
%TO.N,Board_1-/BACKLIGHT_GATE*%
X88769778Y-59256773D03*
%TD*%
D38*
%TO.P,R5,1*%
%TO.N,Board_1-/CONNECTED*%
X92454262Y-46633724D03*
%TO.P,R5,2*%
%TO.N,Board_1-GND*%
X92454262Y-45613724D03*
%TD*%
D10*
%TO.P,R9,1*%
%TO.N,Board_0-/TXD0*%
X51589777Y-39400773D03*
%TO.P,R9,2*%
%TO.N,Board_0-/RXD*%
X52609777Y-39400773D03*
%TD*%
D16*
%TO.P,C12,1*%
%TO.N,Board_3-/BOOT*%
X95239778Y-98710332D03*
%TO.P,C12,2*%
%TO.N,Board_3-GND*%
X96199778Y-98710332D03*
%TD*%
D43*
%TO.P,Y1,1,1*%
%TO.N,Board_0-/32K_XP*%
X39835777Y-35742773D03*
%TO.P,Y1,2,2*%
%TO.N,Board_0-/32K_XN*%
X39835777Y-38242773D03*
%TD*%
D42*
%TO.P,R22,1*%
%TO.N,Board_2-GND*%
X27009777Y-85830332D03*
%TO.P,R22,2*%
%TO.N,Board_2-/BATT_ADC*%
X27009777Y-86850332D03*
%TD*%
D38*
%TO.P,R4,1*%
%TO.N,Board_1-/CONNECTED*%
X91367262Y-46633724D03*
%TO.P,R4,2*%
%TO.N,Board_1-/VREGIN*%
X91367262Y-45613724D03*
%TD*%
D44*
%TO.P,R12,1*%
%TO.N,Board_1-+3V3*%
X78009778Y-43744273D03*
%TO.P,R12,2*%
%TO.N,Board_1-/VO*%
X78009778Y-45569273D03*
%TD*%
D12*
%TO.P,R24,1*%
%TO.N,Board_0-/PIEZO*%
X44589777Y-59046773D03*
%TO.P,R24,2*%
%TO.N,Board_0-/PIEZO_GATE*%
X43569777Y-59046773D03*
%TD*%
D38*
%TO.P,R1,1*%
%TO.N,Board_2-/PROG*%
X32359777Y-86180332D03*
%TO.P,R1,2*%
%TO.N,Board_2-GND*%
X32359777Y-85160332D03*
%TD*%
%TO.P,R13,1*%
%TO.N,Board_3-/EN*%
X85179778Y-74880332D03*
%TO.P,R13,2*%
%TO.N,Board_3-+3V3*%
X85179778Y-73860332D03*
%TD*%
D16*
%TO.P,C11,1*%
%TO.N,Board_2-/EN*%
X53239777Y-99810332D03*
%TO.P,C11,2*%
%TO.N,Board_2-GND*%
X54199777Y-99810332D03*
%TD*%
D42*
%TO.P,R10,1*%
%TO.N,Board_2-/DTR_BASE*%
X51789777Y-96550332D03*
%TO.P,R10,2*%
%TO.N,Board_2-/DTR*%
X51789777Y-97570332D03*
%TD*%
D13*
%TO.P,C16,1*%
%TO.N,Board_1-+3V3*%
X91799778Y-34826773D03*
%TO.P,C16,2*%
%TO.N,Board_1-GND*%
X91799778Y-33866773D03*
%TD*%
%TO.P,C15,1*%
%TO.N,Board_2-/EN*%
X44219777Y-74860332D03*
%TO.P,C15,2*%
%TO.N,Board_2-GND*%
X44219777Y-73900332D03*
%TD*%
D42*
%TO.P,R10,1*%
%TO.N,Board_1-/DTR_BASE*%
X93789778Y-56296773D03*
%TO.P,R10,2*%
%TO.N,Board_1-/DTR*%
X93789778Y-57316773D03*
%TD*%
D30*
%TO.P,BZ1,1,-*%
%TO.N,Board_0-VCC*%
X37519777Y-51136773D03*
%TO.P,BZ1,2,+*%
%TO.N,Board_0-/PIEZO_DRAIN*%
X46219777Y-51136773D03*
%TD*%
D25*
%TO.P,SW3,1,1*%
%TO.N,Board_0-GND*%
X58269211Y-36592396D03*
%TO.P,SW3,2,2*%
%TO.N,Board_0-/B1*%
X59452690Y-39130375D03*
D28*
%TO.P,SW3,3*%
%TO.N,N/C*%
X59305842Y-35615052D03*
D27*
X58722829Y-37925792D03*
D26*
X60867712Y-38964494D03*
%TD*%
D30*
%TO.P,BZ1,1,-*%
%TO.N,Board_2-VCC*%
X37519777Y-91390332D03*
%TO.P,BZ1,2,+*%
%TO.N,Board_2-/PIEZO_DRAIN*%
X46219777Y-91390332D03*
%TD*%
D24*
%TO.P,E1,1*%
%TO.N,Board_3-/ANTENNA*%
X84209778Y-68200332D03*
%TO.P,E1,2*%
%TO.N,Board_3-unconnected-(E1-Pad2)*%
X87709778Y-68200332D03*
%TO.P,E1,3*%
%TO.N,Board_3-GND*%
X87709778Y-66600332D03*
%TO.P,E1,4*%
X84209778Y-66600332D03*
%TD*%
D22*
%TO.P,IC1,1,VDD5V*%
%TO.N,Board_0-/POWER*%
X31257777Y-35588773D03*
%TO.P,IC1,2,VDD3V3*%
X29987777Y-35588773D03*
%TO.P,IC1,3,OUT*%
%TO.N,Board_0-unconnected-(IC1-Pad3)*%
X28717777Y-35588773D03*
%TO.P,IC1,4,GND*%
%TO.N,Board_0-GND*%
X27447777Y-35588773D03*
%TO.P,IC1,5,PGO*%
%TO.N,Board_0-unconnected-(IC1-Pad5)*%
X27447777Y-40538773D03*
%TO.P,IC1,6,SDA*%
%TO.N,Board_0-/SDA*%
X28717777Y-40538773D03*
%TO.P,IC1,7,SCL*%
%TO.N,Board_0-/SCL*%
X29987777Y-40538773D03*
%TO.P,IC1,8,DIR*%
%TO.N,Board_0-/DIR*%
X31257777Y-40538773D03*
%TD*%
D31*
%TO.P,J2,1,Pin_1*%
%TO.N,Board_1-+BATT*%
X74499778Y-59506773D03*
D32*
%TO.P,J2,2,Pin_2*%
%TO.N,Board_1-GND*%
X73085564Y-58092559D03*
%TD*%
D33*
%TO.P,C14,1*%
%TO.N,Board_0-GND*%
X37899777Y-39811773D03*
%TO.P,C14,2*%
%TO.N,Board_0-/32K_XN*%
X37899777Y-38261773D03*
%TD*%
D10*
%TO.P,R8,1*%
%TO.N,Board_3-/RXD0*%
X93589778Y-80700332D03*
%TO.P,R8,2*%
%TO.N,Board_3-/TXD*%
X94609778Y-80700332D03*
%TD*%
D40*
%TO.P,REF\u002A\u002A,*%
%TO.N,*%
X110000000Y-17500000D03*
%TD*%
D45*
%TO.P,U3,1,VDDA*%
%TO.N,Board_3-+3V3*%
X90880778Y-76283832D03*
%TO.P,U3,2,LNA_IN*%
%TO.N,Board_3-/LNA_IN*%
X90380778Y-76283832D03*
%TO.P,U3,3,VDD3P3*%
%TO.N,Board_3-+3V3*%
X89880778Y-76283832D03*
%TO.P,U3,4,VDD3P3*%
X89380778Y-76283832D03*
%TO.P,U3,5,NC*%
%TO.N,Board_3-unconnected-(U3-Pad5)*%
X88880778Y-76283832D03*
%TO.P,U3,6,GPIO37/ADC1_CH1/RTC_GPIO1*%
%TO.N,Board_3-/B1*%
X88380778Y-76283832D03*
%TO.P,U3,7,GPIO38/ADC1_CH2/RTC_GPIO2*%
%TO.N,Board_3-/B2*%
X87880778Y-76283832D03*
%TO.P,U3,8,GPIO39/ADC1_CH3/RTC_GPIO3*%
%TO.N,Board_3-/B3*%
X87380778Y-76283832D03*
%TO.P,U3,9,CHIP_PU*%
%TO.N,Board_3-/EN*%
X86880778Y-76283832D03*
%TO.P,U3,10,GPIO34/ADC1_CH6/RTC_GPIO4*%
%TO.N,Board_3-/BATT_ADC*%
X86380778Y-76283832D03*
%TO.P,U3,11,NC*%
%TO.N,Board_3-unconnected-(U3-Pad11)*%
X85880778Y-76283832D03*
%TO.P,U3,12,32K_XP*%
%TO.N,Board_3-/32K_XP*%
X85380778Y-76283832D03*
D46*
%TO.P,U3,13,32K_XN*%
%TO.N,Board_3-/32K_XN*%
X84693278Y-76971332D03*
%TO.P,U3,14,GPIO25/ADC2_CH8/DAC_1/RTC_GPIO6*%
%TO.N,Board_3-/DAC1*%
X84693278Y-77471332D03*
%TO.P,U3,15,GPIO26/ADC2_CH9/DAC_2/RTC_GPIO7*%
%TO.N,Board_3-/DAC2*%
X84693278Y-77971332D03*
%TO.P,U3,16,GPIO27/ADC2_CH7/RTC_GPIO17*%
%TO.N,Board_3-/CONNECTED*%
X84693278Y-78471332D03*
%TO.P,U3,17,MTMS/GPIO14/ADC2_CH6/RTC_GPIO16*%
%TO.N,Board_3-unconnected-(U3-Pad17)*%
X84693278Y-78971332D03*
%TO.P,U3,18,\u002AMTDI/GPIO12/ADC2_CH5/RTC_GPIO15*%
%TO.N,Board_3-unconnected-(U3-Pad18)*%
X84693278Y-79471332D03*
%TO.P,U3,19,VDD3P3_RTC*%
%TO.N,Board_3-+3V3*%
X84693278Y-79971332D03*
%TO.P,U3,20,MTCK/GPIO13/ADC2_CH4/RTC_GPIO14*%
%TO.N,Board_3-unconnected-(U3-Pad20)*%
X84693278Y-80471332D03*
%TO.P,U3,21,\u002AMTDO/GPIO15/ADC2_CH3/RTC_GPIO13*%
%TO.N,Board_3-unconnected-(U3-Pad21)*%
X84693278Y-80971332D03*
%TO.P,U3,22,\u002AGPIO2/ADC2_CH2/RTC_GPIO12*%
%TO.N,Board_3-unconnected-(U3-Pad22)*%
X84693278Y-81471332D03*
%TO.P,U3,23,\u002AGPIO0/ADC2_CH1/RTC_GPIO11*%
%TO.N,Board_3-/BOOT*%
X84693278Y-81971332D03*
%TO.P,U3,24,GPIO4/ADC2_CH0/RTC_GPIO10*%
%TO.N,Board_3-/STAT*%
X84693278Y-82471332D03*
D45*
%TO.P,U3,25,NC*%
%TO.N,Board_3-unconnected-(U3-Pad25)*%
X85380778Y-83158832D03*
%TO.P,U3,26,VDD_SDIO*%
%TO.N,Board_3-unconnected-(U3-Pad26)*%
X85880778Y-83158832D03*
%TO.P,U3,27,GPIO20*%
%TO.N,Board_3-/PIEZO*%
X86380778Y-83158832D03*
%TO.P,U3,28,NC*%
%TO.N,Board_3-unconnected-(U3-Pad28)*%
X86880778Y-83158832D03*
%TO.P,U3,29,NC*%
%TO.N,Board_3-unconnected-(U3-Pad29)*%
X87380778Y-83158832D03*
%TO.P,U3,30,NC*%
%TO.N,Board_3-unconnected-(U3-Pad30)*%
X87880778Y-83158832D03*
%TO.P,U3,31,NC*%
%TO.N,Board_3-unconnected-(U3-Pad31)*%
X88380778Y-83158832D03*
%TO.P,U3,32,SD_DATA_0/GPIO7*%
%TO.N,Board_3-unconnected-(U3-Pad32)*%
X88880778Y-83158832D03*
%TO.P,U3,33,SD_DATA_1/GPIO8*%
%TO.N,Board_3-/ENABLE*%
X89380778Y-83158832D03*
%TO.P,U3,34,\u002AGPIO5*%
%TO.N,Board_3-unconnected-(U3-Pad34)*%
X89880778Y-83158832D03*
%TO.P,U3,35,NC*%
%TO.N,Board_3-unconnected-(U3-Pad35)*%
X90380778Y-83158832D03*
%TO.P,U3,36,NC*%
%TO.N,Board_3-unconnected-(U3-Pad36)*%
X90880778Y-83158832D03*
D46*
%TO.P,U3,37,VDD3P3_CPU*%
%TO.N,Board_3-+3V3*%
X91568278Y-82471332D03*
%TO.P,U3,38,GPIO19*%
%TO.N,Board_3-/BACKLIGHT*%
X91568278Y-81971332D03*
%TO.P,U3,39,GPIO22*%
%TO.N,Board_3-/SCL*%
X91568278Y-81471332D03*
%TO.P,U3,40,U0RXD/GPIO3*%
%TO.N,Board_3-/RXD0*%
X91568278Y-80971332D03*
%TO.P,U3,41,U0TXD/GPIO1*%
%TO.N,Board_3-/TXD0*%
X91568278Y-80471332D03*
%TO.P,U3,42,GPIO21*%
%TO.N,Board_3-/SDA*%
X91568278Y-79971332D03*
%TO.P,U3,43,VDDA*%
%TO.N,Board_3-+3V3*%
X91568278Y-79471332D03*
%TO.P,U3,44,NC*%
%TO.N,Board_3-unconnected-(U3-Pad44)*%
X91568278Y-78971332D03*
%TO.P,U3,45,NC*%
%TO.N,Board_3-unconnected-(U3-Pad45)*%
X91568278Y-78471332D03*
%TO.P,U3,46,VDDA*%
%TO.N,Board_3-+3V3*%
X91568278Y-77971332D03*
%TO.P,U3,47,NC*%
%TO.N,Board_3-unconnected-(U3-Pad47)*%
X91568278Y-77471332D03*
%TO.P,U3,48,NC*%
%TO.N,Board_3-unconnected-(U3-Pad48)*%
X91568278Y-76971332D03*
D47*
%TO.P,U3,49,GND*%
%TO.N,Board_3-GND*%
X88130778Y-79721332D03*
%TD*%
D48*
%TO.P,U2,1,~{RI}/CLK*%
%TO.N,Board_2-unconnected-(U2-Pad1)*%
X52376761Y-91409283D03*
%TO.P,U2,2,GND*%
%TO.N,Board_2-GND*%
X52376761Y-90909283D03*
%TO.P,U2,3,D+*%
%TO.N,Board_2-/DP*%
X52376761Y-90409283D03*
%TO.P,U2,4,D-*%
%TO.N,Board_2-/DN*%
X52376761Y-89909283D03*
%TO.P,U2,5,VIO*%
%TO.N,Board_2-/VIO*%
X52376761Y-89409283D03*
%TO.P,U2,6,VDD*%
X52376761Y-88909283D03*
D49*
%TO.P,U2,7,VREGIN*%
%TO.N,Board_2-/VREGIN*%
X51689261Y-88221783D03*
%TO.P,U2,8,VBUS*%
%TO.N,Board_2-/CONNECTED*%
X51189261Y-88221783D03*
%TO.P,U2,9,~{RST}*%
%TO.N,Board_2-/~RST*%
X50689261Y-88221783D03*
%TO.P,U2,10,NC*%
%TO.N,Board_2-unconnected-(U2-Pad10)*%
X50189261Y-88221783D03*
%TO.P,U2,11,~{WAKEUP}/GPIO.3*%
%TO.N,Board_2-unconnected-(U2-Pad11)*%
X49689261Y-88221783D03*
%TO.P,U2,12,RS485/GPIO.2*%
%TO.N,Board_2-unconnected-(U2-Pad12)*%
X49189261Y-88221783D03*
D48*
%TO.P,U2,13,~{RXT}/GPIO.1*%
%TO.N,Board_2-unconnected-(U2-Pad13)*%
X48501761Y-88909283D03*
%TO.P,U2,14,~{TXT}/GPIO.0*%
%TO.N,Board_2-unconnected-(U2-Pad14)*%
X48501761Y-89409283D03*
%TO.P,U2,15,~{SUSPEND}*%
%TO.N,Board_2-unconnected-(U2-Pad15)*%
X48501761Y-89909283D03*
%TO.P,U2,16,NC*%
%TO.N,Board_2-unconnected-(U2-Pad16)*%
X48501761Y-90409283D03*
%TO.P,U2,17,SUSPEND*%
%TO.N,Board_2-unconnected-(U2-Pad17)*%
X48501761Y-90909283D03*
%TO.P,U2,18,~{CTS}*%
%TO.N,Board_2-unconnected-(U2-Pad18)*%
X48501761Y-91409283D03*
D49*
%TO.P,U2,19,~{RTS}*%
%TO.N,Board_2-/RTS*%
X49189261Y-92096783D03*
%TO.P,U2,20,RXD*%
%TO.N,Board_2-/RXD*%
X49689261Y-92096783D03*
%TO.P,U2,21,TXD*%
%TO.N,Board_2-/TXD*%
X50189261Y-92096783D03*
%TO.P,U2,22,~{DSR}*%
%TO.N,Board_2-unconnected-(U2-Pad22)*%
X50689261Y-92096783D03*
%TO.P,U2,23,~{DTR}*%
%TO.N,Board_2-/DTR*%
X51189261Y-92096783D03*
%TO.P,U2,24,~{DCD}*%
%TO.N,Board_2-unconnected-(U2-Pad24)*%
X51689261Y-92096783D03*
D50*
%TO.P,U2,25,GND*%
%TO.N,Board_2-GND*%
X50439261Y-90159283D03*
%TD*%
D35*
%TO.P,J1,13,SHELL*%
%TO.N,Board_2-GND*%
X62059777Y-90080334D03*
D34*
X57879777Y-81440330D03*
D35*
X62059777Y-81440330D03*
D34*
X57879777Y-90080334D03*
D36*
%TO.P,J1,A1-B12,GND*%
X57304777Y-88960332D03*
%TO.P,J1,A4-B9,VBUS*%
%TO.N,Board_2-VBUS*%
X57304777Y-88160333D03*
D37*
%TO.P,J1,A5,CC1*%
%TO.N,Board_2-/CC2*%
X57304777Y-87010332D03*
%TO.P,J1,A6,DP1*%
%TO.N,Board_2-/DP*%
X57304777Y-86010332D03*
%TO.P,J1,A7,DN1*%
%TO.N,Board_2-/DN*%
X57304777Y-85510332D03*
%TO.P,J1,A8,SBU1*%
%TO.N,Board_2-unconnected-(J1-PadA8)*%
X57304777Y-84510332D03*
D36*
%TO.P,J1,B1-A12,GND*%
%TO.N,Board_2-GND*%
X57304777Y-82560332D03*
%TO.P,J1,B4-A9,VBUS*%
%TO.N,Board_2-VBUS*%
X57304777Y-83360331D03*
D37*
%TO.P,J1,B5,CC2*%
%TO.N,Board_2-/CC1*%
X57304777Y-84010333D03*
%TO.P,J1,B6,DP2*%
%TO.N,Board_2-/DP*%
X57304777Y-85010331D03*
%TO.P,J1,B7,DN2*%
%TO.N,Board_2-/DN*%
X57304777Y-86510333D03*
%TO.P,J1,B8,SBU2*%
%TO.N,Board_2-unconnected-(J1-PadB8)*%
X57304777Y-87510331D03*
%TD*%
D10*
%TO.P,R2,1*%
%TO.N,Board_1-GND*%
X95541262Y-47025724D03*
%TO.P,R2,2*%
%TO.N,Board_1-/CC2*%
X96561262Y-47025724D03*
%TD*%
D51*
%TO.P,D1,1,A*%
%TO.N,Board_1-GND*%
X96629778Y-53426773D03*
D52*
%TO.P,D1,2,K*%
%TO.N,Board_1-VBUS*%
X98329778Y-53426773D03*
%TO.P,D1,3,K*%
%TO.N,Board_1-/DN*%
X98329778Y-51426773D03*
%TO.P,D1,4,K*%
%TO.N,Board_1-/DP*%
X96429778Y-51426773D03*
%TD*%
D10*
%TO.P,R8,1*%
%TO.N,Board_2-/RXD0*%
X51589777Y-80700332D03*
%TO.P,R8,2*%
%TO.N,Board_2-/TXD*%
X52609777Y-80700332D03*
%TD*%
D13*
%TO.P,C6,1*%
%TO.N,Board_1-/VREGIN*%
X93461262Y-46597724D03*
%TO.P,C6,2*%
%TO.N,Board_1-GND*%
X93461262Y-45637724D03*
%TD*%
%TO.P,C6,1*%
%TO.N,Board_2-/VREGIN*%
X51461261Y-86851283D03*
%TO.P,C6,2*%
%TO.N,Board_2-GND*%
X51461261Y-85891283D03*
%TD*%
D14*
%TO.P,C19,1*%
%TO.N,Board_3-/LNA_IN*%
X89539778Y-70583332D03*
%TO.P,C19,2*%
%TO.N,Board_3-GND*%
X89539778Y-72133332D03*
%TD*%
D53*
%TO.P,U4,1,VI*%
%TO.N,Board_1-VCC*%
X75183778Y-47172773D03*
%TO.P,U4,2,GND*%
%TO.N,Board_1-GND*%
X75183778Y-48122773D03*
%TO.P,U4,3,EN*%
%TO.N,Board_1-VCC*%
X75183778Y-49072773D03*
%TO.P,U4,4,NC*%
%TO.N,Board_1-unconnected-(U4-Pad4)*%
X77583778Y-49072773D03*
%TO.P,U4,5,VO*%
%TO.N,Board_1-/VO*%
X77583778Y-47172773D03*
%TD*%
D21*
%TO.P,L1,1*%
%TO.N,Board_0-/ANTENNA*%
X44122277Y-30346773D03*
%TO.P,L1,2*%
%TO.N,Board_0-/LNA_IN*%
X45697277Y-30346773D03*
%TD*%
D23*
%TO.P,Q3,1,S*%
%TO.N,Board_0-GND*%
X42429777Y-60656773D03*
%TO.P,Q3,2,G*%
%TO.N,Board_0-/BACKLIGHT_GATE*%
X42429777Y-60156773D03*
%TO.P,Q3,3,D*%
%TO.N,Board_0-/PIEZO_DRAIN*%
X42429777Y-59656773D03*
%TO.P,Q3,4,S*%
%TO.N,Board_0-GND*%
X40929777Y-59656773D03*
%TO.P,Q3,5,G*%
%TO.N,Board_0-/PIEZO_GATE*%
X40929777Y-60156773D03*
%TO.P,Q3,6,D*%
%TO.N,Board_0-/LEDK*%
X40929777Y-60656773D03*
%TD*%
D13*
%TO.P,C16,1*%
%TO.N,Board_0-+3V3*%
X49799777Y-34826773D03*
%TO.P,C16,2*%
%TO.N,Board_0-GND*%
X49799777Y-33866773D03*
%TD*%
D12*
%TO.P,R17,1*%
%TO.N,Board_2-/BACKLIGHT*%
X47789777Y-99510332D03*
%TO.P,R17,2*%
%TO.N,Board_2-/BACKLIGHT_GATE*%
X46769777Y-99510332D03*
%TD*%
D15*
%TO.P,D2,1,K*%
%TO.N,Board_3-VCC*%
X75509778Y-94390332D03*
%TO.P,D2,2,A*%
%TO.N,Board_3-VBUS*%
X73409778Y-94390332D03*
%TD*%
D42*
%TO.P,R6,1*%
%TO.N,Board_2-/VIO*%
X48221261Y-85867283D03*
%TO.P,R6,2*%
%TO.N,Board_2-/~RST*%
X48221261Y-86887283D03*
%TD*%
D13*
%TO.P,C17,1*%
%TO.N,Board_1-+3V3*%
X92829778Y-34806773D03*
%TO.P,C17,2*%
%TO.N,Board_1-GND*%
X92829778Y-33846773D03*
%TD*%
D42*
%TO.P,R6,1*%
%TO.N,Board_3-/VIO*%
X90221262Y-85867283D03*
%TO.P,R6,2*%
%TO.N,Board_3-/~RST*%
X90221262Y-86887283D03*
%TD*%
D11*
%TO.P,C4,1*%
%TO.N,Board_0-+BATT*%
X29405777Y-50366773D03*
%TO.P,C4,2*%
%TO.N,Board_0-GND*%
X28445777Y-50366773D03*
%TD*%
D45*
%TO.P,U3,1,VDDA*%
%TO.N,Board_0-+3V3*%
X48880777Y-36030273D03*
%TO.P,U3,2,LNA_IN*%
%TO.N,Board_0-/LNA_IN*%
X48380777Y-36030273D03*
%TO.P,U3,3,VDD3P3*%
%TO.N,Board_0-+3V3*%
X47880777Y-36030273D03*
%TO.P,U3,4,VDD3P3*%
X47380777Y-36030273D03*
%TO.P,U3,5,NC*%
%TO.N,Board_0-unconnected-(U3-Pad5)*%
X46880777Y-36030273D03*
%TO.P,U3,6,GPIO37/ADC1_CH1/RTC_GPIO1*%
%TO.N,Board_0-/B1*%
X46380777Y-36030273D03*
%TO.P,U3,7,GPIO38/ADC1_CH2/RTC_GPIO2*%
%TO.N,Board_0-/B2*%
X45880777Y-36030273D03*
%TO.P,U3,8,GPIO39/ADC1_CH3/RTC_GPIO3*%
%TO.N,Board_0-/B3*%
X45380777Y-36030273D03*
%TO.P,U3,9,CHIP_PU*%
%TO.N,Board_0-/EN*%
X44880777Y-36030273D03*
%TO.P,U3,10,GPIO34/ADC1_CH6/RTC_GPIO4*%
%TO.N,Board_0-/BATT_ADC*%
X44380777Y-36030273D03*
%TO.P,U3,11,NC*%
%TO.N,Board_0-unconnected-(U3-Pad11)*%
X43880777Y-36030273D03*
%TO.P,U3,12,32K_XP*%
%TO.N,Board_0-/32K_XP*%
X43380777Y-36030273D03*
D46*
%TO.P,U3,13,32K_XN*%
%TO.N,Board_0-/32K_XN*%
X42693277Y-36717773D03*
%TO.P,U3,14,GPIO25/ADC2_CH8/DAC_1/RTC_GPIO6*%
%TO.N,Board_0-/DAC1*%
X42693277Y-37217773D03*
%TO.P,U3,15,GPIO26/ADC2_CH9/DAC_2/RTC_GPIO7*%
%TO.N,Board_0-/DAC2*%
X42693277Y-37717773D03*
%TO.P,U3,16,GPIO27/ADC2_CH7/RTC_GPIO17*%
%TO.N,Board_0-/CONNECTED*%
X42693277Y-38217773D03*
%TO.P,U3,17,MTMS/GPIO14/ADC2_CH6/RTC_GPIO16*%
%TO.N,Board_0-unconnected-(U3-Pad17)*%
X42693277Y-38717773D03*
%TO.P,U3,18,\u002AMTDI/GPIO12/ADC2_CH5/RTC_GPIO15*%
%TO.N,Board_0-unconnected-(U3-Pad18)*%
X42693277Y-39217773D03*
%TO.P,U3,19,VDD3P3_RTC*%
%TO.N,Board_0-+3V3*%
X42693277Y-39717773D03*
%TO.P,U3,20,MTCK/GPIO13/ADC2_CH4/RTC_GPIO14*%
%TO.N,Board_0-unconnected-(U3-Pad20)*%
X42693277Y-40217773D03*
%TO.P,U3,21,\u002AMTDO/GPIO15/ADC2_CH3/RTC_GPIO13*%
%TO.N,Board_0-unconnected-(U3-Pad21)*%
X42693277Y-40717773D03*
%TO.P,U3,22,\u002AGPIO2/ADC2_CH2/RTC_GPIO12*%
%TO.N,Board_0-unconnected-(U3-Pad22)*%
X42693277Y-41217773D03*
%TO.P,U3,23,\u002AGPIO0/ADC2_CH1/RTC_GPIO11*%
%TO.N,Board_0-/BOOT*%
X42693277Y-41717773D03*
%TO.P,U3,24,GPIO4/ADC2_CH0/RTC_GPIO10*%
%TO.N,Board_0-/STAT*%
X42693277Y-42217773D03*
D45*
%TO.P,U3,25,NC*%
%TO.N,Board_0-unconnected-(U3-Pad25)*%
X43380777Y-42905273D03*
%TO.P,U3,26,VDD_SDIO*%
%TO.N,Board_0-unconnected-(U3-Pad26)*%
X43880777Y-42905273D03*
%TO.P,U3,27,GPIO20*%
%TO.N,Board_0-/PIEZO*%
X44380777Y-42905273D03*
%TO.P,U3,28,NC*%
%TO.N,Board_0-unconnected-(U3-Pad28)*%
X44880777Y-42905273D03*
%TO.P,U3,29,NC*%
%TO.N,Board_0-unconnected-(U3-Pad29)*%
X45380777Y-42905273D03*
%TO.P,U3,30,NC*%
%TO.N,Board_0-unconnected-(U3-Pad30)*%
X45880777Y-42905273D03*
%TO.P,U3,31,NC*%
%TO.N,Board_0-unconnected-(U3-Pad31)*%
X46380777Y-42905273D03*
%TO.P,U3,32,SD_DATA_0/GPIO7*%
%TO.N,Board_0-unconnected-(U3-Pad32)*%
X46880777Y-42905273D03*
%TO.P,U3,33,SD_DATA_1/GPIO8*%
%TO.N,Board_0-/ENABLE*%
X47380777Y-42905273D03*
%TO.P,U3,34,\u002AGPIO5*%
%TO.N,Board_0-unconnected-(U3-Pad34)*%
X47880777Y-42905273D03*
%TO.P,U3,35,NC*%
%TO.N,Board_0-unconnected-(U3-Pad35)*%
X48380777Y-42905273D03*
%TO.P,U3,36,NC*%
%TO.N,Board_0-unconnected-(U3-Pad36)*%
X48880777Y-42905273D03*
D46*
%TO.P,U3,37,VDD3P3_CPU*%
%TO.N,Board_0-+3V3*%
X49568277Y-42217773D03*
%TO.P,U3,38,GPIO19*%
%TO.N,Board_0-/BACKLIGHT*%
X49568277Y-41717773D03*
%TO.P,U3,39,GPIO22*%
%TO.N,Board_0-/SCL*%
X49568277Y-41217773D03*
%TO.P,U3,40,U0RXD/GPIO3*%
%TO.N,Board_0-/RXD0*%
X49568277Y-40717773D03*
%TO.P,U3,41,U0TXD/GPIO1*%
%TO.N,Board_0-/TXD0*%
X49568277Y-40217773D03*
%TO.P,U3,42,GPIO21*%
%TO.N,Board_0-/SDA*%
X49568277Y-39717773D03*
%TO.P,U3,43,VDDA*%
%TO.N,Board_0-+3V3*%
X49568277Y-39217773D03*
%TO.P,U3,44,NC*%
%TO.N,Board_0-unconnected-(U3-Pad44)*%
X49568277Y-38717773D03*
%TO.P,U3,45,NC*%
%TO.N,Board_0-unconnected-(U3-Pad45)*%
X49568277Y-38217773D03*
%TO.P,U3,46,VDDA*%
%TO.N,Board_0-+3V3*%
X49568277Y-37717773D03*
%TO.P,U3,47,NC*%
%TO.N,Board_0-unconnected-(U3-Pad47)*%
X49568277Y-37217773D03*
%TO.P,U3,48,NC*%
%TO.N,Board_0-unconnected-(U3-Pad48)*%
X49568277Y-36717773D03*
D47*
%TO.P,U3,49,GND*%
%TO.N,Board_0-GND*%
X46130777Y-39467773D03*
%TD*%
D45*
%TO.P,U3,1,VDDA*%
%TO.N,Board_1-+3V3*%
X90880778Y-36030273D03*
%TO.P,U3,2,LNA_IN*%
%TO.N,Board_1-/LNA_IN*%
X90380778Y-36030273D03*
%TO.P,U3,3,VDD3P3*%
%TO.N,Board_1-+3V3*%
X89880778Y-36030273D03*
%TO.P,U3,4,VDD3P3*%
X89380778Y-36030273D03*
%TO.P,U3,5,NC*%
%TO.N,Board_1-unconnected-(U3-Pad5)*%
X88880778Y-36030273D03*
%TO.P,U3,6,GPIO37/ADC1_CH1/RTC_GPIO1*%
%TO.N,Board_1-/B1*%
X88380778Y-36030273D03*
%TO.P,U3,7,GPIO38/ADC1_CH2/RTC_GPIO2*%
%TO.N,Board_1-/B2*%
X87880778Y-36030273D03*
%TO.P,U3,8,GPIO39/ADC1_CH3/RTC_GPIO3*%
%TO.N,Board_1-/B3*%
X87380778Y-36030273D03*
%TO.P,U3,9,CHIP_PU*%
%TO.N,Board_1-/EN*%
X86880778Y-36030273D03*
%TO.P,U3,10,GPIO34/ADC1_CH6/RTC_GPIO4*%
%TO.N,Board_1-/BATT_ADC*%
X86380778Y-36030273D03*
%TO.P,U3,11,NC*%
%TO.N,Board_1-unconnected-(U3-Pad11)*%
X85880778Y-36030273D03*
%TO.P,U3,12,32K_XP*%
%TO.N,Board_1-/32K_XP*%
X85380778Y-36030273D03*
D46*
%TO.P,U3,13,32K_XN*%
%TO.N,Board_1-/32K_XN*%
X84693278Y-36717773D03*
%TO.P,U3,14,GPIO25/ADC2_CH8/DAC_1/RTC_GPIO6*%
%TO.N,Board_1-/DAC1*%
X84693278Y-37217773D03*
%TO.P,U3,15,GPIO26/ADC2_CH9/DAC_2/RTC_GPIO7*%
%TO.N,Board_1-/DAC2*%
X84693278Y-37717773D03*
%TO.P,U3,16,GPIO27/ADC2_CH7/RTC_GPIO17*%
%TO.N,Board_1-/CONNECTED*%
X84693278Y-38217773D03*
%TO.P,U3,17,MTMS/GPIO14/ADC2_CH6/RTC_GPIO16*%
%TO.N,Board_1-unconnected-(U3-Pad17)*%
X84693278Y-38717773D03*
%TO.P,U3,18,\u002AMTDI/GPIO12/ADC2_CH5/RTC_GPIO15*%
%TO.N,Board_1-unconnected-(U3-Pad18)*%
X84693278Y-39217773D03*
%TO.P,U3,19,VDD3P3_RTC*%
%TO.N,Board_1-+3V3*%
X84693278Y-39717773D03*
%TO.P,U3,20,MTCK/GPIO13/ADC2_CH4/RTC_GPIO14*%
%TO.N,Board_1-unconnected-(U3-Pad20)*%
X84693278Y-40217773D03*
%TO.P,U3,21,\u002AMTDO/GPIO15/ADC2_CH3/RTC_GPIO13*%
%TO.N,Board_1-unconnected-(U3-Pad21)*%
X84693278Y-40717773D03*
%TO.P,U3,22,\u002AGPIO2/ADC2_CH2/RTC_GPIO12*%
%TO.N,Board_1-unconnected-(U3-Pad22)*%
X84693278Y-41217773D03*
%TO.P,U3,23,\u002AGPIO0/ADC2_CH1/RTC_GPIO11*%
%TO.N,Board_1-/BOOT*%
X84693278Y-41717773D03*
%TO.P,U3,24,GPIO4/ADC2_CH0/RTC_GPIO10*%
%TO.N,Board_1-/STAT*%
X84693278Y-42217773D03*
D45*
%TO.P,U3,25,NC*%
%TO.N,Board_1-unconnected-(U3-Pad25)*%
X85380778Y-42905273D03*
%TO.P,U3,26,VDD_SDIO*%
%TO.N,Board_1-unconnected-(U3-Pad26)*%
X85880778Y-42905273D03*
%TO.P,U3,27,GPIO20*%
%TO.N,Board_1-/PIEZO*%
X86380778Y-42905273D03*
%TO.P,U3,28,NC*%
%TO.N,Board_1-unconnected-(U3-Pad28)*%
X86880778Y-42905273D03*
%TO.P,U3,29,NC*%
%TO.N,Board_1-unconnected-(U3-Pad29)*%
X87380778Y-42905273D03*
%TO.P,U3,30,NC*%
%TO.N,Board_1-unconnected-(U3-Pad30)*%
X87880778Y-42905273D03*
%TO.P,U3,31,NC*%
%TO.N,Board_1-unconnected-(U3-Pad31)*%
X88380778Y-42905273D03*
%TO.P,U3,32,SD_DATA_0/GPIO7*%
%TO.N,Board_1-unconnected-(U3-Pad32)*%
X88880778Y-42905273D03*
%TO.P,U3,33,SD_DATA_1/GPIO8*%
%TO.N,Board_1-/ENABLE*%
X89380778Y-42905273D03*
%TO.P,U3,34,\u002AGPIO5*%
%TO.N,Board_1-unconnected-(U3-Pad34)*%
X89880778Y-42905273D03*
%TO.P,U3,35,NC*%
%TO.N,Board_1-unconnected-(U3-Pad35)*%
X90380778Y-42905273D03*
%TO.P,U3,36,NC*%
%TO.N,Board_1-unconnected-(U3-Pad36)*%
X90880778Y-42905273D03*
D46*
%TO.P,U3,37,VDD3P3_CPU*%
%TO.N,Board_1-+3V3*%
X91568278Y-42217773D03*
%TO.P,U3,38,GPIO19*%
%TO.N,Board_1-/BACKLIGHT*%
X91568278Y-41717773D03*
%TO.P,U3,39,GPIO22*%
%TO.N,Board_1-/SCL*%
X91568278Y-41217773D03*
%TO.P,U3,40,U0RXD/GPIO3*%
%TO.N,Board_1-/RXD0*%
X91568278Y-40717773D03*
%TO.P,U3,41,U0TXD/GPIO1*%
%TO.N,Board_1-/TXD0*%
X91568278Y-40217773D03*
%TO.P,U3,42,GPIO21*%
%TO.N,Board_1-/SDA*%
X91568278Y-39717773D03*
%TO.P,U3,43,VDDA*%
%TO.N,Board_1-+3V3*%
X91568278Y-39217773D03*
%TO.P,U3,44,NC*%
%TO.N,Board_1-unconnected-(U3-Pad44)*%
X91568278Y-38717773D03*
%TO.P,U3,45,NC*%
%TO.N,Board_1-unconnected-(U3-Pad45)*%
X91568278Y-38217773D03*
%TO.P,U3,46,VDDA*%
%TO.N,Board_1-+3V3*%
X91568278Y-37717773D03*
%TO.P,U3,47,NC*%
%TO.N,Board_1-unconnected-(U3-Pad47)*%
X91568278Y-37217773D03*
%TO.P,U3,48,NC*%
%TO.N,Board_1-unconnected-(U3-Pad48)*%
X91568278Y-36717773D03*
D47*
%TO.P,U3,49,GND*%
%TO.N,Board_1-GND*%
X88130778Y-39467773D03*
%TD*%
D39*
%TO.P,SW2,1,1*%
%TO.N,Board_2-GND*%
X39934375Y-102840332D03*
%TO.P,SW2,2,2*%
%TO.N,Board_2-/BOOT*%
X43485179Y-102840332D03*
%TD*%
D10*
%TO.P,R27,1*%
%TO.N,Board_1-GND*%
X77289778Y-31486773D03*
%TO.P,R27,2*%
%TO.N,Board_1-/DIR*%
X78309778Y-31486773D03*
%TD*%
D38*
%TO.P,R1,1*%
%TO.N,Board_0-/PROG*%
X32359777Y-45926773D03*
%TO.P,R1,2*%
%TO.N,Board_0-GND*%
X32359777Y-44906773D03*
%TD*%
D13*
%TO.P,C7,1*%
%TO.N,Board_1-/POWER*%
X74605778Y-38696773D03*
%TO.P,C7,2*%
%TO.N,Board_1-GND*%
X74605778Y-37736773D03*
%TD*%
D40*
%TO.P,REF\u002A\u002A,*%
%TO.N,*%
X20000000Y-112500000D03*
%TD*%
D16*
%TO.P,C12,1*%
%TO.N,Board_1-/BOOT*%
X95239778Y-58456773D03*
%TO.P,C12,2*%
%TO.N,Board_1-GND*%
X96199778Y-58456773D03*
%TD*%
D15*
%TO.P,D2,1,K*%
%TO.N,Board_0-VCC*%
X33509777Y-54136773D03*
%TO.P,D2,2,A*%
%TO.N,Board_0-VBUS*%
X31409777Y-54136773D03*
%TD*%
%TO.P,D3,1,K*%
%TO.N,Board_0-/VREGIN*%
X53639777Y-43116773D03*
%TO.P,D3,2,A*%
%TO.N,Board_0-VBUS*%
X55739777Y-43116773D03*
%TD*%
D13*
%TO.P,C2,1*%
%TO.N,Board_1-VCC*%
X75419778Y-45896773D03*
%TO.P,C2,2*%
%TO.N,Board_1-GND*%
X75419778Y-44936773D03*
%TD*%
D12*
%TO.P,R7,1*%
%TO.N,Board_1-/CC1*%
X96561262Y-46009724D03*
%TO.P,R7,2*%
%TO.N,Board_1-GND*%
X95541262Y-46009724D03*
%TD*%
D10*
%TO.P,R19,1*%
%TO.N,Board_2-/SCL*%
X51590777Y-81721332D03*
%TO.P,R19,2*%
%TO.N,Board_2-+3V3*%
X52610777Y-81721332D03*
%TD*%
%TO.P,R9,1*%
%TO.N,Board_1-/TXD0*%
X93589778Y-39400773D03*
%TO.P,R9,2*%
%TO.N,Board_1-/RXD*%
X94609778Y-39400773D03*
%TD*%
D42*
%TO.P,R22,1*%
%TO.N,Board_3-GND*%
X69009778Y-85830332D03*
%TO.P,R22,2*%
%TO.N,Board_3-/BATT_ADC*%
X69009778Y-86850332D03*
%TD*%
D10*
%TO.P,R15,1*%
%TO.N,Board_1-+3V3*%
X81479778Y-57066773D03*
%TO.P,R15,2*%
%TO.N,Board_1-/LEDA*%
X82499778Y-57066773D03*
%TD*%
D54*
%TO.P,SW4,1,1*%
%TO.N,Board_3-GND*%
X101452691Y-92136730D03*
%TO.P,SW4,2,2*%
%TO.N,Board_3-/B2*%
X100269212Y-94674709D03*
D55*
%TO.P,SW4,3*%
%TO.N,N/C*%
X102867713Y-92302611D03*
D56*
X101305843Y-95652053D03*
D57*
X100722830Y-93341313D03*
%TD*%
D10*
%TO.P,R15,1*%
%TO.N,Board_0-+3V3*%
X39479777Y-57066773D03*
%TO.P,R15,2*%
%TO.N,Board_0-/LEDA*%
X40499777Y-57066773D03*
%TD*%
D14*
%TO.P,C13,1*%
%TO.N,Board_0-GND*%
X37879777Y-34151773D03*
%TO.P,C13,2*%
%TO.N,Board_0-/32K_XP*%
X37879777Y-35701773D03*
%TD*%
D13*
%TO.P,C16,1*%
%TO.N,Board_3-+3V3*%
X91799778Y-75080332D03*
%TO.P,C16,2*%
%TO.N,Board_3-GND*%
X91799778Y-74120332D03*
%TD*%
D15*
%TO.P,D2,1,K*%
%TO.N,Board_1-VCC*%
X75509778Y-54136773D03*
%TO.P,D2,2,A*%
%TO.N,Board_1-VBUS*%
X73409778Y-54136773D03*
%TD*%
D43*
%TO.P,Y1,1,1*%
%TO.N,Board_2-/32K_XP*%
X39835777Y-75996332D03*
%TO.P,Y1,2,2*%
%TO.N,Board_2-/32K_XN*%
X39835777Y-78496332D03*
%TD*%
D38*
%TO.P,R21,1*%
%TO.N,Board_0-+BATT*%
X27009777Y-48676773D03*
%TO.P,R21,2*%
%TO.N,Board_0-/BATT_ADC*%
X27009777Y-47656773D03*
%TD*%
D13*
%TO.P,C7,1*%
%TO.N,Board_2-/POWER*%
X32605777Y-78950332D03*
%TO.P,C7,2*%
%TO.N,Board_2-GND*%
X32605777Y-77990332D03*
%TD*%
D29*
%TO.P,U1,1,STAT*%
%TO.N,Board_1-/STAT*%
X70928278Y-47172773D03*
%TO.P,U1,2,VSS*%
%TO.N,Board_1-GND*%
X70928278Y-48122773D03*
%TO.P,U1,3,VBAT*%
%TO.N,Board_1-+BATT*%
X70928278Y-49072773D03*
%TO.P,U1,4,VDD*%
%TO.N,Board_1-VBUS*%
X73203278Y-49072773D03*
%TO.P,U1,5,PROG*%
%TO.N,Board_1-/PROG*%
X73203278Y-47172773D03*
%TD*%
D13*
%TO.P,C2,1*%
%TO.N,Board_3-VCC*%
X75419778Y-86150332D03*
%TO.P,C2,2*%
%TO.N,Board_3-GND*%
X75419778Y-85190332D03*
%TD*%
D15*
%TO.P,D3,1,K*%
%TO.N,Board_3-/VREGIN*%
X95639778Y-83370332D03*
%TO.P,D3,2,A*%
%TO.N,Board_3-VBUS*%
X97739778Y-83370332D03*
%TD*%
D14*
%TO.P,C19,1*%
%TO.N,Board_2-/LNA_IN*%
X47539777Y-70583332D03*
%TO.P,C19,2*%
%TO.N,Board_2-GND*%
X47539777Y-72133332D03*
%TD*%
D38*
%TO.P,R21,1*%
%TO.N,Board_3-+BATT*%
X69009778Y-88930332D03*
%TO.P,R21,2*%
%TO.N,Board_3-/BATT_ADC*%
X69009778Y-87910332D03*
%TD*%
D10*
%TO.P,R16,1*%
%TO.N,Board_2-VBUS*%
X30779777Y-92830332D03*
%TO.P,R16,2*%
%TO.N,Board_2-GND*%
X31799777Y-92830332D03*
%TD*%
D16*
%TO.P,C12,1*%
%TO.N,Board_2-/BOOT*%
X53239777Y-98710332D03*
%TO.P,C12,2*%
%TO.N,Board_2-GND*%
X54199777Y-98710332D03*
%TD*%
D53*
%TO.P,U4,1,VI*%
%TO.N,Board_0-VCC*%
X33183777Y-47172773D03*
%TO.P,U4,2,GND*%
%TO.N,Board_0-GND*%
X33183777Y-48122773D03*
%TO.P,U4,3,EN*%
%TO.N,Board_0-VCC*%
X33183777Y-49072773D03*
%TO.P,U4,4,NC*%
%TO.N,Board_0-unconnected-(U4-Pad4)*%
X35583777Y-49072773D03*
%TO.P,U4,5,VO*%
%TO.N,Board_0-/VO*%
X35583777Y-47172773D03*
%TD*%
D16*
%TO.P,C8,1*%
%TO.N,Board_0-/VIO*%
X53571261Y-48041724D03*
%TO.P,C8,2*%
%TO.N,Board_0-GND*%
X54531261Y-48041724D03*
%TD*%
D48*
%TO.P,U2,1,~{RI}/CLK*%
%TO.N,Board_3-unconnected-(U2-Pad1)*%
X94376762Y-91409283D03*
%TO.P,U2,2,GND*%
%TO.N,Board_3-GND*%
X94376762Y-90909283D03*
%TO.P,U2,3,D+*%
%TO.N,Board_3-/DP*%
X94376762Y-90409283D03*
%TO.P,U2,4,D-*%
%TO.N,Board_3-/DN*%
X94376762Y-89909283D03*
%TO.P,U2,5,VIO*%
%TO.N,Board_3-/VIO*%
X94376762Y-89409283D03*
%TO.P,U2,6,VDD*%
X94376762Y-88909283D03*
D49*
%TO.P,U2,7,VREGIN*%
%TO.N,Board_3-/VREGIN*%
X93689262Y-88221783D03*
%TO.P,U2,8,VBUS*%
%TO.N,Board_3-/CONNECTED*%
X93189262Y-88221783D03*
%TO.P,U2,9,~{RST}*%
%TO.N,Board_3-/~RST*%
X92689262Y-88221783D03*
%TO.P,U2,10,NC*%
%TO.N,Board_3-unconnected-(U2-Pad10)*%
X92189262Y-88221783D03*
%TO.P,U2,11,~{WAKEUP}/GPIO.3*%
%TO.N,Board_3-unconnected-(U2-Pad11)*%
X91689262Y-88221783D03*
%TO.P,U2,12,RS485/GPIO.2*%
%TO.N,Board_3-unconnected-(U2-Pad12)*%
X91189262Y-88221783D03*
D48*
%TO.P,U2,13,~{RXT}/GPIO.1*%
%TO.N,Board_3-unconnected-(U2-Pad13)*%
X90501762Y-88909283D03*
%TO.P,U2,14,~{TXT}/GPIO.0*%
%TO.N,Board_3-unconnected-(U2-Pad14)*%
X90501762Y-89409283D03*
%TO.P,U2,15,~{SUSPEND}*%
%TO.N,Board_3-unconnected-(U2-Pad15)*%
X90501762Y-89909283D03*
%TO.P,U2,16,NC*%
%TO.N,Board_3-unconnected-(U2-Pad16)*%
X90501762Y-90409283D03*
%TO.P,U2,17,SUSPEND*%
%TO.N,Board_3-unconnected-(U2-Pad17)*%
X90501762Y-90909283D03*
%TO.P,U2,18,~{CTS}*%
%TO.N,Board_3-unconnected-(U2-Pad18)*%
X90501762Y-91409283D03*
D49*
%TO.P,U2,19,~{RTS}*%
%TO.N,Board_3-/RTS*%
X91189262Y-92096783D03*
%TO.P,U2,20,RXD*%
%TO.N,Board_3-/RXD*%
X91689262Y-92096783D03*
%TO.P,U2,21,TXD*%
%TO.N,Board_3-/TXD*%
X92189262Y-92096783D03*
%TO.P,U2,22,~{DSR}*%
%TO.N,Board_3-unconnected-(U2-Pad22)*%
X92689262Y-92096783D03*
%TO.P,U2,23,~{DTR}*%
%TO.N,Board_3-/DTR*%
X93189262Y-92096783D03*
%TO.P,U2,24,~{DCD}*%
%TO.N,Board_3-unconnected-(U2-Pad24)*%
X93689262Y-92096783D03*
D50*
%TO.P,U2,25,GND*%
%TO.N,Board_3-GND*%
X92439262Y-90159283D03*
%TD*%
D42*
%TO.P,R10,1*%
%TO.N,Board_3-/DTR_BASE*%
X93789778Y-96550332D03*
%TO.P,R10,2*%
%TO.N,Board_3-/DTR*%
X93789778Y-97570332D03*
%TD*%
D45*
%TO.P,U3,1,VDDA*%
%TO.N,Board_2-+3V3*%
X48880777Y-76283832D03*
%TO.P,U3,2,LNA_IN*%
%TO.N,Board_2-/LNA_IN*%
X48380777Y-76283832D03*
%TO.P,U3,3,VDD3P3*%
%TO.N,Board_2-+3V3*%
X47880777Y-76283832D03*
%TO.P,U3,4,VDD3P3*%
X47380777Y-76283832D03*
%TO.P,U3,5,NC*%
%TO.N,Board_2-unconnected-(U3-Pad5)*%
X46880777Y-76283832D03*
%TO.P,U3,6,GPIO37/ADC1_CH1/RTC_GPIO1*%
%TO.N,Board_2-/B1*%
X46380777Y-76283832D03*
%TO.P,U3,7,GPIO38/ADC1_CH2/RTC_GPIO2*%
%TO.N,Board_2-/B2*%
X45880777Y-76283832D03*
%TO.P,U3,8,GPIO39/ADC1_CH3/RTC_GPIO3*%
%TO.N,Board_2-/B3*%
X45380777Y-76283832D03*
%TO.P,U3,9,CHIP_PU*%
%TO.N,Board_2-/EN*%
X44880777Y-76283832D03*
%TO.P,U3,10,GPIO34/ADC1_CH6/RTC_GPIO4*%
%TO.N,Board_2-/BATT_ADC*%
X44380777Y-76283832D03*
%TO.P,U3,11,NC*%
%TO.N,Board_2-unconnected-(U3-Pad11)*%
X43880777Y-76283832D03*
%TO.P,U3,12,32K_XP*%
%TO.N,Board_2-/32K_XP*%
X43380777Y-76283832D03*
D46*
%TO.P,U3,13,32K_XN*%
%TO.N,Board_2-/32K_XN*%
X42693277Y-76971332D03*
%TO.P,U3,14,GPIO25/ADC2_CH8/DAC_1/RTC_GPIO6*%
%TO.N,Board_2-/DAC1*%
X42693277Y-77471332D03*
%TO.P,U3,15,GPIO26/ADC2_CH9/DAC_2/RTC_GPIO7*%
%TO.N,Board_2-/DAC2*%
X42693277Y-77971332D03*
%TO.P,U3,16,GPIO27/ADC2_CH7/RTC_GPIO17*%
%TO.N,Board_2-/CONNECTED*%
X42693277Y-78471332D03*
%TO.P,U3,17,MTMS/GPIO14/ADC2_CH6/RTC_GPIO16*%
%TO.N,Board_2-unconnected-(U3-Pad17)*%
X42693277Y-78971332D03*
%TO.P,U3,18,\u002AMTDI/GPIO12/ADC2_CH5/RTC_GPIO15*%
%TO.N,Board_2-unconnected-(U3-Pad18)*%
X42693277Y-79471332D03*
%TO.P,U3,19,VDD3P3_RTC*%
%TO.N,Board_2-+3V3*%
X42693277Y-79971332D03*
%TO.P,U3,20,MTCK/GPIO13/ADC2_CH4/RTC_GPIO14*%
%TO.N,Board_2-unconnected-(U3-Pad20)*%
X42693277Y-80471332D03*
%TO.P,U3,21,\u002AMTDO/GPIO15/ADC2_CH3/RTC_GPIO13*%
%TO.N,Board_2-unconnected-(U3-Pad21)*%
X42693277Y-80971332D03*
%TO.P,U3,22,\u002AGPIO2/ADC2_CH2/RTC_GPIO12*%
%TO.N,Board_2-unconnected-(U3-Pad22)*%
X42693277Y-81471332D03*
%TO.P,U3,23,\u002AGPIO0/ADC2_CH1/RTC_GPIO11*%
%TO.N,Board_2-/BOOT*%
X42693277Y-81971332D03*
%TO.P,U3,24,GPIO4/ADC2_CH0/RTC_GPIO10*%
%TO.N,Board_2-/STAT*%
X42693277Y-82471332D03*
D45*
%TO.P,U3,25,NC*%
%TO.N,Board_2-unconnected-(U3-Pad25)*%
X43380777Y-83158832D03*
%TO.P,U3,26,VDD_SDIO*%
%TO.N,Board_2-unconnected-(U3-Pad26)*%
X43880777Y-83158832D03*
%TO.P,U3,27,GPIO20*%
%TO.N,Board_2-/PIEZO*%
X44380777Y-83158832D03*
%TO.P,U3,28,NC*%
%TO.N,Board_2-unconnected-(U3-Pad28)*%
X44880777Y-83158832D03*
%TO.P,U3,29,NC*%
%TO.N,Board_2-unconnected-(U3-Pad29)*%
X45380777Y-83158832D03*
%TO.P,U3,30,NC*%
%TO.N,Board_2-unconnected-(U3-Pad30)*%
X45880777Y-83158832D03*
%TO.P,U3,31,NC*%
%TO.N,Board_2-unconnected-(U3-Pad31)*%
X46380777Y-83158832D03*
%TO.P,U3,32,SD_DATA_0/GPIO7*%
%TO.N,Board_2-unconnected-(U3-Pad32)*%
X46880777Y-83158832D03*
%TO.P,U3,33,SD_DATA_1/GPIO8*%
%TO.N,Board_2-/ENABLE*%
X47380777Y-83158832D03*
%TO.P,U3,34,\u002AGPIO5*%
%TO.N,Board_2-unconnected-(U3-Pad34)*%
X47880777Y-83158832D03*
%TO.P,U3,35,NC*%
%TO.N,Board_2-unconnected-(U3-Pad35)*%
X48380777Y-83158832D03*
%TO.P,U3,36,NC*%
%TO.N,Board_2-unconnected-(U3-Pad36)*%
X48880777Y-83158832D03*
D46*
%TO.P,U3,37,VDD3P3_CPU*%
%TO.N,Board_2-+3V3*%
X49568277Y-82471332D03*
%TO.P,U3,38,GPIO19*%
%TO.N,Board_2-/BACKLIGHT*%
X49568277Y-81971332D03*
%TO.P,U3,39,GPIO22*%
%TO.N,Board_2-/SCL*%
X49568277Y-81471332D03*
%TO.P,U3,40,U0RXD/GPIO3*%
%TO.N,Board_2-/RXD0*%
X49568277Y-80971332D03*
%TO.P,U3,41,U0TXD/GPIO1*%
%TO.N,Board_2-/TXD0*%
X49568277Y-80471332D03*
%TO.P,U3,42,GPIO21*%
%TO.N,Board_2-/SDA*%
X49568277Y-79971332D03*
%TO.P,U3,43,VDDA*%
%TO.N,Board_2-+3V3*%
X49568277Y-79471332D03*
%TO.P,U3,44,NC*%
%TO.N,Board_2-unconnected-(U3-Pad44)*%
X49568277Y-78971332D03*
%TO.P,U3,45,NC*%
%TO.N,Board_2-unconnected-(U3-Pad45)*%
X49568277Y-78471332D03*
%TO.P,U3,46,VDDA*%
%TO.N,Board_2-+3V3*%
X49568277Y-77971332D03*
%TO.P,U3,47,NC*%
%TO.N,Board_2-unconnected-(U3-Pad47)*%
X49568277Y-77471332D03*
%TO.P,U3,48,NC*%
%TO.N,Board_2-unconnected-(U3-Pad48)*%
X49568277Y-76971332D03*
D47*
%TO.P,U3,49,GND*%
%TO.N,Board_2-GND*%
X46130777Y-79721332D03*
%TD*%
D13*
%TO.P,C5,1*%
%TO.N,Board_2-/VREGIN*%
X52598261Y-86881283D03*
%TO.P,C5,2*%
%TO.N,Board_2-GND*%
X52598261Y-85921283D03*
%TD*%
D17*
%TO.P,SW5,1,1*%
%TO.N,Board_1-GND*%
X71650344Y-54421150D03*
%TO.P,SW5,2,2*%
%TO.N,Board_1-/B3*%
X70466865Y-51883171D03*
D19*
%TO.P,SW5,3*%
%TO.N,N/C*%
X69051843Y-52049052D03*
D20*
X70613713Y-55398494D03*
D18*
X71196726Y-53087754D03*
%TD*%
D43*
%TO.P,Y1,1,1*%
%TO.N,Board_1-/32K_XP*%
X81835778Y-35742773D03*
%TO.P,Y1,2,2*%
%TO.N,Board_1-/32K_XN*%
X81835778Y-38242773D03*
%TD*%
D12*
%TO.P,R7,1*%
%TO.N,Board_2-/CC1*%
X54561261Y-86263283D03*
%TO.P,R7,2*%
%TO.N,Board_2-GND*%
X53541261Y-86263283D03*
%TD*%
D24*
%TO.P,E1,1*%
%TO.N,Board_1-/ANTENNA*%
X84209778Y-27946773D03*
%TO.P,E1,2*%
%TO.N,Board_1-unconnected-(E1-Pad2)*%
X87709778Y-27946773D03*
%TO.P,E1,3*%
%TO.N,Board_1-GND*%
X87709778Y-26346773D03*
%TO.P,E1,4*%
X84209778Y-26346773D03*
%TD*%
D13*
%TO.P,C5,1*%
%TO.N,Board_0-/VREGIN*%
X52598261Y-46627724D03*
%TO.P,C5,2*%
%TO.N,Board_0-GND*%
X52598261Y-45667724D03*
%TD*%
D39*
%TO.P,SW1,1,1*%
%TO.N,Board_1-GND*%
X86684376Y-62600773D03*
%TO.P,SW1,2,2*%
%TO.N,Board_1-/EN*%
X90235180Y-62600773D03*
%TD*%
D14*
%TO.P,C19,1*%
%TO.N,Board_1-/LNA_IN*%
X89539778Y-30329773D03*
%TO.P,C19,2*%
%TO.N,Board_1-GND*%
X89539778Y-31879773D03*
%TD*%
D44*
%TO.P,R12,1*%
%TO.N,Board_3-+3V3*%
X78009778Y-83997832D03*
%TO.P,R12,2*%
%TO.N,Board_3-/VO*%
X78009778Y-85822832D03*
%TD*%
D42*
%TO.P,R22,1*%
%TO.N,Board_0-GND*%
X27009777Y-45576773D03*
%TO.P,R22,2*%
%TO.N,Board_0-/BATT_ADC*%
X27009777Y-46596773D03*
%TD*%
D12*
%TO.P,R7,1*%
%TO.N,Board_0-/CC1*%
X54561261Y-46009724D03*
%TO.P,R7,2*%
%TO.N,Board_0-GND*%
X53541261Y-46009724D03*
%TD*%
%TO.P,R23,1*%
%TO.N,Board_2-/ENABLE*%
X35939777Y-94710332D03*
%TO.P,R23,2*%
%TO.N,Board_2-/POWER_GATE*%
X34919777Y-94710332D03*
%TD*%
D22*
%TO.P,IC1,1,VDD5V*%
%TO.N,Board_2-/POWER*%
X31257777Y-75842332D03*
%TO.P,IC1,2,VDD3V3*%
X29987777Y-75842332D03*
%TO.P,IC1,3,OUT*%
%TO.N,Board_2-unconnected-(IC1-Pad3)*%
X28717777Y-75842332D03*
%TO.P,IC1,4,GND*%
%TO.N,Board_2-GND*%
X27447777Y-75842332D03*
%TO.P,IC1,5,PGO*%
%TO.N,Board_2-unconnected-(IC1-Pad5)*%
X27447777Y-80792332D03*
%TO.P,IC1,6,SDA*%
%TO.N,Board_2-/SDA*%
X28717777Y-80792332D03*
%TO.P,IC1,7,SCL*%
%TO.N,Board_2-/SCL*%
X29987777Y-80792332D03*
%TO.P,IC1,8,DIR*%
%TO.N,Board_2-/DIR*%
X31257777Y-80792332D03*
%TD*%
D14*
%TO.P,C18,1*%
%TO.N,Board_0-/ANTENNA*%
X42189777Y-30351773D03*
%TO.P,C18,2*%
%TO.N,Board_0-GND*%
X42189777Y-31901773D03*
%TD*%
D10*
%TO.P,R19,1*%
%TO.N,Board_1-/SCL*%
X93590778Y-41467773D03*
%TO.P,R19,2*%
%TO.N,Board_1-+3V3*%
X94610778Y-41467773D03*
%TD*%
D24*
%TO.P,E1,1*%
%TO.N,Board_2-/ANTENNA*%
X42209777Y-68200332D03*
%TO.P,E1,2*%
%TO.N,Board_2-unconnected-(E1-Pad2)*%
X45709777Y-68200332D03*
%TO.P,E1,3*%
%TO.N,Board_2-GND*%
X45709777Y-66600332D03*
%TO.P,E1,4*%
X42209777Y-66600332D03*
%TD*%
D13*
%TO.P,C6,1*%
%TO.N,Board_3-/VREGIN*%
X93461262Y-86851283D03*
%TO.P,C6,2*%
%TO.N,Board_3-GND*%
X93461262Y-85891283D03*
%TD*%
D10*
%TO.P,R3,1*%
%TO.N,Board_3-+3V3*%
X76919778Y-95726332D03*
%TO.P,R3,2*%
%TO.N,Board_3-/POWER_GATE*%
X77939778Y-95726332D03*
%TD*%
D13*
%TO.P,C7,1*%
%TO.N,Board_0-/POWER*%
X32605777Y-38696773D03*
%TO.P,C7,2*%
%TO.N,Board_0-GND*%
X32605777Y-37736773D03*
%TD*%
D42*
%TO.P,R6,1*%
%TO.N,Board_0-/VIO*%
X48221261Y-45613724D03*
%TO.P,R6,2*%
%TO.N,Board_0-/~RST*%
X48221261Y-46633724D03*
%TD*%
D12*
%TO.P,R17,1*%
%TO.N,Board_3-/BACKLIGHT*%
X89789778Y-99510332D03*
%TO.P,R17,2*%
%TO.N,Board_3-/BACKLIGHT_GATE*%
X88769778Y-99510332D03*
%TD*%
D38*
%TO.P,R21,1*%
%TO.N,Board_1-+BATT*%
X69009778Y-48676773D03*
%TO.P,R21,2*%
%TO.N,Board_1-/BATT_ADC*%
X69009778Y-47656773D03*
%TD*%
D13*
%TO.P,C17,1*%
%TO.N,Board_0-+3V3*%
X50829777Y-34806773D03*
%TO.P,C17,2*%
%TO.N,Board_0-GND*%
X50829777Y-33846773D03*
%TD*%
D12*
%TO.P,R17,1*%
%TO.N,Board_0-/BACKLIGHT*%
X47789777Y-59256773D03*
%TO.P,R17,2*%
%TO.N,Board_0-/BACKLIGHT_GATE*%
X46769777Y-59256773D03*
%TD*%
D39*
%TO.P,SW1,1,1*%
%TO.N,Board_0-GND*%
X44684375Y-62600773D03*
%TO.P,SW1,2,2*%
%TO.N,Board_0-/EN*%
X48235179Y-62600773D03*
%TD*%
D44*
%TO.P,R12,1*%
%TO.N,Board_0-+3V3*%
X36009777Y-43744273D03*
%TO.P,R12,2*%
%TO.N,Board_0-/VO*%
X36009777Y-45569273D03*
%TD*%
D21*
%TO.P,L1,1*%
%TO.N,Board_1-/ANTENNA*%
X86122278Y-30346773D03*
%TO.P,L1,2*%
%TO.N,Board_1-/LNA_IN*%
X87697278Y-30346773D03*
%TD*%
D12*
%TO.P,R26,1*%
%TO.N,Board_2-/DIR*%
X36309777Y-73000332D03*
%TO.P,R26,2*%
%TO.N,Board_2-/POWER*%
X35289777Y-73000332D03*
%TD*%
D14*
%TO.P,C19,1*%
%TO.N,Board_0-/LNA_IN*%
X47539777Y-30329773D03*
%TO.P,C19,2*%
%TO.N,Board_0-GND*%
X47539777Y-31879773D03*
%TD*%
D30*
%TO.P,BZ1,1,-*%
%TO.N,Board_3-VCC*%
X79519778Y-91390332D03*
%TO.P,BZ1,2,+*%
%TO.N,Board_3-/PIEZO_DRAIN*%
X88219778Y-91390332D03*
%TD*%
D10*
%TO.P,R3,1*%
%TO.N,Board_0-+3V3*%
X34919777Y-55472773D03*
%TO.P,R3,2*%
%TO.N,Board_0-/POWER_GATE*%
X35939777Y-55472773D03*
%TD*%
%TO.P,R27,1*%
%TO.N,Board_3-GND*%
X77289778Y-71740332D03*
%TO.P,R27,2*%
%TO.N,Board_3-/DIR*%
X78309778Y-71740332D03*
%TD*%
D12*
%TO.P,R23,1*%
%TO.N,Board_3-/ENABLE*%
X77939778Y-94710332D03*
%TO.P,R23,2*%
%TO.N,Board_3-/POWER_GATE*%
X76919778Y-94710332D03*
%TD*%
D10*
%TO.P,R20,1*%
%TO.N,Board_2-/BACKLIGHT_GATE*%
X46759777Y-100610332D03*
%TO.P,R20,2*%
%TO.N,Board_2-GND*%
X47779777Y-100610332D03*
%TD*%
D11*
%TO.P,C1,1*%
%TO.N,Board_2-VBUS*%
X31685777Y-90662332D03*
%TO.P,C1,2*%
%TO.N,Board_2-GND*%
X30725777Y-90662332D03*
%TD*%
D12*
%TO.P,R7,1*%
%TO.N,Board_3-/CC1*%
X96561262Y-86263283D03*
%TO.P,R7,2*%
%TO.N,Board_3-GND*%
X95541262Y-86263283D03*
%TD*%
D39*
%TO.P,SW2,1,1*%
%TO.N,Board_3-GND*%
X81934376Y-102840332D03*
%TO.P,SW2,2,2*%
%TO.N,Board_3-/BOOT*%
X85485180Y-102840332D03*
%TD*%
D21*
%TO.P,L1,1*%
%TO.N,Board_3-/ANTENNA*%
X86122278Y-70600332D03*
%TO.P,L1,2*%
%TO.N,Board_3-/LNA_IN*%
X87697278Y-70600332D03*
%TD*%
D23*
%TO.P,Q3,1,S*%
%TO.N,Board_1-GND*%
X84429778Y-60656773D03*
%TO.P,Q3,2,G*%
%TO.N,Board_1-/BACKLIGHT_GATE*%
X84429778Y-60156773D03*
%TO.P,Q3,3,D*%
%TO.N,Board_1-/PIEZO_DRAIN*%
X84429778Y-59656773D03*
%TO.P,Q3,4,S*%
%TO.N,Board_1-GND*%
X82929778Y-59656773D03*
%TO.P,Q3,5,G*%
%TO.N,Board_1-/PIEZO_GATE*%
X82929778Y-60156773D03*
%TO.P,Q3,6,D*%
%TO.N,Board_1-/LEDK*%
X82929778Y-60656773D03*
%TD*%
D38*
%TO.P,R1,1*%
%TO.N,Board_1-/PROG*%
X74359778Y-45926773D03*
%TO.P,R1,2*%
%TO.N,Board_1-GND*%
X74359778Y-44906773D03*
%TD*%
D14*
%TO.P,C18,1*%
%TO.N,Board_2-/ANTENNA*%
X42189777Y-70605332D03*
%TO.P,C18,2*%
%TO.N,Board_2-GND*%
X42189777Y-72155332D03*
%TD*%
D10*
%TO.P,R8,1*%
%TO.N,Board_0-/RXD0*%
X51589777Y-40446773D03*
%TO.P,R8,2*%
%TO.N,Board_0-/TXD*%
X52609777Y-40446773D03*
%TD*%
D54*
%TO.P,SW4,1,1*%
%TO.N,Board_1-GND*%
X101452691Y-51883171D03*
%TO.P,SW4,2,2*%
%TO.N,Board_1-/B2*%
X100269212Y-54421150D03*
D57*
%TO.P,SW4,3*%
%TO.N,N/C*%
X100722830Y-53087754D03*
D55*
X102867713Y-52049052D03*
D56*
X101305843Y-55398494D03*
%TD*%
D12*
%TO.P,R18,1*%
%TO.N,Board_0-+3V3*%
X52610777Y-38337773D03*
%TO.P,R18,2*%
%TO.N,Board_0-/SDA*%
X51590777Y-38337773D03*
%TD*%
D23*
%TO.P,Q1,1,S*%
%TO.N,Board_2-/RTS*%
X52969777Y-96520332D03*
%TO.P,Q1,2,G*%
%TO.N,Board_2-/DTR_BASE*%
X52969777Y-97020332D03*
%TO.P,Q1,3,D*%
%TO.N,Board_2-/DTR*%
X52969777Y-97520332D03*
%TO.P,Q1,4,S*%
%TO.N,Board_2-/BOOT*%
X54469777Y-97520332D03*
%TO.P,Q1,5,G*%
%TO.N,Board_2-/RTS_BASE*%
X54469777Y-97020332D03*
%TO.P,Q1,6,D*%
%TO.N,Board_2-/EN*%
X54469777Y-96520332D03*
%TD*%
D38*
%TO.P,R13,1*%
%TO.N,Board_0-/EN*%
X43179777Y-34626773D03*
%TO.P,R13,2*%
%TO.N,Board_0-+3V3*%
X43179777Y-33606773D03*
%TD*%
D48*
%TO.P,U2,1,~{RI}/CLK*%
%TO.N,Board_0-unconnected-(U2-Pad1)*%
X52376761Y-51155724D03*
%TO.P,U2,2,GND*%
%TO.N,Board_0-GND*%
X52376761Y-50655724D03*
%TO.P,U2,3,D+*%
%TO.N,Board_0-/DP*%
X52376761Y-50155724D03*
%TO.P,U2,4,D-*%
%TO.N,Board_0-/DN*%
X52376761Y-49655724D03*
%TO.P,U2,5,VIO*%
%TO.N,Board_0-/VIO*%
X52376761Y-49155724D03*
%TO.P,U2,6,VDD*%
X52376761Y-48655724D03*
D49*
%TO.P,U2,7,VREGIN*%
%TO.N,Board_0-/VREGIN*%
X51689261Y-47968224D03*
%TO.P,U2,8,VBUS*%
%TO.N,Board_0-/CONNECTED*%
X51189261Y-47968224D03*
%TO.P,U2,9,~{RST}*%
%TO.N,Board_0-/~RST*%
X50689261Y-47968224D03*
%TO.P,U2,10,NC*%
%TO.N,Board_0-unconnected-(U2-Pad10)*%
X50189261Y-47968224D03*
%TO.P,U2,11,~{WAKEUP}/GPIO.3*%
%TO.N,Board_0-unconnected-(U2-Pad11)*%
X49689261Y-47968224D03*
%TO.P,U2,12,RS485/GPIO.2*%
%TO.N,Board_0-unconnected-(U2-Pad12)*%
X49189261Y-47968224D03*
D48*
%TO.P,U2,13,~{RXT}/GPIO.1*%
%TO.N,Board_0-unconnected-(U2-Pad13)*%
X48501761Y-48655724D03*
%TO.P,U2,14,~{TXT}/GPIO.0*%
%TO.N,Board_0-unconnected-(U2-Pad14)*%
X48501761Y-49155724D03*
%TO.P,U2,15,~{SUSPEND}*%
%TO.N,Board_0-unconnected-(U2-Pad15)*%
X48501761Y-49655724D03*
%TO.P,U2,16,NC*%
%TO.N,Board_0-unconnected-(U2-Pad16)*%
X48501761Y-50155724D03*
%TO.P,U2,17,SUSPEND*%
%TO.N,Board_0-unconnected-(U2-Pad17)*%
X48501761Y-50655724D03*
%TO.P,U2,18,~{CTS}*%
%TO.N,Board_0-unconnected-(U2-Pad18)*%
X48501761Y-51155724D03*
D49*
%TO.P,U2,19,~{RTS}*%
%TO.N,Board_0-/RTS*%
X49189261Y-51843224D03*
%TO.P,U2,20,RXD*%
%TO.N,Board_0-/RXD*%
X49689261Y-51843224D03*
%TO.P,U2,21,TXD*%
%TO.N,Board_0-/TXD*%
X50189261Y-51843224D03*
%TO.P,U2,22,~{DSR}*%
%TO.N,Board_0-unconnected-(U2-Pad22)*%
X50689261Y-51843224D03*
%TO.P,U2,23,~{DTR}*%
%TO.N,Board_0-/DTR*%
X51189261Y-51843224D03*
%TO.P,U2,24,~{DCD}*%
%TO.N,Board_0-unconnected-(U2-Pad24)*%
X51689261Y-51843224D03*
D50*
%TO.P,U2,25,GND*%
%TO.N,Board_0-GND*%
X50439261Y-49905724D03*
%TD*%
D12*
%TO.P,R25,1*%
%TO.N,Board_0-/PIEZO_DRAIN*%
X45609777Y-57996773D03*
%TO.P,R25,2*%
%TO.N,Board_0-VCC*%
X44589777Y-57996773D03*
%TD*%
D51*
%TO.P,D1,1,A*%
%TO.N,Board_3-GND*%
X96629778Y-93680332D03*
D52*
%TO.P,D1,2,K*%
%TO.N,Board_3-VBUS*%
X98329778Y-93680332D03*
%TO.P,D1,3,K*%
%TO.N,Board_3-/DN*%
X98329778Y-91680332D03*
%TO.P,D1,4,K*%
%TO.N,Board_3-/DP*%
X96429778Y-91680332D03*
%TD*%
D17*
%TO.P,SW5,1,1*%
%TO.N,Board_2-GND*%
X29650343Y-94674709D03*
%TO.P,SW5,2,2*%
%TO.N,Board_2-/B3*%
X28466864Y-92136730D03*
D18*
%TO.P,SW5,3*%
%TO.N,N/C*%
X29196725Y-93341313D03*
D20*
X28613712Y-95652053D03*
D19*
X27051842Y-92302611D03*
%TD*%
D38*
%TO.P,R13,1*%
%TO.N,Board_2-/EN*%
X43179777Y-74880332D03*
%TO.P,R13,2*%
%TO.N,Board_2-+3V3*%
X43179777Y-73860332D03*
%TD*%
D16*
%TO.P,C12,1*%
%TO.N,Board_0-/BOOT*%
X53239777Y-58456773D03*
%TO.P,C12,2*%
%TO.N,Board_0-GND*%
X54199777Y-58456773D03*
%TD*%
D38*
%TO.P,R4,1*%
%TO.N,Board_2-/CONNECTED*%
X49367261Y-86887283D03*
%TO.P,R4,2*%
%TO.N,Board_2-/VREGIN*%
X49367261Y-85867283D03*
%TD*%
D51*
%TO.P,D1,1,A*%
%TO.N,Board_0-GND*%
X54629777Y-53426773D03*
D52*
%TO.P,D1,2,K*%
%TO.N,Board_0-VBUS*%
X56329777Y-53426773D03*
%TO.P,D1,3,K*%
%TO.N,Board_0-/DN*%
X56329777Y-51426773D03*
%TO.P,D1,4,K*%
%TO.N,Board_0-/DP*%
X54429777Y-51426773D03*
%TD*%
D11*
%TO.P,C4,1*%
%TO.N,Board_2-+BATT*%
X29405777Y-90620332D03*
%TO.P,C4,2*%
%TO.N,Board_2-GND*%
X28445777Y-90620332D03*
%TD*%
D38*
%TO.P,R1,1*%
%TO.N,Board_3-/PROG*%
X74359778Y-86180332D03*
%TO.P,R1,2*%
%TO.N,Board_3-GND*%
X74359778Y-85160332D03*
%TD*%
D33*
%TO.P,C14,1*%
%TO.N,Board_3-GND*%
X79899778Y-80065332D03*
%TO.P,C14,2*%
%TO.N,Board_3-/32K_XN*%
X79899778Y-78515332D03*
%TD*%
D11*
%TO.P,C4,1*%
%TO.N,Board_3-+BATT*%
X71405778Y-90620332D03*
%TO.P,C4,2*%
%TO.N,Board_3-GND*%
X70445778Y-90620332D03*
%TD*%
D12*
%TO.P,R23,1*%
%TO.N,Board_0-/ENABLE*%
X35939777Y-54456773D03*
%TO.P,R23,2*%
%TO.N,Board_0-/POWER_GATE*%
X34919777Y-54456773D03*
%TD*%
D10*
%TO.P,R15,1*%
%TO.N,Board_2-+3V3*%
X39479777Y-97320332D03*
%TO.P,R15,2*%
%TO.N,Board_2-/LEDA*%
X40499777Y-97320332D03*
%TD*%
D41*
%TO.P,Q2,1,S*%
%TO.N,Board_1-VCC*%
X77739778Y-51736773D03*
%TO.P,Q2,2,G*%
%TO.N,Board_1-VBUS*%
X77239778Y-51736773D03*
%TO.P,Q2,3,D*%
%TO.N,Board_1-/POWER*%
X76739778Y-51736773D03*
%TO.P,Q2,4,S*%
%TO.N,Board_1-+3V3*%
X76739778Y-53236773D03*
%TO.P,Q2,5,G*%
%TO.N,Board_1-/POWER_GATE*%
X77239778Y-53236773D03*
%TO.P,Q2,6,D*%
%TO.N,Board_1-+BATT*%
X77739778Y-53236773D03*
%TD*%
D54*
%TO.P,SW4,1,1*%
%TO.N,Board_2-GND*%
X59452690Y-92136730D03*
%TO.P,SW4,2,2*%
%TO.N,Board_2-/B2*%
X58269211Y-94674709D03*
D55*
%TO.P,SW4,3*%
%TO.N,N/C*%
X60867712Y-92302611D03*
D56*
X59305842Y-95652053D03*
D57*
X58722829Y-93341313D03*
%TD*%
D10*
%TO.P,R9,1*%
%TO.N,Board_3-/TXD0*%
X93589778Y-79654332D03*
%TO.P,R9,2*%
%TO.N,Board_3-/RXD*%
X94609778Y-79654332D03*
%TD*%
D48*
%TO.P,U2,1,~{RI}/CLK*%
%TO.N,Board_1-unconnected-(U2-Pad1)*%
X94376762Y-51155724D03*
%TO.P,U2,2,GND*%
%TO.N,Board_1-GND*%
X94376762Y-50655724D03*
%TO.P,U2,3,D+*%
%TO.N,Board_1-/DP*%
X94376762Y-50155724D03*
%TO.P,U2,4,D-*%
%TO.N,Board_1-/DN*%
X94376762Y-49655724D03*
%TO.P,U2,5,VIO*%
%TO.N,Board_1-/VIO*%
X94376762Y-49155724D03*
%TO.P,U2,6,VDD*%
X94376762Y-48655724D03*
D49*
%TO.P,U2,7,VREGIN*%
%TO.N,Board_1-/VREGIN*%
X93689262Y-47968224D03*
%TO.P,U2,8,VBUS*%
%TO.N,Board_1-/CONNECTED*%
X93189262Y-47968224D03*
%TO.P,U2,9,~{RST}*%
%TO.N,Board_1-/~RST*%
X92689262Y-47968224D03*
%TO.P,U2,10,NC*%
%TO.N,Board_1-unconnected-(U2-Pad10)*%
X92189262Y-47968224D03*
%TO.P,U2,11,~{WAKEUP}/GPIO.3*%
%TO.N,Board_1-unconnected-(U2-Pad11)*%
X91689262Y-47968224D03*
%TO.P,U2,12,RS485/GPIO.2*%
%TO.N,Board_1-unconnected-(U2-Pad12)*%
X91189262Y-47968224D03*
D48*
%TO.P,U2,13,~{RXT}/GPIO.1*%
%TO.N,Board_1-unconnected-(U2-Pad13)*%
X90501762Y-48655724D03*
%TO.P,U2,14,~{TXT}/GPIO.0*%
%TO.N,Board_1-unconnected-(U2-Pad14)*%
X90501762Y-49155724D03*
%TO.P,U2,15,~{SUSPEND}*%
%TO.N,Board_1-unconnected-(U2-Pad15)*%
X90501762Y-49655724D03*
%TO.P,U2,16,NC*%
%TO.N,Board_1-unconnected-(U2-Pad16)*%
X90501762Y-50155724D03*
%TO.P,U2,17,SUSPEND*%
%TO.N,Board_1-unconnected-(U2-Pad17)*%
X90501762Y-50655724D03*
%TO.P,U2,18,~{CTS}*%
%TO.N,Board_1-unconnected-(U2-Pad18)*%
X90501762Y-51155724D03*
D49*
%TO.P,U2,19,~{RTS}*%
%TO.N,Board_1-/RTS*%
X91189262Y-51843224D03*
%TO.P,U2,20,RXD*%
%TO.N,Board_1-/RXD*%
X91689262Y-51843224D03*
%TO.P,U2,21,TXD*%
%TO.N,Board_1-/TXD*%
X92189262Y-51843224D03*
%TO.P,U2,22,~{DSR}*%
%TO.N,Board_1-unconnected-(U2-Pad22)*%
X92689262Y-51843224D03*
%TO.P,U2,23,~{DTR}*%
%TO.N,Board_1-/DTR*%
X93189262Y-51843224D03*
%TO.P,U2,24,~{DCD}*%
%TO.N,Board_1-unconnected-(U2-Pad24)*%
X93689262Y-51843224D03*
D50*
%TO.P,U2,25,GND*%
%TO.N,Board_1-GND*%
X92439262Y-49905724D03*
%TD*%
D13*
%TO.P,C15,1*%
%TO.N,Board_0-/EN*%
X44219777Y-34606773D03*
%TO.P,C15,2*%
%TO.N,Board_0-GND*%
X44219777Y-33646773D03*
%TD*%
D38*
%TO.P,R21,1*%
%TO.N,Board_2-+BATT*%
X27009777Y-88930332D03*
%TO.P,R21,2*%
%TO.N,Board_2-/BATT_ADC*%
X27009777Y-87910332D03*
%TD*%
D41*
%TO.P,Q2,1,S*%
%TO.N,Board_0-VCC*%
X35739777Y-51736773D03*
%TO.P,Q2,2,G*%
%TO.N,Board_0-VBUS*%
X35239777Y-51736773D03*
%TO.P,Q2,3,D*%
%TO.N,Board_0-/POWER*%
X34739777Y-51736773D03*
%TO.P,Q2,4,S*%
%TO.N,Board_0-+3V3*%
X34739777Y-53236773D03*
%TO.P,Q2,5,G*%
%TO.N,Board_0-/POWER_GATE*%
X35239777Y-53236773D03*
%TO.P,Q2,6,D*%
%TO.N,Board_0-+BATT*%
X35739777Y-53236773D03*
%TD*%
D25*
%TO.P,SW3,1,1*%
%TO.N,Board_3-GND*%
X100269212Y-76845955D03*
%TO.P,SW3,2,2*%
%TO.N,Board_3-/B1*%
X101452691Y-79383934D03*
D26*
%TO.P,SW3,3*%
%TO.N,N/C*%
X102867713Y-79218053D03*
D28*
X101305843Y-75868611D03*
D27*
X100722830Y-78179351D03*
%TD*%
D44*
%TO.P,R12,1*%
%TO.N,Board_2-+3V3*%
X36009777Y-83997832D03*
%TO.P,R12,2*%
%TO.N,Board_2-/VO*%
X36009777Y-85822832D03*
%TD*%
D12*
%TO.P,R11,1*%
%TO.N,Board_3-/RTS_BASE*%
X96229778Y-95280332D03*
%TO.P,R11,2*%
%TO.N,Board_3-/RTS*%
X95209778Y-95280332D03*
%TD*%
D35*
%TO.P,J1,13,SHELL*%
%TO.N,Board_3-GND*%
X104059778Y-81440330D03*
D34*
X99879778Y-81440330D03*
D35*
X104059778Y-90080334D03*
D34*
X99879778Y-90080334D03*
D36*
%TO.P,J1,A1-B12,GND*%
X99304778Y-88960332D03*
%TO.P,J1,A4-B9,VBUS*%
%TO.N,Board_3-VBUS*%
X99304778Y-88160333D03*
D37*
%TO.P,J1,A5,CC1*%
%TO.N,Board_3-/CC2*%
X99304778Y-87010332D03*
%TO.P,J1,A6,DP1*%
%TO.N,Board_3-/DP*%
X99304778Y-86010332D03*
%TO.P,J1,A7,DN1*%
%TO.N,Board_3-/DN*%
X99304778Y-85510332D03*
%TO.P,J1,A8,SBU1*%
%TO.N,Board_3-unconnected-(J1-PadA8)*%
X99304778Y-84510332D03*
D36*
%TO.P,J1,B1-A12,GND*%
%TO.N,Board_3-GND*%
X99304778Y-82560332D03*
%TO.P,J1,B4-A9,VBUS*%
%TO.N,Board_3-VBUS*%
X99304778Y-83360331D03*
D37*
%TO.P,J1,B5,CC2*%
%TO.N,Board_3-/CC1*%
X99304778Y-84010333D03*
%TO.P,J1,B6,DP2*%
%TO.N,Board_3-/DP*%
X99304778Y-85010331D03*
%TO.P,J1,B7,DN2*%
%TO.N,Board_3-/DN*%
X99304778Y-86510333D03*
%TO.P,J1,B8,SBU2*%
%TO.N,Board_3-unconnected-(J1-PadB8)*%
X99304778Y-87510331D03*
%TD*%
D39*
%TO.P,SW2,1,1*%
%TO.N,Board_1-GND*%
X81934376Y-62586773D03*
%TO.P,SW2,2,2*%
%TO.N,Board_1-/BOOT*%
X85485180Y-62586773D03*
%TD*%
D12*
%TO.P,R24,1*%
%TO.N,Board_1-/PIEZO*%
X86589778Y-59046773D03*
%TO.P,R24,2*%
%TO.N,Board_1-/PIEZO_GATE*%
X85569778Y-59046773D03*
%TD*%
D23*
%TO.P,Q1,1,S*%
%TO.N,Board_1-/RTS*%
X94969778Y-56266773D03*
%TO.P,Q1,2,G*%
%TO.N,Board_1-/DTR_BASE*%
X94969778Y-56766773D03*
%TO.P,Q1,3,D*%
%TO.N,Board_1-/DTR*%
X94969778Y-57266773D03*
%TO.P,Q1,4,S*%
%TO.N,Board_1-/BOOT*%
X96469778Y-57266773D03*
%TO.P,Q1,5,G*%
%TO.N,Board_1-/RTS_BASE*%
X96469778Y-56766773D03*
%TO.P,Q1,6,D*%
%TO.N,Board_1-/EN*%
X96469778Y-56266773D03*
%TD*%
D12*
%TO.P,R24,1*%
%TO.N,Board_2-/PIEZO*%
X44589777Y-99300332D03*
%TO.P,R24,2*%
%TO.N,Board_2-/PIEZO_GATE*%
X43569777Y-99300332D03*
%TD*%
D13*
%TO.P,C6,1*%
%TO.N,Board_0-/VREGIN*%
X51461261Y-46597724D03*
%TO.P,C6,2*%
%TO.N,Board_0-GND*%
X51461261Y-45637724D03*
%TD*%
D10*
%TO.P,R20,1*%
%TO.N,Board_0-/BACKLIGHT_GATE*%
X46759777Y-60356773D03*
%TO.P,R20,2*%
%TO.N,Board_0-GND*%
X47779777Y-60356773D03*
%TD*%
D13*
%TO.P,C5,1*%
%TO.N,Board_1-/VREGIN*%
X94598262Y-46627724D03*
%TO.P,C5,2*%
%TO.N,Board_1-GND*%
X94598262Y-45667724D03*
%TD*%
D11*
%TO.P,C4,1*%
%TO.N,Board_1-+BATT*%
X71405778Y-50366773D03*
%TO.P,C4,2*%
%TO.N,Board_1-GND*%
X70445778Y-50366773D03*
%TD*%
D31*
%TO.P,J2,1,Pin_1*%
%TO.N,Board_0-+BATT*%
X32499777Y-59506773D03*
D32*
%TO.P,J2,2,Pin_2*%
%TO.N,Board_0-GND*%
X31085563Y-58092559D03*
%TD*%
D12*
%TO.P,R18,1*%
%TO.N,Board_3-+3V3*%
X94610778Y-78591332D03*
%TO.P,R18,2*%
%TO.N,Board_3-/SDA*%
X93590778Y-78591332D03*
%TD*%
D16*
%TO.P,C11,1*%
%TO.N,Board_1-/EN*%
X95239778Y-59556773D03*
%TO.P,C11,2*%
%TO.N,Board_1-GND*%
X96199778Y-59556773D03*
%TD*%
D13*
%TO.P,C3,1*%
%TO.N,Board_3-/VO*%
X76469778Y-86150332D03*
%TO.P,C3,2*%
%TO.N,Board_3-GND*%
X76469778Y-85190332D03*
%TD*%
D23*
%TO.P,Q3,1,S*%
%TO.N,Board_3-GND*%
X84429778Y-100910332D03*
%TO.P,Q3,2,G*%
%TO.N,Board_3-/BACKLIGHT_GATE*%
X84429778Y-100410332D03*
%TO.P,Q3,3,D*%
%TO.N,Board_3-/PIEZO_DRAIN*%
X84429778Y-99910332D03*
%TO.P,Q3,4,S*%
%TO.N,Board_3-GND*%
X82929778Y-99910332D03*
%TO.P,Q3,5,G*%
%TO.N,Board_3-/PIEZO_GATE*%
X82929778Y-100410332D03*
%TO.P,Q3,6,D*%
%TO.N,Board_3-/LEDK*%
X82929778Y-100910332D03*
%TD*%
D10*
%TO.P,R8,1*%
%TO.N,Board_1-/RXD0*%
X93589778Y-40446773D03*
%TO.P,R8,2*%
%TO.N,Board_1-/TXD*%
X94609778Y-40446773D03*
%TD*%
D13*
%TO.P,C3,1*%
%TO.N,Board_2-/VO*%
X34469777Y-86150332D03*
%TO.P,C3,2*%
%TO.N,Board_2-GND*%
X34469777Y-85190332D03*
%TD*%
D16*
%TO.P,C9,1*%
%TO.N,Board_3-/VIO*%
X95571262Y-89311283D03*
%TO.P,C9,2*%
%TO.N,Board_3-GND*%
X96531262Y-89311283D03*
%TD*%
%TO.P,C11,1*%
%TO.N,Board_0-/EN*%
X53239777Y-59556773D03*
%TO.P,C11,2*%
%TO.N,Board_0-GND*%
X54199777Y-59556773D03*
%TD*%
D12*
%TO.P,R25,1*%
%TO.N,Board_3-/PIEZO_DRAIN*%
X87609778Y-98250332D03*
%TO.P,R25,2*%
%TO.N,Board_3-VCC*%
X86589778Y-98250332D03*
%TD*%
D29*
%TO.P,U1,1,STAT*%
%TO.N,Board_3-/STAT*%
X70928278Y-87426332D03*
%TO.P,U1,2,VSS*%
%TO.N,Board_3-GND*%
X70928278Y-88376332D03*
%TO.P,U1,3,VBAT*%
%TO.N,Board_3-+BATT*%
X70928278Y-89326332D03*
%TO.P,U1,4,VDD*%
%TO.N,Board_3-VBUS*%
X73203278Y-89326332D03*
%TO.P,U1,5,PROG*%
%TO.N,Board_3-/PROG*%
X73203278Y-87426332D03*
%TD*%
D38*
%TO.P,R5,1*%
%TO.N,Board_3-/CONNECTED*%
X92454262Y-86887283D03*
%TO.P,R5,2*%
%TO.N,Board_3-GND*%
X92454262Y-85867283D03*
%TD*%
D13*
%TO.P,C17,1*%
%TO.N,Board_2-+3V3*%
X50829777Y-75060332D03*
%TO.P,C17,2*%
%TO.N,Board_2-GND*%
X50829777Y-74100332D03*
%TD*%
D42*
%TO.P,R6,1*%
%TO.N,Board_1-/VIO*%
X90221262Y-45613724D03*
%TO.P,R6,2*%
%TO.N,Board_1-/~RST*%
X90221262Y-46633724D03*
%TD*%
D39*
%TO.P,SW2,1,1*%
%TO.N,Board_0-GND*%
X39934375Y-62586773D03*
%TO.P,SW2,2,2*%
%TO.N,Board_0-/BOOT*%
X43485179Y-62586773D03*
%TD*%
D15*
%TO.P,D2,1,K*%
%TO.N,Board_2-VCC*%
X33509777Y-94390332D03*
%TO.P,D2,2,A*%
%TO.N,Board_2-VBUS*%
X31409777Y-94390332D03*
%TD*%
D41*
%TO.P,Q2,1,S*%
%TO.N,Board_3-VCC*%
X77739778Y-91990332D03*
%TO.P,Q2,2,G*%
%TO.N,Board_3-VBUS*%
X77239778Y-91990332D03*
%TO.P,Q2,3,D*%
%TO.N,Board_3-/POWER*%
X76739778Y-91990332D03*
%TO.P,Q2,4,S*%
%TO.N,Board_3-+3V3*%
X76739778Y-93490332D03*
%TO.P,Q2,5,G*%
%TO.N,Board_3-/POWER_GATE*%
X77239778Y-93490332D03*
%TO.P,Q2,6,D*%
%TO.N,Board_3-+BATT*%
X77739778Y-93490332D03*
%TD*%
D11*
%TO.P,C10,1*%
%TO.N,Board_2-GND*%
X43319777Y-98250332D03*
%TO.P,C10,2*%
%TO.N,Board_2-/POWER*%
X42359777Y-98250332D03*
%TD*%
D54*
%TO.P,SW4,1,1*%
%TO.N,Board_0-GND*%
X59452690Y-51883171D03*
%TO.P,SW4,2,2*%
%TO.N,Board_0-/B2*%
X58269211Y-54421150D03*
D55*
%TO.P,SW4,3*%
%TO.N,N/C*%
X60867712Y-52049052D03*
D57*
X58722829Y-53087754D03*
D56*
X59305842Y-55398494D03*
%TD*%
D39*
%TO.P,SW1,1,1*%
%TO.N,Board_3-GND*%
X86684376Y-102854332D03*
%TO.P,SW1,2,2*%
%TO.N,Board_3-/EN*%
X90235180Y-102854332D03*
%TD*%
D38*
%TO.P,R4,1*%
%TO.N,Board_3-/CONNECTED*%
X91367262Y-86887283D03*
%TO.P,R4,2*%
%TO.N,Board_3-/VREGIN*%
X91367262Y-85867283D03*
%TD*%
D51*
%TO.P,D1,1,A*%
%TO.N,Board_2-GND*%
X54629777Y-93680332D03*
D52*
%TO.P,D1,2,K*%
%TO.N,Board_2-VBUS*%
X56329777Y-93680332D03*
%TO.P,D1,3,K*%
%TO.N,Board_2-/DN*%
X56329777Y-91680332D03*
%TO.P,D1,4,K*%
%TO.N,Board_2-/DP*%
X54429777Y-91680332D03*
%TD*%
D13*
%TO.P,C3,1*%
%TO.N,Board_1-/VO*%
X76469778Y-45896773D03*
%TO.P,C3,2*%
%TO.N,Board_1-GND*%
X76469778Y-44936773D03*
%TD*%
D17*
%TO.P,SW5,1,1*%
%TO.N,Board_3-GND*%
X71650344Y-94674709D03*
%TO.P,SW5,2,2*%
%TO.N,Board_3-/B3*%
X70466865Y-92136730D03*
D18*
%TO.P,SW5,3*%
%TO.N,N/C*%
X71196726Y-93341313D03*
D19*
X69051843Y-92302611D03*
D20*
X70613713Y-95652053D03*
%TD*%
D16*
%TO.P,C11,1*%
%TO.N,Board_3-/EN*%
X95239778Y-99810332D03*
%TO.P,C11,2*%
%TO.N,Board_3-GND*%
X96199778Y-99810332D03*
%TD*%
D53*
%TO.P,U4,1,VI*%
%TO.N,Board_3-VCC*%
X75183778Y-87426332D03*
%TO.P,U4,2,GND*%
%TO.N,Board_3-GND*%
X75183778Y-88376332D03*
%TO.P,U4,3,EN*%
%TO.N,Board_3-VCC*%
X75183778Y-89326332D03*
%TO.P,U4,4,NC*%
%TO.N,Board_3-unconnected-(U4-Pad4)*%
X77583778Y-89326332D03*
%TO.P,U4,5,VO*%
%TO.N,Board_3-/VO*%
X77583778Y-87426332D03*
%TD*%
D42*
%TO.P,R22,1*%
%TO.N,Board_1-GND*%
X69009778Y-45576773D03*
%TO.P,R22,2*%
%TO.N,Board_1-/BATT_ADC*%
X69009778Y-46596773D03*
%TD*%
D11*
%TO.P,C1,1*%
%TO.N,Board_3-VBUS*%
X73685778Y-90662332D03*
%TO.P,C1,2*%
%TO.N,Board_3-GND*%
X72725778Y-90662332D03*
%TD*%
D43*
%TO.P,Y1,1,1*%
%TO.N,Board_3-/32K_XP*%
X81835778Y-75996332D03*
%TO.P,Y1,2,2*%
%TO.N,Board_3-/32K_XN*%
X81835778Y-78496332D03*
%TD*%
D14*
%TO.P,C13,1*%
%TO.N,Board_2-GND*%
X37879777Y-74405332D03*
%TO.P,C13,2*%
%TO.N,Board_2-/32K_XP*%
X37879777Y-75955332D03*
%TD*%
D11*
%TO.P,C1,1*%
%TO.N,Board_0-VBUS*%
X31685777Y-50408773D03*
%TO.P,C1,2*%
%TO.N,Board_0-GND*%
X30725777Y-50408773D03*
%TD*%
D38*
%TO.P,R13,1*%
%TO.N,Board_1-/EN*%
X85179778Y-34626773D03*
%TO.P,R13,2*%
%TO.N,Board_1-+3V3*%
X85179778Y-33606773D03*
%TD*%
D12*
%TO.P,R18,1*%
%TO.N,Board_2-+3V3*%
X52610777Y-78591332D03*
%TO.P,R18,2*%
%TO.N,Board_2-/SDA*%
X51590777Y-78591332D03*
%TD*%
D29*
%TO.P,U1,1,STAT*%
%TO.N,Board_0-/STAT*%
X28928277Y-47172773D03*
%TO.P,U1,2,VSS*%
%TO.N,Board_0-GND*%
X28928277Y-48122773D03*
%TO.P,U1,3,VBAT*%
%TO.N,Board_0-+BATT*%
X28928277Y-49072773D03*
%TO.P,U1,4,VDD*%
%TO.N,Board_0-VBUS*%
X31203277Y-49072773D03*
%TO.P,U1,5,PROG*%
%TO.N,Board_0-/PROG*%
X31203277Y-47172773D03*
%TD*%
D11*
%TO.P,C10,1*%
%TO.N,Board_1-GND*%
X85319778Y-57996773D03*
%TO.P,C10,2*%
%TO.N,Board_1-/POWER*%
X84359778Y-57996773D03*
%TD*%
D22*
%TO.P,IC1,1,VDD5V*%
%TO.N,Board_1-/POWER*%
X73257778Y-35588773D03*
%TO.P,IC1,2,VDD3V3*%
X71987778Y-35588773D03*
%TO.P,IC1,3,OUT*%
%TO.N,Board_1-unconnected-(IC1-Pad3)*%
X70717778Y-35588773D03*
%TO.P,IC1,4,GND*%
%TO.N,Board_1-GND*%
X69447778Y-35588773D03*
%TO.P,IC1,5,PGO*%
%TO.N,Board_1-unconnected-(IC1-Pad5)*%
X69447778Y-40538773D03*
%TO.P,IC1,6,SDA*%
%TO.N,Board_1-/SDA*%
X70717778Y-40538773D03*
%TO.P,IC1,7,SCL*%
%TO.N,Board_1-/SCL*%
X71987778Y-40538773D03*
%TO.P,IC1,8,DIR*%
%TO.N,Board_1-/DIR*%
X73257778Y-40538773D03*
%TD*%
D12*
%TO.P,R25,1*%
%TO.N,Board_1-/PIEZO_DRAIN*%
X87609778Y-57996773D03*
%TO.P,R25,2*%
%TO.N,Board_1-VCC*%
X86589778Y-57996773D03*
%TD*%
D13*
%TO.P,C16,1*%
%TO.N,Board_2-+3V3*%
X49799777Y-75080332D03*
%TO.P,C16,2*%
%TO.N,Board_2-GND*%
X49799777Y-74120332D03*
%TD*%
D10*
%TO.P,R2,1*%
%TO.N,Board_3-GND*%
X95541262Y-87279283D03*
%TO.P,R2,2*%
%TO.N,Board_3-/CC2*%
X96561262Y-87279283D03*
%TD*%
%TO.P,R19,1*%
%TO.N,Board_0-/SCL*%
X51590777Y-41467773D03*
%TO.P,R19,2*%
%TO.N,Board_0-+3V3*%
X52610777Y-41467773D03*
%TD*%
D23*
%TO.P,Q3,1,S*%
%TO.N,Board_2-GND*%
X42429777Y-100910332D03*
%TO.P,Q3,2,G*%
%TO.N,Board_2-/BACKLIGHT_GATE*%
X42429777Y-100410332D03*
%TO.P,Q3,3,D*%
%TO.N,Board_2-/PIEZO_DRAIN*%
X42429777Y-99910332D03*
%TO.P,Q3,4,S*%
%TO.N,Board_2-GND*%
X40929777Y-99910332D03*
%TO.P,Q3,5,G*%
%TO.N,Board_2-/PIEZO_GATE*%
X40929777Y-100410332D03*
%TO.P,Q3,6,D*%
%TO.N,Board_2-/LEDK*%
X40929777Y-100910332D03*
%TD*%
D33*
%TO.P,C14,1*%
%TO.N,Board_1-GND*%
X79899778Y-39811773D03*
%TO.P,C14,2*%
%TO.N,Board_1-/32K_XN*%
X79899778Y-38261773D03*
%TD*%
D38*
%TO.P,R5,1*%
%TO.N,Board_0-/CONNECTED*%
X50454261Y-46633724D03*
%TO.P,R5,2*%
%TO.N,Board_0-GND*%
X50454261Y-45613724D03*
%TD*%
D53*
%TO.P,U4,1,VI*%
%TO.N,Board_2-VCC*%
X33183777Y-87426332D03*
%TO.P,U4,2,GND*%
%TO.N,Board_2-GND*%
X33183777Y-88376332D03*
%TO.P,U4,3,EN*%
%TO.N,Board_2-VCC*%
X33183777Y-89326332D03*
%TO.P,U4,4,NC*%
%TO.N,Board_2-unconnected-(U4-Pad4)*%
X35583777Y-89326332D03*
%TO.P,U4,5,VO*%
%TO.N,Board_2-/VO*%
X35583777Y-87426332D03*
%TD*%
D12*
%TO.P,R25,1*%
%TO.N,Board_2-/PIEZO_DRAIN*%
X45609777Y-98250332D03*
%TO.P,R25,2*%
%TO.N,Board_2-VCC*%
X44589777Y-98250332D03*
%TD*%
D16*
%TO.P,C9,1*%
%TO.N,Board_1-/VIO*%
X95571262Y-49057724D03*
%TO.P,C9,2*%
%TO.N,Board_1-GND*%
X96531262Y-49057724D03*
%TD*%
D12*
%TO.P,R11,1*%
%TO.N,Board_2-/RTS_BASE*%
X54229777Y-95280332D03*
%TO.P,R11,2*%
%TO.N,Board_2-/RTS*%
X53209777Y-95280332D03*
%TD*%
D14*
%TO.P,C13,1*%
%TO.N,Board_1-GND*%
X79879778Y-34151773D03*
%TO.P,C13,2*%
%TO.N,Board_1-/32K_XP*%
X79879778Y-35701773D03*
%TD*%
D12*
%TO.P,R23,1*%
%TO.N,Board_1-/ENABLE*%
X77939778Y-54456773D03*
%TO.P,R23,2*%
%TO.N,Board_1-/POWER_GATE*%
X76919778Y-54456773D03*
%TD*%
%TO.P,R26,1*%
%TO.N,Board_1-/DIR*%
X78309778Y-32746773D03*
%TO.P,R26,2*%
%TO.N,Board_1-/POWER*%
X77289778Y-32746773D03*
%TD*%
D10*
%TO.P,R2,1*%
%TO.N,Board_2-GND*%
X53541261Y-87279283D03*
%TO.P,R2,2*%
%TO.N,Board_2-/CC2*%
X54561261Y-87279283D03*
%TD*%
D34*
%TO.P,J1,13,SHELL*%
%TO.N,Board_0-GND*%
X57879777Y-49826775D03*
X57879777Y-41186771D03*
D35*
X62059777Y-49826775D03*
X62059777Y-41186771D03*
D36*
%TO.P,J1,A1-B12,GND*%
X57304777Y-48706773D03*
%TO.P,J1,A4-B9,VBUS*%
%TO.N,Board_0-VBUS*%
X57304777Y-47906774D03*
D37*
%TO.P,J1,A5,CC1*%
%TO.N,Board_0-/CC2*%
X57304777Y-46756773D03*
%TO.P,J1,A6,DP1*%
%TO.N,Board_0-/DP*%
X57304777Y-45756773D03*
%TO.P,J1,A7,DN1*%
%TO.N,Board_0-/DN*%
X57304777Y-45256773D03*
%TO.P,J1,A8,SBU1*%
%TO.N,Board_0-unconnected-(J1-PadA8)*%
X57304777Y-44256773D03*
D36*
%TO.P,J1,B1-A12,GND*%
%TO.N,Board_0-GND*%
X57304777Y-42306773D03*
%TO.P,J1,B4-A9,VBUS*%
%TO.N,Board_0-VBUS*%
X57304777Y-43106772D03*
D37*
%TO.P,J1,B5,CC2*%
%TO.N,Board_0-/CC1*%
X57304777Y-43756774D03*
%TO.P,J1,B6,DP2*%
%TO.N,Board_0-/DP*%
X57304777Y-44756772D03*
%TO.P,J1,B7,DN2*%
%TO.N,Board_0-/DN*%
X57304777Y-46256774D03*
%TO.P,J1,B8,SBU2*%
%TO.N,Board_0-unconnected-(J1-PadB8)*%
X57304777Y-47256772D03*
%TD*%
D58*
%TO.N,Board_0-+3V3*%
X47429777Y-33926773D03*
X39079777Y-56196773D03*
X48980277Y-33916773D03*
X39079777Y-45326773D03*
%TO.N,Board_0-+BATT*%
X36349777Y-53226773D03*
%TO.N,Board_0-/B1*%
X59904544Y-38104196D03*
X46409777Y-34146773D03*
%TO.N,Board_0-/B2*%
X45860277Y-34896773D03*
X59926538Y-54279225D03*
%TO.N,Board_0-/B3*%
X27829777Y-51256773D03*
X45129737Y-34729245D03*
%TO.N,Board_0-/BACKLIGHT*%
X47679222Y-44269106D03*
X48586129Y-57148930D03*
X46839777Y-45916273D03*
X50356777Y-41767273D03*
%TO.N,Board_0-/BATT_ADC*%
X39540557Y-33901273D03*
X27919777Y-46186773D03*
%TO.N,Board_0-/BOOT*%
X41498337Y-41713849D03*
X38619777Y-61273531D03*
%TO.N,Board_0-/CC2*%
X56209777Y-44756773D03*
X58297492Y-46856274D03*
%TO.N,Board_0-/CONNECTED*%
X41806662Y-39068273D03*
X48691261Y-44676773D03*
%TO.N,Board_0-/DAC1*%
X41309777Y-37317273D03*
%TO.N,Board_0-/DAC2*%
X41354358Y-38066372D03*
%TO.N,Board_0-/DIR*%
X31229777Y-38776773D03*
X36019777Y-34646773D03*
%TO.N,Board_0-/DP*%
X58161277Y-45756774D03*
X58339777Y-44556773D03*
%TO.N,Board_0-/DTR*%
X51909777Y-58146773D03*
%TO.N,Board_0-/EN*%
X42359777Y-34496773D03*
X55589777Y-56046773D03*
%TO.N,Board_0-/ENABLE*%
X45050249Y-44689240D03*
X42780511Y-52556039D03*
%TO.N,Board_0-/LEDA*%
X41829777Y-57086773D03*
%TO.N,Board_0-/LEDK*%
X41686354Y-59269355D03*
%TO.N,Board_0-/PIEZO*%
X44298990Y-44753441D03*
X43940277Y-53826771D03*
%TO.N,Board_0-/POWER*%
X34219777Y-51136773D03*
X42579280Y-57086773D03*
X31239777Y-37356773D03*
X35569777Y-33376773D03*
X30019777Y-34186773D03*
%TO.N,Board_0-/RTS*%
X52629777Y-54356773D03*
X50569777Y-53836773D03*
%TO.N,Board_0-/RXD*%
X49691261Y-52637724D03*
X53350277Y-39366773D03*
%TO.N,Board_0-/SCL*%
X44729777Y-45366773D03*
X38198985Y-42295981D03*
X30713520Y-41815395D03*
X51549777Y-42116773D03*
%TO.N,Board_0-/SDA*%
X48584761Y-43772337D03*
X37519719Y-42612763D03*
X29219777Y-41746773D03*
X45437202Y-45916273D03*
X50503097Y-39660408D03*
%TO.N,Board_0-/STAT*%
X38998333Y-42318217D03*
X30366009Y-46518862D03*
%TO.N,Board_0-/TXD*%
X50651261Y-52705224D03*
X53339777Y-40306773D03*
%TO.N,Board_0-/VIO*%
X52609777Y-47936773D03*
X48069777Y-47353224D03*
%TO.N,Board_0-GND*%
X49531261Y-49017724D03*
X31909777Y-51776773D03*
X39819777Y-55526773D03*
X32289777Y-48126773D03*
X35289777Y-30626773D03*
X28587260Y-54136545D03*
X45289777Y-62596773D03*
X50401261Y-50737724D03*
X33429777Y-44136773D03*
X51281261Y-49057724D03*
X46359777Y-31866773D03*
X48029777Y-60966773D03*
X53281261Y-45237724D03*
X47920777Y-37687773D03*
X30099777Y-48166773D03*
X51271261Y-49837724D03*
X51271261Y-50717724D03*
X47900777Y-41337773D03*
X53251261Y-50705224D03*
X57819777Y-51276773D03*
X41059777Y-31907273D03*
X59599777Y-36666773D03*
X27439777Y-37036773D03*
X46090777Y-37727773D03*
X47479777Y-53826771D03*
X49541261Y-50737724D03*
X26129777Y-45576773D03*
X43312597Y-57241696D03*
X44350777Y-41257773D03*
X54899777Y-58876773D03*
X30159777Y-49736773D03*
X46100777Y-41317773D03*
X40379777Y-26326773D03*
X44390777Y-39467773D03*
X50401261Y-49907724D03*
X47539777Y-26386773D03*
X47880777Y-39367773D03*
X38819777Y-34106773D03*
X50401261Y-49047724D03*
X54989777Y-48566773D03*
X54639777Y-54216773D03*
X50960846Y-45147842D03*
X32251221Y-36978217D03*
X43399777Y-60796773D03*
X40539777Y-62586773D03*
X44390777Y-37707773D03*
X27699777Y-50366773D03*
X50229777Y-33116773D03*
X49511261Y-49907724D03*
X44939777Y-33646773D03*
X38739777Y-39196773D03*
X40259777Y-59196773D03*
X46070777Y-39427773D03*
%TO.N,Board_0-VBUS*%
X56339777Y-52666773D03*
X58252732Y-47654800D03*
X30429777Y-51746773D03*
%TO.N,Board_1-+3V3*%
X89429778Y-33926773D03*
X81079778Y-56196773D03*
X90980278Y-33916773D03*
X81079778Y-45326773D03*
%TO.N,Board_1-+BATT*%
X78349778Y-53226773D03*
%TO.N,Board_1-/B1*%
X101904545Y-38104196D03*
X88409778Y-34146773D03*
%TO.N,Board_1-/B2*%
X87860278Y-34896773D03*
X101926539Y-54279225D03*
%TO.N,Board_1-/B3*%
X69829778Y-51256773D03*
X87129738Y-34729245D03*
%TO.N,Board_1-/BACKLIGHT*%
X89679223Y-44269106D03*
X90586130Y-57148930D03*
X88839778Y-45916273D03*
X92356778Y-41767273D03*
%TO.N,Board_1-/BATT_ADC*%
X81540558Y-33901273D03*
X69919778Y-46186773D03*
%TO.N,Board_1-/BOOT*%
X83498338Y-41713849D03*
X80619778Y-61273531D03*
%TO.N,Board_1-/CC2*%
X98209778Y-44756773D03*
X100297493Y-46856274D03*
%TO.N,Board_1-/CONNECTED*%
X83806663Y-39068273D03*
X90691262Y-44676773D03*
%TO.N,Board_1-/DAC1*%
X83309778Y-37317273D03*
%TO.N,Board_1-/DAC2*%
X83354359Y-38066372D03*
%TO.N,Board_1-/DIR*%
X73229778Y-38776773D03*
X78019778Y-34646773D03*
%TO.N,Board_1-/DP*%
X100161278Y-45756774D03*
X100339778Y-44556773D03*
%TO.N,Board_1-/DTR*%
X93909778Y-58146773D03*
%TO.N,Board_1-/EN*%
X84359778Y-34496773D03*
X97589778Y-56046773D03*
%TO.N,Board_1-/ENABLE*%
X87050250Y-44689240D03*
X84780512Y-52556039D03*
%TO.N,Board_1-/LEDA*%
X83829778Y-57086773D03*
%TO.N,Board_1-/LEDK*%
X83686355Y-59269355D03*
%TO.N,Board_1-/PIEZO*%
X86298991Y-44753441D03*
X85940278Y-53826771D03*
%TO.N,Board_1-/POWER*%
X76219778Y-51136773D03*
X84579281Y-57086773D03*
X73239778Y-37356773D03*
X77569778Y-33376773D03*
X72019778Y-34186773D03*
%TO.N,Board_1-/RTS*%
X94629778Y-54356773D03*
X92569778Y-53836773D03*
%TO.N,Board_1-/RXD*%
X91691262Y-52637724D03*
X95350278Y-39366773D03*
%TO.N,Board_1-/SCL*%
X86729778Y-45366773D03*
X80198986Y-42295981D03*
X72713521Y-41815395D03*
X93549778Y-42116773D03*
%TO.N,Board_1-/SDA*%
X90584762Y-43772337D03*
X79519720Y-42612763D03*
X71219778Y-41746773D03*
X87437203Y-45916273D03*
X92503098Y-39660408D03*
%TO.N,Board_1-/STAT*%
X80998334Y-42318217D03*
X72366010Y-46518862D03*
%TO.N,Board_1-/TXD*%
X92651262Y-52705224D03*
X95339778Y-40306773D03*
%TO.N,Board_1-/VIO*%
X94609778Y-47936773D03*
X90069778Y-47353224D03*
%TO.N,Board_1-GND*%
X91531262Y-49017724D03*
X73909778Y-51776773D03*
X81819778Y-55526773D03*
X74289778Y-48126773D03*
X77289778Y-30626773D03*
X70587261Y-54136545D03*
X87289778Y-62596773D03*
X92401262Y-50737724D03*
X75429778Y-44136773D03*
X93281262Y-49057724D03*
X88359778Y-31866773D03*
X90029778Y-60966773D03*
X95281262Y-45237724D03*
X89920778Y-37687773D03*
X72099778Y-48166773D03*
X93271262Y-49837724D03*
X93271262Y-50717724D03*
X89900778Y-41337773D03*
X95251262Y-50705224D03*
X99819778Y-51276773D03*
X83059778Y-31907273D03*
X101599778Y-36666773D03*
X69439778Y-37036773D03*
X88090778Y-37727773D03*
X89479778Y-53826771D03*
X91541262Y-50737724D03*
X68129778Y-45576773D03*
X85312598Y-57241696D03*
X86350778Y-41257773D03*
X96899778Y-58876773D03*
X72159778Y-49736773D03*
X88100778Y-41317773D03*
X82379778Y-26326773D03*
X86390778Y-39467773D03*
X92401262Y-49907724D03*
X89539778Y-26386773D03*
X89880778Y-39367773D03*
X80819778Y-34106773D03*
X92401262Y-49047724D03*
X96989778Y-48566773D03*
X96639778Y-54216773D03*
X92960847Y-45147842D03*
X74251222Y-36978217D03*
X85399778Y-60796773D03*
X82539778Y-62586773D03*
X86390778Y-37707773D03*
X69699778Y-50366773D03*
X92229778Y-33116773D03*
X91511262Y-49907724D03*
X86939778Y-33646773D03*
X80739778Y-39196773D03*
X82259778Y-59196773D03*
X88070778Y-39427773D03*
%TO.N,Board_1-VBUS*%
X98339778Y-52666773D03*
X100252733Y-47654800D03*
X72429778Y-51746773D03*
%TO.N,Board_2-+3V3*%
X47429777Y-74180332D03*
X39079777Y-96450332D03*
X48980277Y-74170332D03*
X39079777Y-85580332D03*
%TO.N,Board_2-+BATT*%
X36349777Y-93480332D03*
%TO.N,Board_2-/B1*%
X59904544Y-78357755D03*
X46409777Y-74400332D03*
%TO.N,Board_2-/B2*%
X45860277Y-75150332D03*
X59926538Y-94532784D03*
%TO.N,Board_2-/B3*%
X27829777Y-91510332D03*
X45129737Y-74982804D03*
%TO.N,Board_2-/BACKLIGHT*%
X47679222Y-84522665D03*
X48586129Y-97402489D03*
X46839777Y-86169832D03*
X50356777Y-82020832D03*
%TO.N,Board_2-/BATT_ADC*%
X39540557Y-74154832D03*
X27919777Y-86440332D03*
%TO.N,Board_2-/BOOT*%
X41498337Y-81967408D03*
X38619777Y-101527090D03*
%TO.N,Board_2-/CC2*%
X56209777Y-85010332D03*
X58297492Y-87109833D03*
%TO.N,Board_2-/CONNECTED*%
X41806662Y-79321832D03*
X48691261Y-84930332D03*
%TO.N,Board_2-/DAC1*%
X41309777Y-77570832D03*
%TO.N,Board_2-/DAC2*%
X41354358Y-78319931D03*
%TO.N,Board_2-/DIR*%
X31229777Y-79030332D03*
X36019777Y-74900332D03*
%TO.N,Board_2-/DP*%
X58161277Y-86010333D03*
X58339777Y-84810332D03*
%TO.N,Board_2-/DTR*%
X51909777Y-98400332D03*
%TO.N,Board_2-/EN*%
X42359777Y-74750332D03*
X55589777Y-96300332D03*
%TO.N,Board_2-/ENABLE*%
X45050249Y-84942799D03*
X42780511Y-92809598D03*
%TO.N,Board_2-/LEDA*%
X41829777Y-97340332D03*
%TO.N,Board_2-/LEDK*%
X41686354Y-99522914D03*
%TO.N,Board_2-/PIEZO*%
X44298990Y-85007000D03*
X43940277Y-94080330D03*
%TO.N,Board_2-/POWER*%
X34219777Y-91390332D03*
X42579280Y-97340332D03*
X31239777Y-77610332D03*
X35569777Y-73630332D03*
X30019777Y-74440332D03*
%TO.N,Board_2-/RTS*%
X52629777Y-94610332D03*
X50569777Y-94090332D03*
%TO.N,Board_2-/RXD*%
X49691261Y-92891283D03*
X53350277Y-79620332D03*
%TO.N,Board_2-/SCL*%
X44729777Y-85620332D03*
X38198985Y-82549540D03*
X30713520Y-82068954D03*
X51549777Y-82370332D03*
%TO.N,Board_2-/SDA*%
X48584761Y-84025896D03*
X37519719Y-82866322D03*
X29219777Y-82000332D03*
X45437202Y-86169832D03*
X50503097Y-79913967D03*
%TO.N,Board_2-/STAT*%
X38998333Y-82571776D03*
X30366009Y-86772421D03*
%TO.N,Board_2-/TXD*%
X50651261Y-92958783D03*
X53339777Y-80560332D03*
%TO.N,Board_2-/VIO*%
X52609777Y-88190332D03*
X48069777Y-87606783D03*
%TO.N,Board_2-GND*%
X49531261Y-89271283D03*
X31909777Y-92030332D03*
X39819777Y-95780332D03*
X32289777Y-88380332D03*
X35289777Y-70880332D03*
X28587260Y-94390104D03*
X45289777Y-102850332D03*
X50401261Y-90991283D03*
X33429777Y-84390332D03*
X51281261Y-89311283D03*
X46359777Y-72120332D03*
X48029777Y-101220332D03*
X53281261Y-85491283D03*
X47920777Y-77941332D03*
X30099777Y-88420332D03*
X51271261Y-90091283D03*
X51271261Y-90971283D03*
X47900777Y-81591332D03*
X53251261Y-90958783D03*
X57819777Y-91530332D03*
X41059777Y-72160832D03*
X59599777Y-76920332D03*
X27439777Y-77290332D03*
X46090777Y-77981332D03*
X47479777Y-94080330D03*
X49541261Y-90991283D03*
X26129777Y-85830332D03*
X43312597Y-97495255D03*
X44350777Y-81511332D03*
X54899777Y-99130332D03*
X30159777Y-89990332D03*
X46100777Y-81571332D03*
X40379777Y-66580332D03*
X44390777Y-79721332D03*
X50401261Y-90161283D03*
X47539777Y-66640332D03*
X47880777Y-79621332D03*
X38819777Y-74360332D03*
X50401261Y-89301283D03*
X54989777Y-88820332D03*
X54639777Y-94470332D03*
X50960846Y-85401401D03*
X32251221Y-77231776D03*
X43399777Y-101050332D03*
X40539777Y-102840332D03*
X44390777Y-77961332D03*
X27699777Y-90620332D03*
X50229777Y-73370332D03*
X49511261Y-90161283D03*
X44939777Y-73900332D03*
X38739777Y-79450332D03*
X40259777Y-99450332D03*
X46070777Y-79681332D03*
%TO.N,Board_2-VBUS*%
X56339777Y-92920332D03*
X58252732Y-87908359D03*
X30429777Y-92000332D03*
%TO.N,Board_3-+3V3*%
X89429778Y-74180332D03*
X81079778Y-96450332D03*
X90980278Y-74170332D03*
X81079778Y-85580332D03*
%TO.N,Board_3-+BATT*%
X78349778Y-93480332D03*
%TO.N,Board_3-/B1*%
X101904545Y-78357755D03*
X88409778Y-74400332D03*
%TO.N,Board_3-/B2*%
X87860278Y-75150332D03*
X101926539Y-94532784D03*
%TO.N,Board_3-/B3*%
X69829778Y-91510332D03*
X87129738Y-74982804D03*
%TO.N,Board_3-/BACKLIGHT*%
X89679223Y-84522665D03*
X90586130Y-97402489D03*
X88839778Y-86169832D03*
X92356778Y-82020832D03*
%TO.N,Board_3-/BATT_ADC*%
X81540558Y-74154832D03*
X69919778Y-86440332D03*
%TO.N,Board_3-/BOOT*%
X83498338Y-81967408D03*
X80619778Y-101527090D03*
%TO.N,Board_3-/CC2*%
X98209778Y-85010332D03*
X100297493Y-87109833D03*
%TO.N,Board_3-/CONNECTED*%
X83806663Y-79321832D03*
X90691262Y-84930332D03*
%TO.N,Board_3-/DAC1*%
X83309778Y-77570832D03*
%TO.N,Board_3-/DAC2*%
X83354359Y-78319931D03*
%TO.N,Board_3-/DIR*%
X73229778Y-79030332D03*
X78019778Y-74900332D03*
%TO.N,Board_3-/DP*%
X100161278Y-86010333D03*
X100339778Y-84810332D03*
%TO.N,Board_3-/DTR*%
X93909778Y-98400332D03*
%TO.N,Board_3-/EN*%
X84359778Y-74750332D03*
X97589778Y-96300332D03*
%TO.N,Board_3-/ENABLE*%
X87050250Y-84942799D03*
X84780512Y-92809598D03*
%TO.N,Board_3-/LEDA*%
X83829778Y-97340332D03*
%TO.N,Board_3-/LEDK*%
X83686355Y-99522914D03*
%TO.N,Board_3-/PIEZO*%
X86298991Y-85007000D03*
X85940278Y-94080330D03*
%TO.N,Board_3-/POWER*%
X76219778Y-91390332D03*
X84579281Y-97340332D03*
X73239778Y-77610332D03*
X77569778Y-73630332D03*
X72019778Y-74440332D03*
%TO.N,Board_3-/RTS*%
X94629778Y-94610332D03*
X92569778Y-94090332D03*
%TO.N,Board_3-/RXD*%
X91691262Y-92891283D03*
X95350278Y-79620332D03*
%TO.N,Board_3-/SCL*%
X86729778Y-85620332D03*
X80198986Y-82549540D03*
X72713521Y-82068954D03*
X93549778Y-82370332D03*
%TO.N,Board_3-/SDA*%
X90584762Y-84025896D03*
X79519720Y-82866322D03*
X71219778Y-82000332D03*
X87437203Y-86169832D03*
X92503098Y-79913967D03*
%TO.N,Board_3-/STAT*%
X80998334Y-82571776D03*
X72366010Y-86772421D03*
%TO.N,Board_3-/TXD*%
X92651262Y-92958783D03*
X95339778Y-80560332D03*
%TO.N,Board_3-/VIO*%
X94609778Y-88190332D03*
X90069778Y-87606783D03*
%TO.N,Board_3-GND*%
X91531262Y-89271283D03*
X73909778Y-92030332D03*
X81819778Y-95780332D03*
X74289778Y-88380332D03*
X77289778Y-70880332D03*
X70587261Y-94390104D03*
X87289778Y-102850332D03*
X92401262Y-90991283D03*
X75429778Y-84390332D03*
X93281262Y-89311283D03*
X88359778Y-72120332D03*
X90029778Y-101220332D03*
X95281262Y-85491283D03*
X89920778Y-77941332D03*
X72099778Y-88420332D03*
X93271262Y-90091283D03*
X93271262Y-90971283D03*
X89900778Y-81591332D03*
X95251262Y-90958783D03*
X99819778Y-91530332D03*
X83059778Y-72160832D03*
X101599778Y-76920332D03*
X69439778Y-77290332D03*
X88090778Y-77981332D03*
X89479778Y-94080330D03*
X91541262Y-90991283D03*
X68129778Y-85830332D03*
X85312598Y-97495255D03*
X86350778Y-81511332D03*
X96899778Y-99130332D03*
X72159778Y-89990332D03*
X88100778Y-81571332D03*
X82379778Y-66580332D03*
X86390778Y-79721332D03*
X92401262Y-90161283D03*
X89539778Y-66640332D03*
X89880778Y-79621332D03*
X80819778Y-74360332D03*
X92401262Y-89301283D03*
X96989778Y-88820332D03*
X96639778Y-94470332D03*
X92960847Y-85401401D03*
X74251222Y-77231776D03*
X85399778Y-101050332D03*
X82539778Y-102840332D03*
X86390778Y-77961332D03*
X69699778Y-90620332D03*
X92229778Y-73370332D03*
X91511262Y-90161283D03*
X86939778Y-73900332D03*
X80739778Y-79450332D03*
X82259778Y-99450332D03*
X88070778Y-79681332D03*
%TO.N,Board_3-VBUS*%
X98339778Y-92920332D03*
X100252733Y-87908359D03*
X72429778Y-92000332D03*
%TD*%
D59*
%TO.N,Board_0-+3V3*%
X43869777Y-32916773D02*
X45479777Y-32916773D01*
D60*
X50909777Y-38406773D02*
X50909777Y-36636773D01*
D59*
X48980277Y-33916773D02*
X48980277Y-34050238D01*
X53578777Y-41467773D02*
X52610777Y-41467773D01*
X50829777Y-34806773D02*
X50829777Y-36556773D01*
D60*
X49568277Y-42217773D02*
X50067277Y-42716773D01*
D59*
X50809777Y-34826773D02*
X50829777Y-34806773D01*
X48880777Y-35745773D02*
X49799777Y-34826773D01*
X39079777Y-44726773D02*
X38097277Y-43744273D01*
X39479777Y-57066773D02*
X39469777Y-57056773D01*
X50909777Y-36636773D02*
X52610777Y-38337773D01*
X38315450Y-40684273D02*
X39281950Y-39717773D01*
X36503777Y-57056773D02*
X34919777Y-55472773D01*
D60*
X49568277Y-37717773D02*
X50018429Y-37717773D01*
X51798306Y-42716773D02*
X52610777Y-41904302D01*
D59*
X38097277Y-43744273D02*
X36009777Y-43744273D01*
X37022277Y-40684273D02*
X36899777Y-40561773D01*
X49799777Y-34826773D02*
X50809777Y-34826773D01*
D60*
X49568277Y-39217773D02*
X50098777Y-39217773D01*
D59*
X48980277Y-34050238D02*
X49756812Y-34826773D01*
D60*
X50018429Y-37717773D02*
X50909777Y-36826425D01*
D59*
X46100158Y-33537154D02*
X46140538Y-33496773D01*
X39079777Y-45326773D02*
X39079777Y-44726773D01*
X36899777Y-40561773D02*
X36899777Y-33843600D01*
X47380777Y-33975773D02*
X47380777Y-36030273D01*
X39079777Y-56666773D02*
X39479777Y-57066773D01*
X34299777Y-53656773D02*
X34719777Y-53236773D01*
X48880777Y-36030273D02*
X48880777Y-35745773D01*
X46999777Y-33496773D02*
X47429777Y-33926773D01*
X34299777Y-54852773D02*
X34299777Y-53656773D01*
X45479777Y-32916773D02*
X46100158Y-33537154D01*
X53760777Y-38337773D02*
X53999777Y-38576773D01*
X34299777Y-54852773D02*
X34919777Y-55472773D01*
X39281950Y-39717773D02*
X42693277Y-39717773D01*
X52610777Y-38337773D02*
X53760777Y-38337773D01*
D60*
X50909777Y-36826425D02*
X50909777Y-36636773D01*
D59*
X36009777Y-43744273D02*
X36009777Y-41696773D01*
X53999777Y-41046773D02*
X53578777Y-41467773D01*
X46140538Y-33496773D02*
X46999777Y-33496773D01*
X37022277Y-40684273D02*
X38315450Y-40684273D01*
D60*
X50067277Y-42716773D02*
X51798306Y-42716773D01*
D59*
X47880777Y-35667773D02*
X47369777Y-35156773D01*
X47429777Y-33926773D02*
X47380777Y-33975773D01*
X36899777Y-33843600D02*
X37492104Y-33251273D01*
X39469777Y-57056773D02*
X36503777Y-57056773D01*
X43179777Y-33606773D02*
X43869777Y-32916773D01*
D60*
X50098777Y-39217773D02*
X50909777Y-38406773D01*
D59*
X42824277Y-33251273D02*
X43179777Y-33606773D01*
D60*
X52610777Y-41904302D02*
X52610777Y-41467773D01*
D59*
X50829777Y-36556773D02*
X50909777Y-36636773D01*
X53999777Y-38576773D02*
X53999777Y-41046773D01*
X47880777Y-36030273D02*
X47880777Y-35667773D01*
X49756812Y-34826773D02*
X49799777Y-34826773D01*
X37492104Y-33251273D02*
X42824277Y-33251273D01*
X36009777Y-41696773D02*
X37022277Y-40684273D01*
X39079777Y-56196773D02*
X39079777Y-56666773D01*
%TO.N,Board_0-+BATT*%
X30159777Y-52976773D02*
X30759777Y-53576773D01*
X29409777Y-49554273D02*
X29409777Y-51742248D01*
D60*
X36339777Y-53236773D02*
X36349777Y-53226773D01*
X35739777Y-53236773D02*
X36339777Y-53236773D01*
D61*
X28532277Y-48676773D02*
X28928277Y-49072773D01*
D59*
X30159777Y-52492248D02*
X30159777Y-52976773D01*
D61*
X27009777Y-48676773D02*
X28532277Y-48676773D01*
D59*
X28928277Y-49072773D02*
X29409777Y-49554273D01*
X29409777Y-51742248D02*
X30159777Y-52492248D01*
X30759777Y-55940427D02*
X32499777Y-57680427D01*
X30759777Y-53576773D02*
X30759777Y-55940427D01*
X32499777Y-57680427D02*
X32499777Y-59506773D01*
D60*
%TO.N,Board_0-/32K_XN*%
X37899777Y-38261773D02*
X39816777Y-38261773D01*
X40568777Y-36717773D02*
X42693277Y-36717773D01*
X39835777Y-37450773D02*
X40568777Y-36717773D01*
X39816777Y-38261773D02*
X39835777Y-38242773D01*
X39835777Y-38242773D02*
X39835777Y-37450773D01*
%TO.N,Board_0-/32K_XP*%
X39794777Y-35701773D02*
X39835777Y-35742773D01*
X39835777Y-35742773D02*
X43093277Y-35742773D01*
X37879777Y-35701773D02*
X39794777Y-35701773D01*
X43093277Y-35742773D02*
X43380777Y-36030273D01*
%TO.N,Board_0-/ANTENNA*%
X42194777Y-30346773D02*
X42189777Y-30351773D01*
X42189777Y-30351773D02*
X42189777Y-27966773D01*
X42189777Y-27966773D02*
X42209777Y-27946773D01*
X44122277Y-30346773D02*
X42194777Y-30346773D01*
D61*
%TO.N,Board_0-/B1*%
X46380777Y-36030273D02*
X46409777Y-36001273D01*
X59904544Y-38104196D02*
X59904544Y-38678521D01*
X59904544Y-38678521D02*
X59452690Y-39130375D01*
X46409777Y-36001273D02*
X46409777Y-34146773D01*
%TO.N,Board_0-/B2*%
X45860277Y-36009773D02*
X45880777Y-36030273D01*
X45860277Y-34896773D02*
X45860277Y-36009773D01*
X59784613Y-54421150D02*
X59926538Y-54279225D01*
X58269211Y-54421150D02*
X59784613Y-54421150D01*
%TO.N,Board_0-/B3*%
X28456175Y-51883171D02*
X27829777Y-51256773D01*
X45129737Y-34729245D02*
X45289777Y-34889285D01*
X28466864Y-51883171D02*
X28456175Y-51883171D01*
X45289777Y-35939273D02*
X45380777Y-36030273D01*
X45289777Y-34889285D02*
X45289777Y-35939273D01*
%TO.N,Board_0-/BACKLIGHT*%
X46839777Y-45916273D02*
X46877893Y-45878157D01*
X48586129Y-57148930D02*
X47789777Y-57945282D01*
X46877893Y-45070435D02*
X47679222Y-44269106D01*
X47789777Y-57945282D02*
X47789777Y-59256773D01*
X46877893Y-45878157D02*
X46877893Y-45070435D01*
X50356777Y-41767273D02*
X50307277Y-41717773D01*
X50307277Y-41717773D02*
X49568277Y-41717773D01*
%TO.N,Board_0-/BACKLIGHT_GATE*%
X45869777Y-60156773D02*
X46769777Y-59256773D01*
X42429777Y-60156773D02*
X45869777Y-60156773D01*
X46759777Y-60356773D02*
X46759777Y-59266773D01*
X46759777Y-59266773D02*
X46769777Y-59256773D01*
%TO.N,Board_0-/BATT_ADC*%
X27419777Y-46186773D02*
X27009777Y-46596773D01*
X41071959Y-35216773D02*
X39756459Y-33901273D01*
X27009777Y-47656773D02*
X27009777Y-46596773D01*
X39756459Y-33901273D02*
X39540557Y-33901273D01*
X27919777Y-46186773D02*
X27419777Y-46186773D01*
X43946719Y-35216773D02*
X41071959Y-35216773D01*
X44380777Y-36030273D02*
X44380777Y-35650831D01*
X44380777Y-35650831D02*
X43946719Y-35216773D01*
%TO.N,Board_0-/BOOT*%
X53279777Y-58456773D02*
X54469777Y-57266773D01*
X42612879Y-61714473D02*
X43485179Y-62586773D01*
X43485179Y-62586773D02*
X43485179Y-62243873D01*
X38619777Y-61273531D02*
X39060719Y-61714473D01*
X41498337Y-41713849D02*
X42689353Y-41713849D01*
X42689353Y-41713849D02*
X42693277Y-41717773D01*
X44202279Y-61526773D02*
X50329777Y-61526773D01*
X53239777Y-58456773D02*
X53279777Y-58456773D01*
X50329777Y-61526773D02*
X53239777Y-58616773D01*
X43485179Y-62243873D02*
X44202279Y-61526773D01*
X53239777Y-58616773D02*
X53239777Y-58456773D01*
X39060719Y-61714473D02*
X42612879Y-61714473D01*
%TO.N,Board_0-/CC1*%
X54561261Y-46009724D02*
X54561261Y-44775289D01*
X55579776Y-43756774D02*
X57304777Y-43756774D01*
X54561261Y-44775289D02*
X55579776Y-43756774D01*
%TO.N,Board_0-/CC2*%
X55081261Y-46505724D02*
X55081261Y-46193289D01*
X54561261Y-47025724D02*
X55081261Y-46505724D01*
X58197991Y-46756773D02*
X58297492Y-46856274D01*
X57304777Y-46756773D02*
X58197991Y-46756773D01*
X55081261Y-46193289D02*
X56209777Y-45064773D01*
X56209777Y-45064773D02*
X56209777Y-44756773D01*
%TO.N,Board_0-/CONNECTED*%
X51189261Y-47968224D02*
X51189261Y-47368724D01*
X51189261Y-47368724D02*
X50454261Y-46633724D01*
X49367261Y-46633724D02*
X50454261Y-46633724D01*
X48791261Y-44776773D02*
X48791261Y-46175289D01*
X49246728Y-46633724D02*
X49367261Y-46633724D01*
X48691261Y-44676773D02*
X48791261Y-44776773D01*
X42153350Y-38217773D02*
X42693277Y-38217773D01*
X41806662Y-39068273D02*
X41806662Y-38564461D01*
X41806662Y-38564461D02*
X42153350Y-38217773D01*
X48791261Y-46175289D02*
X48789777Y-46176773D01*
X48789777Y-46176773D02*
X49246728Y-46633724D01*
%TO.N,Board_0-/DAC1*%
X41409277Y-37217773D02*
X42693277Y-37217773D01*
X41309777Y-37317273D02*
X41409277Y-37217773D01*
%TO.N,Board_0-/DAC2*%
X41637818Y-38066372D02*
X41986417Y-37717773D01*
X41986417Y-37717773D02*
X42693277Y-37717773D01*
X41354358Y-38066372D02*
X41637818Y-38066372D01*
%TO.N,Board_0-/DIR*%
X31229777Y-38776773D02*
X31229777Y-40510773D01*
X36309777Y-31486773D02*
X36309777Y-32746773D01*
X31229777Y-40510773D02*
X31257777Y-40538773D01*
X36309777Y-34356773D02*
X36309777Y-32746773D01*
X36019777Y-34646773D02*
X36309777Y-34356773D01*
%TO.N,Board_0-/DN*%
X58389095Y-45206774D02*
X58711277Y-45528956D01*
X56533277Y-45256773D02*
X57304777Y-45256773D01*
X58711277Y-45528956D02*
X58711277Y-45984592D01*
X57354776Y-45206774D02*
X58389095Y-45206774D01*
X54843261Y-49655724D02*
X55629777Y-48869208D01*
X58711277Y-45984592D02*
X58389095Y-46306774D01*
X56329777Y-51426773D02*
X56329777Y-46507873D01*
X55629777Y-48869208D02*
X55629777Y-46160273D01*
X56580876Y-46256774D02*
X57304777Y-46256774D01*
X57354777Y-46306774D02*
X57304777Y-46256774D01*
X57304777Y-45256773D02*
X57354776Y-45206774D01*
X56329777Y-46507873D02*
X56580876Y-46256774D01*
X58389095Y-46306774D02*
X57354777Y-46306774D01*
X55629777Y-46160273D02*
X56533277Y-45256773D01*
X52376761Y-49655724D02*
X54843261Y-49655724D01*
%TO.N,Board_0-/DP*%
X55979777Y-46362899D02*
X56585903Y-45756773D01*
X54428728Y-50155724D02*
X54838235Y-50155724D01*
X55979777Y-49014182D02*
X55979777Y-46362899D01*
X54429777Y-51426773D02*
X54429777Y-50156773D01*
X54838235Y-50155724D02*
X55979777Y-49014182D01*
X58339777Y-44556773D02*
X58139778Y-44756772D01*
X52376761Y-50155724D02*
X54428728Y-50155724D01*
X58139778Y-44756772D02*
X57304777Y-44756772D01*
X54429777Y-50156773D02*
X54428728Y-50155724D01*
X56585903Y-45756773D02*
X57304777Y-45756773D01*
X58161277Y-45756774D02*
X57304777Y-45756773D01*
%TO.N,Board_0-/DTR*%
X51189261Y-52197666D02*
X51219777Y-52228182D01*
X51219777Y-52228182D02*
X51219777Y-56746773D01*
X51219777Y-56746773D02*
X51789777Y-57316773D01*
X52919777Y-57316773D02*
X52969777Y-57266773D01*
X51189261Y-51843224D02*
X51189261Y-52197666D01*
X51909777Y-57436773D02*
X51789777Y-57316773D01*
X51909777Y-58146773D02*
X51909777Y-57436773D01*
X51789777Y-57316773D02*
X52919777Y-57316773D01*
%TO.N,Board_0-/DTR_BASE*%
X52259777Y-56766773D02*
X51789777Y-56296773D01*
X52969777Y-56766773D02*
X52259777Y-56766773D01*
%TO.N,Board_0-/EN*%
X43049777Y-34496773D02*
X43179777Y-34626773D01*
X44880777Y-35267773D02*
X44219777Y-34606773D01*
X42359777Y-34496773D02*
X43049777Y-34496773D01*
X43199777Y-34606773D02*
X43179777Y-34626773D01*
X50195777Y-62600773D02*
X53239777Y-59556773D01*
X44219777Y-34606773D02*
X43199777Y-34606773D01*
X53799777Y-60116773D02*
X54539777Y-60116773D01*
X55369777Y-56266773D02*
X55589777Y-56046773D01*
X54469777Y-56266773D02*
X55369777Y-56266773D01*
X53239777Y-59556773D02*
X53799777Y-60116773D01*
X54539777Y-60116773D02*
X55459777Y-59196773D01*
X48235179Y-62600773D02*
X50195777Y-62600773D01*
X55459777Y-59196773D02*
X55459777Y-56866773D01*
X44880777Y-36030273D02*
X44880777Y-35267773D01*
X55459777Y-56866773D02*
X54859777Y-56266773D01*
%TO.N,Board_0-/ENABLE*%
X42780511Y-52556039D02*
X40370511Y-52556039D01*
X45976252Y-44689240D02*
X47380777Y-43284715D01*
X47380777Y-43284715D02*
X47380777Y-42905273D01*
X40370511Y-52556039D02*
X38469777Y-54456773D01*
X45050249Y-44689240D02*
X45976252Y-44689240D01*
X38469777Y-54456773D02*
X35939777Y-54456773D01*
D59*
%TO.N,Board_0-/LEDA*%
X40519777Y-57086773D02*
X41829777Y-57086773D01*
X40499777Y-57066773D02*
X40519777Y-57086773D01*
D60*
%TO.N,Board_0-/LEDK*%
X41549777Y-60656773D02*
X40929777Y-60656773D01*
X41686354Y-59269355D02*
X41686354Y-60520196D01*
X41686354Y-60520196D02*
X41549777Y-60656773D01*
%TO.N,Board_0-/LNA_IN*%
X48380777Y-36030273D02*
X48380777Y-31170773D01*
X45714277Y-30329773D02*
X45697277Y-30346773D01*
X48380777Y-31170773D02*
X47539777Y-30329773D01*
X47539777Y-30329773D02*
X45714277Y-30329773D01*
D61*
%TO.N,Board_0-/PIEZO*%
X43940277Y-58397273D02*
X44589777Y-59046773D01*
X43940277Y-53826771D02*
X43940277Y-58397273D01*
X44380777Y-44671654D02*
X44380777Y-42905273D01*
X44298990Y-44753441D02*
X44380777Y-44671654D01*
D60*
%TO.N,Board_0-/PIEZO_DRAIN*%
X42439777Y-59666773D02*
X45299777Y-59666773D01*
D59*
X46219777Y-51136773D02*
X46219777Y-57386773D01*
D60*
X45609777Y-59356773D02*
X45609777Y-57996773D01*
X42429777Y-59656773D02*
X42439777Y-59666773D01*
X45299777Y-59666773D02*
X45609777Y-59356773D01*
D59*
X46219777Y-57386773D02*
X45609777Y-57996773D01*
D61*
%TO.N,Board_0-/PIEZO_GATE*%
X43569777Y-59046773D02*
X43169777Y-58646773D01*
X43169777Y-58646773D02*
X40025881Y-58646773D01*
X40441959Y-60156773D02*
X40929777Y-60156773D01*
X40025881Y-58646773D02*
X39709777Y-58962877D01*
X39709777Y-59424591D02*
X40441959Y-60156773D01*
X39709777Y-58962877D02*
X39709777Y-59424591D01*
D59*
%TO.N,Board_0-/POWER*%
X32859777Y-54586773D02*
X32859777Y-53118955D01*
X32562812Y-38696773D02*
X32605777Y-38696773D01*
X29987777Y-35588773D02*
X29987777Y-36121738D01*
X34219777Y-51758955D02*
X34219777Y-51136773D01*
X29987777Y-35588773D02*
X29987777Y-34218773D01*
X32166295Y-38300255D02*
X32562812Y-38696773D01*
X32859777Y-53118955D02*
X34219777Y-51758955D01*
X42359777Y-57996773D02*
X42319777Y-58036773D01*
D61*
X35289777Y-32746773D02*
X35289777Y-33096773D01*
D59*
X31257777Y-35588773D02*
X31257777Y-37391737D01*
D60*
X34739777Y-51736773D02*
X34739777Y-51656773D01*
D59*
X29987777Y-34218773D02*
X30019777Y-34186773D01*
D60*
X34739777Y-51656773D02*
X34219777Y-51136773D01*
D59*
X31257777Y-37391737D02*
X32166295Y-38300255D01*
X42319777Y-58036773D02*
X36309777Y-58036773D01*
X29987777Y-36104773D02*
X31239777Y-37356773D01*
X42579280Y-57086773D02*
X42579280Y-57777270D01*
X36309777Y-58036773D02*
X32859777Y-54586773D01*
X29987777Y-35588773D02*
X29987777Y-36104773D01*
D60*
X32579777Y-38696773D02*
X32605777Y-38696773D01*
D61*
X35289777Y-33096773D02*
X35569777Y-33376773D01*
D59*
X42579280Y-57777270D02*
X42359777Y-57996773D01*
D61*
%TO.N,Board_0-/POWER_GATE*%
X35935777Y-55472773D02*
X34919777Y-54456773D01*
X35239777Y-53236773D02*
X35239777Y-54136773D01*
X35939777Y-55472773D02*
X35935777Y-55472773D01*
X35239777Y-54136773D02*
X34919777Y-54456773D01*
%TO.N,Board_0-/PROG*%
X32359777Y-45926773D02*
X32359777Y-46016273D01*
X32359777Y-46016273D02*
X31203277Y-47172773D01*
%TO.N,Board_0-/RTS*%
X49141261Y-51891224D02*
X49189261Y-51843224D01*
X50569777Y-53836773D02*
X50112492Y-53836773D01*
X53209777Y-56026773D02*
X52969777Y-56266773D01*
X53209777Y-54936773D02*
X52629777Y-54356773D01*
X49141261Y-52865542D02*
X49141261Y-51891224D01*
X53209777Y-55026773D02*
X53209777Y-54936773D01*
X50112492Y-53836773D02*
X49141261Y-52865542D01*
X53209777Y-55026773D02*
X53209777Y-56026773D01*
%TO.N,Board_0-/RTS_BASE*%
X53849777Y-55406773D02*
X54229777Y-55026773D01*
X53849777Y-56696773D02*
X53849777Y-55406773D01*
X53919777Y-56766773D02*
X53849777Y-56696773D01*
X54469777Y-56766773D02*
X53919777Y-56766773D01*
%TO.N,Board_0-/RXD*%
X49689261Y-51843224D02*
X49689261Y-52635724D01*
X49689261Y-52635724D02*
X49691261Y-52637724D01*
X53350277Y-39366773D02*
X53316277Y-39400773D01*
X53316277Y-39400773D02*
X52609777Y-39400773D01*
%TO.N,Board_0-/RXD0*%
X49568277Y-40717773D02*
X51318777Y-40717773D01*
X51318777Y-40717773D02*
X51589777Y-40446773D01*
%TO.N,Board_0-/SCL*%
X44729777Y-45366773D02*
X44709777Y-45346773D01*
X51590777Y-42075773D02*
X51590777Y-41467773D01*
X44709777Y-45346773D02*
X41249777Y-45346773D01*
X51549777Y-42116773D02*
X51590777Y-42075773D01*
X29987777Y-40538773D02*
X29987777Y-41089652D01*
X51340777Y-41217773D02*
X51590777Y-41467773D01*
X49568277Y-41217773D02*
X51340777Y-41217773D01*
X41249777Y-45346773D02*
X38198985Y-42295981D01*
X29987777Y-41089652D02*
X30713520Y-41815395D01*
%TO.N,Board_0-/SDA*%
X50503097Y-39425453D02*
X50503097Y-39660408D01*
X41062665Y-45936773D02*
X45416702Y-45936773D01*
X45416702Y-45936773D02*
X45437202Y-45916273D01*
X28717777Y-40538773D02*
X28717777Y-41244773D01*
X49568277Y-39717773D02*
X50445732Y-39717773D01*
X37519719Y-42612763D02*
X37738655Y-42612763D01*
X28717777Y-41244773D02*
X29219777Y-41746773D01*
X48531530Y-43719106D02*
X48584761Y-43772337D01*
X47441360Y-43719106D02*
X48531530Y-43719106D01*
X45437202Y-45723264D02*
X47441360Y-43719106D01*
X48584761Y-43772337D02*
X48512031Y-43772337D01*
X37738655Y-42612763D02*
X41062665Y-45936773D01*
X45437202Y-45916273D02*
X45437202Y-45723264D01*
X51590777Y-38337773D02*
X50503097Y-39425453D01*
X50445732Y-39717773D02*
X50503097Y-39660408D01*
%TO.N,Board_0-/STAT*%
X42644277Y-42266773D02*
X42693277Y-42217773D01*
X38998333Y-42318217D02*
X39049777Y-42266773D01*
X28928277Y-47172773D02*
X29712098Y-47172773D01*
X39049777Y-42266773D02*
X42644277Y-42266773D01*
X29712098Y-47172773D02*
X30366009Y-46518862D01*
%TO.N,Board_0-/TXD*%
X50651261Y-52705224D02*
X50189261Y-52243224D01*
X53199777Y-40446773D02*
X53339777Y-40306773D01*
X52609777Y-40446773D02*
X53199777Y-40446773D01*
X50189261Y-52243224D02*
X50189261Y-51843224D01*
%TO.N,Board_0-/TXD0*%
X50772777Y-40217773D02*
X51589777Y-39400773D01*
X49568277Y-40217773D02*
X50772777Y-40217773D01*
%TO.N,Board_0-/VIO*%
X52609777Y-47936773D02*
X52714728Y-48041724D01*
X47651261Y-46339252D02*
X47651261Y-46934708D01*
D60*
X52376761Y-48655724D02*
X52957261Y-48655724D01*
X52376761Y-49155724D02*
X53473261Y-49155724D01*
D61*
X48221261Y-45613724D02*
X48221261Y-45769252D01*
X48221261Y-45769252D02*
X47651261Y-46339252D01*
X47651261Y-46934708D02*
X48069777Y-47353224D01*
D60*
X52957261Y-48655724D02*
X53571261Y-48041724D01*
X53571261Y-49057724D02*
X53571261Y-48041724D01*
X53473261Y-49155724D02*
X53571261Y-49057724D01*
D61*
X52714728Y-48041724D02*
X53571261Y-48041724D01*
D59*
%TO.N,Board_0-/VO*%
X34469777Y-46058773D02*
X35583777Y-47172773D01*
X34469777Y-45896773D02*
X34469777Y-46058773D01*
X35583777Y-45995273D02*
X36009777Y-45569273D01*
X35583777Y-47172773D02*
X35583777Y-45995273D01*
D61*
%TO.N,Board_0-/VREGIN*%
X51461379Y-44597842D02*
X52021261Y-45157724D01*
D59*
X53639777Y-43116773D02*
X52021261Y-44735289D01*
X51689261Y-46825724D02*
X51689261Y-47968224D01*
X51461261Y-46597724D02*
X51689261Y-46825724D01*
D61*
X49367261Y-45613724D02*
X50383143Y-44597842D01*
D59*
X52021261Y-44735289D02*
X52021261Y-45157724D01*
D61*
X52021261Y-46037724D02*
X51461261Y-46597724D01*
D60*
X51689261Y-47536724D02*
X52598261Y-46627724D01*
D61*
X52021261Y-45157724D02*
X52021261Y-46037724D01*
D60*
X51689261Y-47968224D02*
X51689261Y-47536724D01*
D61*
X50383143Y-44597842D02*
X51461379Y-44597842D01*
%TO.N,Board_0-/~RST*%
X50243203Y-47167724D02*
X48755261Y-47167724D01*
X50689261Y-47613782D02*
X50243203Y-47167724D01*
X50689261Y-47968224D02*
X50689261Y-47613782D01*
X48755261Y-47167724D02*
X48221261Y-46633724D01*
D59*
%TO.N,Board_0-GND*%
X54479777Y-58456773D02*
X54899777Y-58876773D01*
X43312597Y-57989593D02*
X43319777Y-57996773D01*
X30055777Y-48122773D02*
X30099777Y-48166773D01*
X42209777Y-26346773D02*
X40399777Y-26346773D01*
X27009777Y-45576773D02*
X26129777Y-45576773D01*
X57304777Y-41761771D02*
X57879777Y-41186771D01*
X57819777Y-51276773D02*
X58846292Y-51276773D01*
D60*
X45285777Y-62600773D02*
X45289777Y-62596773D01*
D59*
X52598261Y-45667724D02*
X52851261Y-45667724D01*
X57304777Y-42306773D02*
X57304777Y-41761771D01*
X30725777Y-50408773D02*
X30725777Y-50302773D01*
X32659777Y-44906773D02*
X33429777Y-44136773D01*
D60*
X53201761Y-50655724D02*
X53251261Y-50705224D01*
X39934375Y-62586773D02*
X40539777Y-62586773D01*
D59*
X41059777Y-31907273D02*
X42184277Y-31907273D01*
X53541261Y-45497724D02*
X53281261Y-45237724D01*
X33044348Y-48122773D02*
X33183777Y-48122773D01*
X53541261Y-46009724D02*
X53541261Y-45497724D01*
D60*
X54531261Y-49025289D02*
X54531261Y-49057724D01*
D59*
X33040348Y-48126773D02*
X33044348Y-48122773D01*
X46372777Y-31879773D02*
X47539777Y-31879773D01*
D60*
X42429777Y-60656773D02*
X43259777Y-60656773D01*
X54989777Y-48500240D02*
X54531261Y-48041724D01*
D59*
X54219777Y-59556773D02*
X54899777Y-58876773D01*
X52851261Y-45667724D02*
X53281261Y-45237724D01*
X28871865Y-54421150D02*
X29650343Y-54421150D01*
X32359777Y-44906773D02*
X32659777Y-44906773D01*
X32289777Y-48126773D02*
X33040348Y-48126773D01*
D60*
X43259777Y-60656773D02*
X43399777Y-60796773D01*
D59*
X51461261Y-45637724D02*
X51450728Y-45637724D01*
X53541261Y-47025724D02*
X53541261Y-46009724D01*
X50809777Y-33866773D02*
X50829777Y-33846773D01*
X33419777Y-44146773D02*
X33429777Y-44136773D01*
X44219777Y-33646773D02*
X44939777Y-33646773D01*
D60*
X40929777Y-59656773D02*
X40719777Y-59656773D01*
D59*
X37879777Y-34151773D02*
X38774777Y-34151773D01*
X34229777Y-44936773D02*
X33429777Y-44136773D01*
X33419777Y-44936773D02*
X33419777Y-44146773D01*
X27447777Y-37028773D02*
X27439777Y-37036773D01*
X30725777Y-50302773D02*
X30159777Y-49736773D01*
X57304777Y-48706773D02*
X57304777Y-49251775D01*
X40399777Y-26346773D02*
X40379777Y-26326773D01*
X54629777Y-53426773D02*
X54629777Y-54206773D01*
X59599777Y-36666773D02*
X59525400Y-36592396D01*
X50829777Y-33846773D02*
X50829777Y-33716773D01*
D60*
X54989777Y-48566773D02*
X54531261Y-49025289D01*
X47779777Y-60716773D02*
X48029777Y-60966773D01*
D59*
X31799777Y-51886773D02*
X31909777Y-51776773D01*
X58846292Y-51276773D02*
X59452690Y-51883171D01*
X28449777Y-50366773D02*
X27699777Y-50366773D01*
X50454261Y-45613724D02*
X50494964Y-45613724D01*
X31799777Y-52576773D02*
X31799777Y-51886773D01*
X42184277Y-31907273D02*
X42189777Y-31901773D01*
X57304777Y-49251775D02*
X57879777Y-49826775D01*
D60*
X47779777Y-60356773D02*
X47779777Y-60716773D01*
D59*
X34469777Y-44936773D02*
X34229777Y-44936773D01*
X35289777Y-31486773D02*
X35289777Y-30626773D01*
X46359777Y-31866773D02*
X46372777Y-31879773D01*
X38739777Y-39196773D02*
X38124777Y-39811773D01*
X50829777Y-33716773D02*
X50229777Y-33116773D01*
X54629777Y-54206773D02*
X54639777Y-54216773D01*
X54199777Y-59556773D02*
X54219777Y-59556773D01*
X28928277Y-48122773D02*
X30055777Y-48122773D01*
X32251221Y-37382217D02*
X32605777Y-37736773D01*
D60*
X44684375Y-62600773D02*
X45285777Y-62600773D01*
D59*
X45709777Y-26346773D02*
X47499777Y-26346773D01*
X54199777Y-58456773D02*
X54479777Y-58456773D01*
X59525400Y-36592396D02*
X58269211Y-36592396D01*
X32251221Y-36978217D02*
X32251221Y-37382217D01*
X47499777Y-26346773D02*
X47539777Y-26386773D01*
X27447777Y-35588773D02*
X27447777Y-37028773D01*
X51450728Y-45637724D02*
X50960846Y-45147842D01*
D60*
X52376761Y-50655724D02*
X53201761Y-50655724D01*
D59*
X38774777Y-34151773D02*
X38819777Y-34106773D01*
X49799777Y-33546773D02*
X50229777Y-33116773D01*
X49799777Y-33866773D02*
X50809777Y-33866773D01*
X28587260Y-54136545D02*
X28871865Y-54421150D01*
D60*
X54989777Y-48566773D02*
X54989777Y-48500240D01*
D59*
X38124777Y-39811773D02*
X37899777Y-39811773D01*
X50494964Y-45613724D02*
X50960846Y-45147842D01*
X49799777Y-33866773D02*
X49799777Y-33546773D01*
X43312597Y-57241696D02*
X43312597Y-57989593D01*
D60*
X40719777Y-59656773D02*
X40259777Y-59196773D01*
D59*
%TO.N,Board_0-VBUS*%
X58252732Y-47654800D02*
X58418205Y-47654800D01*
X33839277Y-49837034D02*
X35039016Y-51036773D01*
X30779777Y-52576773D02*
X30779777Y-52096773D01*
X56329777Y-52676773D02*
X56339777Y-52666773D01*
X31685777Y-50490773D02*
X31685777Y-50408773D01*
X31409777Y-53206773D02*
X30779777Y-52576773D01*
X58252732Y-47654800D02*
X58226277Y-47654800D01*
X58418205Y-47654800D02*
X59319777Y-46753228D01*
X58078675Y-43106772D02*
X57304777Y-43106772D01*
X31409777Y-54136773D02*
X31409777Y-53206773D01*
X31685777Y-50408773D02*
X31685777Y-49555273D01*
X57974303Y-47906774D02*
X57304777Y-47906774D01*
X32248038Y-50408773D02*
X32819777Y-49837034D01*
X30429777Y-51746773D02*
X31685777Y-50490773D01*
X56329777Y-53426773D02*
X56329777Y-52676773D01*
X59319777Y-46753228D02*
X59319777Y-44347874D01*
X31685777Y-49555273D02*
X31203277Y-49072773D01*
X59319777Y-44347874D02*
X58078675Y-43106772D01*
D61*
X35239777Y-51736773D02*
X35239777Y-51237534D01*
D59*
X30779777Y-52096773D02*
X30429777Y-51746773D01*
X32819777Y-49837034D02*
X33839277Y-49837034D01*
X58226277Y-47654800D02*
X57974303Y-47906774D01*
X55739777Y-43116773D02*
X57294776Y-43116773D01*
X31685777Y-50408773D02*
X32248038Y-50408773D01*
X57294776Y-43116773D02*
X57304777Y-43106772D01*
D61*
X35239777Y-51237534D02*
X35039016Y-51036773D01*
D59*
%TO.N,Board_0-VCC*%
X33933777Y-48754773D02*
X33615777Y-49072773D01*
X37519777Y-51136773D02*
X35979777Y-51136773D01*
X35979777Y-51136773D02*
X35759777Y-50916773D01*
X33509777Y-54136773D02*
X33509777Y-53246773D01*
X44589777Y-57996773D02*
X44589777Y-53446773D01*
X35759777Y-52436773D02*
X35759777Y-51736773D01*
X33933777Y-47783344D02*
X33933777Y-48754773D01*
X42279777Y-51136773D02*
X37519777Y-51136773D01*
X34319777Y-52436773D02*
X35759777Y-52436773D01*
X34285777Y-49072773D02*
X35759777Y-50546773D01*
X44589777Y-53446773D02*
X42279777Y-51136773D01*
X35759777Y-50916773D02*
X35759777Y-51736773D01*
X33323206Y-47172773D02*
X33933777Y-47783344D01*
X33183777Y-47172773D02*
X33323206Y-47172773D01*
X35759777Y-50546773D02*
X35759777Y-50916773D01*
X33419777Y-46936773D02*
X33183777Y-47172773D01*
X33183777Y-49072773D02*
X34285777Y-49072773D01*
X33615777Y-49072773D02*
X33183777Y-49072773D01*
X33419777Y-45896773D02*
X33419777Y-46936773D01*
X33509777Y-53246773D02*
X34319777Y-52436773D01*
%TO.N,Board_1-+3V3*%
X85869778Y-32916773D02*
X87479778Y-32916773D01*
D60*
X92909778Y-38406773D02*
X92909778Y-36636773D01*
D59*
X90980278Y-33916773D02*
X90980278Y-34050238D01*
X95578778Y-41467773D02*
X94610778Y-41467773D01*
X92829778Y-34806773D02*
X92829778Y-36556773D01*
D60*
X91568278Y-42217773D02*
X92067278Y-42716773D01*
D59*
X92809778Y-34826773D02*
X92829778Y-34806773D01*
X90880778Y-35745773D02*
X91799778Y-34826773D01*
X81079778Y-44726773D02*
X80097278Y-43744273D01*
X81479778Y-57066773D02*
X81469778Y-57056773D01*
X92909778Y-36636773D02*
X94610778Y-38337773D01*
X80315451Y-40684273D02*
X81281951Y-39717773D01*
X78503778Y-57056773D02*
X76919778Y-55472773D01*
D60*
X91568278Y-37717773D02*
X92018430Y-37717773D01*
X93798307Y-42716773D02*
X94610778Y-41904302D01*
D59*
X80097278Y-43744273D02*
X78009778Y-43744273D01*
X79022278Y-40684273D02*
X78899778Y-40561773D01*
X91799778Y-34826773D02*
X92809778Y-34826773D01*
D60*
X91568278Y-39217773D02*
X92098778Y-39217773D01*
D59*
X90980278Y-34050238D02*
X91756813Y-34826773D01*
D60*
X92018430Y-37717773D02*
X92909778Y-36826425D01*
D59*
X88100159Y-33537154D02*
X88140539Y-33496773D01*
X81079778Y-45326773D02*
X81079778Y-44726773D01*
X78899778Y-40561773D02*
X78899778Y-33843600D01*
X89380778Y-33975773D02*
X89380778Y-36030273D01*
X81079778Y-56666773D02*
X81479778Y-57066773D01*
X76299778Y-53656773D02*
X76719778Y-53236773D01*
X90880778Y-36030273D02*
X90880778Y-35745773D01*
X88999778Y-33496773D02*
X89429778Y-33926773D01*
X76299778Y-54852773D02*
X76299778Y-53656773D01*
X87479778Y-32916773D02*
X88100159Y-33537154D01*
X95760778Y-38337773D02*
X95999778Y-38576773D01*
X76299778Y-54852773D02*
X76919778Y-55472773D01*
X81281951Y-39717773D02*
X84693278Y-39717773D01*
X94610778Y-38337773D02*
X95760778Y-38337773D01*
D60*
X92909778Y-36826425D02*
X92909778Y-36636773D01*
D59*
X78009778Y-43744273D02*
X78009778Y-41696773D01*
X95999778Y-41046773D02*
X95578778Y-41467773D01*
X88140539Y-33496773D02*
X88999778Y-33496773D01*
X79022278Y-40684273D02*
X80315451Y-40684273D01*
D60*
X92067278Y-42716773D02*
X93798307Y-42716773D01*
D59*
X89880778Y-35667773D02*
X89369778Y-35156773D01*
X89429778Y-33926773D02*
X89380778Y-33975773D01*
X78899778Y-33843600D02*
X79492105Y-33251273D01*
X81469778Y-57056773D02*
X78503778Y-57056773D01*
X85179778Y-33606773D02*
X85869778Y-32916773D01*
D60*
X92098778Y-39217773D02*
X92909778Y-38406773D01*
D59*
X84824278Y-33251273D02*
X85179778Y-33606773D01*
D60*
X94610778Y-41904302D02*
X94610778Y-41467773D01*
D59*
X92829778Y-36556773D02*
X92909778Y-36636773D01*
X95999778Y-38576773D02*
X95999778Y-41046773D01*
X89880778Y-36030273D02*
X89880778Y-35667773D01*
X91756813Y-34826773D02*
X91799778Y-34826773D01*
X79492105Y-33251273D02*
X84824278Y-33251273D01*
X78009778Y-41696773D02*
X79022278Y-40684273D01*
X81079778Y-56196773D02*
X81079778Y-56666773D01*
%TO.N,Board_1-+BATT*%
X72159778Y-52976773D02*
X72759778Y-53576773D01*
X71409778Y-49554273D02*
X71409778Y-51742248D01*
D60*
X78339778Y-53236773D02*
X78349778Y-53226773D01*
X77739778Y-53236773D02*
X78339778Y-53236773D01*
D61*
X70532278Y-48676773D02*
X70928278Y-49072773D01*
D59*
X72159778Y-52492248D02*
X72159778Y-52976773D01*
D61*
X69009778Y-48676773D02*
X70532278Y-48676773D01*
D59*
X70928278Y-49072773D02*
X71409778Y-49554273D01*
X71409778Y-51742248D02*
X72159778Y-52492248D01*
X72759778Y-55940427D02*
X74499778Y-57680427D01*
X72759778Y-53576773D02*
X72759778Y-55940427D01*
X74499778Y-57680427D02*
X74499778Y-59506773D01*
D60*
%TO.N,Board_1-/32K_XN*%
X79899778Y-38261773D02*
X81816778Y-38261773D01*
X82568778Y-36717773D02*
X84693278Y-36717773D01*
X81835778Y-37450773D02*
X82568778Y-36717773D01*
X81816778Y-38261773D02*
X81835778Y-38242773D01*
X81835778Y-38242773D02*
X81835778Y-37450773D01*
%TO.N,Board_1-/32K_XP*%
X81794778Y-35701773D02*
X81835778Y-35742773D01*
X81835778Y-35742773D02*
X85093278Y-35742773D01*
X79879778Y-35701773D02*
X81794778Y-35701773D01*
X85093278Y-35742773D02*
X85380778Y-36030273D01*
%TO.N,Board_1-/ANTENNA*%
X84194778Y-30346773D02*
X84189778Y-30351773D01*
X84189778Y-30351773D02*
X84189778Y-27966773D01*
X84189778Y-27966773D02*
X84209778Y-27946773D01*
X86122278Y-30346773D02*
X84194778Y-30346773D01*
D61*
%TO.N,Board_1-/B1*%
X88380778Y-36030273D02*
X88409778Y-36001273D01*
X101904545Y-38104196D02*
X101904545Y-38678521D01*
X101904545Y-38678521D02*
X101452691Y-39130375D01*
X88409778Y-36001273D02*
X88409778Y-34146773D01*
%TO.N,Board_1-/B2*%
X87860278Y-36009773D02*
X87880778Y-36030273D01*
X87860278Y-34896773D02*
X87860278Y-36009773D01*
X101784614Y-54421150D02*
X101926539Y-54279225D01*
X100269212Y-54421150D02*
X101784614Y-54421150D01*
%TO.N,Board_1-/B3*%
X70456176Y-51883171D02*
X69829778Y-51256773D01*
X87129738Y-34729245D02*
X87289778Y-34889285D01*
X70466865Y-51883171D02*
X70456176Y-51883171D01*
X87289778Y-35939273D02*
X87380778Y-36030273D01*
X87289778Y-34889285D02*
X87289778Y-35939273D01*
%TO.N,Board_1-/BACKLIGHT*%
X88839778Y-45916273D02*
X88877894Y-45878157D01*
X90586130Y-57148930D02*
X89789778Y-57945282D01*
X88877894Y-45070435D02*
X89679223Y-44269106D01*
X89789778Y-57945282D02*
X89789778Y-59256773D01*
X88877894Y-45878157D02*
X88877894Y-45070435D01*
X92356778Y-41767273D02*
X92307278Y-41717773D01*
X92307278Y-41717773D02*
X91568278Y-41717773D01*
%TO.N,Board_1-/BACKLIGHT_GATE*%
X87869778Y-60156773D02*
X88769778Y-59256773D01*
X84429778Y-60156773D02*
X87869778Y-60156773D01*
X88759778Y-60356773D02*
X88759778Y-59266773D01*
X88759778Y-59266773D02*
X88769778Y-59256773D01*
%TO.N,Board_1-/BATT_ADC*%
X69419778Y-46186773D02*
X69009778Y-46596773D01*
X83071960Y-35216773D02*
X81756460Y-33901273D01*
X69009778Y-47656773D02*
X69009778Y-46596773D01*
X81756460Y-33901273D02*
X81540558Y-33901273D01*
X69919778Y-46186773D02*
X69419778Y-46186773D01*
X85946720Y-35216773D02*
X83071960Y-35216773D01*
X86380778Y-36030273D02*
X86380778Y-35650831D01*
X86380778Y-35650831D02*
X85946720Y-35216773D01*
%TO.N,Board_1-/BOOT*%
X95279778Y-58456773D02*
X96469778Y-57266773D01*
X84612880Y-61714473D02*
X85485180Y-62586773D01*
X85485180Y-62586773D02*
X85485180Y-62243873D01*
X80619778Y-61273531D02*
X81060720Y-61714473D01*
X83498338Y-41713849D02*
X84689354Y-41713849D01*
X84689354Y-41713849D02*
X84693278Y-41717773D01*
X86202280Y-61526773D02*
X92329778Y-61526773D01*
X95239778Y-58456773D02*
X95279778Y-58456773D01*
X92329778Y-61526773D02*
X95239778Y-58616773D01*
X85485180Y-62243873D02*
X86202280Y-61526773D01*
X95239778Y-58616773D02*
X95239778Y-58456773D01*
X81060720Y-61714473D02*
X84612880Y-61714473D01*
%TO.N,Board_1-/CC1*%
X96561262Y-46009724D02*
X96561262Y-44775289D01*
X97579777Y-43756774D02*
X99304778Y-43756774D01*
X96561262Y-44775289D02*
X97579777Y-43756774D01*
%TO.N,Board_1-/CC2*%
X97081262Y-46505724D02*
X97081262Y-46193289D01*
X96561262Y-47025724D02*
X97081262Y-46505724D01*
X100197992Y-46756773D02*
X100297493Y-46856274D01*
X99304778Y-46756773D02*
X100197992Y-46756773D01*
X97081262Y-46193289D02*
X98209778Y-45064773D01*
X98209778Y-45064773D02*
X98209778Y-44756773D01*
%TO.N,Board_1-/CONNECTED*%
X93189262Y-47968224D02*
X93189262Y-47368724D01*
X93189262Y-47368724D02*
X92454262Y-46633724D01*
X91367262Y-46633724D02*
X92454262Y-46633724D01*
X90791262Y-44776773D02*
X90791262Y-46175289D01*
X91246729Y-46633724D02*
X91367262Y-46633724D01*
X90691262Y-44676773D02*
X90791262Y-44776773D01*
X84153351Y-38217773D02*
X84693278Y-38217773D01*
X83806663Y-39068273D02*
X83806663Y-38564461D01*
X83806663Y-38564461D02*
X84153351Y-38217773D01*
X90791262Y-46175289D02*
X90789778Y-46176773D01*
X90789778Y-46176773D02*
X91246729Y-46633724D01*
%TO.N,Board_1-/DAC1*%
X83409278Y-37217773D02*
X84693278Y-37217773D01*
X83309778Y-37317273D02*
X83409278Y-37217773D01*
%TO.N,Board_1-/DAC2*%
X83637819Y-38066372D02*
X83986418Y-37717773D01*
X83986418Y-37717773D02*
X84693278Y-37717773D01*
X83354359Y-38066372D02*
X83637819Y-38066372D01*
%TO.N,Board_1-/DIR*%
X73229778Y-38776773D02*
X73229778Y-40510773D01*
X78309778Y-31486773D02*
X78309778Y-32746773D01*
X73229778Y-40510773D02*
X73257778Y-40538773D01*
X78309778Y-34356773D02*
X78309778Y-32746773D01*
X78019778Y-34646773D02*
X78309778Y-34356773D01*
%TO.N,Board_1-/DN*%
X100389096Y-45206774D02*
X100711278Y-45528956D01*
X98533278Y-45256773D02*
X99304778Y-45256773D01*
X100711278Y-45528956D02*
X100711278Y-45984592D01*
X99354777Y-45206774D02*
X100389096Y-45206774D01*
X96843262Y-49655724D02*
X97629778Y-48869208D01*
X100711278Y-45984592D02*
X100389096Y-46306774D01*
X98329778Y-51426773D02*
X98329778Y-46507873D01*
X97629778Y-48869208D02*
X97629778Y-46160273D01*
X98580877Y-46256774D02*
X99304778Y-46256774D01*
X99354778Y-46306774D02*
X99304778Y-46256774D01*
X99304778Y-45256773D02*
X99354777Y-45206774D01*
X98329778Y-46507873D02*
X98580877Y-46256774D01*
X100389096Y-46306774D02*
X99354778Y-46306774D01*
X97629778Y-46160273D02*
X98533278Y-45256773D01*
X94376762Y-49655724D02*
X96843262Y-49655724D01*
%TO.N,Board_1-/DP*%
X97979778Y-46362899D02*
X98585904Y-45756773D01*
X96428729Y-50155724D02*
X96838236Y-50155724D01*
X97979778Y-49014182D02*
X97979778Y-46362899D01*
X96429778Y-51426773D02*
X96429778Y-50156773D01*
X96838236Y-50155724D02*
X97979778Y-49014182D01*
X100339778Y-44556773D02*
X100139779Y-44756772D01*
X94376762Y-50155724D02*
X96428729Y-50155724D01*
X100139779Y-44756772D02*
X99304778Y-44756772D01*
X96429778Y-50156773D02*
X96428729Y-50155724D01*
X98585904Y-45756773D02*
X99304778Y-45756773D01*
X100161278Y-45756774D02*
X99304778Y-45756773D01*
%TO.N,Board_1-/DTR*%
X93189262Y-52197666D02*
X93219778Y-52228182D01*
X93219778Y-52228182D02*
X93219778Y-56746773D01*
X93219778Y-56746773D02*
X93789778Y-57316773D01*
X94919778Y-57316773D02*
X94969778Y-57266773D01*
X93189262Y-51843224D02*
X93189262Y-52197666D01*
X93909778Y-57436773D02*
X93789778Y-57316773D01*
X93909778Y-58146773D02*
X93909778Y-57436773D01*
X93789778Y-57316773D02*
X94919778Y-57316773D01*
%TO.N,Board_1-/DTR_BASE*%
X94259778Y-56766773D02*
X93789778Y-56296773D01*
X94969778Y-56766773D02*
X94259778Y-56766773D01*
%TO.N,Board_1-/EN*%
X85049778Y-34496773D02*
X85179778Y-34626773D01*
X86880778Y-35267773D02*
X86219778Y-34606773D01*
X84359778Y-34496773D02*
X85049778Y-34496773D01*
X85199778Y-34606773D02*
X85179778Y-34626773D01*
X92195778Y-62600773D02*
X95239778Y-59556773D01*
X86219778Y-34606773D02*
X85199778Y-34606773D01*
X95799778Y-60116773D02*
X96539778Y-60116773D01*
X97369778Y-56266773D02*
X97589778Y-56046773D01*
X96469778Y-56266773D02*
X97369778Y-56266773D01*
X95239778Y-59556773D02*
X95799778Y-60116773D01*
X96539778Y-60116773D02*
X97459778Y-59196773D01*
X90235180Y-62600773D02*
X92195778Y-62600773D01*
X97459778Y-59196773D02*
X97459778Y-56866773D01*
X86880778Y-36030273D02*
X86880778Y-35267773D01*
X97459778Y-56866773D02*
X96859778Y-56266773D01*
%TO.N,Board_1-/ENABLE*%
X84780512Y-52556039D02*
X82370512Y-52556039D01*
X87976253Y-44689240D02*
X89380778Y-43284715D01*
X89380778Y-43284715D02*
X89380778Y-42905273D01*
X82370512Y-52556039D02*
X80469778Y-54456773D01*
X87050250Y-44689240D02*
X87976253Y-44689240D01*
X80469778Y-54456773D02*
X77939778Y-54456773D01*
D59*
%TO.N,Board_1-/LEDA*%
X82519778Y-57086773D02*
X83829778Y-57086773D01*
X82499778Y-57066773D02*
X82519778Y-57086773D01*
D60*
%TO.N,Board_1-/LEDK*%
X83549778Y-60656773D02*
X82929778Y-60656773D01*
X83686355Y-59269355D02*
X83686355Y-60520196D01*
X83686355Y-60520196D02*
X83549778Y-60656773D01*
%TO.N,Board_1-/LNA_IN*%
X90380778Y-36030273D02*
X90380778Y-31170773D01*
X87714278Y-30329773D02*
X87697278Y-30346773D01*
X90380778Y-31170773D02*
X89539778Y-30329773D01*
X89539778Y-30329773D02*
X87714278Y-30329773D01*
D61*
%TO.N,Board_1-/PIEZO*%
X85940278Y-58397273D02*
X86589778Y-59046773D01*
X85940278Y-53826771D02*
X85940278Y-58397273D01*
X86380778Y-44671654D02*
X86380778Y-42905273D01*
X86298991Y-44753441D02*
X86380778Y-44671654D01*
D60*
%TO.N,Board_1-/PIEZO_DRAIN*%
X84439778Y-59666773D02*
X87299778Y-59666773D01*
D59*
X88219778Y-51136773D02*
X88219778Y-57386773D01*
D60*
X87609778Y-59356773D02*
X87609778Y-57996773D01*
X84429778Y-59656773D02*
X84439778Y-59666773D01*
X87299778Y-59666773D02*
X87609778Y-59356773D01*
D59*
X88219778Y-57386773D02*
X87609778Y-57996773D01*
D61*
%TO.N,Board_1-/PIEZO_GATE*%
X85569778Y-59046773D02*
X85169778Y-58646773D01*
X85169778Y-58646773D02*
X82025882Y-58646773D01*
X82441960Y-60156773D02*
X82929778Y-60156773D01*
X82025882Y-58646773D02*
X81709778Y-58962877D01*
X81709778Y-59424591D02*
X82441960Y-60156773D01*
X81709778Y-58962877D02*
X81709778Y-59424591D01*
D59*
%TO.N,Board_1-/POWER*%
X74859778Y-54586773D02*
X74859778Y-53118955D01*
X74562813Y-38696773D02*
X74605778Y-38696773D01*
X71987778Y-35588773D02*
X71987778Y-36121738D01*
X76219778Y-51758955D02*
X76219778Y-51136773D01*
X71987778Y-35588773D02*
X71987778Y-34218773D01*
X74166296Y-38300255D02*
X74562813Y-38696773D01*
X74859778Y-53118955D02*
X76219778Y-51758955D01*
X84359778Y-57996773D02*
X84319778Y-58036773D01*
D61*
X77289778Y-32746773D02*
X77289778Y-33096773D01*
D59*
X73257778Y-35588773D02*
X73257778Y-37391737D01*
D60*
X76739778Y-51736773D02*
X76739778Y-51656773D01*
D59*
X71987778Y-34218773D02*
X72019778Y-34186773D01*
D60*
X76739778Y-51656773D02*
X76219778Y-51136773D01*
D59*
X73257778Y-37391737D02*
X74166296Y-38300255D01*
X84319778Y-58036773D02*
X78309778Y-58036773D01*
X71987778Y-36104773D02*
X73239778Y-37356773D01*
X84579281Y-57086773D02*
X84579281Y-57777270D01*
X78309778Y-58036773D02*
X74859778Y-54586773D01*
X71987778Y-35588773D02*
X71987778Y-36104773D01*
D60*
X74579778Y-38696773D02*
X74605778Y-38696773D01*
D61*
X77289778Y-33096773D02*
X77569778Y-33376773D01*
D59*
X84579281Y-57777270D02*
X84359778Y-57996773D01*
D61*
%TO.N,Board_1-/POWER_GATE*%
X77935778Y-55472773D02*
X76919778Y-54456773D01*
X77239778Y-53236773D02*
X77239778Y-54136773D01*
X77939778Y-55472773D02*
X77935778Y-55472773D01*
X77239778Y-54136773D02*
X76919778Y-54456773D01*
%TO.N,Board_1-/PROG*%
X74359778Y-45926773D02*
X74359778Y-46016273D01*
X74359778Y-46016273D02*
X73203278Y-47172773D01*
%TO.N,Board_1-/RTS*%
X91141262Y-51891224D02*
X91189262Y-51843224D01*
X92569778Y-53836773D02*
X92112493Y-53836773D01*
X95209778Y-56026773D02*
X94969778Y-56266773D01*
X95209778Y-54936773D02*
X94629778Y-54356773D01*
X91141262Y-52865542D02*
X91141262Y-51891224D01*
X95209778Y-55026773D02*
X95209778Y-54936773D01*
X92112493Y-53836773D02*
X91141262Y-52865542D01*
X95209778Y-55026773D02*
X95209778Y-56026773D01*
%TO.N,Board_1-/RTS_BASE*%
X95849778Y-55406773D02*
X96229778Y-55026773D01*
X95849778Y-56696773D02*
X95849778Y-55406773D01*
X95919778Y-56766773D02*
X95849778Y-56696773D01*
X96469778Y-56766773D02*
X95919778Y-56766773D01*
%TO.N,Board_1-/RXD*%
X91689262Y-51843224D02*
X91689262Y-52635724D01*
X91689262Y-52635724D02*
X91691262Y-52637724D01*
X95350278Y-39366773D02*
X95316278Y-39400773D01*
X95316278Y-39400773D02*
X94609778Y-39400773D01*
%TO.N,Board_1-/RXD0*%
X91568278Y-40717773D02*
X93318778Y-40717773D01*
X93318778Y-40717773D02*
X93589778Y-40446773D01*
%TO.N,Board_1-/SCL*%
X86729778Y-45366773D02*
X86709778Y-45346773D01*
X93590778Y-42075773D02*
X93590778Y-41467773D01*
X86709778Y-45346773D02*
X83249778Y-45346773D01*
X93549778Y-42116773D02*
X93590778Y-42075773D01*
X71987778Y-40538773D02*
X71987778Y-41089652D01*
X93340778Y-41217773D02*
X93590778Y-41467773D01*
X91568278Y-41217773D02*
X93340778Y-41217773D01*
X83249778Y-45346773D02*
X80198986Y-42295981D01*
X71987778Y-41089652D02*
X72713521Y-41815395D01*
%TO.N,Board_1-/SDA*%
X92503098Y-39425453D02*
X92503098Y-39660408D01*
X83062666Y-45936773D02*
X87416703Y-45936773D01*
X87416703Y-45936773D02*
X87437203Y-45916273D01*
X70717778Y-40538773D02*
X70717778Y-41244773D01*
X91568278Y-39717773D02*
X92445733Y-39717773D01*
X79519720Y-42612763D02*
X79738656Y-42612763D01*
X70717778Y-41244773D02*
X71219778Y-41746773D01*
X90531531Y-43719106D02*
X90584762Y-43772337D01*
X89441361Y-43719106D02*
X90531531Y-43719106D01*
X87437203Y-45723264D02*
X89441361Y-43719106D01*
X90584762Y-43772337D02*
X90512032Y-43772337D01*
X79738656Y-42612763D02*
X83062666Y-45936773D01*
X87437203Y-45916273D02*
X87437203Y-45723264D01*
X93590778Y-38337773D02*
X92503098Y-39425453D01*
X92445733Y-39717773D02*
X92503098Y-39660408D01*
%TO.N,Board_1-/STAT*%
X84644278Y-42266773D02*
X84693278Y-42217773D01*
X80998334Y-42318217D02*
X81049778Y-42266773D01*
X70928278Y-47172773D02*
X71712099Y-47172773D01*
X81049778Y-42266773D02*
X84644278Y-42266773D01*
X71712099Y-47172773D02*
X72366010Y-46518862D01*
%TO.N,Board_1-/TXD*%
X92651262Y-52705224D02*
X92189262Y-52243224D01*
X95199778Y-40446773D02*
X95339778Y-40306773D01*
X94609778Y-40446773D02*
X95199778Y-40446773D01*
X92189262Y-52243224D02*
X92189262Y-51843224D01*
%TO.N,Board_1-/TXD0*%
X92772778Y-40217773D02*
X93589778Y-39400773D01*
X91568278Y-40217773D02*
X92772778Y-40217773D01*
%TO.N,Board_1-/VIO*%
X94609778Y-47936773D02*
X94714729Y-48041724D01*
X89651262Y-46339252D02*
X89651262Y-46934708D01*
D60*
X94376762Y-48655724D02*
X94957262Y-48655724D01*
X94376762Y-49155724D02*
X95473262Y-49155724D01*
D61*
X90221262Y-45613724D02*
X90221262Y-45769252D01*
X90221262Y-45769252D02*
X89651262Y-46339252D01*
X89651262Y-46934708D02*
X90069778Y-47353224D01*
D60*
X94957262Y-48655724D02*
X95571262Y-48041724D01*
X95571262Y-49057724D02*
X95571262Y-48041724D01*
X95473262Y-49155724D02*
X95571262Y-49057724D01*
D61*
X94714729Y-48041724D02*
X95571262Y-48041724D01*
D59*
%TO.N,Board_1-/VO*%
X76469778Y-46058773D02*
X77583778Y-47172773D01*
X76469778Y-45896773D02*
X76469778Y-46058773D01*
X77583778Y-45995273D02*
X78009778Y-45569273D01*
X77583778Y-47172773D02*
X77583778Y-45995273D01*
D61*
%TO.N,Board_1-/VREGIN*%
X93461380Y-44597842D02*
X94021262Y-45157724D01*
D59*
X95639778Y-43116773D02*
X94021262Y-44735289D01*
X93689262Y-46825724D02*
X93689262Y-47968224D01*
X93461262Y-46597724D02*
X93689262Y-46825724D01*
D61*
X91367262Y-45613724D02*
X92383144Y-44597842D01*
D59*
X94021262Y-44735289D02*
X94021262Y-45157724D01*
D61*
X94021262Y-46037724D02*
X93461262Y-46597724D01*
D60*
X93689262Y-47536724D02*
X94598262Y-46627724D01*
D61*
X94021262Y-45157724D02*
X94021262Y-46037724D01*
D60*
X93689262Y-47968224D02*
X93689262Y-47536724D01*
D61*
X92383144Y-44597842D02*
X93461380Y-44597842D01*
%TO.N,Board_1-/~RST*%
X92243204Y-47167724D02*
X90755262Y-47167724D01*
X92689262Y-47613782D02*
X92243204Y-47167724D01*
X92689262Y-47968224D02*
X92689262Y-47613782D01*
X90755262Y-47167724D02*
X90221262Y-46633724D01*
D59*
%TO.N,Board_1-GND*%
X96479778Y-58456773D02*
X96899778Y-58876773D01*
X85312598Y-57989593D02*
X85319778Y-57996773D01*
X72055778Y-48122773D02*
X72099778Y-48166773D01*
X84209778Y-26346773D02*
X82399778Y-26346773D01*
X69009778Y-45576773D02*
X68129778Y-45576773D01*
X99304778Y-41761771D02*
X99879778Y-41186771D01*
X99819778Y-51276773D02*
X100846293Y-51276773D01*
D60*
X87285778Y-62600773D02*
X87289778Y-62596773D01*
D59*
X94598262Y-45667724D02*
X94851262Y-45667724D01*
X99304778Y-42306773D02*
X99304778Y-41761771D01*
X72725778Y-50408773D02*
X72725778Y-50302773D01*
X74659778Y-44906773D02*
X75429778Y-44136773D01*
D60*
X95201762Y-50655724D02*
X95251262Y-50705224D01*
X81934376Y-62586773D02*
X82539778Y-62586773D01*
D59*
X83059778Y-31907273D02*
X84184278Y-31907273D01*
X95541262Y-45497724D02*
X95281262Y-45237724D01*
X75044349Y-48122773D02*
X75183778Y-48122773D01*
X95541262Y-46009724D02*
X95541262Y-45497724D01*
D60*
X96531262Y-49025289D02*
X96531262Y-49057724D01*
D59*
X75040349Y-48126773D02*
X75044349Y-48122773D01*
X88372778Y-31879773D02*
X89539778Y-31879773D01*
D60*
X84429778Y-60656773D02*
X85259778Y-60656773D01*
X96989778Y-48500240D02*
X96531262Y-48041724D01*
D59*
X96219778Y-59556773D02*
X96899778Y-58876773D01*
X94851262Y-45667724D02*
X95281262Y-45237724D01*
X70871866Y-54421150D02*
X71650344Y-54421150D01*
X74359778Y-44906773D02*
X74659778Y-44906773D01*
X74289778Y-48126773D02*
X75040349Y-48126773D01*
D60*
X85259778Y-60656773D02*
X85399778Y-60796773D01*
D59*
X93461262Y-45637724D02*
X93450729Y-45637724D01*
X95541262Y-47025724D02*
X95541262Y-46009724D01*
X92809778Y-33866773D02*
X92829778Y-33846773D01*
X75419778Y-44146773D02*
X75429778Y-44136773D01*
X86219778Y-33646773D02*
X86939778Y-33646773D01*
D60*
X82929778Y-59656773D02*
X82719778Y-59656773D01*
D59*
X79879778Y-34151773D02*
X80774778Y-34151773D01*
X76229778Y-44936773D02*
X75429778Y-44136773D01*
X75419778Y-44936773D02*
X75419778Y-44146773D01*
X69447778Y-37028773D02*
X69439778Y-37036773D01*
X72725778Y-50302773D02*
X72159778Y-49736773D01*
X99304778Y-48706773D02*
X99304778Y-49251775D01*
X82399778Y-26346773D02*
X82379778Y-26326773D01*
X96629778Y-53426773D02*
X96629778Y-54206773D01*
X101599778Y-36666773D02*
X101525401Y-36592396D01*
X92829778Y-33846773D02*
X92829778Y-33716773D01*
D60*
X96989778Y-48566773D02*
X96531262Y-49025289D01*
X89779778Y-60716773D02*
X90029778Y-60966773D01*
D59*
X73799778Y-51886773D02*
X73909778Y-51776773D01*
X100846293Y-51276773D02*
X101452691Y-51883171D01*
X70449778Y-50366773D02*
X69699778Y-50366773D01*
X92454262Y-45613724D02*
X92494965Y-45613724D01*
X73799778Y-52576773D02*
X73799778Y-51886773D01*
X84184278Y-31907273D02*
X84189778Y-31901773D01*
X99304778Y-49251775D02*
X99879778Y-49826775D01*
D60*
X89779778Y-60356773D02*
X89779778Y-60716773D01*
D59*
X76469778Y-44936773D02*
X76229778Y-44936773D01*
X77289778Y-31486773D02*
X77289778Y-30626773D01*
X88359778Y-31866773D02*
X88372778Y-31879773D01*
X80739778Y-39196773D02*
X80124778Y-39811773D01*
X92829778Y-33716773D02*
X92229778Y-33116773D01*
X96629778Y-54206773D02*
X96639778Y-54216773D01*
X96199778Y-59556773D02*
X96219778Y-59556773D01*
X70928278Y-48122773D02*
X72055778Y-48122773D01*
X74251222Y-37382217D02*
X74605778Y-37736773D01*
D60*
X86684376Y-62600773D02*
X87285778Y-62600773D01*
D59*
X87709778Y-26346773D02*
X89499778Y-26346773D01*
X96199778Y-58456773D02*
X96479778Y-58456773D01*
X101525401Y-36592396D02*
X100269212Y-36592396D01*
X74251222Y-36978217D02*
X74251222Y-37382217D01*
X89499778Y-26346773D02*
X89539778Y-26386773D01*
X69447778Y-35588773D02*
X69447778Y-37028773D01*
X93450729Y-45637724D02*
X92960847Y-45147842D01*
D60*
X94376762Y-50655724D02*
X95201762Y-50655724D01*
D59*
X80774778Y-34151773D02*
X80819778Y-34106773D01*
X91799778Y-33546773D02*
X92229778Y-33116773D01*
X91799778Y-33866773D02*
X92809778Y-33866773D01*
X70587261Y-54136545D02*
X70871866Y-54421150D01*
D60*
X96989778Y-48566773D02*
X96989778Y-48500240D01*
D59*
X80124778Y-39811773D02*
X79899778Y-39811773D01*
X92494965Y-45613724D02*
X92960847Y-45147842D01*
X91799778Y-33866773D02*
X91799778Y-33546773D01*
X85312598Y-57241696D02*
X85312598Y-57989593D01*
D60*
X82719778Y-59656773D02*
X82259778Y-59196773D01*
D59*
%TO.N,Board_1-VBUS*%
X100252733Y-47654800D02*
X100418206Y-47654800D01*
X75839278Y-49837034D02*
X77039017Y-51036773D01*
X72779778Y-52576773D02*
X72779778Y-52096773D01*
X98329778Y-52676773D02*
X98339778Y-52666773D01*
X73685778Y-50490773D02*
X73685778Y-50408773D01*
X73409778Y-53206773D02*
X72779778Y-52576773D01*
X100252733Y-47654800D02*
X100226278Y-47654800D01*
X100418206Y-47654800D02*
X101319778Y-46753228D01*
X100078676Y-43106772D02*
X99304778Y-43106772D01*
X73409778Y-54136773D02*
X73409778Y-53206773D01*
X73685778Y-50408773D02*
X73685778Y-49555273D01*
X99974304Y-47906774D02*
X99304778Y-47906774D01*
X74248039Y-50408773D02*
X74819778Y-49837034D01*
X72429778Y-51746773D02*
X73685778Y-50490773D01*
X98329778Y-53426773D02*
X98329778Y-52676773D01*
X101319778Y-46753228D02*
X101319778Y-44347874D01*
X73685778Y-49555273D02*
X73203278Y-49072773D01*
X101319778Y-44347874D02*
X100078676Y-43106772D01*
D61*
X77239778Y-51736773D02*
X77239778Y-51237534D01*
D59*
X72779778Y-52096773D02*
X72429778Y-51746773D01*
X74819778Y-49837034D02*
X75839278Y-49837034D01*
X100226278Y-47654800D02*
X99974304Y-47906774D01*
X97739778Y-43116773D02*
X99294777Y-43116773D01*
X73685778Y-50408773D02*
X74248039Y-50408773D01*
X99294777Y-43116773D02*
X99304778Y-43106772D01*
D61*
X77239778Y-51237534D02*
X77039017Y-51036773D01*
D59*
%TO.N,Board_1-VCC*%
X75933778Y-48754773D02*
X75615778Y-49072773D01*
X79519778Y-51136773D02*
X77979778Y-51136773D01*
X77979778Y-51136773D02*
X77759778Y-50916773D01*
X75509778Y-54136773D02*
X75509778Y-53246773D01*
X86589778Y-57996773D02*
X86589778Y-53446773D01*
X77759778Y-52436773D02*
X77759778Y-51736773D01*
X75933778Y-47783344D02*
X75933778Y-48754773D01*
X84279778Y-51136773D02*
X79519778Y-51136773D01*
X76319778Y-52436773D02*
X77759778Y-52436773D01*
X76285778Y-49072773D02*
X77759778Y-50546773D01*
X86589778Y-53446773D02*
X84279778Y-51136773D01*
X77759778Y-50916773D02*
X77759778Y-51736773D01*
X75323207Y-47172773D02*
X75933778Y-47783344D01*
X75183778Y-47172773D02*
X75323207Y-47172773D01*
X77759778Y-50546773D02*
X77759778Y-50916773D01*
X75419778Y-46936773D02*
X75183778Y-47172773D01*
X75183778Y-49072773D02*
X76285778Y-49072773D01*
X75615778Y-49072773D02*
X75183778Y-49072773D01*
X75419778Y-45896773D02*
X75419778Y-46936773D01*
X75509778Y-53246773D02*
X76319778Y-52436773D01*
%TO.N,Board_2-+3V3*%
X43869777Y-73170332D02*
X45479777Y-73170332D01*
D60*
X50909777Y-78660332D02*
X50909777Y-76890332D01*
D59*
X48980277Y-74170332D02*
X48980277Y-74303797D01*
X53578777Y-81721332D02*
X52610777Y-81721332D01*
X50829777Y-75060332D02*
X50829777Y-76810332D01*
D60*
X49568277Y-82471332D02*
X50067277Y-82970332D01*
D59*
X50809777Y-75080332D02*
X50829777Y-75060332D01*
X48880777Y-75999332D02*
X49799777Y-75080332D01*
X39079777Y-84980332D02*
X38097277Y-83997832D01*
X39479777Y-97320332D02*
X39469777Y-97310332D01*
X50909777Y-76890332D02*
X52610777Y-78591332D01*
X38315450Y-80937832D02*
X39281950Y-79971332D01*
X36503777Y-97310332D02*
X34919777Y-95726332D01*
D60*
X49568277Y-77971332D02*
X50018429Y-77971332D01*
X51798306Y-82970332D02*
X52610777Y-82157861D01*
D59*
X38097277Y-83997832D02*
X36009777Y-83997832D01*
X37022277Y-80937832D02*
X36899777Y-80815332D01*
X49799777Y-75080332D02*
X50809777Y-75080332D01*
D60*
X49568277Y-79471332D02*
X50098777Y-79471332D01*
D59*
X48980277Y-74303797D02*
X49756812Y-75080332D01*
D60*
X50018429Y-77971332D02*
X50909777Y-77079984D01*
D59*
X46100158Y-73790713D02*
X46140538Y-73750332D01*
X39079777Y-85580332D02*
X39079777Y-84980332D01*
X36899777Y-80815332D02*
X36899777Y-74097159D01*
X47380777Y-74229332D02*
X47380777Y-76283832D01*
X39079777Y-96920332D02*
X39479777Y-97320332D01*
X34299777Y-93910332D02*
X34719777Y-93490332D01*
X48880777Y-76283832D02*
X48880777Y-75999332D01*
X46999777Y-73750332D02*
X47429777Y-74180332D01*
X34299777Y-95106332D02*
X34299777Y-93910332D01*
X45479777Y-73170332D02*
X46100158Y-73790713D01*
X53760777Y-78591332D02*
X53999777Y-78830332D01*
X34299777Y-95106332D02*
X34919777Y-95726332D01*
X39281950Y-79971332D02*
X42693277Y-79971332D01*
X52610777Y-78591332D02*
X53760777Y-78591332D01*
D60*
X50909777Y-77079984D02*
X50909777Y-76890332D01*
D59*
X36009777Y-83997832D02*
X36009777Y-81950332D01*
X53999777Y-81300332D02*
X53578777Y-81721332D01*
X46140538Y-73750332D02*
X46999777Y-73750332D01*
X37022277Y-80937832D02*
X38315450Y-80937832D01*
D60*
X50067277Y-82970332D02*
X51798306Y-82970332D01*
D59*
X47880777Y-75921332D02*
X47369777Y-75410332D01*
X47429777Y-74180332D02*
X47380777Y-74229332D01*
X36899777Y-74097159D02*
X37492104Y-73504832D01*
X39469777Y-97310332D02*
X36503777Y-97310332D01*
X43179777Y-73860332D02*
X43869777Y-73170332D01*
D60*
X50098777Y-79471332D02*
X50909777Y-78660332D01*
D59*
X42824277Y-73504832D02*
X43179777Y-73860332D01*
D60*
X52610777Y-82157861D02*
X52610777Y-81721332D01*
D59*
X50829777Y-76810332D02*
X50909777Y-76890332D01*
X53999777Y-78830332D02*
X53999777Y-81300332D01*
X47880777Y-76283832D02*
X47880777Y-75921332D01*
X49756812Y-75080332D02*
X49799777Y-75080332D01*
X37492104Y-73504832D02*
X42824277Y-73504832D01*
X36009777Y-81950332D02*
X37022277Y-80937832D01*
X39079777Y-96450332D02*
X39079777Y-96920332D01*
%TO.N,Board_2-+BATT*%
X30159777Y-93230332D02*
X30759777Y-93830332D01*
X29409777Y-89807832D02*
X29409777Y-91995807D01*
D60*
X36339777Y-93490332D02*
X36349777Y-93480332D01*
X35739777Y-93490332D02*
X36339777Y-93490332D01*
D61*
X28532277Y-88930332D02*
X28928277Y-89326332D01*
D59*
X30159777Y-92745807D02*
X30159777Y-93230332D01*
D61*
X27009777Y-88930332D02*
X28532277Y-88930332D01*
D59*
X28928277Y-89326332D02*
X29409777Y-89807832D01*
X29409777Y-91995807D02*
X30159777Y-92745807D01*
X30759777Y-96193986D02*
X32499777Y-97933986D01*
X30759777Y-93830332D02*
X30759777Y-96193986D01*
X32499777Y-97933986D02*
X32499777Y-99760332D01*
D60*
%TO.N,Board_2-/32K_XN*%
X37899777Y-78515332D02*
X39816777Y-78515332D01*
X40568777Y-76971332D02*
X42693277Y-76971332D01*
X39835777Y-77704332D02*
X40568777Y-76971332D01*
X39816777Y-78515332D02*
X39835777Y-78496332D01*
X39835777Y-78496332D02*
X39835777Y-77704332D01*
%TO.N,Board_2-/32K_XP*%
X39794777Y-75955332D02*
X39835777Y-75996332D01*
X39835777Y-75996332D02*
X43093277Y-75996332D01*
X37879777Y-75955332D02*
X39794777Y-75955332D01*
X43093277Y-75996332D02*
X43380777Y-76283832D01*
%TO.N,Board_2-/ANTENNA*%
X42194777Y-70600332D02*
X42189777Y-70605332D01*
X42189777Y-70605332D02*
X42189777Y-68220332D01*
X42189777Y-68220332D02*
X42209777Y-68200332D01*
X44122277Y-70600332D02*
X42194777Y-70600332D01*
D61*
%TO.N,Board_2-/B1*%
X46380777Y-76283832D02*
X46409777Y-76254832D01*
X59904544Y-78357755D02*
X59904544Y-78932080D01*
X59904544Y-78932080D02*
X59452690Y-79383934D01*
X46409777Y-76254832D02*
X46409777Y-74400332D01*
%TO.N,Board_2-/B2*%
X45860277Y-76263332D02*
X45880777Y-76283832D01*
X45860277Y-75150332D02*
X45860277Y-76263332D01*
X59784613Y-94674709D02*
X59926538Y-94532784D01*
X58269211Y-94674709D02*
X59784613Y-94674709D01*
%TO.N,Board_2-/B3*%
X28456175Y-92136730D02*
X27829777Y-91510332D01*
X45129737Y-74982804D02*
X45289777Y-75142844D01*
X28466864Y-92136730D02*
X28456175Y-92136730D01*
X45289777Y-76192832D02*
X45380777Y-76283832D01*
X45289777Y-75142844D02*
X45289777Y-76192832D01*
%TO.N,Board_2-/BACKLIGHT*%
X46839777Y-86169832D02*
X46877893Y-86131716D01*
X48586129Y-97402489D02*
X47789777Y-98198841D01*
X46877893Y-85323994D02*
X47679222Y-84522665D01*
X47789777Y-98198841D02*
X47789777Y-99510332D01*
X46877893Y-86131716D02*
X46877893Y-85323994D01*
X50356777Y-82020832D02*
X50307277Y-81971332D01*
X50307277Y-81971332D02*
X49568277Y-81971332D01*
%TO.N,Board_2-/BACKLIGHT_GATE*%
X45869777Y-100410332D02*
X46769777Y-99510332D01*
X42429777Y-100410332D02*
X45869777Y-100410332D01*
X46759777Y-100610332D02*
X46759777Y-99520332D01*
X46759777Y-99520332D02*
X46769777Y-99510332D01*
%TO.N,Board_2-/BATT_ADC*%
X27419777Y-86440332D02*
X27009777Y-86850332D01*
X41071959Y-75470332D02*
X39756459Y-74154832D01*
X27009777Y-87910332D02*
X27009777Y-86850332D01*
X39756459Y-74154832D02*
X39540557Y-74154832D01*
X27919777Y-86440332D02*
X27419777Y-86440332D01*
X43946719Y-75470332D02*
X41071959Y-75470332D01*
X44380777Y-76283832D02*
X44380777Y-75904390D01*
X44380777Y-75904390D02*
X43946719Y-75470332D01*
%TO.N,Board_2-/BOOT*%
X53279777Y-98710332D02*
X54469777Y-97520332D01*
X42612879Y-101968032D02*
X43485179Y-102840332D01*
X43485179Y-102840332D02*
X43485179Y-102497432D01*
X38619777Y-101527090D02*
X39060719Y-101968032D01*
X41498337Y-81967408D02*
X42689353Y-81967408D01*
X42689353Y-81967408D02*
X42693277Y-81971332D01*
X44202279Y-101780332D02*
X50329777Y-101780332D01*
X53239777Y-98710332D02*
X53279777Y-98710332D01*
X50329777Y-101780332D02*
X53239777Y-98870332D01*
X43485179Y-102497432D02*
X44202279Y-101780332D01*
X53239777Y-98870332D02*
X53239777Y-98710332D01*
X39060719Y-101968032D02*
X42612879Y-101968032D01*
%TO.N,Board_2-/CC1*%
X54561261Y-86263283D02*
X54561261Y-85028848D01*
X55579776Y-84010333D02*
X57304777Y-84010333D01*
X54561261Y-85028848D02*
X55579776Y-84010333D01*
%TO.N,Board_2-/CC2*%
X55081261Y-86759283D02*
X55081261Y-86446848D01*
X54561261Y-87279283D02*
X55081261Y-86759283D01*
X58197991Y-87010332D02*
X58297492Y-87109833D01*
X57304777Y-87010332D02*
X58197991Y-87010332D01*
X55081261Y-86446848D02*
X56209777Y-85318332D01*
X56209777Y-85318332D02*
X56209777Y-85010332D01*
%TO.N,Board_2-/CONNECTED*%
X51189261Y-88221783D02*
X51189261Y-87622283D01*
X51189261Y-87622283D02*
X50454261Y-86887283D01*
X49367261Y-86887283D02*
X50454261Y-86887283D01*
X48791261Y-85030332D02*
X48791261Y-86428848D01*
X49246728Y-86887283D02*
X49367261Y-86887283D01*
X48691261Y-84930332D02*
X48791261Y-85030332D01*
X42153350Y-78471332D02*
X42693277Y-78471332D01*
X41806662Y-79321832D02*
X41806662Y-78818020D01*
X41806662Y-78818020D02*
X42153350Y-78471332D01*
X48791261Y-86428848D02*
X48789777Y-86430332D01*
X48789777Y-86430332D02*
X49246728Y-86887283D01*
%TO.N,Board_2-/DAC1*%
X41409277Y-77471332D02*
X42693277Y-77471332D01*
X41309777Y-77570832D02*
X41409277Y-77471332D01*
%TO.N,Board_2-/DAC2*%
X41637818Y-78319931D02*
X41986417Y-77971332D01*
X41986417Y-77971332D02*
X42693277Y-77971332D01*
X41354358Y-78319931D02*
X41637818Y-78319931D01*
%TO.N,Board_2-/DIR*%
X31229777Y-79030332D02*
X31229777Y-80764332D01*
X36309777Y-71740332D02*
X36309777Y-73000332D01*
X31229777Y-80764332D02*
X31257777Y-80792332D01*
X36309777Y-74610332D02*
X36309777Y-73000332D01*
X36019777Y-74900332D02*
X36309777Y-74610332D01*
%TO.N,Board_2-/DN*%
X58389095Y-85460333D02*
X58711277Y-85782515D01*
X56533277Y-85510332D02*
X57304777Y-85510332D01*
X58711277Y-85782515D02*
X58711277Y-86238151D01*
X57354776Y-85460333D02*
X58389095Y-85460333D01*
X54843261Y-89909283D02*
X55629777Y-89122767D01*
X58711277Y-86238151D02*
X58389095Y-86560333D01*
X56329777Y-91680332D02*
X56329777Y-86761432D01*
X55629777Y-89122767D02*
X55629777Y-86413832D01*
X56580876Y-86510333D02*
X57304777Y-86510333D01*
X57354777Y-86560333D02*
X57304777Y-86510333D01*
X57304777Y-85510332D02*
X57354776Y-85460333D01*
X56329777Y-86761432D02*
X56580876Y-86510333D01*
X58389095Y-86560333D02*
X57354777Y-86560333D01*
X55629777Y-86413832D02*
X56533277Y-85510332D01*
X52376761Y-89909283D02*
X54843261Y-89909283D01*
%TO.N,Board_2-/DP*%
X55979777Y-86616458D02*
X56585903Y-86010332D01*
X54428728Y-90409283D02*
X54838235Y-90409283D01*
X55979777Y-89267741D02*
X55979777Y-86616458D01*
X54429777Y-91680332D02*
X54429777Y-90410332D01*
X54838235Y-90409283D02*
X55979777Y-89267741D01*
X58339777Y-84810332D02*
X58139778Y-85010331D01*
X52376761Y-90409283D02*
X54428728Y-90409283D01*
X58139778Y-85010331D02*
X57304777Y-85010331D01*
X54429777Y-90410332D02*
X54428728Y-90409283D01*
X56585903Y-86010332D02*
X57304777Y-86010332D01*
X58161277Y-86010333D02*
X57304777Y-86010332D01*
%TO.N,Board_2-/DTR*%
X51189261Y-92451225D02*
X51219777Y-92481741D01*
X51219777Y-92481741D02*
X51219777Y-97000332D01*
X51219777Y-97000332D02*
X51789777Y-97570332D01*
X52919777Y-97570332D02*
X52969777Y-97520332D01*
X51189261Y-92096783D02*
X51189261Y-92451225D01*
X51909777Y-97690332D02*
X51789777Y-97570332D01*
X51909777Y-98400332D02*
X51909777Y-97690332D01*
X51789777Y-97570332D02*
X52919777Y-97570332D01*
%TO.N,Board_2-/DTR_BASE*%
X52259777Y-97020332D02*
X51789777Y-96550332D01*
X52969777Y-97020332D02*
X52259777Y-97020332D01*
%TO.N,Board_2-/EN*%
X43049777Y-74750332D02*
X43179777Y-74880332D01*
X44880777Y-75521332D02*
X44219777Y-74860332D01*
X42359777Y-74750332D02*
X43049777Y-74750332D01*
X43199777Y-74860332D02*
X43179777Y-74880332D01*
X50195777Y-102854332D02*
X53239777Y-99810332D01*
X44219777Y-74860332D02*
X43199777Y-74860332D01*
X53799777Y-100370332D02*
X54539777Y-100370332D01*
X55369777Y-96520332D02*
X55589777Y-96300332D01*
X54469777Y-96520332D02*
X55369777Y-96520332D01*
X53239777Y-99810332D02*
X53799777Y-100370332D01*
X54539777Y-100370332D02*
X55459777Y-99450332D01*
X48235179Y-102854332D02*
X50195777Y-102854332D01*
X55459777Y-99450332D02*
X55459777Y-97120332D01*
X44880777Y-76283832D02*
X44880777Y-75521332D01*
X55459777Y-97120332D02*
X54859777Y-96520332D01*
%TO.N,Board_2-/ENABLE*%
X42780511Y-92809598D02*
X40370511Y-92809598D01*
X45976252Y-84942799D02*
X47380777Y-83538274D01*
X47380777Y-83538274D02*
X47380777Y-83158832D01*
X40370511Y-92809598D02*
X38469777Y-94710332D01*
X45050249Y-84942799D02*
X45976252Y-84942799D01*
X38469777Y-94710332D02*
X35939777Y-94710332D01*
D59*
%TO.N,Board_2-/LEDA*%
X40519777Y-97340332D02*
X41829777Y-97340332D01*
X40499777Y-97320332D02*
X40519777Y-97340332D01*
D60*
%TO.N,Board_2-/LEDK*%
X41549777Y-100910332D02*
X40929777Y-100910332D01*
X41686354Y-99522914D02*
X41686354Y-100773755D01*
X41686354Y-100773755D02*
X41549777Y-100910332D01*
%TO.N,Board_2-/LNA_IN*%
X48380777Y-76283832D02*
X48380777Y-71424332D01*
X45714277Y-70583332D02*
X45697277Y-70600332D01*
X48380777Y-71424332D02*
X47539777Y-70583332D01*
X47539777Y-70583332D02*
X45714277Y-70583332D01*
D61*
%TO.N,Board_2-/PIEZO*%
X43940277Y-98650832D02*
X44589777Y-99300332D01*
X43940277Y-94080330D02*
X43940277Y-98650832D01*
X44380777Y-84925213D02*
X44380777Y-83158832D01*
X44298990Y-85007000D02*
X44380777Y-84925213D01*
D60*
%TO.N,Board_2-/PIEZO_DRAIN*%
X42439777Y-99920332D02*
X45299777Y-99920332D01*
D59*
X46219777Y-91390332D02*
X46219777Y-97640332D01*
D60*
X45609777Y-99610332D02*
X45609777Y-98250332D01*
X42429777Y-99910332D02*
X42439777Y-99920332D01*
X45299777Y-99920332D02*
X45609777Y-99610332D01*
D59*
X46219777Y-97640332D02*
X45609777Y-98250332D01*
D61*
%TO.N,Board_2-/PIEZO_GATE*%
X43569777Y-99300332D02*
X43169777Y-98900332D01*
X43169777Y-98900332D02*
X40025881Y-98900332D01*
X40441959Y-100410332D02*
X40929777Y-100410332D01*
X40025881Y-98900332D02*
X39709777Y-99216436D01*
X39709777Y-99678150D02*
X40441959Y-100410332D01*
X39709777Y-99216436D02*
X39709777Y-99678150D01*
D59*
%TO.N,Board_2-/POWER*%
X32859777Y-94840332D02*
X32859777Y-93372514D01*
X32562812Y-78950332D02*
X32605777Y-78950332D01*
X29987777Y-75842332D02*
X29987777Y-76375297D01*
X34219777Y-92012514D02*
X34219777Y-91390332D01*
X29987777Y-75842332D02*
X29987777Y-74472332D01*
X32166295Y-78553814D02*
X32562812Y-78950332D01*
X32859777Y-93372514D02*
X34219777Y-92012514D01*
X42359777Y-98250332D02*
X42319777Y-98290332D01*
D61*
X35289777Y-73000332D02*
X35289777Y-73350332D01*
D59*
X31257777Y-75842332D02*
X31257777Y-77645296D01*
D60*
X34739777Y-91990332D02*
X34739777Y-91910332D01*
D59*
X29987777Y-74472332D02*
X30019777Y-74440332D01*
D60*
X34739777Y-91910332D02*
X34219777Y-91390332D01*
D59*
X31257777Y-77645296D02*
X32166295Y-78553814D01*
X42319777Y-98290332D02*
X36309777Y-98290332D01*
X29987777Y-76358332D02*
X31239777Y-77610332D01*
X42579280Y-97340332D02*
X42579280Y-98030829D01*
X36309777Y-98290332D02*
X32859777Y-94840332D01*
X29987777Y-75842332D02*
X29987777Y-76358332D01*
D60*
X32579777Y-78950332D02*
X32605777Y-78950332D01*
D61*
X35289777Y-73350332D02*
X35569777Y-73630332D01*
D59*
X42579280Y-98030829D02*
X42359777Y-98250332D01*
D61*
%TO.N,Board_2-/POWER_GATE*%
X35935777Y-95726332D02*
X34919777Y-94710332D01*
X35239777Y-93490332D02*
X35239777Y-94390332D01*
X35939777Y-95726332D02*
X35935777Y-95726332D01*
X35239777Y-94390332D02*
X34919777Y-94710332D01*
%TO.N,Board_2-/PROG*%
X32359777Y-86180332D02*
X32359777Y-86269832D01*
X32359777Y-86269832D02*
X31203277Y-87426332D01*
%TO.N,Board_2-/RTS*%
X49141261Y-92144783D02*
X49189261Y-92096783D01*
X50569777Y-94090332D02*
X50112492Y-94090332D01*
X53209777Y-96280332D02*
X52969777Y-96520332D01*
X53209777Y-95190332D02*
X52629777Y-94610332D01*
X49141261Y-93119101D02*
X49141261Y-92144783D01*
X53209777Y-95280332D02*
X53209777Y-95190332D01*
X50112492Y-94090332D02*
X49141261Y-93119101D01*
X53209777Y-95280332D02*
X53209777Y-96280332D01*
%TO.N,Board_2-/RTS_BASE*%
X53849777Y-95660332D02*
X54229777Y-95280332D01*
X53849777Y-96950332D02*
X53849777Y-95660332D01*
X53919777Y-97020332D02*
X53849777Y-96950332D01*
X54469777Y-97020332D02*
X53919777Y-97020332D01*
%TO.N,Board_2-/RXD*%
X49689261Y-92096783D02*
X49689261Y-92889283D01*
X49689261Y-92889283D02*
X49691261Y-92891283D01*
X53350277Y-79620332D02*
X53316277Y-79654332D01*
X53316277Y-79654332D02*
X52609777Y-79654332D01*
%TO.N,Board_2-/RXD0*%
X49568277Y-80971332D02*
X51318777Y-80971332D01*
X51318777Y-80971332D02*
X51589777Y-80700332D01*
%TO.N,Board_2-/SCL*%
X44729777Y-85620332D02*
X44709777Y-85600332D01*
X51590777Y-82329332D02*
X51590777Y-81721332D01*
X44709777Y-85600332D02*
X41249777Y-85600332D01*
X51549777Y-82370332D02*
X51590777Y-82329332D01*
X29987777Y-80792332D02*
X29987777Y-81343211D01*
X51340777Y-81471332D02*
X51590777Y-81721332D01*
X49568277Y-81471332D02*
X51340777Y-81471332D01*
X41249777Y-85600332D02*
X38198985Y-82549540D01*
X29987777Y-81343211D02*
X30713520Y-82068954D01*
%TO.N,Board_2-/SDA*%
X50503097Y-79679012D02*
X50503097Y-79913967D01*
X41062665Y-86190332D02*
X45416702Y-86190332D01*
X45416702Y-86190332D02*
X45437202Y-86169832D01*
X28717777Y-80792332D02*
X28717777Y-81498332D01*
X49568277Y-79971332D02*
X50445732Y-79971332D01*
X37519719Y-82866322D02*
X37738655Y-82866322D01*
X28717777Y-81498332D02*
X29219777Y-82000332D01*
X48531530Y-83972665D02*
X48584761Y-84025896D01*
X47441360Y-83972665D02*
X48531530Y-83972665D01*
X45437202Y-85976823D02*
X47441360Y-83972665D01*
X48584761Y-84025896D02*
X48512031Y-84025896D01*
X37738655Y-82866322D02*
X41062665Y-86190332D01*
X45437202Y-86169832D02*
X45437202Y-85976823D01*
X51590777Y-78591332D02*
X50503097Y-79679012D01*
X50445732Y-79971332D02*
X50503097Y-79913967D01*
%TO.N,Board_2-/STAT*%
X42644277Y-82520332D02*
X42693277Y-82471332D01*
X38998333Y-82571776D02*
X39049777Y-82520332D01*
X28928277Y-87426332D02*
X29712098Y-87426332D01*
X39049777Y-82520332D02*
X42644277Y-82520332D01*
X29712098Y-87426332D02*
X30366009Y-86772421D01*
%TO.N,Board_2-/TXD*%
X50651261Y-92958783D02*
X50189261Y-92496783D01*
X53199777Y-80700332D02*
X53339777Y-80560332D01*
X52609777Y-80700332D02*
X53199777Y-80700332D01*
X50189261Y-92496783D02*
X50189261Y-92096783D01*
%TO.N,Board_2-/TXD0*%
X50772777Y-80471332D02*
X51589777Y-79654332D01*
X49568277Y-80471332D02*
X50772777Y-80471332D01*
%TO.N,Board_2-/VIO*%
X52609777Y-88190332D02*
X52714728Y-88295283D01*
X47651261Y-86592811D02*
X47651261Y-87188267D01*
D60*
X52376761Y-88909283D02*
X52957261Y-88909283D01*
X52376761Y-89409283D02*
X53473261Y-89409283D01*
D61*
X48221261Y-85867283D02*
X48221261Y-86022811D01*
X48221261Y-86022811D02*
X47651261Y-86592811D01*
X47651261Y-87188267D02*
X48069777Y-87606783D01*
D60*
X52957261Y-88909283D02*
X53571261Y-88295283D01*
X53571261Y-89311283D02*
X53571261Y-88295283D01*
X53473261Y-89409283D02*
X53571261Y-89311283D01*
D61*
X52714728Y-88295283D02*
X53571261Y-88295283D01*
D59*
%TO.N,Board_2-/VO*%
X34469777Y-86312332D02*
X35583777Y-87426332D01*
X34469777Y-86150332D02*
X34469777Y-86312332D01*
X35583777Y-86248832D02*
X36009777Y-85822832D01*
X35583777Y-87426332D02*
X35583777Y-86248832D01*
D61*
%TO.N,Board_2-/VREGIN*%
X51461379Y-84851401D02*
X52021261Y-85411283D01*
D59*
X53639777Y-83370332D02*
X52021261Y-84988848D01*
X51689261Y-87079283D02*
X51689261Y-88221783D01*
X51461261Y-86851283D02*
X51689261Y-87079283D01*
D61*
X49367261Y-85867283D02*
X50383143Y-84851401D01*
D59*
X52021261Y-84988848D02*
X52021261Y-85411283D01*
D61*
X52021261Y-86291283D02*
X51461261Y-86851283D01*
D60*
X51689261Y-87790283D02*
X52598261Y-86881283D01*
D61*
X52021261Y-85411283D02*
X52021261Y-86291283D01*
D60*
X51689261Y-88221783D02*
X51689261Y-87790283D01*
D61*
X50383143Y-84851401D02*
X51461379Y-84851401D01*
%TO.N,Board_2-/~RST*%
X50243203Y-87421283D02*
X48755261Y-87421283D01*
X50689261Y-87867341D02*
X50243203Y-87421283D01*
X50689261Y-88221783D02*
X50689261Y-87867341D01*
X48755261Y-87421283D02*
X48221261Y-86887283D01*
D59*
%TO.N,Board_2-GND*%
X54479777Y-98710332D02*
X54899777Y-99130332D01*
X43312597Y-98243152D02*
X43319777Y-98250332D01*
X30055777Y-88376332D02*
X30099777Y-88420332D01*
X42209777Y-66600332D02*
X40399777Y-66600332D01*
X27009777Y-85830332D02*
X26129777Y-85830332D01*
X57304777Y-82015330D02*
X57879777Y-81440330D01*
X57819777Y-91530332D02*
X58846292Y-91530332D01*
D60*
X45285777Y-102854332D02*
X45289777Y-102850332D01*
D59*
X52598261Y-85921283D02*
X52851261Y-85921283D01*
X57304777Y-82560332D02*
X57304777Y-82015330D01*
X30725777Y-90662332D02*
X30725777Y-90556332D01*
X32659777Y-85160332D02*
X33429777Y-84390332D01*
D60*
X53201761Y-90909283D02*
X53251261Y-90958783D01*
X39934375Y-102840332D02*
X40539777Y-102840332D01*
D59*
X41059777Y-72160832D02*
X42184277Y-72160832D01*
X53541261Y-85751283D02*
X53281261Y-85491283D01*
X33044348Y-88376332D02*
X33183777Y-88376332D01*
X53541261Y-86263283D02*
X53541261Y-85751283D01*
D60*
X54531261Y-89278848D02*
X54531261Y-89311283D01*
D59*
X33040348Y-88380332D02*
X33044348Y-88376332D01*
X46372777Y-72133332D02*
X47539777Y-72133332D01*
D60*
X42429777Y-100910332D02*
X43259777Y-100910332D01*
X54989777Y-88753799D02*
X54531261Y-88295283D01*
D59*
X54219777Y-99810332D02*
X54899777Y-99130332D01*
X52851261Y-85921283D02*
X53281261Y-85491283D01*
X28871865Y-94674709D02*
X29650343Y-94674709D01*
X32359777Y-85160332D02*
X32659777Y-85160332D01*
X32289777Y-88380332D02*
X33040348Y-88380332D01*
D60*
X43259777Y-100910332D02*
X43399777Y-101050332D01*
D59*
X51461261Y-85891283D02*
X51450728Y-85891283D01*
X53541261Y-87279283D02*
X53541261Y-86263283D01*
X50809777Y-74120332D02*
X50829777Y-74100332D01*
X33419777Y-84400332D02*
X33429777Y-84390332D01*
X44219777Y-73900332D02*
X44939777Y-73900332D01*
D60*
X40929777Y-99910332D02*
X40719777Y-99910332D01*
D59*
X37879777Y-74405332D02*
X38774777Y-74405332D01*
X34229777Y-85190332D02*
X33429777Y-84390332D01*
X33419777Y-85190332D02*
X33419777Y-84400332D01*
X27447777Y-77282332D02*
X27439777Y-77290332D01*
X30725777Y-90556332D02*
X30159777Y-89990332D01*
X57304777Y-88960332D02*
X57304777Y-89505334D01*
X40399777Y-66600332D02*
X40379777Y-66580332D01*
X54629777Y-93680332D02*
X54629777Y-94460332D01*
X59599777Y-76920332D02*
X59525400Y-76845955D01*
X50829777Y-74100332D02*
X50829777Y-73970332D01*
D60*
X54989777Y-88820332D02*
X54531261Y-89278848D01*
X47779777Y-100970332D02*
X48029777Y-101220332D01*
D59*
X31799777Y-92140332D02*
X31909777Y-92030332D01*
X58846292Y-91530332D02*
X59452690Y-92136730D01*
X28449777Y-90620332D02*
X27699777Y-90620332D01*
X50454261Y-85867283D02*
X50494964Y-85867283D01*
X31799777Y-92830332D02*
X31799777Y-92140332D01*
X42184277Y-72160832D02*
X42189777Y-72155332D01*
X57304777Y-89505334D02*
X57879777Y-90080334D01*
D60*
X47779777Y-100610332D02*
X47779777Y-100970332D01*
D59*
X34469777Y-85190332D02*
X34229777Y-85190332D01*
X35289777Y-71740332D02*
X35289777Y-70880332D01*
X46359777Y-72120332D02*
X46372777Y-72133332D01*
X38739777Y-79450332D02*
X38124777Y-80065332D01*
X50829777Y-73970332D02*
X50229777Y-73370332D01*
X54629777Y-94460332D02*
X54639777Y-94470332D01*
X54199777Y-99810332D02*
X54219777Y-99810332D01*
X28928277Y-88376332D02*
X30055777Y-88376332D01*
X32251221Y-77635776D02*
X32605777Y-77990332D01*
D60*
X44684375Y-102854332D02*
X45285777Y-102854332D01*
D59*
X45709777Y-66600332D02*
X47499777Y-66600332D01*
X54199777Y-98710332D02*
X54479777Y-98710332D01*
X59525400Y-76845955D02*
X58269211Y-76845955D01*
X32251221Y-77231776D02*
X32251221Y-77635776D01*
X47499777Y-66600332D02*
X47539777Y-66640332D01*
X27447777Y-75842332D02*
X27447777Y-77282332D01*
X51450728Y-85891283D02*
X50960846Y-85401401D01*
D60*
X52376761Y-90909283D02*
X53201761Y-90909283D01*
D59*
X38774777Y-74405332D02*
X38819777Y-74360332D01*
X49799777Y-73800332D02*
X50229777Y-73370332D01*
X49799777Y-74120332D02*
X50809777Y-74120332D01*
X28587260Y-94390104D02*
X28871865Y-94674709D01*
D60*
X54989777Y-88820332D02*
X54989777Y-88753799D01*
D59*
X38124777Y-80065332D02*
X37899777Y-80065332D01*
X50494964Y-85867283D02*
X50960846Y-85401401D01*
X49799777Y-74120332D02*
X49799777Y-73800332D01*
X43312597Y-97495255D02*
X43312597Y-98243152D01*
D60*
X40719777Y-99910332D02*
X40259777Y-99450332D01*
D59*
%TO.N,Board_2-VBUS*%
X58252732Y-87908359D02*
X58418205Y-87908359D01*
X33839277Y-90090593D02*
X35039016Y-91290332D01*
X30779777Y-92830332D02*
X30779777Y-92350332D01*
X56329777Y-92930332D02*
X56339777Y-92920332D01*
X31685777Y-90744332D02*
X31685777Y-90662332D01*
X31409777Y-93460332D02*
X30779777Y-92830332D01*
X58252732Y-87908359D02*
X58226277Y-87908359D01*
X58418205Y-87908359D02*
X59319777Y-87006787D01*
X58078675Y-83360331D02*
X57304777Y-83360331D01*
X31409777Y-94390332D02*
X31409777Y-93460332D01*
X31685777Y-90662332D02*
X31685777Y-89808832D01*
X57974303Y-88160333D02*
X57304777Y-88160333D01*
X32248038Y-90662332D02*
X32819777Y-90090593D01*
X30429777Y-92000332D02*
X31685777Y-90744332D01*
X56329777Y-93680332D02*
X56329777Y-92930332D01*
X59319777Y-87006787D02*
X59319777Y-84601433D01*
X31685777Y-89808832D02*
X31203277Y-89326332D01*
X59319777Y-84601433D02*
X58078675Y-83360331D01*
D61*
X35239777Y-91990332D02*
X35239777Y-91491093D01*
D59*
X30779777Y-92350332D02*
X30429777Y-92000332D01*
X32819777Y-90090593D02*
X33839277Y-90090593D01*
X58226277Y-87908359D02*
X57974303Y-88160333D01*
X55739777Y-83370332D02*
X57294776Y-83370332D01*
X31685777Y-90662332D02*
X32248038Y-90662332D01*
X57294776Y-83370332D02*
X57304777Y-83360331D01*
D61*
X35239777Y-91491093D02*
X35039016Y-91290332D01*
D59*
%TO.N,Board_2-VCC*%
X33933777Y-89008332D02*
X33615777Y-89326332D01*
X37519777Y-91390332D02*
X35979777Y-91390332D01*
X35979777Y-91390332D02*
X35759777Y-91170332D01*
X33509777Y-94390332D02*
X33509777Y-93500332D01*
X44589777Y-98250332D02*
X44589777Y-93700332D01*
X35759777Y-92690332D02*
X35759777Y-91990332D01*
X33933777Y-88036903D02*
X33933777Y-89008332D01*
X42279777Y-91390332D02*
X37519777Y-91390332D01*
X34319777Y-92690332D02*
X35759777Y-92690332D01*
X34285777Y-89326332D02*
X35759777Y-90800332D01*
X44589777Y-93700332D02*
X42279777Y-91390332D01*
X35759777Y-91170332D02*
X35759777Y-91990332D01*
X33323206Y-87426332D02*
X33933777Y-88036903D01*
X33183777Y-87426332D02*
X33323206Y-87426332D01*
X35759777Y-90800332D02*
X35759777Y-91170332D01*
X33419777Y-87190332D02*
X33183777Y-87426332D01*
X33183777Y-89326332D02*
X34285777Y-89326332D01*
X33615777Y-89326332D02*
X33183777Y-89326332D01*
X33419777Y-86150332D02*
X33419777Y-87190332D01*
X33509777Y-93500332D02*
X34319777Y-92690332D01*
%TO.N,Board_3-+3V3*%
X85869778Y-73170332D02*
X87479778Y-73170332D01*
D60*
X92909778Y-78660332D02*
X92909778Y-76890332D01*
D59*
X90980278Y-74170332D02*
X90980278Y-74303797D01*
X95578778Y-81721332D02*
X94610778Y-81721332D01*
X92829778Y-75060332D02*
X92829778Y-76810332D01*
D60*
X91568278Y-82471332D02*
X92067278Y-82970332D01*
D59*
X92809778Y-75080332D02*
X92829778Y-75060332D01*
X90880778Y-75999332D02*
X91799778Y-75080332D01*
X81079778Y-84980332D02*
X80097278Y-83997832D01*
X81479778Y-97320332D02*
X81469778Y-97310332D01*
X92909778Y-76890332D02*
X94610778Y-78591332D01*
X80315451Y-80937832D02*
X81281951Y-79971332D01*
X78503778Y-97310332D02*
X76919778Y-95726332D01*
D60*
X91568278Y-77971332D02*
X92018430Y-77971332D01*
X93798307Y-82970332D02*
X94610778Y-82157861D01*
D59*
X80097278Y-83997832D02*
X78009778Y-83997832D01*
X79022278Y-80937832D02*
X78899778Y-80815332D01*
X91799778Y-75080332D02*
X92809778Y-75080332D01*
D60*
X91568278Y-79471332D02*
X92098778Y-79471332D01*
D59*
X90980278Y-74303797D02*
X91756813Y-75080332D01*
D60*
X92018430Y-77971332D02*
X92909778Y-77079984D01*
D59*
X88100159Y-73790713D02*
X88140539Y-73750332D01*
X81079778Y-85580332D02*
X81079778Y-84980332D01*
X78899778Y-80815332D02*
X78899778Y-74097159D01*
X89380778Y-74229332D02*
X89380778Y-76283832D01*
X81079778Y-96920332D02*
X81479778Y-97320332D01*
X76299778Y-93910332D02*
X76719778Y-93490332D01*
X90880778Y-76283832D02*
X90880778Y-75999332D01*
X88999778Y-73750332D02*
X89429778Y-74180332D01*
X76299778Y-95106332D02*
X76299778Y-93910332D01*
X87479778Y-73170332D02*
X88100159Y-73790713D01*
X95760778Y-78591332D02*
X95999778Y-78830332D01*
X76299778Y-95106332D02*
X76919778Y-95726332D01*
X81281951Y-79971332D02*
X84693278Y-79971332D01*
X94610778Y-78591332D02*
X95760778Y-78591332D01*
D60*
X92909778Y-77079984D02*
X92909778Y-76890332D01*
D59*
X78009778Y-83997832D02*
X78009778Y-81950332D01*
X95999778Y-81300332D02*
X95578778Y-81721332D01*
X88140539Y-73750332D02*
X88999778Y-73750332D01*
X79022278Y-80937832D02*
X80315451Y-80937832D01*
D60*
X92067278Y-82970332D02*
X93798307Y-82970332D01*
D59*
X89880778Y-75921332D02*
X89369778Y-75410332D01*
X89429778Y-74180332D02*
X89380778Y-74229332D01*
X78899778Y-74097159D02*
X79492105Y-73504832D01*
X81469778Y-97310332D02*
X78503778Y-97310332D01*
X85179778Y-73860332D02*
X85869778Y-73170332D01*
D60*
X92098778Y-79471332D02*
X92909778Y-78660332D01*
D59*
X84824278Y-73504832D02*
X85179778Y-73860332D01*
D60*
X94610778Y-82157861D02*
X94610778Y-81721332D01*
D59*
X92829778Y-76810332D02*
X92909778Y-76890332D01*
X95999778Y-78830332D02*
X95999778Y-81300332D01*
X89880778Y-76283832D02*
X89880778Y-75921332D01*
X91756813Y-75080332D02*
X91799778Y-75080332D01*
X79492105Y-73504832D02*
X84824278Y-73504832D01*
X78009778Y-81950332D02*
X79022278Y-80937832D01*
X81079778Y-96450332D02*
X81079778Y-96920332D01*
%TO.N,Board_3-+BATT*%
X72159778Y-93230332D02*
X72759778Y-93830332D01*
X71409778Y-89807832D02*
X71409778Y-91995807D01*
D60*
X78339778Y-93490332D02*
X78349778Y-93480332D01*
X77739778Y-93490332D02*
X78339778Y-93490332D01*
D61*
X70532278Y-88930332D02*
X70928278Y-89326332D01*
D59*
X72159778Y-92745807D02*
X72159778Y-93230332D01*
D61*
X69009778Y-88930332D02*
X70532278Y-88930332D01*
D59*
X70928278Y-89326332D02*
X71409778Y-89807832D01*
X71409778Y-91995807D02*
X72159778Y-92745807D01*
X72759778Y-96193986D02*
X74499778Y-97933986D01*
X72759778Y-93830332D02*
X72759778Y-96193986D01*
X74499778Y-97933986D02*
X74499778Y-99760332D01*
D60*
%TO.N,Board_3-/32K_XN*%
X79899778Y-78515332D02*
X81816778Y-78515332D01*
X82568778Y-76971332D02*
X84693278Y-76971332D01*
X81835778Y-77704332D02*
X82568778Y-76971332D01*
X81816778Y-78515332D02*
X81835778Y-78496332D01*
X81835778Y-78496332D02*
X81835778Y-77704332D01*
%TO.N,Board_3-/32K_XP*%
X81794778Y-75955332D02*
X81835778Y-75996332D01*
X81835778Y-75996332D02*
X85093278Y-75996332D01*
X79879778Y-75955332D02*
X81794778Y-75955332D01*
X85093278Y-75996332D02*
X85380778Y-76283832D01*
%TO.N,Board_3-/ANTENNA*%
X84194778Y-70600332D02*
X84189778Y-70605332D01*
X84189778Y-70605332D02*
X84189778Y-68220332D01*
X84189778Y-68220332D02*
X84209778Y-68200332D01*
X86122278Y-70600332D02*
X84194778Y-70600332D01*
D61*
%TO.N,Board_3-/B1*%
X88380778Y-76283832D02*
X88409778Y-76254832D01*
X101904545Y-78357755D02*
X101904545Y-78932080D01*
X101904545Y-78932080D02*
X101452691Y-79383934D01*
X88409778Y-76254832D02*
X88409778Y-74400332D01*
%TO.N,Board_3-/B2*%
X87860278Y-76263332D02*
X87880778Y-76283832D01*
X87860278Y-75150332D02*
X87860278Y-76263332D01*
X101784614Y-94674709D02*
X101926539Y-94532784D01*
X100269212Y-94674709D02*
X101784614Y-94674709D01*
%TO.N,Board_3-/B3*%
X70456176Y-92136730D02*
X69829778Y-91510332D01*
X87129738Y-74982804D02*
X87289778Y-75142844D01*
X70466865Y-92136730D02*
X70456176Y-92136730D01*
X87289778Y-76192832D02*
X87380778Y-76283832D01*
X87289778Y-75142844D02*
X87289778Y-76192832D01*
%TO.N,Board_3-/BACKLIGHT*%
X88839778Y-86169832D02*
X88877894Y-86131716D01*
X90586130Y-97402489D02*
X89789778Y-98198841D01*
X88877894Y-85323994D02*
X89679223Y-84522665D01*
X89789778Y-98198841D02*
X89789778Y-99510332D01*
X88877894Y-86131716D02*
X88877894Y-85323994D01*
X92356778Y-82020832D02*
X92307278Y-81971332D01*
X92307278Y-81971332D02*
X91568278Y-81971332D01*
%TO.N,Board_3-/BACKLIGHT_GATE*%
X87869778Y-100410332D02*
X88769778Y-99510332D01*
X84429778Y-100410332D02*
X87869778Y-100410332D01*
X88759778Y-100610332D02*
X88759778Y-99520332D01*
X88759778Y-99520332D02*
X88769778Y-99510332D01*
%TO.N,Board_3-/BATT_ADC*%
X69419778Y-86440332D02*
X69009778Y-86850332D01*
X83071960Y-75470332D02*
X81756460Y-74154832D01*
X69009778Y-87910332D02*
X69009778Y-86850332D01*
X81756460Y-74154832D02*
X81540558Y-74154832D01*
X69919778Y-86440332D02*
X69419778Y-86440332D01*
X85946720Y-75470332D02*
X83071960Y-75470332D01*
X86380778Y-76283832D02*
X86380778Y-75904390D01*
X86380778Y-75904390D02*
X85946720Y-75470332D01*
%TO.N,Board_3-/BOOT*%
X95279778Y-98710332D02*
X96469778Y-97520332D01*
X84612880Y-101968032D02*
X85485180Y-102840332D01*
X85485180Y-102840332D02*
X85485180Y-102497432D01*
X80619778Y-101527090D02*
X81060720Y-101968032D01*
X83498338Y-81967408D02*
X84689354Y-81967408D01*
X84689354Y-81967408D02*
X84693278Y-81971332D01*
X86202280Y-101780332D02*
X92329778Y-101780332D01*
X95239778Y-98710332D02*
X95279778Y-98710332D01*
X92329778Y-101780332D02*
X95239778Y-98870332D01*
X85485180Y-102497432D02*
X86202280Y-101780332D01*
X95239778Y-98870332D02*
X95239778Y-98710332D01*
X81060720Y-101968032D02*
X84612880Y-101968032D01*
%TO.N,Board_3-/CC1*%
X96561262Y-86263283D02*
X96561262Y-85028848D01*
X97579777Y-84010333D02*
X99304778Y-84010333D01*
X96561262Y-85028848D02*
X97579777Y-84010333D01*
%TO.N,Board_3-/CC2*%
X97081262Y-86759283D02*
X97081262Y-86446848D01*
X96561262Y-87279283D02*
X97081262Y-86759283D01*
X100197992Y-87010332D02*
X100297493Y-87109833D01*
X99304778Y-87010332D02*
X100197992Y-87010332D01*
X97081262Y-86446848D02*
X98209778Y-85318332D01*
X98209778Y-85318332D02*
X98209778Y-85010332D01*
%TO.N,Board_3-/CONNECTED*%
X93189262Y-88221783D02*
X93189262Y-87622283D01*
X93189262Y-87622283D02*
X92454262Y-86887283D01*
X91367262Y-86887283D02*
X92454262Y-86887283D01*
X90791262Y-85030332D02*
X90791262Y-86428848D01*
X91246729Y-86887283D02*
X91367262Y-86887283D01*
X90691262Y-84930332D02*
X90791262Y-85030332D01*
X84153351Y-78471332D02*
X84693278Y-78471332D01*
X83806663Y-79321832D02*
X83806663Y-78818020D01*
X83806663Y-78818020D02*
X84153351Y-78471332D01*
X90791262Y-86428848D02*
X90789778Y-86430332D01*
X90789778Y-86430332D02*
X91246729Y-86887283D01*
%TO.N,Board_3-/DAC1*%
X83409278Y-77471332D02*
X84693278Y-77471332D01*
X83309778Y-77570832D02*
X83409278Y-77471332D01*
%TO.N,Board_3-/DAC2*%
X83637819Y-78319931D02*
X83986418Y-77971332D01*
X83986418Y-77971332D02*
X84693278Y-77971332D01*
X83354359Y-78319931D02*
X83637819Y-78319931D01*
%TO.N,Board_3-/DIR*%
X73229778Y-79030332D02*
X73229778Y-80764332D01*
X78309778Y-71740332D02*
X78309778Y-73000332D01*
X73229778Y-80764332D02*
X73257778Y-80792332D01*
X78309778Y-74610332D02*
X78309778Y-73000332D01*
X78019778Y-74900332D02*
X78309778Y-74610332D01*
%TO.N,Board_3-/DN*%
X100389096Y-85460333D02*
X100711278Y-85782515D01*
X98533278Y-85510332D02*
X99304778Y-85510332D01*
X100711278Y-85782515D02*
X100711278Y-86238151D01*
X99354777Y-85460333D02*
X100389096Y-85460333D01*
X96843262Y-89909283D02*
X97629778Y-89122767D01*
X100711278Y-86238151D02*
X100389096Y-86560333D01*
X98329778Y-91680332D02*
X98329778Y-86761432D01*
X97629778Y-89122767D02*
X97629778Y-86413832D01*
X98580877Y-86510333D02*
X99304778Y-86510333D01*
X99354778Y-86560333D02*
X99304778Y-86510333D01*
X99304778Y-85510332D02*
X99354777Y-85460333D01*
X98329778Y-86761432D02*
X98580877Y-86510333D01*
X100389096Y-86560333D02*
X99354778Y-86560333D01*
X97629778Y-86413832D02*
X98533278Y-85510332D01*
X94376762Y-89909283D02*
X96843262Y-89909283D01*
%TO.N,Board_3-/DP*%
X97979778Y-86616458D02*
X98585904Y-86010332D01*
X96428729Y-90409283D02*
X96838236Y-90409283D01*
X97979778Y-89267741D02*
X97979778Y-86616458D01*
X96429778Y-91680332D02*
X96429778Y-90410332D01*
X96838236Y-90409283D02*
X97979778Y-89267741D01*
X100339778Y-84810332D02*
X100139779Y-85010331D01*
X94376762Y-90409283D02*
X96428729Y-90409283D01*
X100139779Y-85010331D02*
X99304778Y-85010331D01*
X96429778Y-90410332D02*
X96428729Y-90409283D01*
X98585904Y-86010332D02*
X99304778Y-86010332D01*
X100161278Y-86010333D02*
X99304778Y-86010332D01*
%TO.N,Board_3-/DTR*%
X93189262Y-92451225D02*
X93219778Y-92481741D01*
X93219778Y-92481741D02*
X93219778Y-97000332D01*
X93219778Y-97000332D02*
X93789778Y-97570332D01*
X94919778Y-97570332D02*
X94969778Y-97520332D01*
X93189262Y-92096783D02*
X93189262Y-92451225D01*
X93909778Y-97690332D02*
X93789778Y-97570332D01*
X93909778Y-98400332D02*
X93909778Y-97690332D01*
X93789778Y-97570332D02*
X94919778Y-97570332D01*
%TO.N,Board_3-/DTR_BASE*%
X94259778Y-97020332D02*
X93789778Y-96550332D01*
X94969778Y-97020332D02*
X94259778Y-97020332D01*
%TO.N,Board_3-/EN*%
X85049778Y-74750332D02*
X85179778Y-74880332D01*
X86880778Y-75521332D02*
X86219778Y-74860332D01*
X84359778Y-74750332D02*
X85049778Y-74750332D01*
X85199778Y-74860332D02*
X85179778Y-74880332D01*
X92195778Y-102854332D02*
X95239778Y-99810332D01*
X86219778Y-74860332D02*
X85199778Y-74860332D01*
X95799778Y-100370332D02*
X96539778Y-100370332D01*
X97369778Y-96520332D02*
X97589778Y-96300332D01*
X96469778Y-96520332D02*
X97369778Y-96520332D01*
X95239778Y-99810332D02*
X95799778Y-100370332D01*
X96539778Y-100370332D02*
X97459778Y-99450332D01*
X90235180Y-102854332D02*
X92195778Y-102854332D01*
X97459778Y-99450332D02*
X97459778Y-97120332D01*
X86880778Y-76283832D02*
X86880778Y-75521332D01*
X97459778Y-97120332D02*
X96859778Y-96520332D01*
%TO.N,Board_3-/ENABLE*%
X84780512Y-92809598D02*
X82370512Y-92809598D01*
X87976253Y-84942799D02*
X89380778Y-83538274D01*
X89380778Y-83538274D02*
X89380778Y-83158832D01*
X82370512Y-92809598D02*
X80469778Y-94710332D01*
X87050250Y-84942799D02*
X87976253Y-84942799D01*
X80469778Y-94710332D02*
X77939778Y-94710332D01*
D59*
%TO.N,Board_3-/LEDA*%
X82519778Y-97340332D02*
X83829778Y-97340332D01*
X82499778Y-97320332D02*
X82519778Y-97340332D01*
D60*
%TO.N,Board_3-/LEDK*%
X83549778Y-100910332D02*
X82929778Y-100910332D01*
X83686355Y-99522914D02*
X83686355Y-100773755D01*
X83686355Y-100773755D02*
X83549778Y-100910332D01*
%TO.N,Board_3-/LNA_IN*%
X90380778Y-76283832D02*
X90380778Y-71424332D01*
X87714278Y-70583332D02*
X87697278Y-70600332D01*
X90380778Y-71424332D02*
X89539778Y-70583332D01*
X89539778Y-70583332D02*
X87714278Y-70583332D01*
D61*
%TO.N,Board_3-/PIEZO*%
X85940278Y-98650832D02*
X86589778Y-99300332D01*
X85940278Y-94080330D02*
X85940278Y-98650832D01*
X86380778Y-84925213D02*
X86380778Y-83158832D01*
X86298991Y-85007000D02*
X86380778Y-84925213D01*
D60*
%TO.N,Board_3-/PIEZO_DRAIN*%
X84439778Y-99920332D02*
X87299778Y-99920332D01*
D59*
X88219778Y-91390332D02*
X88219778Y-97640332D01*
D60*
X87609778Y-99610332D02*
X87609778Y-98250332D01*
X84429778Y-99910332D02*
X84439778Y-99920332D01*
X87299778Y-99920332D02*
X87609778Y-99610332D01*
D59*
X88219778Y-97640332D02*
X87609778Y-98250332D01*
D61*
%TO.N,Board_3-/PIEZO_GATE*%
X85569778Y-99300332D02*
X85169778Y-98900332D01*
X85169778Y-98900332D02*
X82025882Y-98900332D01*
X82441960Y-100410332D02*
X82929778Y-100410332D01*
X82025882Y-98900332D02*
X81709778Y-99216436D01*
X81709778Y-99678150D02*
X82441960Y-100410332D01*
X81709778Y-99216436D02*
X81709778Y-99678150D01*
D59*
%TO.N,Board_3-/POWER*%
X74859778Y-94840332D02*
X74859778Y-93372514D01*
X74562813Y-78950332D02*
X74605778Y-78950332D01*
X71987778Y-75842332D02*
X71987778Y-76375297D01*
X76219778Y-92012514D02*
X76219778Y-91390332D01*
X71987778Y-75842332D02*
X71987778Y-74472332D01*
X74166296Y-78553814D02*
X74562813Y-78950332D01*
X74859778Y-93372514D02*
X76219778Y-92012514D01*
X84359778Y-98250332D02*
X84319778Y-98290332D01*
D61*
X77289778Y-73000332D02*
X77289778Y-73350332D01*
D59*
X73257778Y-75842332D02*
X73257778Y-77645296D01*
D60*
X76739778Y-91990332D02*
X76739778Y-91910332D01*
D59*
X71987778Y-74472332D02*
X72019778Y-74440332D01*
D60*
X76739778Y-91910332D02*
X76219778Y-91390332D01*
D59*
X73257778Y-77645296D02*
X74166296Y-78553814D01*
X84319778Y-98290332D02*
X78309778Y-98290332D01*
X71987778Y-76358332D02*
X73239778Y-77610332D01*
X84579281Y-97340332D02*
X84579281Y-98030829D01*
X78309778Y-98290332D02*
X74859778Y-94840332D01*
X71987778Y-75842332D02*
X71987778Y-76358332D01*
D60*
X74579778Y-78950332D02*
X74605778Y-78950332D01*
D61*
X77289778Y-73350332D02*
X77569778Y-73630332D01*
D59*
X84579281Y-98030829D02*
X84359778Y-98250332D01*
D61*
%TO.N,Board_3-/POWER_GATE*%
X77935778Y-95726332D02*
X76919778Y-94710332D01*
X77239778Y-93490332D02*
X77239778Y-94390332D01*
X77939778Y-95726332D02*
X77935778Y-95726332D01*
X77239778Y-94390332D02*
X76919778Y-94710332D01*
%TO.N,Board_3-/PROG*%
X74359778Y-86180332D02*
X74359778Y-86269832D01*
X74359778Y-86269832D02*
X73203278Y-87426332D01*
%TO.N,Board_3-/RTS*%
X91141262Y-92144783D02*
X91189262Y-92096783D01*
X92569778Y-94090332D02*
X92112493Y-94090332D01*
X95209778Y-96280332D02*
X94969778Y-96520332D01*
X95209778Y-95190332D02*
X94629778Y-94610332D01*
X91141262Y-93119101D02*
X91141262Y-92144783D01*
X95209778Y-95280332D02*
X95209778Y-95190332D01*
X92112493Y-94090332D02*
X91141262Y-93119101D01*
X95209778Y-95280332D02*
X95209778Y-96280332D01*
%TO.N,Board_3-/RTS_BASE*%
X95849778Y-95660332D02*
X96229778Y-95280332D01*
X95849778Y-96950332D02*
X95849778Y-95660332D01*
X95919778Y-97020332D02*
X95849778Y-96950332D01*
X96469778Y-97020332D02*
X95919778Y-97020332D01*
%TO.N,Board_3-/RXD*%
X91689262Y-92096783D02*
X91689262Y-92889283D01*
X91689262Y-92889283D02*
X91691262Y-92891283D01*
X95350278Y-79620332D02*
X95316278Y-79654332D01*
X95316278Y-79654332D02*
X94609778Y-79654332D01*
%TO.N,Board_3-/RXD0*%
X91568278Y-80971332D02*
X93318778Y-80971332D01*
X93318778Y-80971332D02*
X93589778Y-80700332D01*
%TO.N,Board_3-/SCL*%
X86729778Y-85620332D02*
X86709778Y-85600332D01*
X93590778Y-82329332D02*
X93590778Y-81721332D01*
X86709778Y-85600332D02*
X83249778Y-85600332D01*
X93549778Y-82370332D02*
X93590778Y-82329332D01*
X71987778Y-80792332D02*
X71987778Y-81343211D01*
X93340778Y-81471332D02*
X93590778Y-81721332D01*
X91568278Y-81471332D02*
X93340778Y-81471332D01*
X83249778Y-85600332D02*
X80198986Y-82549540D01*
X71987778Y-81343211D02*
X72713521Y-82068954D01*
%TO.N,Board_3-/SDA*%
X92503098Y-79679012D02*
X92503098Y-79913967D01*
X83062666Y-86190332D02*
X87416703Y-86190332D01*
X87416703Y-86190332D02*
X87437203Y-86169832D01*
X70717778Y-80792332D02*
X70717778Y-81498332D01*
X91568278Y-79971332D02*
X92445733Y-79971332D01*
X79519720Y-82866322D02*
X79738656Y-82866322D01*
X70717778Y-81498332D02*
X71219778Y-82000332D01*
X90531531Y-83972665D02*
X90584762Y-84025896D01*
X89441361Y-83972665D02*
X90531531Y-83972665D01*
X87437203Y-85976823D02*
X89441361Y-83972665D01*
X90584762Y-84025896D02*
X90512032Y-84025896D01*
X79738656Y-82866322D02*
X83062666Y-86190332D01*
X87437203Y-86169832D02*
X87437203Y-85976823D01*
X93590778Y-78591332D02*
X92503098Y-79679012D01*
X92445733Y-79971332D02*
X92503098Y-79913967D01*
%TO.N,Board_3-/STAT*%
X84644278Y-82520332D02*
X84693278Y-82471332D01*
X80998334Y-82571776D02*
X81049778Y-82520332D01*
X70928278Y-87426332D02*
X71712099Y-87426332D01*
X81049778Y-82520332D02*
X84644278Y-82520332D01*
X71712099Y-87426332D02*
X72366010Y-86772421D01*
%TO.N,Board_3-/TXD*%
X92651262Y-92958783D02*
X92189262Y-92496783D01*
X95199778Y-80700332D02*
X95339778Y-80560332D01*
X94609778Y-80700332D02*
X95199778Y-80700332D01*
X92189262Y-92496783D02*
X92189262Y-92096783D01*
%TO.N,Board_3-/TXD0*%
X92772778Y-80471332D02*
X93589778Y-79654332D01*
X91568278Y-80471332D02*
X92772778Y-80471332D01*
%TO.N,Board_3-/VIO*%
X94609778Y-88190332D02*
X94714729Y-88295283D01*
X89651262Y-86592811D02*
X89651262Y-87188267D01*
D60*
X94376762Y-88909283D02*
X94957262Y-88909283D01*
X94376762Y-89409283D02*
X95473262Y-89409283D01*
D61*
X90221262Y-85867283D02*
X90221262Y-86022811D01*
X90221262Y-86022811D02*
X89651262Y-86592811D01*
X89651262Y-87188267D02*
X90069778Y-87606783D01*
D60*
X94957262Y-88909283D02*
X95571262Y-88295283D01*
X95571262Y-89311283D02*
X95571262Y-88295283D01*
X95473262Y-89409283D02*
X95571262Y-89311283D01*
D61*
X94714729Y-88295283D02*
X95571262Y-88295283D01*
D59*
%TO.N,Board_3-/VO*%
X76469778Y-86312332D02*
X77583778Y-87426332D01*
X76469778Y-86150332D02*
X76469778Y-86312332D01*
X77583778Y-86248832D02*
X78009778Y-85822832D01*
X77583778Y-87426332D02*
X77583778Y-86248832D01*
D61*
%TO.N,Board_3-/VREGIN*%
X93461380Y-84851401D02*
X94021262Y-85411283D01*
D59*
X95639778Y-83370332D02*
X94021262Y-84988848D01*
X93689262Y-87079283D02*
X93689262Y-88221783D01*
X93461262Y-86851283D02*
X93689262Y-87079283D01*
D61*
X91367262Y-85867283D02*
X92383144Y-84851401D01*
D59*
X94021262Y-84988848D02*
X94021262Y-85411283D01*
D61*
X94021262Y-86291283D02*
X93461262Y-86851283D01*
D60*
X93689262Y-87790283D02*
X94598262Y-86881283D01*
D61*
X94021262Y-85411283D02*
X94021262Y-86291283D01*
D60*
X93689262Y-88221783D02*
X93689262Y-87790283D01*
D61*
X92383144Y-84851401D02*
X93461380Y-84851401D01*
%TO.N,Board_3-/~RST*%
X92243204Y-87421283D02*
X90755262Y-87421283D01*
X92689262Y-87867341D02*
X92243204Y-87421283D01*
X92689262Y-88221783D02*
X92689262Y-87867341D01*
X90755262Y-87421283D02*
X90221262Y-86887283D01*
D59*
%TO.N,Board_3-GND*%
X96479778Y-98710332D02*
X96899778Y-99130332D01*
X85312598Y-98243152D02*
X85319778Y-98250332D01*
X72055778Y-88376332D02*
X72099778Y-88420332D01*
X84209778Y-66600332D02*
X82399778Y-66600332D01*
X69009778Y-85830332D02*
X68129778Y-85830332D01*
X99304778Y-82015330D02*
X99879778Y-81440330D01*
X99819778Y-91530332D02*
X100846293Y-91530332D01*
D60*
X87285778Y-102854332D02*
X87289778Y-102850332D01*
D59*
X94598262Y-85921283D02*
X94851262Y-85921283D01*
X99304778Y-82560332D02*
X99304778Y-82015330D01*
X72725778Y-90662332D02*
X72725778Y-90556332D01*
X74659778Y-85160332D02*
X75429778Y-84390332D01*
D60*
X95201762Y-90909283D02*
X95251262Y-90958783D01*
X81934376Y-102840332D02*
X82539778Y-102840332D01*
D59*
X83059778Y-72160832D02*
X84184278Y-72160832D01*
X95541262Y-85751283D02*
X95281262Y-85491283D01*
X75044349Y-88376332D02*
X75183778Y-88376332D01*
X95541262Y-86263283D02*
X95541262Y-85751283D01*
D60*
X96531262Y-89278848D02*
X96531262Y-89311283D01*
D59*
X75040349Y-88380332D02*
X75044349Y-88376332D01*
X88372778Y-72133332D02*
X89539778Y-72133332D01*
D60*
X84429778Y-100910332D02*
X85259778Y-100910332D01*
X96989778Y-88753799D02*
X96531262Y-88295283D01*
D59*
X96219778Y-99810332D02*
X96899778Y-99130332D01*
X94851262Y-85921283D02*
X95281262Y-85491283D01*
X70871866Y-94674709D02*
X71650344Y-94674709D01*
X74359778Y-85160332D02*
X74659778Y-85160332D01*
X74289778Y-88380332D02*
X75040349Y-88380332D01*
D60*
X85259778Y-100910332D02*
X85399778Y-101050332D01*
D59*
X93461262Y-85891283D02*
X93450729Y-85891283D01*
X95541262Y-87279283D02*
X95541262Y-86263283D01*
X92809778Y-74120332D02*
X92829778Y-74100332D01*
X75419778Y-84400332D02*
X75429778Y-84390332D01*
X86219778Y-73900332D02*
X86939778Y-73900332D01*
D60*
X82929778Y-99910332D02*
X82719778Y-99910332D01*
D59*
X79879778Y-74405332D02*
X80774778Y-74405332D01*
X76229778Y-85190332D02*
X75429778Y-84390332D01*
X75419778Y-85190332D02*
X75419778Y-84400332D01*
X69447778Y-77282332D02*
X69439778Y-77290332D01*
X72725778Y-90556332D02*
X72159778Y-89990332D01*
X99304778Y-88960332D02*
X99304778Y-89505334D01*
X82399778Y-66600332D02*
X82379778Y-66580332D01*
X96629778Y-93680332D02*
X96629778Y-94460332D01*
X101599778Y-76920332D02*
X101525401Y-76845955D01*
X92829778Y-74100332D02*
X92829778Y-73970332D01*
D60*
X96989778Y-88820332D02*
X96531262Y-89278848D01*
X89779778Y-100970332D02*
X90029778Y-101220332D01*
D59*
X73799778Y-92140332D02*
X73909778Y-92030332D01*
X100846293Y-91530332D02*
X101452691Y-92136730D01*
X70449778Y-90620332D02*
X69699778Y-90620332D01*
X92454262Y-85867283D02*
X92494965Y-85867283D01*
X73799778Y-92830332D02*
X73799778Y-92140332D01*
X84184278Y-72160832D02*
X84189778Y-72155332D01*
X99304778Y-89505334D02*
X99879778Y-90080334D01*
D60*
X89779778Y-100610332D02*
X89779778Y-100970332D01*
D59*
X76469778Y-85190332D02*
X76229778Y-85190332D01*
X77289778Y-71740332D02*
X77289778Y-70880332D01*
X88359778Y-72120332D02*
X88372778Y-72133332D01*
X80739778Y-79450332D02*
X80124778Y-80065332D01*
X92829778Y-73970332D02*
X92229778Y-73370332D01*
X96629778Y-94460332D02*
X96639778Y-94470332D01*
X96199778Y-99810332D02*
X96219778Y-99810332D01*
X70928278Y-88376332D02*
X72055778Y-88376332D01*
X74251222Y-77635776D02*
X74605778Y-77990332D01*
D60*
X86684376Y-102854332D02*
X87285778Y-102854332D01*
D59*
X87709778Y-66600332D02*
X89499778Y-66600332D01*
X96199778Y-98710332D02*
X96479778Y-98710332D01*
X101525401Y-76845955D02*
X100269212Y-76845955D01*
X74251222Y-77231776D02*
X74251222Y-77635776D01*
X89499778Y-66600332D02*
X89539778Y-66640332D01*
X69447778Y-75842332D02*
X69447778Y-77282332D01*
X93450729Y-85891283D02*
X92960847Y-85401401D01*
D60*
X94376762Y-90909283D02*
X95201762Y-90909283D01*
D59*
X80774778Y-74405332D02*
X80819778Y-74360332D01*
X91799778Y-73800332D02*
X92229778Y-73370332D01*
X91799778Y-74120332D02*
X92809778Y-74120332D01*
X70587261Y-94390104D02*
X70871866Y-94674709D01*
D60*
X96989778Y-88820332D02*
X96989778Y-88753799D01*
D59*
X80124778Y-80065332D02*
X79899778Y-80065332D01*
X92494965Y-85867283D02*
X92960847Y-85401401D01*
X91799778Y-74120332D02*
X91799778Y-73800332D01*
X85312598Y-97495255D02*
X85312598Y-98243152D01*
D60*
X82719778Y-99910332D02*
X82259778Y-99450332D01*
D59*
%TO.N,Board_3-VBUS*%
X100252733Y-87908359D02*
X100418206Y-87908359D01*
X75839278Y-90090593D02*
X77039017Y-91290332D01*
X72779778Y-92830332D02*
X72779778Y-92350332D01*
X98329778Y-92930332D02*
X98339778Y-92920332D01*
X73685778Y-90744332D02*
X73685778Y-90662332D01*
X73409778Y-93460332D02*
X72779778Y-92830332D01*
X100252733Y-87908359D02*
X100226278Y-87908359D01*
X100418206Y-87908359D02*
X101319778Y-87006787D01*
X100078676Y-83360331D02*
X99304778Y-83360331D01*
X73409778Y-94390332D02*
X73409778Y-93460332D01*
X73685778Y-90662332D02*
X73685778Y-89808832D01*
X99974304Y-88160333D02*
X99304778Y-88160333D01*
X74248039Y-90662332D02*
X74819778Y-90090593D01*
X72429778Y-92000332D02*
X73685778Y-90744332D01*
X98329778Y-93680332D02*
X98329778Y-92930332D01*
X101319778Y-87006787D02*
X101319778Y-84601433D01*
X73685778Y-89808832D02*
X73203278Y-89326332D01*
X101319778Y-84601433D02*
X100078676Y-83360331D01*
D61*
X77239778Y-91990332D02*
X77239778Y-91491093D01*
D59*
X72779778Y-92350332D02*
X72429778Y-92000332D01*
X74819778Y-90090593D02*
X75839278Y-90090593D01*
X100226278Y-87908359D02*
X99974304Y-88160333D01*
X97739778Y-83370332D02*
X99294777Y-83370332D01*
X73685778Y-90662332D02*
X74248039Y-90662332D01*
X99294777Y-83370332D02*
X99304778Y-83360331D01*
D61*
X77239778Y-91491093D02*
X77039017Y-91290332D01*
D59*
%TO.N,Board_3-VCC*%
X75933778Y-89008332D02*
X75615778Y-89326332D01*
X79519778Y-91390332D02*
X77979778Y-91390332D01*
X77979778Y-91390332D02*
X77759778Y-91170332D01*
X75509778Y-94390332D02*
X75509778Y-93500332D01*
X86589778Y-98250332D02*
X86589778Y-93700332D01*
X77759778Y-92690332D02*
X77759778Y-91990332D01*
X75933778Y-88036903D02*
X75933778Y-89008332D01*
X84279778Y-91390332D02*
X79519778Y-91390332D01*
X76319778Y-92690332D02*
X77759778Y-92690332D01*
X76285778Y-89326332D02*
X77759778Y-90800332D01*
X86589778Y-93700332D02*
X84279778Y-91390332D01*
X77759778Y-91170332D02*
X77759778Y-91990332D01*
X75323207Y-87426332D02*
X75933778Y-88036903D01*
X75183778Y-87426332D02*
X75323207Y-87426332D01*
X77759778Y-90800332D02*
X77759778Y-91170332D01*
X75419778Y-87190332D02*
X75183778Y-87426332D01*
X75183778Y-89326332D02*
X76285778Y-89326332D01*
X75615778Y-89326332D02*
X75183778Y-89326332D01*
X75419778Y-86150332D02*
X75419778Y-87190332D01*
X75509778Y-93500332D02*
X76319778Y-92690332D01*
%TD*%
M02*
