M48
; DRILL file {KiCad (6.0.7-1)-1} date Wednesday, 26 October 2022 at 11:28:30
; FORMAT={-:-/ absolute / inch / decimal}
; #@! TF.CreationDate,2022-10-26T11:28:30+01:00
; #@! TF.GenerationSoftware,Kicad,Pcbnew,(6.0.7-1)-1
; #@! TF.FileFunction,NonPlated,1,4,NPTH
FMAT,2
INCH
; #@! TA.AperFunction,NonPlated,NPTH,ComponentDrill
T1C0.0197
; #@! TA.AperFunction,NonPlated,NPTH,ComponentDrill
T2C0.0591
%
G90
G05
T1
X0.953Y-1.7902
X0.953Y-3.375
X0.9542Y-1.8372
X0.9542Y-3.4219
X0.9545Y-1.7433
X0.9545Y-3.3281
X0.9583Y-1.884
X0.9583Y-3.4687
X0.9587Y-1.6965
X0.9587Y-3.2813
X0.9658Y-1.6501
X0.9658Y-3.2349
X1.3959Y-2.495
X1.3959Y-4.0798
X1.3963Y-1.0882
X1.3963Y-2.673
X1.4337Y-1.0715
X1.4337Y-2.6563
X1.4444Y-2.5116
X1.4444Y-4.0964
X1.4718Y-1.0569
X1.4718Y-2.6416
X1.4964Y-2.5106
X1.4964Y-4.0954
X1.5107Y-1.0442
X1.5107Y-2.629
X1.5484Y-2.5097
X1.5484Y-4.0945
X1.55Y-1.0327
X1.55Y-2.6175
X1.9147Y-1.0337
X1.9147Y-2.6185
X1.9158Y-2.5028
X1.9158Y-4.0876
X1.9542Y-1.0443
X1.9542Y-2.6291
X1.9552Y-2.5021
X1.9552Y-4.0869
X1.993Y-1.057
X1.993Y-2.6418
X1.9946Y-2.5014
X1.9946Y-4.0862
X2.0312Y-1.0717
X2.0312Y-2.6565
X2.0339Y-2.5006
X2.0339Y-4.0854
X2.0689Y-1.0875
X2.0689Y-2.6723
X2.0733Y-2.4999
X2.0733Y-4.0847
X2.4991Y-1.65
X2.4991Y-3.2348
X2.5059Y-1.6965
X2.5059Y-3.2813
X2.5065Y-1.884
X2.5065Y-3.4687
X2.5102Y-1.7432
X2.5102Y-3.328
X2.5104Y-1.8371
X2.5104Y-3.4219
X2.5117Y-1.7902
X2.5117Y-3.375
X2.6065Y-1.7902
X2.6065Y-3.375
X2.6078Y-1.8372
X2.6078Y-3.4219
X2.608Y-1.7433
X2.608Y-3.3281
X2.6118Y-1.884
X2.6118Y-3.4687
X2.6123Y-1.6965
X2.6123Y-3.2813
X2.6193Y-1.6501
X2.6193Y-3.2349
X3.0494Y-2.495
X3.0494Y-4.0798
X3.0499Y-1.0882
X3.0499Y-2.673
X3.0872Y-1.0715
X3.0872Y-2.6563
X3.0979Y-2.5116
X3.0979Y-4.0964
X3.1254Y-1.0569
X3.1254Y-2.6416
X3.15Y-2.5106
X3.15Y-4.0954
X3.1643Y-1.0442
X3.1643Y-2.629
X3.202Y-2.5097
X3.202Y-4.0945
X3.2036Y-1.0327
X3.2036Y-2.6175
X3.5682Y-1.0337
X3.5682Y-2.6185
X3.5694Y-2.5028
X3.5694Y-4.0876
X3.6077Y-1.0443
X3.6077Y-2.6291
X3.6087Y-2.5021
X3.6087Y-4.0869
X3.6466Y-1.057
X3.6466Y-2.6418
X3.6481Y-2.5014
X3.6481Y-4.0862
X3.6847Y-1.0717
X3.6847Y-2.6565
X3.6875Y-2.5006
X3.6875Y-4.0854
X3.7224Y-1.0875
X3.7224Y-2.6723
X3.7269Y-2.4999
X3.7269Y-4.0847
X4.1526Y-1.65
X4.1526Y-3.2348
X4.1595Y-1.6965
X4.1595Y-3.2813
X4.16Y-1.884
X4.16Y-3.4687
X4.1638Y-1.7432
X4.1638Y-3.328
X4.1639Y-1.8371
X4.1639Y-3.4219
X4.1653Y-1.7902
X4.1653Y-3.375
T2
X0.689Y-0.689
X0.689Y-4.4291
X4.4291Y-0.689
X4.4291Y-4.4291
T0
M30
