M48
; DRILL file {KiCad (6.0.7-1)-1} date Monday, 24 October 2022 at 14:59:42
; FORMAT={-:-/ absolute / inch / decimal}
; #@! TF.CreationDate,2022-10-24T14:59:42+01:00
; #@! TF.GenerationSoftware,Kicad,Pcbnew,(6.0.7-1)-1
; #@! TF.FileFunction,Plated,1,4,PTH
FMAT,2
INCH
; #@! TA.AperFunction,Plated,PTH,ViaDrill
T1C0.0118
; #@! TA.AperFunction,Plated,PTH,ComponentDrill
T2C0.0220
; #@! TA.AperFunction,Plated,PTH,ComponentDrill
T3C0.0236
%
G90
G05
T1
X3.235Y-3.9398
X3.2866Y-3.6035
X3.2969Y-4.1283
X3.302Y-4.1634
X3.3055Y-3.9638
X3.3318Y-4.2768
X3.3567Y-3.789
X3.3882Y-3.4913
X3.3913Y-4.0417
X3.3937Y-4.1035
X3.4018Y-3.9769
X3.4043Y-4.1827
X3.4155Y-3.7917
X3.4358Y-3.672
X3.4362Y-3.6161
X3.4626Y-4.1839
X3.476Y-3.6012
X3.4776Y-4.0402
X3.5224Y-3.8831
X3.5535Y-4.1587
X3.5957Y-3.3512
X3.6067Y-3.4594
X3.6244Y-3.5094
X3.6374Y-4.2409
X3.6835Y-3.8231
X3.7102Y-3.8106
X3.7268Y-4.5577
X3.7315Y-3.6886
X3.7346Y-3.4882
X3.7417Y-3.8115
X3.7449Y-3.9299
X3.7449Y-4.3579
X3.763Y-3.4801
X3.774Y-4.3315
X3.7913Y-4.476
X3.7961Y-3.1819
X3.8024Y-4.6094
X3.8228Y-3.4016
X3.8327Y-3.6146
X3.8344Y-3.6441
X3.8401Y-3.7877
X3.8475Y-4.4788
X3.8522Y-3.6835
X3.8531Y-4.3929
X3.874Y-3.5035
X3.8827Y-4.3929
X3.8906Y-4.2145
X3.9115Y-4.399
X3.915Y-4.539
X3.9362Y-4.2646
X3.9504Y-3.9073
X3.9524Y-3.7697
X3.954Y-3.63
X3.954Y-3.6993
X3.9673Y-3.9315
X3.9756Y-3.4701
X3.9799Y-3.9048
X3.9831Y-3.5127
X3.9894Y-4.6098
X3.9952Y-3.9531
X4.0118Y-3.5193
X4.0201Y-3.6977
X4.0209Y-3.6307
X4.0213Y-3.7721
X4.0315Y-3.4
X4.0335Y-3.4898
X4.0504Y-3.9531
X4.0736Y-3.4811
X4.0756Y-4.2646
X4.078Y-3.1843
X4.0834Y-3.8883
X4.0914Y-3.6953
X4.0922Y-3.7729
X4.093Y-3.6292
X4.0972Y-4.5457
X4.0988Y-4.0097
X4.1191Y-3.8687
X4.1191Y-4.3954
X4.1233Y-3.9043
X4.1347Y-3.4807
X4.1556Y-4.1103
X4.1564Y-4.0752
X4.1568Y-4.143
X4.1627Y-4.2178
X4.1839Y-3.4492
X4.1889Y-3.7898
X4.1906Y-4.0764
X4.1906Y-4.1103
X4.1906Y-4.143
X4.1946Y-3.7068
X4.1972Y-4.265
X4.2005Y-4.2204
X4.2126Y-3.9229
X4.2249Y-4.1075
X4.2249Y-4.1422
X4.2253Y-4.0768
X4.2358Y-3.8035
X4.25Y-4.4346
X4.2776Y-4.0327
X4.2783Y-4.2854
X4.3028Y-4.1417
X4.304Y-3.9264
X4.3063Y-3.7323
X4.3067Y-3.6953
X4.3575Y-4.2799
X4.3677Y-4.4634
X4.3713Y-4.0575
X4.3949Y-4.352
X4.4193Y-3.9075
X4.4244Y-4.2189
X4.4827Y-4.1642
X4.4961Y-3.9469
X4.4997Y-4.0216
X4.5015Y-3.9901
X4.5031Y-3.8996
X4.5528Y-3.589
X4.5648Y-3.6456
X4.5656Y-4.2824
T2
X3.2713Y-4.1946
X3.3328Y-4.3264
X4.5412Y-3.5476
X4.5412Y-4.3264
X4.6027Y-3.6794
X4.6027Y-4.1946
T3
X3.4267Y-4.4212
X3.4824Y-4.4769
T3
G00X4.4654Y-3.7669
M15
G01X4.5047Y-3.7669
M16
G05
G00X4.4654Y-4.1071
M15
G01X4.5047Y-4.1071
M16
G05
G00X4.6339Y-3.7669
M15
G01X4.6654Y-3.7669
M16
G05
G00X4.6339Y-4.1071
M15
G01X4.6654Y-4.1071
M16
G05
T0
M30
