%TF.GenerationSoftware,KiCad,Pcbnew,(6.0.7-1)-1*%
%TF.CreationDate,2022-10-24T14:59:35+01:00*%
%TF.ProjectId,wristpad,77726973-7470-4616-942e-6b696361645f,rev?*%
%TF.SameCoordinates,Original*%
%TF.FileFunction,Legend,Bot*%
%TF.FilePolarity,Positive*%
%FSLAX46Y46*%
G04 Gerber Fmt 4.6, Leading zero omitted, Abs format (unit mm)*
G04 Created by KiCad (PCBNEW (6.0.7-1)-1) date 2022-10-24 14:59:35*
%MOMM*%
%LPD*%
G01*
G04 APERTURE LIST*
%ADD10C,0.150000*%
%ADD11C,0.120000*%
G04 APERTURE END LIST*
D10*
X117800000Y-100000000D02*
G75*
G03*
X117800000Y-100000000I-17800000J0D01*
G01*
X89808023Y-112803320D02*
X89269275Y-112264572D01*
X89808023Y-112264572D02*
X89269275Y-112803320D01*
X88393809Y-111389106D02*
X87855061Y-110850358D01*
%TO.C,TP7*%
X109553333Y-93471904D02*
X109820000Y-93090952D01*
X110010476Y-93471904D02*
X110010476Y-92671904D01*
X109705714Y-92671904D01*
X109629523Y-92710000D01*
X109591428Y-92748095D01*
X109553333Y-92824285D01*
X109553333Y-92938571D01*
X109591428Y-93014761D01*
X109629523Y-93052857D01*
X109705714Y-93090952D01*
X110010476Y-93090952D01*
X109286666Y-92671904D02*
X108753333Y-93471904D01*
X108753333Y-92671904D02*
X109286666Y-93471904D01*
X108448571Y-93471904D02*
X108448571Y-92671904D01*
X108258095Y-92671904D01*
X108143809Y-92710000D01*
X108067619Y-92786190D01*
X108029523Y-92862380D01*
X107991428Y-93014761D01*
X107991428Y-93129047D01*
X108029523Y-93281428D01*
X108067619Y-93357619D01*
X108143809Y-93433809D01*
X108258095Y-93471904D01*
X108448571Y-93471904D01*
%TO.C,TP6*%
X110119523Y-95181904D02*
X109662380Y-95181904D01*
X109890952Y-95981904D02*
X109890952Y-95181904D01*
X109471904Y-95181904D02*
X108938571Y-95981904D01*
X108938571Y-95181904D02*
X109471904Y-95981904D01*
X108633809Y-95981904D02*
X108633809Y-95181904D01*
X108443333Y-95181904D01*
X108329047Y-95220000D01*
X108252857Y-95296190D01*
X108214761Y-95372380D01*
X108176666Y-95524761D01*
X108176666Y-95639047D01*
X108214761Y-95791428D01*
X108252857Y-95867619D01*
X108329047Y-95943809D01*
X108443333Y-95981904D01*
X108633809Y-95981904D01*
%TO.C,TP4*%
X112444285Y-112381904D02*
X112444285Y-111581904D01*
X112253809Y-111581904D01*
X112139523Y-111620000D01*
X112063333Y-111696190D01*
X112025238Y-111772380D01*
X111987142Y-111924761D01*
X111987142Y-112039047D01*
X112025238Y-112191428D01*
X112063333Y-112267619D01*
X112139523Y-112343809D01*
X112253809Y-112381904D01*
X112444285Y-112381904D01*
X111758571Y-111581904D02*
X111301428Y-111581904D01*
X111530000Y-112381904D02*
X111530000Y-111581904D01*
X110577619Y-112381904D02*
X110844285Y-112000952D01*
X111034761Y-112381904D02*
X111034761Y-111581904D01*
X110730000Y-111581904D01*
X110653809Y-111620000D01*
X110615714Y-111658095D01*
X110577619Y-111734285D01*
X110577619Y-111848571D01*
X110615714Y-111924761D01*
X110653809Y-111962857D01*
X110730000Y-112000952D01*
X111034761Y-112000952D01*
%TO.C,TP3*%
X112288095Y-110291904D02*
X112554761Y-109910952D01*
X112745238Y-110291904D02*
X112745238Y-109491904D01*
X112440476Y-109491904D01*
X112364285Y-109530000D01*
X112326190Y-109568095D01*
X112288095Y-109644285D01*
X112288095Y-109758571D01*
X112326190Y-109834761D01*
X112364285Y-109872857D01*
X112440476Y-109910952D01*
X112745238Y-109910952D01*
X112059523Y-109491904D02*
X111602380Y-109491904D01*
X111830952Y-110291904D02*
X111830952Y-109491904D01*
X111373809Y-110253809D02*
X111259523Y-110291904D01*
X111069047Y-110291904D01*
X110992857Y-110253809D01*
X110954761Y-110215714D01*
X110916666Y-110139523D01*
X110916666Y-110063333D01*
X110954761Y-109987142D01*
X110992857Y-109949047D01*
X111069047Y-109910952D01*
X111221428Y-109872857D01*
X111297619Y-109834761D01*
X111335714Y-109796666D01*
X111373809Y-109720476D01*
X111373809Y-109644285D01*
X111335714Y-109568095D01*
X111297619Y-109530000D01*
X111221428Y-109491904D01*
X111030952Y-109491904D01*
X110916666Y-109530000D01*
%TO.C,TP2*%
X95653333Y-95831904D02*
X95653333Y-95031904D01*
X95462857Y-95031904D01*
X95348571Y-95070000D01*
X95272380Y-95146190D01*
X95234285Y-95222380D01*
X95196190Y-95374761D01*
X95196190Y-95489047D01*
X95234285Y-95641428D01*
X95272380Y-95717619D01*
X95348571Y-95793809D01*
X95462857Y-95831904D01*
X95653333Y-95831904D01*
X94891428Y-95603333D02*
X94510476Y-95603333D01*
X94967619Y-95831904D02*
X94700952Y-95031904D01*
X94434285Y-95831904D01*
X93710476Y-95755714D02*
X93748571Y-95793809D01*
X93862857Y-95831904D01*
X93939047Y-95831904D01*
X94053333Y-95793809D01*
X94129523Y-95717619D01*
X94167619Y-95641428D01*
X94205714Y-95489047D01*
X94205714Y-95374761D01*
X94167619Y-95222380D01*
X94129523Y-95146190D01*
X94053333Y-95070000D01*
X93939047Y-95031904D01*
X93862857Y-95031904D01*
X93748571Y-95070000D01*
X93710476Y-95108095D01*
X93405714Y-95108095D02*
X93367619Y-95070000D01*
X93291428Y-95031904D01*
X93100952Y-95031904D01*
X93024761Y-95070000D01*
X92986666Y-95108095D01*
X92948571Y-95184285D01*
X92948571Y-95260476D01*
X92986666Y-95374761D01*
X93443809Y-95831904D01*
X92948571Y-95831904D01*
%TO.C,TP1*%
X96503333Y-90641904D02*
X96503333Y-89841904D01*
X96312857Y-89841904D01*
X96198571Y-89880000D01*
X96122380Y-89956190D01*
X96084285Y-90032380D01*
X96046190Y-90184761D01*
X96046190Y-90299047D01*
X96084285Y-90451428D01*
X96122380Y-90527619D01*
X96198571Y-90603809D01*
X96312857Y-90641904D01*
X96503333Y-90641904D01*
X95741428Y-90413333D02*
X95360476Y-90413333D01*
X95817619Y-90641904D02*
X95550952Y-89841904D01*
X95284285Y-90641904D01*
X94560476Y-90565714D02*
X94598571Y-90603809D01*
X94712857Y-90641904D01*
X94789047Y-90641904D01*
X94903333Y-90603809D01*
X94979523Y-90527619D01*
X95017619Y-90451428D01*
X95055714Y-90299047D01*
X95055714Y-90184761D01*
X95017619Y-90032380D01*
X94979523Y-89956190D01*
X94903333Y-89880000D01*
X94789047Y-89841904D01*
X94712857Y-89841904D01*
X94598571Y-89880000D01*
X94560476Y-89918095D01*
X93798571Y-90641904D02*
X94255714Y-90641904D01*
X94027142Y-90641904D02*
X94027142Y-89841904D01*
X94103333Y-89956190D01*
X94179523Y-90032380D01*
X94255714Y-90070476D01*
%TO.C,U5*%
X103890476Y-112671880D02*
X104461904Y-112671880D01*
X104176190Y-112671880D02*
X104176190Y-111671880D01*
X104271428Y-111814738D01*
X104366666Y-111909976D01*
X104461904Y-111957595D01*
X103509523Y-111767119D02*
X103461904Y-111719500D01*
X103366666Y-111671880D01*
X103128571Y-111671880D01*
X103033333Y-111719500D01*
X102985714Y-111767119D01*
X102938095Y-111862357D01*
X102938095Y-111957595D01*
X102985714Y-112100452D01*
X103557142Y-112671880D01*
X102938095Y-112671880D01*
X96214285Y-112721880D02*
X96785714Y-112721880D01*
X96500000Y-112721880D02*
X96500000Y-111721880D01*
X96595238Y-111864738D01*
X96690476Y-111959976D01*
X96785714Y-112007595D01*
D11*
%TO.C,TP7*%
X111930000Y-93140000D02*
G75*
G03*
X111930000Y-93140000I-700000J0D01*
G01*
%TO.C,TP6*%
X111960000Y-95490000D02*
G75*
G03*
X111960000Y-95490000I-700000J0D01*
G01*
%TO.C,TP4*%
X110090000Y-112010000D02*
G75*
G03*
X110090000Y-112010000I-700000J0D01*
G01*
%TO.C,TP3*%
X110430000Y-109930000D02*
G75*
G03*
X110430000Y-109930000I-700000J0D01*
G01*
%TO.C,TP2*%
X97640000Y-95470000D02*
G75*
G03*
X97640000Y-95470000I-700000J0D01*
G01*
%TO.C,TP1*%
X98530000Y-90220000D02*
G75*
G03*
X98530000Y-90220000I-700000J0D01*
G01*
%TD*%
M02*
