%TF.GenerationSoftware,KiCad,Pcbnew,(6.0.7-1)-1*%
%TF.CreationDate,2022-10-24T14:59:34+01:00*%
%TF.ProjectId,wristpad,77726973-7470-4616-942e-6b696361645f,rev?*%
%TF.SameCoordinates,Original*%
%TF.FileFunction,Copper,L1,Top*%
%TF.FilePolarity,Positive*%
%FSLAX46Y46*%
G04 Gerber Fmt 4.6, Leading zero omitted, Abs format (unit mm)*
G04 Created by KiCad (PCBNEW (6.0.7-1)-1) date 2022-10-24 14:59:34*
%MOMM*%
%LPD*%
G01*
G04 APERTURE LIST*
G04 Aperture macros list*
%AMRoundRect*
0 Rectangle with rounded corners*
0 $1 Rounding radius*
0 $2 $3 $4 $5 $6 $7 $8 $9 X,Y pos of 4 corners*
0 Add a 4 corners polygon primitive as box body*
4,1,4,$2,$3,$4,$5,$6,$7,$8,$9,$2,$3,0*
0 Add four circle primitives for the rounded corners*
1,1,$1+$1,$2,$3*
1,1,$1+$1,$4,$5*
1,1,$1+$1,$6,$7*
1,1,$1+$1,$8,$9*
0 Add four rect primitives between the rounded corners*
20,1,$1+$1,$2,$3,$4,$5,0*
20,1,$1+$1,$4,$5,$6,$7,0*
20,1,$1+$1,$6,$7,$8,$9,0*
20,1,$1+$1,$8,$9,$2,$3,0*%
%AMRotRect*
0 Rectangle, with rotation*
0 The origin of the aperture is its center*
0 $1 length*
0 $2 width*
0 $3 Rotation angle, in degrees counterclockwise*
0 Add horizontal line*
21,1,$1,$2,0,0,$3*%
%AMFreePoly0*
4,1,16,0.740277,0.992426,0.757850,0.950000,0.757850,0.300000,0.740275,0.257574,0.697850,0.240000,0.457200,0.240000,0.457201,-0.274320,0.274320,-0.457200,-0.457200,-0.457200,-0.457200,0.288050,-0.462150,0.300000,-0.462150,0.949999,-0.444576,0.992426,-0.402150,1.010000,0.697850,1.010000,0.740277,0.992426,0.740277,0.992426,$1*%
%AMFreePoly1*
4,1,16,0.444576,0.992426,0.462150,0.950000,0.462150,0.300000,0.457200,0.288050,0.457200,-0.457200,-0.274320,-0.457201,-0.457200,-0.274320,-0.457200,0.240000,-0.697850,0.240000,-0.740276,0.257574,-0.757850,0.300000,-0.757850,0.950000,-0.740276,0.992426,-0.697850,1.010000,0.402150,1.010000,0.444576,0.992426,0.444576,0.992426,$1*%
G04 Aperture macros list end*
%TA.AperFunction,SMDPad,CuDef*%
%ADD10R,1.300000X3.400000*%
%TD*%
%TA.AperFunction,SMDPad,CuDef*%
%ADD11RoundRect,0.150000X-0.150000X0.825000X-0.150000X-0.825000X0.150000X-0.825000X0.150000X0.825000X0*%
%TD*%
%TA.AperFunction,SMDPad,CuDef*%
%ADD12RoundRect,0.135000X0.185000X-0.135000X0.185000X0.135000X-0.185000X0.135000X-0.185000X-0.135000X0*%
%TD*%
%TA.AperFunction,SMDPad,CuDef*%
%ADD13R,0.558800X1.244600*%
%TD*%
%TA.AperFunction,SMDPad,CuDef*%
%ADD14RoundRect,0.135000X-0.135000X-0.185000X0.135000X-0.185000X0.135000X0.185000X-0.135000X0.185000X0*%
%TD*%
%TA.AperFunction,SMDPad,CuDef*%
%ADD15R,0.600000X0.450000*%
%TD*%
%TA.AperFunction,SMDPad,CuDef*%
%ADD16RoundRect,0.135000X0.135000X0.185000X-0.135000X0.185000X-0.135000X-0.185000X0.135000X-0.185000X0*%
%TD*%
%TA.AperFunction,SMDPad,CuDef*%
%ADD17RoundRect,0.062500X-0.062500X0.375000X-0.062500X-0.375000X0.062500X-0.375000X0.062500X0.375000X0*%
%TD*%
%TA.AperFunction,SMDPad,CuDef*%
%ADD18RoundRect,0.062500X-0.375000X0.062500X-0.375000X-0.062500X0.375000X-0.062500X0.375000X0.062500X0*%
%TD*%
%TA.AperFunction,SMDPad,CuDef*%
%ADD19R,5.150000X5.150000*%
%TD*%
%TA.AperFunction,SMDPad,CuDef*%
%ADD20RoundRect,0.225000X0.250000X-0.225000X0.250000X0.225000X-0.250000X0.225000X-0.250000X-0.225000X0*%
%TD*%
%TA.AperFunction,SMDPad,CuDef*%
%ADD21R,1.000000X0.700000*%
%TD*%
%TA.AperFunction,SMDPad,CuDef*%
%ADD22R,0.600000X0.700000*%
%TD*%
%TA.AperFunction,SMDPad,CuDef*%
%ADD23RoundRect,0.140000X0.170000X-0.140000X0.170000X0.140000X-0.170000X0.140000X-0.170000X-0.140000X0*%
%TD*%
%TA.AperFunction,SMDPad,CuDef*%
%ADD24RoundRect,0.062500X0.350000X0.062500X-0.350000X0.062500X-0.350000X-0.062500X0.350000X-0.062500X0*%
%TD*%
%TA.AperFunction,SMDPad,CuDef*%
%ADD25RoundRect,0.062500X0.062500X0.350000X-0.062500X0.350000X-0.062500X-0.350000X0.062500X-0.350000X0*%
%TD*%
%TA.AperFunction,SMDPad,CuDef*%
%ADD26R,2.600000X2.600000*%
%TD*%
%TA.AperFunction,SMDPad,CuDef*%
%ADD27RoundRect,0.218750X-0.218750X-0.256250X0.218750X-0.256250X0.218750X0.256250X-0.218750X0.256250X0*%
%TD*%
%TA.AperFunction,SMDPad,CuDef*%
%ADD28R,1.800000X1.000000*%
%TD*%
%TA.AperFunction,SMDPad,CuDef*%
%ADD29RoundRect,0.225000X-0.250000X0.225000X-0.250000X-0.225000X0.250000X-0.225000X0.250000X0.225000X0*%
%TD*%
%TA.AperFunction,ComponentPad*%
%ADD30RoundRect,0.250000X0.777817X0.000000X0.000000X0.777817X-0.777817X0.000000X0.000000X-0.777817X0*%
%TD*%
%TA.AperFunction,ComponentPad*%
%ADD31C,1.600000*%
%TD*%
%TA.AperFunction,SMDPad,CuDef*%
%ADD32RoundRect,0.135000X-0.185000X0.135000X-0.185000X-0.135000X0.185000X-0.135000X0.185000X0.135000X0*%
%TD*%
%TA.AperFunction,SMDPad,CuDef*%
%ADD33RoundRect,0.137500X-0.262500X-0.137500X0.262500X-0.137500X0.262500X0.137500X-0.262500X0.137500X0*%
%TD*%
%TA.AperFunction,SMDPad,CuDef*%
%ADD34RoundRect,0.250000X-0.450000X0.262500X-0.450000X-0.262500X0.450000X-0.262500X0.450000X0.262500X0*%
%TD*%
%TA.AperFunction,SMDPad,CuDef*%
%ADD35RoundRect,0.140000X-0.140000X-0.170000X0.140000X-0.170000X0.140000X0.170000X-0.140000X0.170000X0*%
%TD*%
%TA.AperFunction,SMDPad,CuDef*%
%ADD36RotRect,0.711200X1.092200X115.000000*%
%TD*%
%TA.AperFunction,ComponentPad*%
%ADD37FreePoly0,115.000000*%
%TD*%
%TA.AperFunction,ComponentPad*%
%ADD38FreePoly1,115.000000*%
%TD*%
%TA.AperFunction,SMDPad,CuDef*%
%ADD39RotRect,1.397000X1.092200X115.000000*%
%TD*%
%TA.AperFunction,ComponentPad*%
%ADD40O,2.108200X0.990600*%
%TD*%
%TA.AperFunction,ComponentPad*%
%ADD41O,1.803400X0.990600*%
%TD*%
%TA.AperFunction,SMDPad,CuDef*%
%ADD42R,1.143000X0.584200*%
%TD*%
%TA.AperFunction,SMDPad,CuDef*%
%ADD43R,1.143000X0.304800*%
%TD*%
%TA.AperFunction,SMDPad,CuDef*%
%ADD44RoundRect,0.150000X-0.512500X-0.150000X0.512500X-0.150000X0.512500X0.150000X-0.512500X0.150000X0*%
%TD*%
%TA.AperFunction,SMDPad,CuDef*%
%ADD45RotRect,0.711200X1.092200X245.000000*%
%TD*%
%TA.AperFunction,ComponentPad*%
%ADD46FreePoly1,245.000000*%
%TD*%
%TA.AperFunction,SMDPad,CuDef*%
%ADD47RotRect,1.397000X1.092200X245.000000*%
%TD*%
%TA.AperFunction,ComponentPad*%
%ADD48FreePoly0,245.000000*%
%TD*%
%TA.AperFunction,SMDPad,CuDef*%
%ADD49RotRect,0.711200X1.092200X295.000000*%
%TD*%
%TA.AperFunction,ComponentPad*%
%ADD50FreePoly1,295.000000*%
%TD*%
%TA.AperFunction,ComponentPad*%
%ADD51FreePoly0,295.000000*%
%TD*%
%TA.AperFunction,SMDPad,CuDef*%
%ADD52RotRect,1.397000X1.092200X295.000000*%
%TD*%
%TA.AperFunction,SMDPad,CuDef*%
%ADD53RoundRect,0.140000X0.140000X0.170000X-0.140000X0.170000X-0.140000X-0.170000X0.140000X-0.170000X0*%
%TD*%
%TA.AperFunction,SMDPad,CuDef*%
%ADD54R,0.700000X0.340000*%
%TD*%
%TA.AperFunction,SMDPad,CuDef*%
%ADD55R,1.500000X0.600000*%
%TD*%
%TA.AperFunction,SMDPad,CuDef*%
%ADD56R,0.340000X0.700000*%
%TD*%
%TA.AperFunction,ViaPad*%
%ADD57C,0.600000*%
%TD*%
%TA.AperFunction,Conductor*%
%ADD58C,0.400000*%
%TD*%
%TA.AperFunction,Conductor*%
%ADD59C,0.300000*%
%TD*%
%TA.AperFunction,Conductor*%
%ADD60C,0.200000*%
%TD*%
G04 APERTURE END LIST*
D10*
%TO.P,BZ1,1,-*%
%TO.N,VCC*%
X93560000Y-105630000D03*
%TO.P,BZ1,2,+*%
%TO.N,/PIEZO_DRAIN*%
X102260000Y-105630000D03*
%TD*%
D11*
%TO.P,IC1,1,VDD5V*%
%TO.N,/POWER*%
X87298000Y-90082000D03*
%TO.P,IC1,2,VDD3V3*%
X86028000Y-90082000D03*
%TO.P,IC1,3,OUT*%
%TO.N,unconnected-(IC1-Pad3)*%
X84758000Y-90082000D03*
%TO.P,IC1,4,GND*%
%TO.N,GND*%
X83488000Y-90082000D03*
%TO.P,IC1,5,PGO*%
%TO.N,unconnected-(IC1-Pad5)*%
X83488000Y-95032000D03*
%TO.P,IC1,6,SDA*%
%TO.N,/SDA*%
X84758000Y-95032000D03*
%TO.P,IC1,7,SCL*%
%TO.N,/SCL*%
X86028000Y-95032000D03*
%TO.P,IC1,8,DIR*%
%TO.N,/DIR*%
X87298000Y-95032000D03*
%TD*%
D12*
%TO.P,R21,2*%
%TO.N,/BATT_ADC*%
X83050000Y-102150000D03*
%TO.P,R21,1*%
%TO.N,+BATT*%
X83050000Y-103170000D03*
%TD*%
D13*
%TO.P,SW2,1,1*%
%TO.N,GND*%
X95974598Y-117080000D03*
%TO.P,SW2,2,2*%
%TO.N,/BOOT*%
X99525402Y-117080000D03*
%TD*%
D14*
%TO.P,R20,2*%
%TO.N,GND*%
X103820000Y-114850000D03*
%TO.P,R20,1*%
%TO.N,/BACKLIGHT_GATE*%
X102800000Y-114850000D03*
%TD*%
D12*
%TO.P,R1,2*%
%TO.N,GND*%
X88400000Y-99400000D03*
%TO.P,R1,1*%
%TO.N,/PROG*%
X88400000Y-100420000D03*
%TD*%
D14*
%TO.P,R3,1*%
%TO.N,+3V3*%
X90960000Y-109966000D03*
%TO.P,R3,2*%
%TO.N,/POWER_GATE*%
X91980000Y-109966000D03*
%TD*%
D15*
%TO.P,D3,1,K*%
%TO.N,/VREGIN*%
X109680000Y-97610000D03*
%TO.P,D3,2,A*%
%TO.N,VBUS*%
X111780000Y-97610000D03*
%TD*%
D16*
%TO.P,R26,1*%
%TO.N,/DIR*%
X92350000Y-87240000D03*
%TO.P,R26,2*%
%TO.N,/POWER*%
X91330000Y-87240000D03*
%TD*%
D14*
%TO.P,R27,1*%
%TO.N,GND*%
X91330000Y-85980000D03*
%TO.P,R27,2*%
%TO.N,/DIR*%
X92350000Y-85980000D03*
%TD*%
D17*
%TO.P,U3,1,VDDA*%
%TO.N,+3V3*%
X104921000Y-90523500D03*
%TO.P,U3,2,LNA_IN*%
%TO.N,/LNA_IN*%
X104421000Y-90523500D03*
%TO.P,U3,3,VDD3P3*%
%TO.N,+3V3*%
X103921000Y-90523500D03*
%TO.P,U3,4,VDD3P3*%
X103421000Y-90523500D03*
%TO.P,U3,5,NC*%
%TO.N,unconnected-(U3-Pad5)*%
X102921000Y-90523500D03*
%TO.P,U3,6,GPIO37/ADC1_CH1/RTC_GPIO1*%
%TO.N,/B1*%
X102421000Y-90523500D03*
%TO.P,U3,7,GPIO38/ADC1_CH2/RTC_GPIO2*%
%TO.N,/B2*%
X101921000Y-90523500D03*
%TO.P,U3,8,GPIO39/ADC1_CH3/RTC_GPIO3*%
%TO.N,/B3*%
X101421000Y-90523500D03*
%TO.P,U3,9,CHIP_PU*%
%TO.N,/EN*%
X100921000Y-90523500D03*
%TO.P,U3,10,GPIO34/ADC1_CH6/RTC_GPIO4*%
%TO.N,/BATT_ADC*%
X100421000Y-90523500D03*
%TO.P,U3,11,NC*%
%TO.N,unconnected-(U3-Pad11)*%
X99921000Y-90523500D03*
%TO.P,U3,12,32K_XP*%
%TO.N,/32K_XP*%
X99421000Y-90523500D03*
D18*
%TO.P,U3,13,32K_XN*%
%TO.N,/32K_XN*%
X98733500Y-91211000D03*
%TO.P,U3,14,GPIO25/ADC2_CH8/DAC_1/RTC_GPIO6*%
%TO.N,/DAC1*%
X98733500Y-91711000D03*
%TO.P,U3,15,GPIO26/ADC2_CH9/DAC_2/RTC_GPIO7*%
%TO.N,/DAC2*%
X98733500Y-92211000D03*
%TO.P,U3,16,GPIO27/ADC2_CH7/RTC_GPIO17*%
%TO.N,/CONNECTED*%
X98733500Y-92711000D03*
%TO.P,U3,17,MTMS/GPIO14/ADC2_CH6/RTC_GPIO16*%
%TO.N,unconnected-(U3-Pad17)*%
X98733500Y-93211000D03*
%TO.P,U3,18,\u002AMTDI/GPIO12/ADC2_CH5/RTC_GPIO15*%
%TO.N,unconnected-(U3-Pad18)*%
X98733500Y-93711000D03*
%TO.P,U3,19,VDD3P3_RTC*%
%TO.N,+3V3*%
X98733500Y-94211000D03*
%TO.P,U3,20,MTCK/GPIO13/ADC2_CH4/RTC_GPIO14*%
%TO.N,unconnected-(U3-Pad20)*%
X98733500Y-94711000D03*
%TO.P,U3,21,\u002AMTDO/GPIO15/ADC2_CH3/RTC_GPIO13*%
%TO.N,unconnected-(U3-Pad21)*%
X98733500Y-95211000D03*
%TO.P,U3,22,\u002AGPIO2/ADC2_CH2/RTC_GPIO12*%
%TO.N,unconnected-(U3-Pad22)*%
X98733500Y-95711000D03*
%TO.P,U3,23,\u002AGPIO0/ADC2_CH1/RTC_GPIO11*%
%TO.N,/BOOT*%
X98733500Y-96211000D03*
%TO.P,U3,24,GPIO4/ADC2_CH0/RTC_GPIO10*%
%TO.N,/STAT*%
X98733500Y-96711000D03*
D17*
%TO.P,U3,25,NC*%
%TO.N,unconnected-(U3-Pad25)*%
X99421000Y-97398500D03*
%TO.P,U3,26,VDD_SDIO*%
%TO.N,unconnected-(U3-Pad26)*%
X99921000Y-97398500D03*
%TO.P,U3,27,GPIO20*%
%TO.N,/PIEZO*%
X100421000Y-97398500D03*
%TO.P,U3,28,NC*%
%TO.N,unconnected-(U3-Pad28)*%
X100921000Y-97398500D03*
%TO.P,U3,29,NC*%
%TO.N,unconnected-(U3-Pad29)*%
X101421000Y-97398500D03*
%TO.P,U3,30,NC*%
%TO.N,unconnected-(U3-Pad30)*%
X101921000Y-97398500D03*
%TO.P,U3,31,NC*%
%TO.N,unconnected-(U3-Pad31)*%
X102421000Y-97398500D03*
%TO.P,U3,32,SD_DATA_0/GPIO7*%
%TO.N,unconnected-(U3-Pad32)*%
X102921000Y-97398500D03*
%TO.P,U3,33,SD_DATA_1/GPIO8*%
%TO.N,/ENABLE*%
X103421000Y-97398500D03*
%TO.P,U3,34,\u002AGPIO5*%
%TO.N,unconnected-(U3-Pad34)*%
X103921000Y-97398500D03*
%TO.P,U3,35,NC*%
%TO.N,unconnected-(U3-Pad35)*%
X104421000Y-97398500D03*
%TO.P,U3,36,NC*%
%TO.N,unconnected-(U3-Pad36)*%
X104921000Y-97398500D03*
D18*
%TO.P,U3,37,VDD3P3_CPU*%
%TO.N,+3V3*%
X105608500Y-96711000D03*
%TO.P,U3,38,GPIO19*%
%TO.N,/BACKLIGHT*%
X105608500Y-96211000D03*
%TO.P,U3,39,GPIO22*%
%TO.N,/SCL*%
X105608500Y-95711000D03*
%TO.P,U3,40,U0RXD/GPIO3*%
%TO.N,/RXD0*%
X105608500Y-95211000D03*
%TO.P,U3,41,U0TXD/GPIO1*%
%TO.N,/TXD0*%
X105608500Y-94711000D03*
%TO.P,U3,42,GPIO21*%
%TO.N,/SDA*%
X105608500Y-94211000D03*
%TO.P,U3,43,VDDA*%
%TO.N,+3V3*%
X105608500Y-93711000D03*
%TO.P,U3,44,NC*%
%TO.N,unconnected-(U3-Pad44)*%
X105608500Y-93211000D03*
%TO.P,U3,45,NC*%
%TO.N,unconnected-(U3-Pad45)*%
X105608500Y-92711000D03*
%TO.P,U3,46,VDDA*%
%TO.N,+3V3*%
X105608500Y-92211000D03*
%TO.P,U3,47,NC*%
%TO.N,unconnected-(U3-Pad47)*%
X105608500Y-91711000D03*
%TO.P,U3,48,NC*%
%TO.N,unconnected-(U3-Pad48)*%
X105608500Y-91211000D03*
D19*
%TO.P,U3,49,GND*%
%TO.N,GND*%
X102171000Y-93961000D03*
%TD*%
D20*
%TO.P,C14,1*%
%TO.N,GND*%
X93940000Y-94305000D03*
%TO.P,C14,2*%
%TO.N,/32K_XN*%
X93940000Y-92755000D03*
%TD*%
D21*
%TO.P,D1,1,A*%
%TO.N,GND*%
X110670000Y-107920000D03*
D22*
%TO.P,D1,2,K*%
%TO.N,VBUS*%
X112370000Y-107920000D03*
%TO.P,D1,3,K*%
%TO.N,/DN*%
X112370000Y-105920000D03*
%TO.P,D1,4,K*%
%TO.N,/DP*%
X110470000Y-105920000D03*
%TD*%
D13*
%TO.P,SW1,1,1*%
%TO.N,GND*%
X100724598Y-117094000D03*
%TO.P,SW1,2,2*%
%TO.N,/EN*%
X104275402Y-117094000D03*
%TD*%
D14*
%TO.P,R16,1*%
%TO.N,VBUS*%
X86820000Y-107070000D03*
%TO.P,R16,2*%
%TO.N,GND*%
X87840000Y-107070000D03*
%TD*%
D16*
%TO.P,R11,1*%
%TO.N,/RTS_BASE*%
X110270000Y-109520000D03*
%TO.P,R11,2*%
%TO.N,/RTS*%
X109250000Y-109520000D03*
%TD*%
%TO.P,R18,2*%
%TO.N,/SDA*%
X107631000Y-92831000D03*
%TO.P,R18,1*%
%TO.N,+3V3*%
X108651000Y-92831000D03*
%TD*%
D14*
%TO.P,R19,1*%
%TO.N,/SCL*%
X107631000Y-95961000D03*
%TO.P,R19,2*%
%TO.N,+3V3*%
X108651000Y-95961000D03*
%TD*%
D16*
%TO.P,R25,1*%
%TO.N,/PIEZO_DRAIN*%
X101650000Y-112490000D03*
%TO.P,R25,2*%
%TO.N,VCC*%
X100630000Y-112490000D03*
%TD*%
D15*
%TO.P,D2,1,K*%
%TO.N,VCC*%
X89550000Y-108630000D03*
%TO.P,D2,2,A*%
%TO.N,VBUS*%
X87450000Y-108630000D03*
%TD*%
D23*
%TO.P,C3,2*%
%TO.N,GND*%
X90510000Y-99430000D03*
%TO.P,C3,1*%
%TO.N,/VO*%
X90510000Y-100390000D03*
%TD*%
D24*
%TO.P,U2,1,~{RI}/CLK*%
%TO.N,unconnected-(U2-Pad1)*%
X108416984Y-105648951D03*
%TO.P,U2,2,GND*%
%TO.N,GND*%
X108416984Y-105148951D03*
%TO.P,U2,3,D+*%
%TO.N,/DP*%
X108416984Y-104648951D03*
%TO.P,U2,4,D-*%
%TO.N,/DN*%
X108416984Y-104148951D03*
%TO.P,U2,5,VIO*%
%TO.N,/VIO*%
X108416984Y-103648951D03*
%TO.P,U2,6,VDD*%
X108416984Y-103148951D03*
D25*
%TO.P,U2,7,VREGIN*%
%TO.N,/VREGIN*%
X107729484Y-102461451D03*
%TO.P,U2,8,VBUS*%
%TO.N,/CONNECTED*%
X107229484Y-102461451D03*
%TO.P,U2,9,~{RST}*%
%TO.N,/~RST*%
X106729484Y-102461451D03*
%TO.P,U2,10,NC*%
%TO.N,unconnected-(U2-Pad10)*%
X106229484Y-102461451D03*
%TO.P,U2,11,~{WAKEUP}/GPIO.3*%
%TO.N,unconnected-(U2-Pad11)*%
X105729484Y-102461451D03*
%TO.P,U2,12,RS485/GPIO.2*%
%TO.N,unconnected-(U2-Pad12)*%
X105229484Y-102461451D03*
D24*
%TO.P,U2,13,~{RXT}/GPIO.1*%
%TO.N,unconnected-(U2-Pad13)*%
X104541984Y-103148951D03*
%TO.P,U2,14,~{TXT}/GPIO.0*%
%TO.N,unconnected-(U2-Pad14)*%
X104541984Y-103648951D03*
%TO.P,U2,15,~{SUSPEND}*%
%TO.N,unconnected-(U2-Pad15)*%
X104541984Y-104148951D03*
%TO.P,U2,16,NC*%
%TO.N,unconnected-(U2-Pad16)*%
X104541984Y-104648951D03*
%TO.P,U2,17,SUSPEND*%
%TO.N,unconnected-(U2-Pad17)*%
X104541984Y-105148951D03*
%TO.P,U2,18,~{CTS}*%
%TO.N,unconnected-(U2-Pad18)*%
X104541984Y-105648951D03*
D25*
%TO.P,U2,19,~{RTS}*%
%TO.N,/RTS*%
X105229484Y-106336451D03*
%TO.P,U2,20,RXD*%
%TO.N,/RXD*%
X105729484Y-106336451D03*
%TO.P,U2,21,TXD*%
%TO.N,/TXD*%
X106229484Y-106336451D03*
%TO.P,U2,22,~{DSR}*%
%TO.N,unconnected-(U2-Pad22)*%
X106729484Y-106336451D03*
%TO.P,U2,23,~{DTR}*%
%TO.N,/DTR*%
X107229484Y-106336451D03*
%TO.P,U2,24,~{DCD}*%
%TO.N,unconnected-(U2-Pad24)*%
X107729484Y-106336451D03*
D26*
%TO.P,U2,25,GND*%
%TO.N,GND*%
X106479484Y-104398951D03*
%TD*%
D27*
%TO.P,L1,1*%
%TO.N,/ANTENNA*%
X100162500Y-84840000D03*
%TO.P,L1,2*%
%TO.N,/LNA_IN*%
X101737500Y-84840000D03*
%TD*%
D28*
%TO.P,Y1,1,1*%
%TO.N,/32K_XP*%
X95876000Y-90236000D03*
%TO.P,Y1,2,2*%
%TO.N,/32K_XN*%
X95876000Y-92736000D03*
%TD*%
D29*
%TO.P,C13,1*%
%TO.N,GND*%
X93920000Y-88645000D03*
%TO.P,C13,2*%
%TO.N,/32K_XP*%
X93920000Y-90195000D03*
%TD*%
D16*
%TO.P,R7,1*%
%TO.N,/CC1*%
X110601484Y-100502951D03*
%TO.P,R7,2*%
%TO.N,GND*%
X109581484Y-100502951D03*
%TD*%
D30*
%TO.P,J2,1,Pin_1*%
%TO.N,+BATT*%
X88453199Y-113713199D03*
D31*
%TO.P,J2,2,Pin_2*%
%TO.N,GND*%
X87038985Y-112298985D03*
%TD*%
D16*
%TO.P,R23,2*%
%TO.N,/POWER_GATE*%
X90960000Y-108950000D03*
%TO.P,R23,1*%
%TO.N,/ENABLE*%
X91980000Y-108950000D03*
%TD*%
D23*
%TO.P,C15,2*%
%TO.N,GND*%
X100260000Y-88140000D03*
%TO.P,C15,1*%
%TO.N,/EN*%
X100260000Y-89100000D03*
%TD*%
D32*
%TO.P,R10,1*%
%TO.N,/DTR_BASE*%
X107830000Y-110790000D03*
%TO.P,R10,2*%
%TO.N,/DTR*%
X107830000Y-111810000D03*
%TD*%
%TO.P,R22,2*%
%TO.N,/BATT_ADC*%
X83050000Y-101090000D03*
%TO.P,R22,1*%
%TO.N,GND*%
X83050000Y-100070000D03*
%TD*%
D29*
%TO.P,C19,1*%
%TO.N,/LNA_IN*%
X103580000Y-84823000D03*
%TO.P,C19,2*%
%TO.N,GND*%
X103580000Y-86373000D03*
%TD*%
D23*
%TO.P,C7,1*%
%TO.N,/POWER*%
X88646000Y-93190000D03*
%TO.P,C7,2*%
%TO.N,GND*%
X88646000Y-92230000D03*
%TD*%
D12*
%TO.P,R13,2*%
%TO.N,+3V3*%
X99220000Y-88100000D03*
%TO.P,R13,1*%
%TO.N,/EN*%
X99220000Y-89120000D03*
%TD*%
D33*
%TO.P,U4,5,VO*%
%TO.N,/VO*%
X91624000Y-101666000D03*
%TO.P,U4,4,NC*%
%TO.N,unconnected-(U4-Pad4)*%
X91624000Y-103566000D03*
%TO.P,U4,3,EN*%
%TO.N,VCC*%
X89224000Y-103566000D03*
%TO.P,U4,2,GND*%
%TO.N,GND*%
X89224000Y-102616000D03*
%TO.P,U4,1,VI*%
%TO.N,VCC*%
X89224000Y-101666000D03*
%TD*%
D34*
%TO.P,R12,1*%
%TO.N,+3V3*%
X92050000Y-98237500D03*
%TO.P,R12,2*%
%TO.N,/VO*%
X92050000Y-100062500D03*
%TD*%
D35*
%TO.P,C11,1*%
%TO.N,/EN*%
X109280000Y-114050000D03*
%TO.P,C11,2*%
%TO.N,GND*%
X110240000Y-114050000D03*
%TD*%
%TO.P,C9,1*%
%TO.N,/VIO*%
X109611484Y-103550951D03*
%TO.P,C9,2*%
%TO.N,GND*%
X110571484Y-103550951D03*
%TD*%
D32*
%TO.P,R6,1*%
%TO.N,/VIO*%
X104261484Y-100106951D03*
%TO.P,R6,2*%
%TO.N,/~RST*%
X104261484Y-101126951D03*
%TD*%
D35*
%TO.P,C12,1*%
%TO.N,/BOOT*%
X109280000Y-112950000D03*
%TO.P,C12,2*%
%TO.N,GND*%
X110240000Y-112950000D03*
%TD*%
D14*
%TO.P,R2,1*%
%TO.N,GND*%
X109581484Y-101518951D03*
%TO.P,R2,2*%
%TO.N,/CC2*%
X110601484Y-101518951D03*
%TD*%
D36*
%TO.P,SW5,1,1*%
%TO.N,GND*%
X85690566Y-108914377D03*
%TO.P,SW5,2,2*%
%TO.N,/B3*%
X84507087Y-106376398D03*
D37*
%TO.P,SW5,3*%
%TO.N,N/C*%
X84653935Y-109891721D03*
D38*
X83092065Y-106542279D03*
D39*
X85236948Y-107580981D03*
%TD*%
D16*
%TO.P,R24,2*%
%TO.N,/PIEZO_GATE*%
X99610000Y-113540000D03*
%TO.P,R24,1*%
%TO.N,/PIEZO*%
X100630000Y-113540000D03*
%TD*%
D23*
%TO.P,C2,2*%
%TO.N,GND*%
X89460000Y-99430000D03*
%TO.P,C2,1*%
%TO.N,VCC*%
X89460000Y-100390000D03*
%TD*%
D40*
%TO.P,J1,13,SHELL*%
%TO.N,GND*%
X113920000Y-104320002D03*
D41*
X118100000Y-104320002D03*
X118100000Y-95679998D03*
D40*
X113920000Y-95679998D03*
D42*
%TO.P,J1,A1-B12,GND*%
X113345000Y-103200000D03*
%TO.P,J1,A4-B9,VBUS*%
%TO.N,VBUS*%
X113345000Y-102400001D03*
D43*
%TO.P,J1,A5,CC1*%
%TO.N,/CC2*%
X113345000Y-101250000D03*
%TO.P,J1,A6,DP1*%
%TO.N,/DP*%
X113345000Y-100250000D03*
%TO.P,J1,A7,DN1*%
%TO.N,/DN*%
X113345000Y-99750000D03*
%TO.P,J1,A8,SBU1*%
%TO.N,unconnected-(J1-PadA8)*%
X113345000Y-98750000D03*
D42*
%TO.P,J1,B1-A12,GND*%
%TO.N,GND*%
X113345000Y-96800000D03*
%TO.P,J1,B4-A9,VBUS*%
%TO.N,VBUS*%
X113345000Y-97599999D03*
D43*
%TO.P,J1,B5,CC2*%
%TO.N,/CC1*%
X113345000Y-98250001D03*
%TO.P,J1,B6,DP2*%
%TO.N,/DP*%
X113345000Y-99249999D03*
%TO.P,J1,B7,DN2*%
%TO.N,/DN*%
X113345000Y-100750001D03*
%TO.P,J1,B8,SBU2*%
%TO.N,unconnected-(J1-PadB8)*%
X113345000Y-101749999D03*
%TD*%
D44*
%TO.P,U1,5,PROG*%
%TO.N,/PROG*%
X87243500Y-101666000D03*
%TO.P,U1,4,VDD*%
%TO.N,VBUS*%
X87243500Y-103566000D03*
%TO.P,U1,3,VBAT*%
%TO.N,+BATT*%
X84968500Y-103566000D03*
%TO.P,U1,2,VSS*%
%TO.N,GND*%
X84968500Y-102616000D03*
%TO.P,U1,1,STAT*%
%TO.N,/STAT*%
X84968500Y-101666000D03*
%TD*%
D45*
%TO.P,SW4,1,1*%
%TO.N,GND*%
X115492913Y-106376398D03*
%TO.P,SW4,2,2*%
%TO.N,/B2*%
X114309434Y-108914377D03*
D46*
%TO.P,SW4,3*%
%TO.N,N/C*%
X115346065Y-109891721D03*
D47*
X114763052Y-107580981D03*
D48*
X116907935Y-106542279D03*
%TD*%
D49*
%TO.P,SW3,1,1*%
%TO.N,GND*%
X114309434Y-91085623D03*
%TO.P,SW3,2,2*%
%TO.N,/B1*%
X115492913Y-93623602D03*
D50*
%TO.P,SW3,3*%
%TO.N,N/C*%
X116907935Y-93457721D03*
D51*
X115346065Y-90108279D03*
D52*
X114763052Y-92419019D03*
%TD*%
D53*
%TO.P,C1,1*%
%TO.N,VBUS*%
X87726000Y-104902000D03*
%TO.P,C1,2*%
%TO.N,GND*%
X86766000Y-104902000D03*
%TD*%
D16*
%TO.P,R17,1*%
%TO.N,/BACKLIGHT*%
X103830000Y-113750000D03*
%TO.P,R17,2*%
%TO.N,/BACKLIGHT_GATE*%
X102810000Y-113750000D03*
%TD*%
D54*
%TO.P,Q3,1,S*%
%TO.N,GND*%
X98470000Y-115150000D03*
%TO.P,Q3,2,G*%
%TO.N,/BACKLIGHT_GATE*%
X98470000Y-114650000D03*
%TO.P,Q3,3,D*%
%TO.N,/PIEZO_DRAIN*%
X98470000Y-114150000D03*
%TO.P,Q3,4,S*%
%TO.N,GND*%
X96970000Y-114150000D03*
%TO.P,Q3,5,G*%
%TO.N,/PIEZO_GATE*%
X96970000Y-114650000D03*
%TO.P,Q3,6,D*%
%TO.N,/LEDK*%
X96970000Y-115150000D03*
%TD*%
D14*
%TO.P,R8,2*%
%TO.N,/TXD*%
X108650000Y-94940000D03*
%TO.P,R8,1*%
%TO.N,/RXD0*%
X107630000Y-94940000D03*
%TD*%
D23*
%TO.P,C5,1*%
%TO.N,/VREGIN*%
X108638484Y-101120951D03*
%TO.P,C5,2*%
%TO.N,GND*%
X108638484Y-100160951D03*
%TD*%
D35*
%TO.P,C8,1*%
%TO.N,/VIO*%
X109611484Y-102534951D03*
%TO.P,C8,2*%
%TO.N,GND*%
X110571484Y-102534951D03*
%TD*%
D55*
%TO.P,E1,1*%
%TO.N,/ANTENNA*%
X98250000Y-82440000D03*
%TO.P,E1,2*%
%TO.N,unconnected-(E1-Pad2)*%
X101750000Y-82440000D03*
%TO.P,E1,3*%
%TO.N,GND*%
X101750000Y-80840000D03*
%TO.P,E1,4*%
X98250000Y-80840000D03*
%TD*%
D56*
%TO.P,Q2,1,S*%
%TO.N,VCC*%
X91780000Y-106230000D03*
%TO.P,Q2,2,G*%
%TO.N,VBUS*%
X91280000Y-106230000D03*
%TO.P,Q2,3,D*%
%TO.N,/POWER*%
X90780000Y-106230000D03*
%TO.P,Q2,4,S*%
%TO.N,+3V3*%
X90780000Y-107730000D03*
%TO.P,Q2,5,G*%
%TO.N,/POWER_GATE*%
X91280000Y-107730000D03*
%TO.P,Q2,6,D*%
%TO.N,+BATT*%
X91780000Y-107730000D03*
%TD*%
D53*
%TO.P,C10,1*%
%TO.N,GND*%
X99360000Y-112490000D03*
%TO.P,C10,2*%
%TO.N,/POWER*%
X98400000Y-112490000D03*
%TD*%
D14*
%TO.P,R9,2*%
%TO.N,/RXD*%
X108650000Y-93894000D03*
%TO.P,R9,1*%
%TO.N,/TXD0*%
X107630000Y-93894000D03*
%TD*%
D54*
%TO.P,Q1,1,S*%
%TO.N,/RTS*%
X109010000Y-110760000D03*
%TO.P,Q1,2,G*%
%TO.N,/DTR_BASE*%
X109010000Y-111260000D03*
%TO.P,Q1,3,D*%
%TO.N,/DTR*%
X109010000Y-111760000D03*
%TO.P,Q1,4,S*%
%TO.N,/BOOT*%
X110510000Y-111760000D03*
%TO.P,Q1,5,G*%
%TO.N,/RTS_BASE*%
X110510000Y-111260000D03*
%TO.P,Q1,6,D*%
%TO.N,/EN*%
X110510000Y-110760000D03*
%TD*%
D12*
%TO.P,R4,1*%
%TO.N,/CONNECTED*%
X105407484Y-101126951D03*
%TO.P,R4,2*%
%TO.N,/VREGIN*%
X105407484Y-100106951D03*
%TD*%
D23*
%TO.P,C17,1*%
%TO.N,+3V3*%
X106870000Y-89300000D03*
%TO.P,C17,2*%
%TO.N,GND*%
X106870000Y-88340000D03*
%TD*%
D29*
%TO.P,C18,1*%
%TO.N,/ANTENNA*%
X98230000Y-84845000D03*
%TO.P,C18,2*%
%TO.N,GND*%
X98230000Y-86395000D03*
%TD*%
D23*
%TO.P,C16,1*%
%TO.N,+3V3*%
X105840000Y-89320000D03*
%TO.P,C16,2*%
%TO.N,GND*%
X105840000Y-88360000D03*
%TD*%
%TO.P,C6,1*%
%TO.N,/VREGIN*%
X107501484Y-101090951D03*
%TO.P,C6,2*%
%TO.N,GND*%
X107501484Y-100130951D03*
%TD*%
D14*
%TO.P,R15,2*%
%TO.N,/LEDA*%
X96540000Y-111560000D03*
%TO.P,R15,1*%
%TO.N,+3V3*%
X95520000Y-111560000D03*
%TD*%
D53*
%TO.P,C4,1*%
%TO.N,+BATT*%
X85446000Y-104860000D03*
%TO.P,C4,2*%
%TO.N,GND*%
X84486000Y-104860000D03*
%TD*%
D12*
%TO.P,R5,1*%
%TO.N,/CONNECTED*%
X106494484Y-101126951D03*
%TO.P,R5,2*%
%TO.N,GND*%
X106494484Y-100106951D03*
%TD*%
D57*
%TO.N,GND*%
X106270000Y-87610000D03*
%TO.N,+3V3*%
X105020500Y-88410000D03*
%TO.N,GND*%
X100980000Y-88140000D03*
%TO.N,/EN*%
X98400000Y-88990000D03*
%TO.N,GND*%
X91330000Y-85120000D03*
X86140000Y-102660000D03*
X82170000Y-100070000D03*
X86200000Y-104230000D03*
X110940000Y-113370000D03*
%TO.N,/RTS*%
X108670000Y-108850000D03*
%TO.N,GND*%
X89470000Y-98630000D03*
%TO.N,+3V3*%
X103470000Y-88420000D03*
X95120000Y-110690000D03*
X95120000Y-99820000D03*
%TO.N,/VIO*%
X108650000Y-102430000D03*
X104110000Y-101846451D03*
%TO.N,/B3*%
X101169960Y-89222472D03*
X83870000Y-105750000D03*
%TO.N,/B1*%
X115944767Y-92597423D03*
X102450000Y-88640000D03*
%TO.N,/B2*%
X101900500Y-89390000D03*
X115966761Y-108772452D03*
%TO.N,/EN*%
X111630000Y-110540000D03*
%TO.N,/BOOT*%
X97538560Y-96207076D03*
X94660000Y-115766758D03*
%TO.N,VBUS*%
X112380000Y-107160000D03*
%TO.N,/STAT*%
X95038556Y-96811444D03*
X86406232Y-101012089D03*
%TO.N,/DTR*%
X107950000Y-112640000D03*
%TO.N,/RTS*%
X106610000Y-108330000D03*
%TO.N,GND*%
X96580000Y-117080000D03*
X101330000Y-117090000D03*
X104070000Y-115460000D03*
X99440000Y-115290000D03*
X96300000Y-113690000D03*
%TO.N,/LEDK*%
X97726577Y-113762582D03*
%TO.N,GND*%
X103520000Y-108319998D03*
%TO.N,/BACKLIGHT*%
X104626352Y-111642157D03*
X102880000Y-100409500D03*
X103719445Y-98762333D03*
X106397000Y-96260500D03*
%TO.N,/SCL*%
X107590000Y-96610000D03*
%TO.N,/PIEZO*%
X100339213Y-99246668D03*
X99980500Y-108319998D03*
%TO.N,/ENABLE*%
X101090472Y-99182467D03*
X98820734Y-107049266D03*
%TO.N,/SCL*%
X86753743Y-96308622D03*
%TO.N,/SDA*%
X85260000Y-96240000D03*
X93559942Y-97105990D03*
%TO.N,/SCL*%
X94239208Y-96789208D03*
%TO.N,/DIR*%
X87270000Y-93270000D03*
X92060000Y-89140000D03*
%TO.N,/POWER*%
X91610000Y-87870000D03*
X86060000Y-88680000D03*
%TO.N,GND*%
X83480000Y-91530000D03*
%TO.N,VBUS*%
X114292955Y-102148027D03*
X86470000Y-106240000D03*
%TO.N,GND*%
X105571484Y-103510951D03*
X87950000Y-106270000D03*
X95860000Y-110020000D03*
X88330000Y-102620000D03*
X84627483Y-108629772D03*
X106441484Y-105230951D03*
X107321484Y-103550951D03*
X102400000Y-86360000D03*
X109321484Y-99730951D03*
X103961000Y-92181000D03*
X107311484Y-104330951D03*
X107311484Y-105210951D03*
X103941000Y-95831000D03*
X109291484Y-105198451D03*
X113860000Y-105770000D03*
X97100000Y-86400500D03*
X115640000Y-91160000D03*
X102131000Y-92221000D03*
X105581484Y-105230951D03*
X99352820Y-111734923D03*
X100391000Y-95751000D03*
X102141000Y-95811000D03*
X96420000Y-80820000D03*
X100431000Y-93961000D03*
X106441484Y-104400951D03*
X103580000Y-80880000D03*
X103921000Y-93861000D03*
X94860000Y-88600000D03*
X106441484Y-103540951D03*
X111030000Y-103060000D03*
X110680000Y-108710000D03*
X107001069Y-99641069D03*
X88291444Y-91471444D03*
X100431000Y-92201000D03*
X83740000Y-104860000D03*
X105551484Y-104400951D03*
X94780000Y-93690000D03*
X102111000Y-93921000D03*
%TO.N,+BATT*%
X92390000Y-107720000D03*
%TO.N,/DP*%
X114201500Y-100250001D03*
X114380000Y-99050000D03*
%TO.N,/SDA*%
X104624984Y-98265564D03*
X101477425Y-100409500D03*
X106543320Y-94153635D03*
%TO.N,/SCL*%
X100770000Y-99860000D03*
%TO.N,/DAC1*%
X97350000Y-91810500D03*
%TO.N,/DAC2*%
X97394581Y-92559599D03*
%TO.N,/POWER*%
X90260000Y-105630000D03*
X98619503Y-111580000D03*
X87280000Y-91850000D03*
%TO.N,/BATT_ADC*%
X95580780Y-88394500D03*
X83960000Y-100680000D03*
%TO.N,/CONNECTED*%
X97846885Y-93561500D03*
X104731484Y-99170000D03*
%TO.N,/CC2*%
X112250000Y-99250000D03*
X114337715Y-101349501D03*
%TO.N,/TXD*%
X106691484Y-107198451D03*
X109380000Y-94800000D03*
%TO.N,/RXD*%
X105731484Y-107130951D03*
X109390500Y-93860000D03*
%TO.N,/LEDA*%
X97870000Y-111580000D03*
%TD*%
D58*
%TO.N,GND*%
X102400000Y-86360000D02*
X102413000Y-86373000D01*
X102413000Y-86373000D02*
X103580000Y-86373000D01*
X98224500Y-86400500D02*
X98230000Y-86395000D01*
X97100000Y-86400500D02*
X98224500Y-86400500D01*
D59*
%TO.N,/ANTENNA*%
X98235000Y-84840000D02*
X98230000Y-84845000D01*
X100162500Y-84840000D02*
X98235000Y-84840000D01*
%TO.N,/LNA_IN*%
X103580000Y-84823000D02*
X101754500Y-84823000D01*
X101754500Y-84823000D02*
X101737500Y-84840000D01*
%TO.N,/ANTENNA*%
X98230000Y-84845000D02*
X98230000Y-82460000D01*
X98230000Y-82460000D02*
X98250000Y-82440000D01*
%TO.N,/LNA_IN*%
X104421000Y-90523500D02*
X104421000Y-85664000D01*
X104421000Y-85664000D02*
X103580000Y-84823000D01*
D58*
%TO.N,GND*%
X115640000Y-91160000D02*
X115565623Y-91085623D01*
X115565623Y-91085623D02*
X114309434Y-91085623D01*
%TO.N,+3V3*%
X99910000Y-87410000D02*
X101520000Y-87410000D01*
X101520000Y-87410000D02*
X102140381Y-88030381D01*
X102140381Y-88030381D02*
X102180761Y-87990000D01*
X99220000Y-88100000D02*
X99910000Y-87410000D01*
X102180761Y-87990000D02*
X103040000Y-87990000D01*
X103040000Y-87990000D02*
X103470000Y-88420000D01*
%TO.N,VBUS*%
X86820000Y-107070000D02*
X86820000Y-106590000D01*
X86820000Y-106590000D02*
X86470000Y-106240000D01*
%TO.N,GND*%
X87840000Y-107070000D02*
X87840000Y-106380000D01*
X87840000Y-106380000D02*
X87950000Y-106270000D01*
%TO.N,VBUS*%
X86470000Y-106240000D02*
X87726000Y-104984000D01*
X87726000Y-104984000D02*
X87726000Y-104902000D01*
%TO.N,+BATT*%
X84968500Y-103566000D02*
X85450000Y-104047500D01*
X85450000Y-104047500D02*
X85450000Y-106235475D01*
X85450000Y-106235475D02*
X86200000Y-106985475D01*
X86200000Y-106985475D02*
X86200000Y-107470000D01*
X86200000Y-107470000D02*
X86800000Y-108070000D01*
X86800000Y-108070000D02*
X86800000Y-110433654D01*
X86800000Y-110433654D02*
X88453199Y-112086853D01*
X88453199Y-112086853D02*
X88453199Y-113713199D01*
%TO.N,+3V3*%
X105020500Y-88410000D02*
X105020500Y-88543465D01*
X105020500Y-88543465D02*
X105797035Y-89320000D01*
X105797035Y-89320000D02*
X105840000Y-89320000D01*
%TO.N,GND*%
X105840000Y-88360000D02*
X105840000Y-88040000D01*
X105840000Y-88040000D02*
X106270000Y-87610000D01*
X106870000Y-88210000D02*
X106270000Y-87610000D01*
X106870000Y-88340000D02*
X106870000Y-88210000D01*
X105840000Y-88360000D02*
X106850000Y-88360000D01*
X106850000Y-88360000D02*
X106870000Y-88340000D01*
%TO.N,+3V3*%
X106870000Y-89300000D02*
X106870000Y-91050000D01*
X106870000Y-91050000D02*
X106950000Y-91130000D01*
X105840000Y-89320000D02*
X106850000Y-89320000D01*
X106850000Y-89320000D02*
X106870000Y-89300000D01*
X104921000Y-90523500D02*
X104921000Y-90239000D01*
X104921000Y-90239000D02*
X105840000Y-89320000D01*
X93532327Y-87744500D02*
X98864500Y-87744500D01*
X98864500Y-87744500D02*
X99220000Y-88100000D01*
%TO.N,GND*%
X100260000Y-88140000D02*
X100980000Y-88140000D01*
D60*
%TO.N,/B3*%
X101330000Y-90432500D02*
X101421000Y-90523500D01*
X101169960Y-89222472D02*
X101330000Y-89382512D01*
X101330000Y-89382512D02*
X101330000Y-90432500D01*
%TO.N,/EN*%
X100921000Y-90523500D02*
X100921000Y-89761000D01*
X100921000Y-89761000D02*
X100260000Y-89100000D01*
%TO.N,/B2*%
X101900500Y-90503000D02*
X101921000Y-90523500D01*
X101900500Y-89390000D02*
X101900500Y-90503000D01*
%TO.N,/EN*%
X100260000Y-89100000D02*
X99240000Y-89100000D01*
X99240000Y-89100000D02*
X99220000Y-89120000D01*
X98400000Y-88990000D02*
X99090000Y-88990000D01*
X99090000Y-88990000D02*
X99220000Y-89120000D01*
D58*
%TO.N,GND*%
X91330000Y-85980000D02*
X91330000Y-85120000D01*
D60*
%TO.N,/DIR*%
X92350000Y-85980000D02*
X92350000Y-87240000D01*
D58*
%TO.N,GND*%
X88291444Y-91471444D02*
X88291444Y-91875444D01*
X88291444Y-91875444D02*
X88646000Y-92230000D01*
%TO.N,/VO*%
X91624000Y-100488500D02*
X92050000Y-100062500D01*
%TO.N,+3V3*%
X95120000Y-99820000D02*
X95120000Y-99220000D01*
X92050000Y-98237500D02*
X92050000Y-96190000D01*
X92050000Y-96190000D02*
X93062500Y-95177500D01*
X95120000Y-99220000D02*
X94137500Y-98237500D01*
X94137500Y-98237500D02*
X92050000Y-98237500D01*
%TO.N,/VO*%
X91624000Y-101666000D02*
X91624000Y-100488500D01*
%TO.N,GND*%
X86096000Y-102616000D02*
X86140000Y-102660000D01*
X84968500Y-102616000D02*
X86096000Y-102616000D01*
X83050000Y-100070000D02*
X82170000Y-100070000D01*
D60*
%TO.N,/BATT_ADC*%
X83960000Y-100680000D02*
X83460000Y-100680000D01*
X83460000Y-100680000D02*
X83050000Y-101090000D01*
X83050000Y-102150000D02*
X83050000Y-101090000D01*
%TO.N,+BATT*%
X83050000Y-103170000D02*
X84572500Y-103170000D01*
X84572500Y-103170000D02*
X84968500Y-103566000D01*
D58*
%TO.N,GND*%
X86766000Y-104796000D02*
X86200000Y-104230000D01*
X86766000Y-104902000D02*
X86766000Y-104796000D01*
D60*
%TO.N,VBUS*%
X91280000Y-106230000D02*
X91280000Y-105730761D01*
X91280000Y-105730761D02*
X91079239Y-105530000D01*
D58*
X87726000Y-104902000D02*
X88288261Y-104902000D01*
X88288261Y-104902000D02*
X88860000Y-104330261D01*
X88860000Y-104330261D02*
X89879500Y-104330261D01*
X89879500Y-104330261D02*
X91079239Y-105530000D01*
X87726000Y-104902000D02*
X87726000Y-104048500D01*
X87726000Y-104048500D02*
X87243500Y-103566000D01*
%TO.N,GND*%
X110240000Y-112950000D02*
X110520000Y-112950000D01*
X110520000Y-112950000D02*
X110940000Y-113370000D01*
X110260000Y-114050000D02*
X110940000Y-113370000D01*
X110240000Y-114050000D02*
X110260000Y-114050000D01*
D60*
%TO.N,/EN*%
X109280000Y-114050000D02*
X109840000Y-114610000D01*
X109840000Y-114610000D02*
X110580000Y-114610000D01*
X111500000Y-113690000D02*
X111500000Y-111360000D01*
X110580000Y-114610000D02*
X111500000Y-113690000D01*
X111500000Y-111360000D02*
X110900000Y-110760000D01*
%TO.N,/BOOT*%
X100242502Y-116020000D02*
X106370000Y-116020000D01*
X109280000Y-113110000D02*
X109280000Y-112950000D01*
X106370000Y-116020000D02*
X109280000Y-113110000D01*
X99525402Y-117080000D02*
X99525402Y-116737100D01*
X99525402Y-116737100D02*
X100242502Y-116020000D01*
X109280000Y-112950000D02*
X109320000Y-112950000D01*
X109320000Y-112950000D02*
X110510000Y-111760000D01*
%TO.N,/EN*%
X104275402Y-117094000D02*
X106236000Y-117094000D01*
X106236000Y-117094000D02*
X109280000Y-114050000D01*
%TO.N,/RTS_BASE*%
X110510000Y-111260000D02*
X109960000Y-111260000D01*
X109890000Y-109900000D02*
X110270000Y-109520000D01*
X109960000Y-111260000D02*
X109890000Y-111190000D01*
X109890000Y-111190000D02*
X109890000Y-109900000D01*
%TO.N,/RTS*%
X109250000Y-109430000D02*
X108670000Y-108850000D01*
X109250000Y-109520000D02*
X109250000Y-109430000D01*
X109250000Y-109520000D02*
X109250000Y-110520000D01*
X109250000Y-110520000D02*
X109010000Y-110760000D01*
%TO.N,/PROG*%
X88400000Y-100420000D02*
X88400000Y-100509500D01*
X88400000Y-100509500D02*
X87243500Y-101666000D01*
D58*
%TO.N,GND*%
X90510000Y-99430000D02*
X90270000Y-99430000D01*
X90270000Y-99430000D02*
X89470000Y-98630000D01*
X88400000Y-99400000D02*
X88700000Y-99400000D01*
X88700000Y-99400000D02*
X89470000Y-98630000D01*
X89460000Y-98640000D02*
X89470000Y-98630000D01*
X89460000Y-99430000D02*
X89460000Y-98640000D01*
%TO.N,/VO*%
X90510000Y-100390000D02*
X90510000Y-100552000D01*
X90510000Y-100552000D02*
X91624000Y-101666000D01*
%TO.N,VCC*%
X89460000Y-100390000D02*
X89460000Y-101430000D01*
X89460000Y-101430000D02*
X89224000Y-101666000D01*
%TO.N,+3V3*%
X90340000Y-109346000D02*
X90960000Y-109966000D01*
X90340000Y-109346000D02*
X90340000Y-108150000D01*
X90340000Y-108150000D02*
X90760000Y-107730000D01*
X110040000Y-93070000D02*
X110040000Y-95540000D01*
D59*
X106139000Y-93711000D02*
X106950000Y-92900000D01*
D58*
X110040000Y-95540000D02*
X109619000Y-95961000D01*
D59*
X106950000Y-91319652D02*
X106950000Y-91130000D01*
D58*
X108651000Y-92831000D02*
X109801000Y-92831000D01*
X109801000Y-92831000D02*
X110040000Y-93070000D01*
D59*
X106058652Y-92211000D02*
X106950000Y-91319652D01*
X105608500Y-93711000D02*
X106139000Y-93711000D01*
X105608500Y-92211000D02*
X106058652Y-92211000D01*
D58*
X106950000Y-91130000D02*
X108651000Y-92831000D01*
X109619000Y-95961000D02*
X108651000Y-95961000D01*
D59*
X106950000Y-92900000D02*
X106950000Y-91130000D01*
D58*
X95520000Y-111560000D02*
X95510000Y-111550000D01*
X92544000Y-111550000D02*
X90960000Y-109966000D01*
X95510000Y-111550000D02*
X92544000Y-111550000D01*
X92940000Y-88336827D02*
X93532327Y-87744500D01*
X92940000Y-95055000D02*
X92940000Y-88336827D01*
X93062500Y-95177500D02*
X92940000Y-95055000D01*
X95120000Y-111160000D02*
X95520000Y-111560000D01*
X95120000Y-110690000D02*
X95120000Y-111160000D01*
D59*
X105608500Y-96711000D02*
X106107500Y-97210000D01*
X106107500Y-97210000D02*
X107838529Y-97210000D01*
X108651000Y-96397529D02*
X108651000Y-95961000D01*
X107838529Y-97210000D02*
X108651000Y-96397529D01*
D58*
X103421000Y-88469000D02*
X103421000Y-90523500D01*
X103470000Y-88420000D02*
X103421000Y-88469000D01*
X93062500Y-95177500D02*
X94355673Y-95177500D01*
X94355673Y-95177500D02*
X95322173Y-94211000D01*
X95322173Y-94211000D02*
X98733500Y-94211000D01*
X103921000Y-90523500D02*
X103921000Y-90161000D01*
X103921000Y-90161000D02*
X103410000Y-89650000D01*
D60*
%TO.N,/RTS*%
X106610000Y-108330000D02*
X106152715Y-108330000D01*
X106152715Y-108330000D02*
X105181484Y-107358769D01*
X105181484Y-107358769D02*
X105181484Y-106384451D01*
X105181484Y-106384451D02*
X105229484Y-106336451D01*
D58*
%TO.N,VBUS*%
X112370000Y-107920000D02*
X112370000Y-107170000D01*
X112370000Y-107170000D02*
X112380000Y-107160000D01*
D60*
%TO.N,/VIO*%
X108754951Y-102534951D02*
X109611484Y-102534951D01*
X108650000Y-102430000D02*
X108754951Y-102534951D01*
D58*
%TO.N,GND*%
X107501484Y-100130951D02*
X107490951Y-100130951D01*
X107490951Y-100130951D02*
X107001069Y-99641069D01*
X106494484Y-100106951D02*
X106535187Y-100106951D01*
X106535187Y-100106951D02*
X107001069Y-99641069D01*
D60*
%TO.N,/CONNECTED*%
X107229484Y-102461451D02*
X107229484Y-101861951D01*
X107229484Y-101861951D02*
X106494484Y-101126951D01*
X105407484Y-101126951D02*
X106494484Y-101126951D01*
X104830000Y-100670000D02*
X105286951Y-101126951D01*
X105286951Y-101126951D02*
X105407484Y-101126951D01*
X104731484Y-99170000D02*
X104831484Y-99270000D01*
X104831484Y-99270000D02*
X104831484Y-100668516D01*
X104831484Y-100668516D02*
X104830000Y-100670000D01*
D59*
%TO.N,/VIO*%
X109611484Y-103550951D02*
X109611484Y-102534951D01*
D60*
X104261484Y-100106951D02*
X104261484Y-100262479D01*
X103691484Y-101427935D02*
X104110000Y-101846451D01*
X104261484Y-100262479D02*
X103691484Y-100832479D01*
X103691484Y-100832479D02*
X103691484Y-101427935D01*
%TO.N,/B3*%
X84496398Y-106376398D02*
X83870000Y-105750000D01*
X84507087Y-106376398D02*
X84496398Y-106376398D01*
%TO.N,/B1*%
X115944767Y-93171748D02*
X115492913Y-93623602D01*
X115944767Y-92597423D02*
X115944767Y-93171748D01*
X102450000Y-90494500D02*
X102450000Y-88640000D01*
X102421000Y-90523500D02*
X102450000Y-90494500D01*
%TO.N,/B2*%
X115824836Y-108914377D02*
X115966761Y-108772452D01*
X114309434Y-108914377D02*
X115824836Y-108914377D01*
%TO.N,/EN*%
X111410000Y-110760000D02*
X111630000Y-110540000D01*
X110510000Y-110760000D02*
X111410000Y-110760000D01*
D58*
%TO.N,GND*%
X113860000Y-105770000D02*
X114886515Y-105770000D01*
X114886515Y-105770000D02*
X115492913Y-106376398D01*
D60*
%TO.N,/STAT*%
X95038556Y-96811444D02*
X95090000Y-96760000D01*
X95090000Y-96760000D02*
X98684500Y-96760000D01*
X98684500Y-96760000D02*
X98733500Y-96711000D01*
%TO.N,/BOOT*%
X97538560Y-96207076D02*
X98729576Y-96207076D01*
X98729576Y-96207076D02*
X98733500Y-96211000D01*
X95100942Y-116207700D02*
X98653102Y-116207700D01*
X98653102Y-116207700D02*
X99525402Y-117080000D01*
X94660000Y-115766758D02*
X95100942Y-116207700D01*
D58*
%TO.N,GND*%
X84627483Y-108629772D02*
X84912088Y-108914377D01*
X84912088Y-108914377D02*
X85690566Y-108914377D01*
%TO.N,VBUS*%
X114118898Y-97599999D02*
X113345000Y-97599999D01*
X115360000Y-101246455D02*
X115360000Y-98841101D01*
X114458428Y-102148027D02*
X115360000Y-101246455D01*
X114292955Y-102148027D02*
X114458428Y-102148027D01*
X114266500Y-102148027D02*
X114014526Y-102400001D01*
X115360000Y-98841101D02*
X114118898Y-97599999D01*
X114292955Y-102148027D02*
X114266500Y-102148027D01*
X114014526Y-102400001D02*
X113345000Y-102400001D01*
D59*
%TO.N,GND*%
X111030000Y-103060000D02*
X110571484Y-103518516D01*
X110571484Y-103518516D02*
X110571484Y-103550951D01*
X111030000Y-103060000D02*
X111030000Y-102993467D01*
X111030000Y-102993467D02*
X110571484Y-102534951D01*
D60*
%TO.N,/SDA*%
X101477425Y-100409500D02*
X101477425Y-100216491D01*
X101477425Y-100216491D02*
X103481583Y-98212333D01*
X103481583Y-98212333D02*
X104571753Y-98212333D01*
X104571753Y-98212333D02*
X104624984Y-98265564D01*
%TO.N,/ENABLE*%
X103421000Y-97777942D02*
X103421000Y-97398500D01*
X101090472Y-99182467D02*
X102016475Y-99182467D01*
X102016475Y-99182467D02*
X103421000Y-97777942D01*
%TO.N,/PIEZO*%
X100339213Y-99246668D02*
X100421000Y-99164881D01*
X100421000Y-99164881D02*
X100421000Y-97398500D01*
%TO.N,/SDA*%
X93559942Y-97105990D02*
X93778878Y-97105990D01*
X93778878Y-97105990D02*
X97102888Y-100430000D01*
X101456925Y-100430000D02*
X101477425Y-100409500D01*
X97102888Y-100430000D02*
X101456925Y-100430000D01*
%TO.N,/VREGIN*%
X108061484Y-100530951D02*
X107501484Y-101090951D01*
X108061484Y-99650951D02*
X108061484Y-100530951D01*
X105407484Y-100106951D02*
X106423366Y-99091069D01*
X106423366Y-99091069D02*
X107501602Y-99091069D01*
X107501602Y-99091069D02*
X108061484Y-99650951D01*
%TO.N,/STAT*%
X85752321Y-101666000D02*
X86406232Y-101012089D01*
X84968500Y-101666000D02*
X85752321Y-101666000D01*
D58*
%TO.N,GND*%
X88330000Y-102620000D02*
X89080571Y-102620000D01*
X89080571Y-102620000D02*
X89084571Y-102616000D01*
X89084571Y-102616000D02*
X89224000Y-102616000D01*
D60*
%TO.N,/SCL*%
X107631000Y-96569000D02*
X107631000Y-95961000D01*
X107590000Y-96610000D02*
X107631000Y-96569000D01*
%TO.N,/BACKLIGHT*%
X106397000Y-96260500D02*
X106347500Y-96211000D01*
X106347500Y-96211000D02*
X105608500Y-96211000D01*
X102880000Y-100409500D02*
X102918116Y-100371384D01*
X102918116Y-100371384D02*
X102918116Y-99563662D01*
X102918116Y-99563662D02*
X103719445Y-98762333D01*
%TO.N,/SCL*%
X100770000Y-99860000D02*
X100750000Y-99840000D01*
X100750000Y-99840000D02*
X97290000Y-99840000D01*
X97290000Y-99840000D02*
X94239208Y-96789208D01*
%TO.N,/DTR*%
X107950000Y-112640000D02*
X107950000Y-111930000D01*
X107950000Y-111930000D02*
X107830000Y-111810000D01*
%TO.N,/DAC1*%
X97350000Y-91810500D02*
X97449500Y-91711000D01*
X97449500Y-91711000D02*
X98733500Y-91711000D01*
%TO.N,/DAC2*%
X97394581Y-92559599D02*
X97678041Y-92559599D01*
X97678041Y-92559599D02*
X98026640Y-92211000D01*
X98026640Y-92211000D02*
X98733500Y-92211000D01*
%TO.N,/CONNECTED*%
X97846885Y-93057688D02*
X98193573Y-92711000D01*
X97846885Y-93561500D02*
X97846885Y-93057688D01*
X98193573Y-92711000D02*
X98733500Y-92711000D01*
%TO.N,/DTR*%
X107229484Y-106336451D02*
X107229484Y-106690893D01*
X107229484Y-106690893D02*
X107260000Y-106721409D01*
X107260000Y-111240000D02*
X107830000Y-111810000D01*
X107260000Y-106721409D02*
X107260000Y-111240000D01*
X107830000Y-111810000D02*
X108960000Y-111810000D01*
X108960000Y-111810000D02*
X109010000Y-111760000D01*
%TO.N,/DTR_BASE*%
X108300000Y-111260000D02*
X107830000Y-110790000D01*
X109010000Y-111260000D02*
X108300000Y-111260000D01*
D59*
%TO.N,GND*%
X95974598Y-117080000D02*
X96580000Y-117080000D01*
X101326000Y-117094000D02*
X101330000Y-117090000D01*
X100724598Y-117094000D02*
X101326000Y-117094000D01*
X103820000Y-115210000D02*
X104070000Y-115460000D01*
X103820000Y-114850000D02*
X103820000Y-115210000D01*
X99300000Y-115150000D02*
X99440000Y-115290000D01*
X98470000Y-115150000D02*
X99300000Y-115150000D01*
D60*
%TO.N,/BACKLIGHT_GATE*%
X102800000Y-114850000D02*
X102800000Y-113760000D01*
X102800000Y-113760000D02*
X102810000Y-113750000D01*
X98470000Y-114650000D02*
X101910000Y-114650000D01*
X101910000Y-114650000D02*
X102810000Y-113750000D01*
D59*
%TO.N,/PIEZO_DRAIN*%
X98480000Y-114160000D02*
X101340000Y-114160000D01*
X101340000Y-114160000D02*
X101650000Y-113850000D01*
X101650000Y-113850000D02*
X101650000Y-112490000D01*
X98470000Y-114150000D02*
X98480000Y-114160000D01*
D60*
%TO.N,/PIEZO_GATE*%
X99610000Y-113540000D02*
X99210000Y-113140000D01*
X99210000Y-113140000D02*
X96066104Y-113140000D01*
X96066104Y-113140000D02*
X95750000Y-113456104D01*
X95750000Y-113917818D02*
X96482182Y-114650000D01*
X95750000Y-113456104D02*
X95750000Y-113917818D01*
X96482182Y-114650000D02*
X96970000Y-114650000D01*
%TO.N,/PIEZO*%
X99980500Y-108319998D02*
X99980500Y-112890500D01*
X99980500Y-112890500D02*
X100630000Y-113540000D01*
D59*
%TO.N,GND*%
X96760000Y-114150000D02*
X96300000Y-113690000D01*
X96970000Y-114150000D02*
X96760000Y-114150000D01*
%TO.N,/LEDK*%
X97726577Y-115013423D02*
X97590000Y-115150000D01*
X97726577Y-113762582D02*
X97726577Y-115013423D01*
X97590000Y-115150000D02*
X96970000Y-115150000D01*
D60*
%TO.N,/BACKLIGHT*%
X103830000Y-112438509D02*
X103830000Y-113750000D01*
X104626352Y-111642157D02*
X103830000Y-112438509D01*
D58*
%TO.N,/POWER*%
X98400000Y-112490000D02*
X98360000Y-112530000D01*
X88900000Y-107612182D02*
X90260000Y-106252182D01*
X92350000Y-112530000D02*
X88900000Y-109080000D01*
X88900000Y-109080000D02*
X88900000Y-107612182D01*
X98360000Y-112530000D02*
X92350000Y-112530000D01*
X90260000Y-106252182D02*
X90260000Y-105630000D01*
%TO.N,/LEDA*%
X96540000Y-111560000D02*
X96560000Y-111580000D01*
X96560000Y-111580000D02*
X97870000Y-111580000D01*
D60*
%TO.N,/ENABLE*%
X98820734Y-107049266D02*
X96410734Y-107049266D01*
X96410734Y-107049266D02*
X94510000Y-108950000D01*
X94510000Y-108950000D02*
X91980000Y-108950000D01*
D58*
%TO.N,VCC*%
X100630000Y-112490000D02*
X100630000Y-107940000D01*
X100630000Y-107940000D02*
X98320000Y-105630000D01*
X98320000Y-105630000D02*
X93560000Y-105630000D01*
D59*
%TO.N,/32K_XN*%
X95876000Y-92736000D02*
X95876000Y-91944000D01*
X96609000Y-91211000D02*
X98733500Y-91211000D01*
X95876000Y-91944000D02*
X96609000Y-91211000D01*
D60*
%TO.N,/SDA*%
X104624984Y-98265564D02*
X104552254Y-98265564D01*
X107631000Y-92831000D02*
X106543320Y-93918680D01*
X106543320Y-93918680D02*
X106543320Y-94153635D01*
%TO.N,/SCL*%
X105608500Y-95711000D02*
X107381000Y-95711000D01*
X107381000Y-95711000D02*
X107631000Y-95961000D01*
D58*
%TO.N,GND*%
X99352820Y-111734923D02*
X99352820Y-112482820D01*
X99352820Y-112482820D02*
X99360000Y-112490000D01*
%TO.N,/POWER*%
X98619503Y-111580000D02*
X98619503Y-112270497D01*
X98619503Y-112270497D02*
X98400000Y-112490000D01*
D60*
%TO.N,/POWER_GATE*%
X91280000Y-107730000D02*
X91280000Y-108630000D01*
X91280000Y-108630000D02*
X90960000Y-108950000D01*
X91980000Y-109966000D02*
X91976000Y-109966000D01*
X91976000Y-109966000D02*
X90960000Y-108950000D01*
D58*
%TO.N,GND*%
X94780000Y-93690000D02*
X94165000Y-94305000D01*
X94165000Y-94305000D02*
X93940000Y-94305000D01*
D60*
%TO.N,/SCL*%
X86028000Y-95582879D02*
X86753743Y-96308622D01*
X86028000Y-95032000D02*
X86028000Y-95582879D01*
%TO.N,/SDA*%
X84758000Y-95738000D02*
X85260000Y-96240000D01*
X84758000Y-95032000D02*
X84758000Y-95738000D01*
D58*
%TO.N,/POWER*%
X86028000Y-90082000D02*
X86028000Y-90598000D01*
X86028000Y-90598000D02*
X87280000Y-91850000D01*
D59*
X88620000Y-93190000D02*
X88646000Y-93190000D01*
D60*
%TO.N,/DIR*%
X92060000Y-89140000D02*
X92350000Y-88850000D01*
X92350000Y-88850000D02*
X92350000Y-87240000D01*
X87270000Y-93270000D02*
X87270000Y-95004000D01*
X87270000Y-95004000D02*
X87298000Y-95032000D01*
%TO.N,/POWER*%
X91330000Y-87590000D02*
X91610000Y-87870000D01*
X91330000Y-87240000D02*
X91330000Y-87590000D01*
D58*
X86028000Y-88712000D02*
X86060000Y-88680000D01*
X86028000Y-90082000D02*
X86028000Y-88712000D01*
X87298000Y-91884964D02*
X88206518Y-92793482D01*
X88206518Y-92793482D02*
X88603035Y-93190000D01*
X87298000Y-90082000D02*
X87298000Y-91884964D01*
X86028000Y-90082000D02*
X86028000Y-90614965D01*
X88603035Y-93190000D02*
X88646000Y-93190000D01*
%TO.N,GND*%
X83488000Y-91522000D02*
X83480000Y-91530000D01*
X83488000Y-90082000D02*
X83488000Y-91522000D01*
%TO.N,VBUS*%
X111780000Y-97610000D02*
X113334999Y-97610000D01*
X113334999Y-97610000D02*
X113345000Y-97599999D01*
%TO.N,GND*%
X98250000Y-80840000D02*
X96440000Y-80840000D01*
X113345000Y-96254998D02*
X113920000Y-95679998D01*
X108638484Y-100160951D02*
X108891484Y-100160951D01*
X113345000Y-96800000D02*
X113345000Y-96254998D01*
D59*
X109241984Y-105148951D02*
X109291484Y-105198451D01*
D58*
X109581484Y-99990951D02*
X109321484Y-99730951D01*
X109581484Y-100502951D02*
X109581484Y-99990951D01*
X108891484Y-100160951D02*
X109321484Y-99730951D01*
X109581484Y-101518951D02*
X109581484Y-100502951D01*
X93920000Y-88645000D02*
X94815000Y-88645000D01*
X113345000Y-103200000D02*
X113345000Y-103745002D01*
X96440000Y-80840000D02*
X96420000Y-80820000D01*
X110670000Y-107920000D02*
X110670000Y-108700000D01*
X84490000Y-104860000D02*
X83740000Y-104860000D01*
X113345000Y-103745002D02*
X113920000Y-104320002D01*
X110670000Y-108700000D02*
X110680000Y-108710000D01*
X101750000Y-80840000D02*
X103540000Y-80840000D01*
X103540000Y-80840000D02*
X103580000Y-80880000D01*
D59*
X108416984Y-105148951D02*
X109241984Y-105148951D01*
D58*
X94815000Y-88645000D02*
X94860000Y-88600000D01*
%TO.N,VCC*%
X89974000Y-103248000D02*
X89656000Y-103566000D01*
X93560000Y-105630000D02*
X92020000Y-105630000D01*
X92020000Y-105630000D02*
X91800000Y-105410000D01*
X89550000Y-108630000D02*
X89550000Y-107740000D01*
X91800000Y-106930000D02*
X91800000Y-106230000D01*
X89974000Y-102276571D02*
X89974000Y-103248000D01*
X90360000Y-106930000D02*
X91800000Y-106930000D01*
X90326000Y-103566000D02*
X91800000Y-105040000D01*
X91800000Y-105410000D02*
X91800000Y-106230000D01*
X89363429Y-101666000D02*
X89974000Y-102276571D01*
X89224000Y-101666000D02*
X89363429Y-101666000D01*
X91800000Y-105040000D02*
X91800000Y-105410000D01*
X89224000Y-103566000D02*
X90326000Y-103566000D01*
X89656000Y-103566000D02*
X89224000Y-103566000D01*
X89550000Y-107740000D02*
X90360000Y-106930000D01*
D59*
%TO.N,+BATT*%
X92380000Y-107730000D02*
X92390000Y-107720000D01*
X91780000Y-107730000D02*
X92380000Y-107730000D01*
D60*
%TO.N,/DN*%
X114429318Y-99700001D02*
X114751500Y-100022183D01*
X112573500Y-99750000D02*
X113345000Y-99750000D01*
X114751500Y-100022183D02*
X114751500Y-100477819D01*
X113394999Y-99700001D02*
X114429318Y-99700001D01*
X110883484Y-104148951D02*
X111670000Y-103362435D01*
X114751500Y-100477819D02*
X114429318Y-100800001D01*
X112370000Y-105920000D02*
X112370000Y-101001100D01*
X111670000Y-103362435D02*
X111670000Y-100653500D01*
X112621099Y-100750001D02*
X113345000Y-100750001D01*
X113395000Y-100800001D02*
X113345000Y-100750001D01*
X113345000Y-99750000D02*
X113394999Y-99700001D01*
X112370000Y-101001100D02*
X112621099Y-100750001D01*
X114429318Y-100800001D02*
X113395000Y-100800001D01*
X111670000Y-100653500D02*
X112573500Y-99750000D01*
X108416984Y-104148951D02*
X110883484Y-104148951D01*
%TO.N,/DP*%
X112020000Y-100856126D02*
X112626126Y-100250000D01*
X110468951Y-104648951D02*
X110878458Y-104648951D01*
X112020000Y-103507409D02*
X112020000Y-100856126D01*
X110470000Y-105920000D02*
X110470000Y-104650000D01*
X110878458Y-104648951D02*
X112020000Y-103507409D01*
X114380000Y-99050000D02*
X114180001Y-99249999D01*
X108416984Y-104648951D02*
X110468951Y-104648951D01*
X114180001Y-99249999D02*
X113345000Y-99249999D01*
X110470000Y-104650000D02*
X110468951Y-104648951D01*
X112626126Y-100250000D02*
X113345000Y-100250000D01*
X114201500Y-100250001D02*
X113345000Y-100250000D01*
%TO.N,/SDA*%
X105608500Y-94211000D02*
X106485955Y-94211000D01*
X106485955Y-94211000D02*
X106543320Y-94153635D01*
%TO.N,/TXD0*%
X106813000Y-94711000D02*
X107630000Y-93894000D01*
X105608500Y-94711000D02*
X106813000Y-94711000D01*
%TO.N,/RXD0*%
X105608500Y-95211000D02*
X107359000Y-95211000D01*
X107359000Y-95211000D02*
X107630000Y-94940000D01*
D58*
%TO.N,/PIEZO_DRAIN*%
X102260000Y-105630000D02*
X102260000Y-111880000D01*
X102260000Y-111880000D02*
X101650000Y-112490000D01*
D59*
%TO.N,/POWER*%
X90780000Y-106230000D02*
X90780000Y-106150000D01*
X90780000Y-106150000D02*
X90260000Y-105630000D01*
D60*
%TO.N,/BATT_ADC*%
X97112182Y-89710000D02*
X95796682Y-88394500D01*
X95796682Y-88394500D02*
X95580780Y-88394500D01*
X99986942Y-89710000D02*
X97112182Y-89710000D01*
X100421000Y-90523500D02*
X100421000Y-90144058D01*
X100421000Y-90144058D02*
X99986942Y-89710000D01*
D58*
%TO.N,/VREGIN*%
X109680000Y-97610000D02*
X108061484Y-99228516D01*
X107729484Y-101318951D02*
X107729484Y-102461451D01*
X107501484Y-101090951D02*
X107729484Y-101318951D01*
X108061484Y-99228516D02*
X108061484Y-99650951D01*
D59*
X107729484Y-102029951D02*
X108638484Y-101120951D01*
X107729484Y-102461451D02*
X107729484Y-102029951D01*
%TO.N,/VIO*%
X108416984Y-103148951D02*
X108997484Y-103148951D01*
X108416984Y-103648951D02*
X109513484Y-103648951D01*
X108997484Y-103148951D02*
X109611484Y-102534951D01*
X109513484Y-103648951D02*
X109611484Y-103550951D01*
D60*
%TO.N,/CC2*%
X111121484Y-100998951D02*
X111121484Y-100686516D01*
X110601484Y-101518951D02*
X111121484Y-100998951D01*
X114238214Y-101250000D02*
X114337715Y-101349501D01*
X113345000Y-101250000D02*
X114238214Y-101250000D01*
X111121484Y-100686516D02*
X112250000Y-99558000D01*
X112250000Y-99558000D02*
X112250000Y-99250000D01*
%TO.N,/CC1*%
X110601484Y-100502951D02*
X110601484Y-99268516D01*
X111619999Y-98250001D02*
X113345000Y-98250001D01*
X110601484Y-99268516D02*
X111619999Y-98250001D01*
%TO.N,/~RST*%
X106283426Y-101660951D02*
X104795484Y-101660951D01*
X106729484Y-102107009D02*
X106283426Y-101660951D01*
X106729484Y-102461451D02*
X106729484Y-102107009D01*
X104795484Y-101660951D02*
X104261484Y-101126951D01*
%TO.N,/TXD*%
X106691484Y-107198451D02*
X106229484Y-106736451D01*
X109240000Y-94940000D02*
X109380000Y-94800000D01*
X108650000Y-94940000D02*
X109240000Y-94940000D01*
X106229484Y-106736451D02*
X106229484Y-106336451D01*
%TO.N,/RXD*%
X105729484Y-106336451D02*
X105729484Y-107128951D01*
X105729484Y-107128951D02*
X105731484Y-107130951D01*
X109390500Y-93860000D02*
X109356500Y-93894000D01*
X109356500Y-93894000D02*
X108650000Y-93894000D01*
D59*
%TO.N,/32K_XP*%
X95835000Y-90195000D02*
X95876000Y-90236000D01*
X95876000Y-90236000D02*
X99133500Y-90236000D01*
X93920000Y-90195000D02*
X95835000Y-90195000D01*
X99133500Y-90236000D02*
X99421000Y-90523500D01*
%TO.N,/32K_XN*%
X93940000Y-92755000D02*
X95857000Y-92755000D01*
X95857000Y-92755000D02*
X95876000Y-92736000D01*
%TD*%
M02*
