%TF.GenerationSoftware,KiCad,Pcbnew,(6.0.7-1)-1*%
%TF.CreationDate,2022-10-24T14:59:35+01:00*%
%TF.ProjectId,wristpad,77726973-7470-4616-942e-6b696361645f,rev?*%
%TF.SameCoordinates,Original*%
%TF.FileFunction,Soldermask,Top*%
%TF.FilePolarity,Negative*%
%FSLAX46Y46*%
G04 Gerber Fmt 4.6, Leading zero omitted, Abs format (unit mm)*
G04 Created by KiCad (PCBNEW (6.0.7-1)-1) date 2022-10-24 14:59:35*
%MOMM*%
%LPD*%
G01*
G04 APERTURE LIST*
G04 Aperture macros list*
%AMRoundRect*
0 Rectangle with rounded corners*
0 $1 Rounding radius*
0 $2 $3 $4 $5 $6 $7 $8 $9 X,Y pos of 4 corners*
0 Add a 4 corners polygon primitive as box body*
4,1,4,$2,$3,$4,$5,$6,$7,$8,$9,$2,$3,0*
0 Add four circle primitives for the rounded corners*
1,1,$1+$1,$2,$3*
1,1,$1+$1,$4,$5*
1,1,$1+$1,$6,$7*
1,1,$1+$1,$8,$9*
0 Add four rect primitives between the rounded corners*
20,1,$1+$1,$2,$3,$4,$5,0*
20,1,$1+$1,$4,$5,$6,$7,0*
20,1,$1+$1,$6,$7,$8,$9,0*
20,1,$1+$1,$8,$9,$2,$3,0*%
%AMRotRect*
0 Rectangle, with rotation*
0 The origin of the aperture is its center*
0 $1 length*
0 $2 width*
0 $3 Rotation angle, in degrees counterclockwise*
0 Add horizontal line*
21,1,$1,$2,0,0,$3*%
%AMFreePoly0*
4,1,16,0.740277,0.992426,0.757850,0.950000,0.757850,0.300000,0.740275,0.257574,0.697850,0.240000,0.457200,0.240000,0.457201,-0.274320,0.274320,-0.457200,-0.457200,-0.457200,-0.457200,0.288050,-0.462150,0.300000,-0.462150,0.949999,-0.444576,0.992426,-0.402150,1.010000,0.697850,1.010000,0.740277,0.992426,0.740277,0.992426,$1*%
%AMFreePoly1*
4,1,16,0.444576,0.992426,0.462150,0.950000,0.462150,0.300000,0.457200,0.288050,0.457200,-0.457200,-0.274320,-0.457201,-0.457200,-0.274320,-0.457200,0.240000,-0.697850,0.240000,-0.740276,0.257574,-0.757850,0.300000,-0.757850,0.950000,-0.740276,0.992426,-0.697850,1.010000,0.402150,1.010000,0.444576,0.992426,0.444576,0.992426,$1*%
G04 Aperture macros list end*
%ADD10R,1.300000X3.400000*%
%ADD11RoundRect,0.150000X-0.150000X0.825000X-0.150000X-0.825000X0.150000X-0.825000X0.150000X0.825000X0*%
%ADD12RoundRect,0.135000X0.185000X-0.135000X0.185000X0.135000X-0.185000X0.135000X-0.185000X-0.135000X0*%
%ADD13R,0.558800X1.244600*%
%ADD14RoundRect,0.135000X-0.135000X-0.185000X0.135000X-0.185000X0.135000X0.185000X-0.135000X0.185000X0*%
%ADD15R,0.600000X0.450000*%
%ADD16RoundRect,0.135000X0.135000X0.185000X-0.135000X0.185000X-0.135000X-0.185000X0.135000X-0.185000X0*%
%ADD17RoundRect,0.062500X-0.062500X0.375000X-0.062500X-0.375000X0.062500X-0.375000X0.062500X0.375000X0*%
%ADD18RoundRect,0.062500X-0.375000X0.062500X-0.375000X-0.062500X0.375000X-0.062500X0.375000X0.062500X0*%
%ADD19R,5.150000X5.150000*%
%ADD20RoundRect,0.225000X0.250000X-0.225000X0.250000X0.225000X-0.250000X0.225000X-0.250000X-0.225000X0*%
%ADD21R,1.000000X0.700000*%
%ADD22R,0.600000X0.700000*%
%ADD23RoundRect,0.140000X0.170000X-0.140000X0.170000X0.140000X-0.170000X0.140000X-0.170000X-0.140000X0*%
%ADD24RoundRect,0.062500X0.350000X0.062500X-0.350000X0.062500X-0.350000X-0.062500X0.350000X-0.062500X0*%
%ADD25RoundRect,0.062500X0.062500X0.350000X-0.062500X0.350000X-0.062500X-0.350000X0.062500X-0.350000X0*%
%ADD26R,2.600000X2.600000*%
%ADD27RoundRect,0.218750X-0.218750X-0.256250X0.218750X-0.256250X0.218750X0.256250X-0.218750X0.256250X0*%
%ADD28R,1.800000X1.000000*%
%ADD29RoundRect,0.225000X-0.250000X0.225000X-0.250000X-0.225000X0.250000X-0.225000X0.250000X0.225000X0*%
%ADD30RoundRect,0.250000X0.777817X0.000000X0.000000X0.777817X-0.777817X0.000000X0.000000X-0.777817X0*%
%ADD31C,1.600000*%
%ADD32RoundRect,0.135000X-0.185000X0.135000X-0.185000X-0.135000X0.185000X-0.135000X0.185000X0.135000X0*%
%ADD33RoundRect,0.137500X-0.262500X-0.137500X0.262500X-0.137500X0.262500X0.137500X-0.262500X0.137500X0*%
%ADD34RoundRect,0.250000X-0.450000X0.262500X-0.450000X-0.262500X0.450000X-0.262500X0.450000X0.262500X0*%
%ADD35RoundRect,0.140000X-0.140000X-0.170000X0.140000X-0.170000X0.140000X0.170000X-0.140000X0.170000X0*%
%ADD36RotRect,0.711200X1.092200X115.000000*%
%ADD37FreePoly0,115.000000*%
%ADD38FreePoly1,115.000000*%
%ADD39RotRect,1.397000X1.092200X115.000000*%
%ADD40O,2.108200X0.990600*%
%ADD41O,1.803400X0.990600*%
%ADD42R,1.143000X0.584200*%
%ADD43R,1.143000X0.304800*%
%ADD44RoundRect,0.150000X-0.512500X-0.150000X0.512500X-0.150000X0.512500X0.150000X-0.512500X0.150000X0*%
%ADD45RotRect,0.711200X1.092200X245.000000*%
%ADD46FreePoly1,245.000000*%
%ADD47RotRect,1.397000X1.092200X245.000000*%
%ADD48FreePoly0,245.000000*%
%ADD49RotRect,0.711200X1.092200X295.000000*%
%ADD50FreePoly1,295.000000*%
%ADD51FreePoly0,295.000000*%
%ADD52RotRect,1.397000X1.092200X295.000000*%
%ADD53RoundRect,0.140000X0.140000X0.170000X-0.140000X0.170000X-0.140000X-0.170000X0.140000X-0.170000X0*%
%ADD54R,0.700000X0.340000*%
%ADD55R,1.500000X0.600000*%
%ADD56R,0.340000X0.700000*%
G04 APERTURE END LIST*
D10*
%TO.C,BZ1*%
X93560000Y-105630000D03*
X102260000Y-105630000D03*
%TD*%
D11*
%TO.C,IC1*%
X87298000Y-90082000D03*
X86028000Y-90082000D03*
X84758000Y-90082000D03*
X83488000Y-90082000D03*
X83488000Y-95032000D03*
X84758000Y-95032000D03*
X86028000Y-95032000D03*
X87298000Y-95032000D03*
%TD*%
D12*
%TO.C,R21*%
X83050000Y-102150000D03*
X83050000Y-103170000D03*
%TD*%
D13*
%TO.C,SW2*%
X95974598Y-117080000D03*
X99525402Y-117080000D03*
%TD*%
D14*
%TO.C,R20*%
X103820000Y-114850000D03*
X102800000Y-114850000D03*
%TD*%
D12*
%TO.C,R1*%
X88400000Y-99400000D03*
X88400000Y-100420000D03*
%TD*%
D14*
%TO.C,R3*%
X90960000Y-109966000D03*
X91980000Y-109966000D03*
%TD*%
D15*
%TO.C,D3*%
X109680000Y-97610000D03*
X111780000Y-97610000D03*
%TD*%
D16*
%TO.C,R26*%
X92350000Y-87240000D03*
X91330000Y-87240000D03*
%TD*%
D14*
%TO.C,R27*%
X91330000Y-85980000D03*
X92350000Y-85980000D03*
%TD*%
D17*
%TO.C,U3*%
X104921000Y-90523500D03*
X104421000Y-90523500D03*
X103921000Y-90523500D03*
X103421000Y-90523500D03*
X102921000Y-90523500D03*
X102421000Y-90523500D03*
X101921000Y-90523500D03*
X101421000Y-90523500D03*
X100921000Y-90523500D03*
X100421000Y-90523500D03*
X99921000Y-90523500D03*
X99421000Y-90523500D03*
D18*
X98733500Y-91211000D03*
X98733500Y-91711000D03*
X98733500Y-92211000D03*
X98733500Y-92711000D03*
X98733500Y-93211000D03*
X98733500Y-93711000D03*
X98733500Y-94211000D03*
X98733500Y-94711000D03*
X98733500Y-95211000D03*
X98733500Y-95711000D03*
X98733500Y-96211000D03*
X98733500Y-96711000D03*
D17*
X99421000Y-97398500D03*
X99921000Y-97398500D03*
X100421000Y-97398500D03*
X100921000Y-97398500D03*
X101421000Y-97398500D03*
X101921000Y-97398500D03*
X102421000Y-97398500D03*
X102921000Y-97398500D03*
X103421000Y-97398500D03*
X103921000Y-97398500D03*
X104421000Y-97398500D03*
X104921000Y-97398500D03*
D18*
X105608500Y-96711000D03*
X105608500Y-96211000D03*
X105608500Y-95711000D03*
X105608500Y-95211000D03*
X105608500Y-94711000D03*
X105608500Y-94211000D03*
X105608500Y-93711000D03*
X105608500Y-93211000D03*
X105608500Y-92711000D03*
X105608500Y-92211000D03*
X105608500Y-91711000D03*
X105608500Y-91211000D03*
D19*
X102171000Y-93961000D03*
%TD*%
D20*
%TO.C,C14*%
X93940000Y-94305000D03*
X93940000Y-92755000D03*
%TD*%
D21*
%TO.C,D1*%
X110670000Y-107920000D03*
D22*
X112370000Y-107920000D03*
X112370000Y-105920000D03*
X110470000Y-105920000D03*
%TD*%
D13*
%TO.C,SW1*%
X100724598Y-117094000D03*
X104275402Y-117094000D03*
%TD*%
D14*
%TO.C,R16*%
X86820000Y-107070000D03*
X87840000Y-107070000D03*
%TD*%
D16*
%TO.C,R11*%
X110270000Y-109520000D03*
X109250000Y-109520000D03*
%TD*%
%TO.C,R18*%
X107631000Y-92831000D03*
X108651000Y-92831000D03*
%TD*%
D14*
%TO.C,R19*%
X107631000Y-95961000D03*
X108651000Y-95961000D03*
%TD*%
D16*
%TO.C,R25*%
X101650000Y-112490000D03*
X100630000Y-112490000D03*
%TD*%
D15*
%TO.C,D2*%
X89550000Y-108630000D03*
X87450000Y-108630000D03*
%TD*%
D23*
%TO.C,C3*%
X90510000Y-99430000D03*
X90510000Y-100390000D03*
%TD*%
D24*
%TO.C,U2*%
X108416984Y-105648951D03*
X108416984Y-105148951D03*
X108416984Y-104648951D03*
X108416984Y-104148951D03*
X108416984Y-103648951D03*
X108416984Y-103148951D03*
D25*
X107729484Y-102461451D03*
X107229484Y-102461451D03*
X106729484Y-102461451D03*
X106229484Y-102461451D03*
X105729484Y-102461451D03*
X105229484Y-102461451D03*
D24*
X104541984Y-103148951D03*
X104541984Y-103648951D03*
X104541984Y-104148951D03*
X104541984Y-104648951D03*
X104541984Y-105148951D03*
X104541984Y-105648951D03*
D25*
X105229484Y-106336451D03*
X105729484Y-106336451D03*
X106229484Y-106336451D03*
X106729484Y-106336451D03*
X107229484Y-106336451D03*
X107729484Y-106336451D03*
D26*
X106479484Y-104398951D03*
%TD*%
D27*
%TO.C,L1*%
X100162500Y-84840000D03*
X101737500Y-84840000D03*
%TD*%
D28*
%TO.C,Y1*%
X95876000Y-90236000D03*
X95876000Y-92736000D03*
%TD*%
D29*
%TO.C,C13*%
X93920000Y-88645000D03*
X93920000Y-90195000D03*
%TD*%
D16*
%TO.C,R7*%
X110601484Y-100502951D03*
X109581484Y-100502951D03*
%TD*%
D30*
%TO.C,J2*%
X88453199Y-113713199D03*
D31*
X87038985Y-112298985D03*
%TD*%
D16*
%TO.C,R23*%
X90960000Y-108950000D03*
X91980000Y-108950000D03*
%TD*%
D23*
%TO.C,C15*%
X100260000Y-88140000D03*
X100260000Y-89100000D03*
%TD*%
D32*
%TO.C,R10*%
X107830000Y-110790000D03*
X107830000Y-111810000D03*
%TD*%
%TO.C,R22*%
X83050000Y-101090000D03*
X83050000Y-100070000D03*
%TD*%
D29*
%TO.C,C19*%
X103580000Y-84823000D03*
X103580000Y-86373000D03*
%TD*%
D23*
%TO.C,C7*%
X88646000Y-93190000D03*
X88646000Y-92230000D03*
%TD*%
D12*
%TO.C,R13*%
X99220000Y-88100000D03*
X99220000Y-89120000D03*
%TD*%
D33*
%TO.C,U4*%
X91624000Y-101666000D03*
X91624000Y-103566000D03*
X89224000Y-103566000D03*
X89224000Y-102616000D03*
X89224000Y-101666000D03*
%TD*%
D34*
%TO.C,R12*%
X92050000Y-98237500D03*
X92050000Y-100062500D03*
%TD*%
D35*
%TO.C,C11*%
X109280000Y-114050000D03*
X110240000Y-114050000D03*
%TD*%
%TO.C,C9*%
X109611484Y-103550951D03*
X110571484Y-103550951D03*
%TD*%
D32*
%TO.C,R6*%
X104261484Y-100106951D03*
X104261484Y-101126951D03*
%TD*%
D35*
%TO.C,C12*%
X109280000Y-112950000D03*
X110240000Y-112950000D03*
%TD*%
D14*
%TO.C,R2*%
X109581484Y-101518951D03*
X110601484Y-101518951D03*
%TD*%
D36*
%TO.C,SW5*%
X85690566Y-108914377D03*
X84507087Y-106376398D03*
D37*
X84653935Y-109891721D03*
D38*
X83092065Y-106542279D03*
D39*
X85236948Y-107580981D03*
%TD*%
D16*
%TO.C,R24*%
X99610000Y-113540000D03*
X100630000Y-113540000D03*
%TD*%
D23*
%TO.C,C2*%
X89460000Y-99430000D03*
X89460000Y-100390000D03*
%TD*%
D40*
%TO.C,J1*%
X113920000Y-104320002D03*
D41*
X118100000Y-104320002D03*
X118100000Y-95679998D03*
D40*
X113920000Y-95679998D03*
D42*
X113345000Y-103200000D03*
X113345000Y-102400001D03*
D43*
X113345000Y-101250000D03*
X113345000Y-100250000D03*
X113345000Y-99750000D03*
X113345000Y-98750000D03*
D42*
X113345000Y-96800000D03*
X113345000Y-97599999D03*
D43*
X113345000Y-98250001D03*
X113345000Y-99249999D03*
X113345000Y-100750001D03*
X113345000Y-101749999D03*
%TD*%
D44*
%TO.C,U1*%
X87243500Y-101666000D03*
X87243500Y-103566000D03*
X84968500Y-103566000D03*
X84968500Y-102616000D03*
X84968500Y-101666000D03*
%TD*%
D45*
%TO.C,SW4*%
X115492913Y-106376398D03*
X114309434Y-108914377D03*
D46*
X115346065Y-109891721D03*
D47*
X114763052Y-107580981D03*
D48*
X116907935Y-106542279D03*
%TD*%
D49*
%TO.C,SW3*%
X114309434Y-91085623D03*
X115492913Y-93623602D03*
D50*
X116907935Y-93457721D03*
D51*
X115346065Y-90108279D03*
D52*
X114763052Y-92419019D03*
%TD*%
D53*
%TO.C,C1*%
X87726000Y-104902000D03*
X86766000Y-104902000D03*
%TD*%
D16*
%TO.C,R17*%
X103830000Y-113750000D03*
X102810000Y-113750000D03*
%TD*%
D54*
%TO.C,Q3*%
X98470000Y-115150000D03*
X98470000Y-114650000D03*
X98470000Y-114150000D03*
X96970000Y-114150000D03*
X96970000Y-114650000D03*
X96970000Y-115150000D03*
%TD*%
D14*
%TO.C,R8*%
X108650000Y-94940000D03*
X107630000Y-94940000D03*
%TD*%
D23*
%TO.C,C5*%
X108638484Y-101120951D03*
X108638484Y-100160951D03*
%TD*%
D35*
%TO.C,C8*%
X109611484Y-102534951D03*
X110571484Y-102534951D03*
%TD*%
D55*
%TO.C,E1*%
X98250000Y-82440000D03*
X101750000Y-82440000D03*
X101750000Y-80840000D03*
X98250000Y-80840000D03*
%TD*%
D56*
%TO.C,Q2*%
X91780000Y-106230000D03*
X91280000Y-106230000D03*
X90780000Y-106230000D03*
X90780000Y-107730000D03*
X91280000Y-107730000D03*
X91780000Y-107730000D03*
%TD*%
D53*
%TO.C,C10*%
X99360000Y-112490000D03*
X98400000Y-112490000D03*
%TD*%
D14*
%TO.C,R9*%
X108650000Y-93894000D03*
X107630000Y-93894000D03*
%TD*%
D54*
%TO.C,Q1*%
X109010000Y-110760000D03*
X109010000Y-111260000D03*
X109010000Y-111760000D03*
X110510000Y-111760000D03*
X110510000Y-111260000D03*
X110510000Y-110760000D03*
%TD*%
D12*
%TO.C,R4*%
X105407484Y-101126951D03*
X105407484Y-100106951D03*
%TD*%
D23*
%TO.C,C17*%
X106870000Y-89300000D03*
X106870000Y-88340000D03*
%TD*%
D29*
%TO.C,C18*%
X98230000Y-84845000D03*
X98230000Y-86395000D03*
%TD*%
D23*
%TO.C,C16*%
X105840000Y-89320000D03*
X105840000Y-88360000D03*
%TD*%
%TO.C,C6*%
X107501484Y-101090951D03*
X107501484Y-100130951D03*
%TD*%
D14*
%TO.C,R15*%
X96540000Y-111560000D03*
X95520000Y-111560000D03*
%TD*%
D53*
%TO.C,C4*%
X85446000Y-104860000D03*
X84486000Y-104860000D03*
%TD*%
D12*
%TO.C,R5*%
X106494484Y-101126951D03*
X106494484Y-100106951D03*
%TD*%
M02*
